<?xml version="1.0" encoding="utf-8"?>
<!-- Generator: Adobe Illustrator 24.0.2, SVG Export Plug-In . SVG Version: 6.00 Build 0)  -->
<svg version="1.1" id="Layer_1"
	 xmlns="http://www.w3.org/2000/svg" x="0px" y="0px" viewBox="0 0 453.5 453.5"
	 style="enable-background:new 0 0 453.5 453.5;" xml:space="preserve">
<style type="text/css">
	.st0{fill:#2AB183;}
	.st1{fill:#44343B;}
	.st2{fill:#54454E;}
	.st3{fill:#20977C;}
	.st4{fill:#54424B;}
	.st5{fill:#22967B;}
	.st6{fill:#FFCA2D;}
	.st7{fill:#FFA01C;}
	.st8{fill:#FFC82D;}
	.st9{fill:#46373C;}
	.st10{fill:#FF9E1B;}
	.st11{fill:#9C675A;}
	.st12{fill:#FFC82B;}
	.st13{fill:#45353C;}
	.st14{fill:#FFB623;}
	.st15{fill:#27987D;}
	.st16{fill:#44373D;}
	.st17{fill:#56444E;}
	.st18{fill:#FFA01D;}
	.st19{fill:#FFE540;}
	.st20{fill:#24B183;}
	.st21{fill:#FFB823;}
	.st22{fill:#27987C;}
	.st23{fill:#FFE740;}
	.st24{fill:#FF932B;}
	.st25{fill:#42343B;}
	.st26{fill:#22947A;}
	.st27{fill:#FF9E1A;}
	.st28{fill:#52444C;}
	.st29{fill:#40313A;}
	.st30{fill:#FFC72D;}
	.st31{fill:#FF9D1B;}
	.st32{fill:#20B082;}
	.st33{fill:#85706D;}
	.st34{fill:#0D8073;}
	.st35{fill:#157E71;}
	.st36{fill:#846F6C;}
	.st37{fill:#6ECD9F;}
	.st38{fill:#1C967C;}
	.st39{fill:#2AB184;}
	.st40{fill:#0D8075;}
	.st41{fill:#097F73;}
	.st42{fill:#FFA321;}
	.st43{fill:#635056;}
	.st44{fill:#FFA220;}
	.st45{fill:#624E55;}
	.st46{fill:#51424B;}
	.st47{fill:#42323B;}
	.st48{fill:#FF9D1A;}
	.st49{fill:#86716D;}
	.st50{fill:#26B283;}
	.st51{fill:#51424C;}
</style>
<g>
	<g>
		<path class="st0" d="M292.8,406.6c1.6,0,3.2-0.1,4.8-0.1c3,0,6,0,9-0.1c1.1,0,1.9,0.3,2.5,1.1c0.3,0.3,0.6,0.6,0.9,1
			c2.5,3.6,3.8,7.5,3.6,11.9c-0.8,0-1.7,0-2.5,0c-5.7,0.1-11.5,0.2-17.2,0.3c-4.3,0.1-8.6,0.1-12.9,0.1c-3,0-6,0-9.1-0.1
			c-0.1-0.3-0.2-0.6-0.6-0.7c-0.6-0.1-1.3-0.3-1.9-0.4c-2.5-0.6-4.9-1.7-7-3.1c-2-1.2-3.6-3-5-4.8c-1-1.3-1.9-2.7-2.2-4.4
			c0.9-0.1,1.8-0.1,2.8-0.2c0.6,0,1.3,0.1,1.9,0.1c4.3-0.1,8.6-0.2,12.9-0.3C279.5,406.7,286.1,406.7,292.8,406.6z"/>
		<path class="st1" d="M274.1,313.9c0.6,2.8,0.6,5.6,0.5,8.5c-1.4,0.1-2.8-0.3-4.2-0.6c-2.4-0.5-4.7-1.3-6.9-2.4
			c-0.4-0.2-0.9-0.6-1.4-0.2c-0.1,0.1-0.2,0.2-0.2,0.3c0,1.5-0.3,3,0.2,4.4c0.1,0.4,0.1,0.9,0.1,1.3c0,9.3,0,18.7,0,28
			c-1.5,0.1-2.8-0.5-4.1-0.8c-1.1-1.3-1.5-3-1.6-4.6c0-1.1-0.1-2.2-0.1-3.3c0-9,0-18,0-27c0-3.1,0-6.2,0-9.3c0-2,0.5-3.6,1.6-5.2
			c0.1-0.1,0.2-0.2,0.3-0.3l0,0c0.1-0.1,0.2-0.2,0.4-0.3l0,0c0.2-0.2,0.5-0.3,0.7-0.5l0,0c0.3-0.1,0.5-0.3,0.8-0.4h0
			c0.1,0,0.2,0.1,0.4,0.1c0.1,1.4,0.3,2.8,0.4,4.2c0,0.9,0.4,1.5,1.1,1.9c1.3,0.7,2.7,1.5,4,2.2c1.6,0.9,3.3,1.6,5,2.5
			C272.2,312.9,273.1,313.4,274.1,313.9z"/>
		<path class="st0" d="M274.6,361.2c0.1,0.9,0.2,1.8,0.2,2.7c0.1,2.6,0.1,5.1,0.1,7.7c0.1,5.5,0.2,11,0.2,16.6
			c0,1.3-0.1,2.6-0.2,3.8c-2.4-0.1-4.7-0.2-7-0.3c-1.3,0-2.5,0-3.8-0.1c0-3,0-5.9,0-8.9c0-0.6-0.1-1.1-0.1-1.7
			c-0.1-0.8-0.2-1.5-0.2-2.3c-0.2-3.9,0.2-7.8-0.3-11.7c-0.3-2.5-0.1-5-0.1-7.5c0-0.3,0-0.5,0.1-0.8c0.4-0.9,0.3-1.8,0.3-2.7
			c0-0.9,0.1-1.8,0.4-2.6c1.1,0,2.3-0.1,3.4-0.2c0.2,0.6,0.4,1.2,0.7,1.8c0.5,1.4,1.1,2.7,2.1,3.9
			C271.5,360.3,272.8,361.2,274.6,361.2z"/>
		<path class="st2" d="M271.9,420.6c3,0,6,0.1,9.1,0.1c4.3,0,8.6,0,12.9-0.1c5.7-0.1,11.5-0.2,17.2-0.3c0.8,0,1.7,0,2.5,0
			c0.2,1.5-0.2,2.9-0.8,4.3c-0.2,0.4-0.5,0.7-1,0.7c-0.4,0-0.8,0-1.2,0c-19.7,0.3-39.4,0.6-59.1,0.9c-2.2,0-4.4,0.1-6.6,0.1
			c-1.5,0-1.8-0.2-2.2-1.6c-0.4-1.2-0.7-2.3-0.6-3.6c0.8,0,1.6-0.1,2.3-0.1c6.2,0,12.4,0,18.6-0.1c2.9,0,5.8-0.2,8.7-0.3
			C271.8,420.7,271.9,420.6,271.9,420.6z"/>
		<path class="st3" d="M264.2,353.4c-0.3,0.9-0.5,1.7-0.4,2.6c0,0.9,0.1,1.8-0.3,2.7c-0.1,0.2-0.1,0.5-0.1,0.8c0,2.5-0.3,5,0.1,7.5
			c0.5,3.9,0.2,7.8,0.3,11.7c0,0.8,0.2,1.5,0.2,2.3c0,0.6,0.1,1.1,0.1,1.7c0,3,0,5.9,0,8.9c-1.5,0.2-3.1-0.1-4.7,0.5c-1,0-2,0-3,0.1
			c-0.1-1.7-0.2-3.3-0.2-5c-0.2-8.9-0.6-17.9-0.3-26.8c0.1-1.9,0.2-3.7,0.8-5.5c0.3-0.9,0.5-1.7,1.3-2.4c1.4,0.3,2.7,0.9,4.1,0.8
			C262.9,353.3,263.5,353.4,264.2,353.4z"/>
		<path class="st4" d="M264.2,353.4c-0.7,0-1.3-0.1-2-0.1c0-9.3,0-18.7,0-28c0-0.5,0-0.9-0.1-1.3c-0.5-1.5-0.2-2.9-0.2-4.4
			c0-0.1,0.1-0.2,0.2-0.3c0.5-0.4,1,0,1.4,0.2c2.2,1.2,4.5,1.9,6.9,2.4c1.4,0.3,2.7,0.7,4.2,0.6c0,1.6,0.1,3.2,0.1,4.8
			c0,2.6,0,5.2-0.1,7.8c-2.6-0.4-4.3,0.8-5.5,2.9c-0.4,0.7-0.8,1.5-1,2.3c-1.1,3.1-1.3,6.2-1,9.5c0.1,1.2,0.3,2.4,0.5,3.6
			C266.5,353.3,265.3,353.4,264.2,353.4z"/>
		<path class="st5" d="M271.9,420.6c-0.1,0-0.1,0-0.2,0c-2.9,0.1-5.8,0.3-8.7,0.3c-6.2,0.1-12.4,0.1-18.6,0.1c-0.8,0-1.6,0-2.3,0.1
			c-0.6-3.4-0.4-6.8,0.3-10.1c0.2-0.8,0.5-1.6,0.8-2.4c0.3-1,1-1.5,2-1.4c0.8,0,1.5,0,2.3-0.1c0.8,0,1.6,0,2.5,0c1.7,0,3.4,0,5.1,0
			c0.3,1.7,1.1,3.2,2.2,4.4c1.5,1.8,3,3.5,5,4.8c2.2,1.4,4.5,2.4,7,3.1c0.6,0.2,1.3,0.3,1.9,0.4C271.7,420,271.9,420.3,271.9,420.6z
			"/>
		<path class="st4" d="M259.5,392.1c1.5-0.5,3.1-0.3,4.7-0.5c1.3,0,2.5,0,3.8,0.1c2.4,0.1,4.7,0.2,7,0.3c0.7,0.2,1.4,0.3,2,0.5
			c3.1,0.8,5,2.7,5.4,5.9c0.2,1.3,0.3,2.5,0,3.8c-1.9-0.5-3.7-0.9-5.7-1c-5.3-0.2-10.6-0.1-16,0c-0.2,0-0.4,0-0.6,0.1
			c-0.1,0-0.2-0.1-0.4-0.2c0.4-0.1,0.9-0.3,1.3-0.3c1.4,0,2.8,0,4.2,0c0.5,0,1,0.1,1.6-0.1c-0.2-0.2-0.4-0.4-0.5-0.4
			c-1.3-0.6-2.5-1.4-3.7-2.4c-0.7-0.6-1.1-1.4-1.8-2C259.9,395,259.4,393.6,259.5,392.1z"/>
		<path class="st6" d="M275,335.3c1.3,0.4,2.1,1.4,2.9,2.4c1,1.4,1.7,3,2.1,4.7c1,3.7,1.1,7.5,0.4,11.3c-0.3,1.4-0.7,2.8-1.4,4
			c-0.3,0.5-0.8,1-1.2,1.5c-0.2-0.1-0.6-0.1-0.7-0.2c-1-1-2-1.8-2.8-2.9c-1.5-2-2.1-4.3-2.3-6.6c-0.2-2.7-0.3-5.4,0.3-8.1
			c0.4-1.6,0.9-3.2,1.8-4.6C274.4,336.3,274.7,335.8,275,335.3z"/>
		<path class="st7" d="M275,335.3c-0.3,0.5-0.6,1-0.9,1.5c-1,1.4-1.4,3-1.8,4.6c-0.6,2.7-0.4,5.4-0.3,8.1c0.1,2.4,0.8,4.7,2.3,6.6
			c0.8,1.1,1.8,2,2.8,2.9c0.2,0.2,0.5,0.1,0.7,0.2c-0.7,1.2-1.9,1.6-3.1,2c-1.8,0-3.1-0.9-4.3-2.3c-1-1.1-1.6-2.5-2.1-3.9
			c-0.2-0.6-0.4-1.2-0.7-1.8c-0.2-1.2-0.4-2.4-0.5-3.6c-0.4-3.2-0.1-6.4,1-9.5c0.3-0.8,0.6-1.5,1-2.3c1.2-2.1,3-3.3,5.5-2.9
			C274.7,335.1,274.9,335.2,275,335.3z"/>
		<path class="st8" d="M260.3,401.4c0.2,0,0.4-0.1,0.6-0.1c5.3-0.1,10.6-0.2,16,0c2,0.1,3.8,0.4,5.7,1c1.5,1,1.8,2.5,1.8,4.2
			c1,0.3,2,0.1,2.9,0.2c0.9,0,1.8,0,2.7,0c1,0,1.9,0,2.9,0c-6.6,0.1-13.3,0.1-19.9,0.3c-4.3,0.1-8.6,0.2-12.9,0.3
			c-0.6,0-1.3,0-1.9-0.1c0.4-0.4,1-0.3,1.5-0.3c2.2,0,4.4,0,6.5,0c0.3,0,0.6,0,1.1,0c-0.3-0.3-0.4-0.4-0.6-0.5
			c-1.6-0.4-2.9-1.5-4.1-2.4C261.5,403.2,260.5,402.5,260.3,401.4z"/>
		<path class="st9" d="M259.5,392.1c-0.1,1.6,0.4,2.9,1.5,4c0.6,0.6,1,1.4,1.8,2c1.2,0.9,2.4,1.7,3.7,2.4c0.1,0.1,0.3,0.2,0.5,0.4
			c-0.6,0.2-1.1,0.1-1.6,0.1c-1.4,0-2.8,0-4.2,0c-0.4,0-0.9,0.2-1.3,0.3c-1.1,0-2.3,0-3.4,0.2c-2.5,0.3-5.1,0.2-7.4,1.4
			c-0.4-1.6-0.4-3.3-0.1-5c0.4-2.2,1.6-3.8,3.7-4.5c0.9-0.4,2-0.5,3-0.8c0.3-0.1,0.6-0.2,0.9-0.3
			C257.5,392.1,258.5,392.1,259.5,392.1z"/>
		<path class="st4" d="M274.1,313.9c-1-0.5-1.9-1-2.9-1.5c-1.7-0.8-3.3-1.6-5-2.5c-1.4-0.7-2.7-1.5-4-2.2c-0.7-0.4-1.1-1-1.1-1.9
			c-0.1-1.4-0.3-2.8-0.4-4.2c1.3,0,2.6-0.1,3.9-0.1c1.7,0.4,3,1.4,4.3,2.5C271.7,306.7,273.5,310,274.1,313.9z"/>
		<path class="st10" d="M249.1,402.8c2.3-1.2,4.9-1.1,7.4-1.4c1.1-0.1,2.3-0.1,3.4-0.2c0.1,0,0.2,0.1,0.4,0.2
			c0.3,1.2,1.2,1.8,2.1,2.4c1.3,0.9,2.5,2,4.1,2.4c0.1,0,0.3,0.2,0.6,0.5c-0.5,0-0.8,0-1.1,0c-2.2,0-4.4,0-6.5,0
			c-0.5,0-1-0.1-1.5,0.3c-0.9,0.1-1.8,0.1-2.8,0.2c-1.7,0-3.4,0-5.1,0c-0.8,0-1.6,0-2.5,0C247.4,405.5,247.6,403.9,249.1,402.8z"/>
		<path class="st11" d="M264.5,301.6c-1.3,0-2.6,0.1-3.9,0.1c-0.1,0-0.2-0.1-0.4-0.1C261.7,300.9,263.1,300.9,264.5,301.6z"/>
		<path class="st11" d="M259.5,301.9c-0.2,0.2-0.5,0.3-0.7,0.5C259,302.2,259.3,302.1,259.5,301.9z"/>
		<path class="st11" d="M260.3,301.5c-0.3,0.1-0.5,0.3-0.8,0.4C259.7,301.6,260,301.5,260.3,301.5z"/>
		<path class="st11" d="M258.4,302.8c-0.1,0.1-0.2,0.2-0.3,0.3C258.2,303,258.3,302.9,258.4,302.8z"/>
		<path class="st11" d="M258.8,302.4c-0.1,0.1-0.2,0.2-0.4,0.3C258.6,302.6,258.7,302.5,258.8,302.4z"/>
	</g>
	<g>
		<path class="st0" d="M127.5,387.1c0.1-0.2,0.1-0.5,0.2-0.7c1.8-3.2,4.2-5.8,7.3-7.7c0.5-0.3,1-0.5,1.5-0.8
			c1.3-0.6,2.5-0.5,3.8,0.2c5.7,3.1,11.5,6,17.3,9c0.7,0.4,1.5,0.7,2.3,1.1c0.4,0.3,0.9,0.6,1.3,0.8c3,1.5,5.9,3.1,8.9,4.6
			c1.5,0.8,3.1,1.5,4.6,2.3c3,1.6,5.9,3.1,8.9,4.7c0.7,0.4,1.3,0.8,2,1.2c-0.6,0.5-1.2,1-1.8,1.4c-3,2.2-6.5,3.2-10.2,3.6
			c-1.1,0.1-2.2,0.1-3.3-0.1c-1.8-0.3-3.6-0.7-5.4-1c-0.2,0-0.4,0.2-0.6,0.3c-1.2-0.6-2.5-1.1-3.7-1.7c-5-2.5-9.9-5.1-14.9-7.7
			c-5.8-3-11.6-6-17.5-9C128,387.4,127.8,387.3,127.5,387.1z"/>
		<path class="st1" d="M228.5,305c0.7,0.5,1,1.4,1.1,2.2c0.2,1.6,0.2,3.2-0.6,4.7c-5.6,11.3-11.2,22.5-16.9,33.8
			c-0.5,1.1-1.2,2.1-1.8,3.2c-0.6,0.9-1.3,1.8-2.4,2.1c-1.4,0.1-2.9,0.1-4.2-0.7c-0.1-0.9,0.4-1.6,0.8-2.3
			c4.2-8.2,8.3-16.4,12.5-24.6c0.2-0.5,0.6-0.9,0.8-1.3c0.4-0.8,1-1.6,1.1-2.7c-0.4,0-0.7-0.1-1-0.1c-2.9,0.1-5.7-0.3-8.5-1.1
			c-1.1-0.3-2.2-0.6-3.4-0.8c0-0.1,0.1-0.2,0.1-0.4c0.1-0.1,0.1-0.2,0.2-0.3c1-2.2,2.1-4.3,3.6-6.3c0.1-0.1,0.2-0.3,0.3-0.5
			c0.1-0.1,0.1-0.2,0.2-0.3c3.1,0,6.2,0,9.3,0c1.4,0,2.8,0,4.2-0.3c0.8-0.2,1.4-0.5,1.8-1.2c0.5-0.8,1.1-1.6,1.6-2.4
			C227.7,305.3,228,305,228.5,305z"/>
		<path class="st0" d="M174.7,379c0.3-0.6,0.5-1.3,0.8-2c4.2-8.1,8.4-16.2,12.6-24.3c0.2-0.3,0.4-0.6,0.6-1c2,0.8,3.9,0.5,5.7-0.6
			c0.9-0.6,1.8-1.3,2.6-1.9c0.6-0.4,1-1,1.6-1.4c0.9,0.5,1.9,1.1,2.8,1.7c-0.1,1.4-0.6,2.6-1.2,3.8c-1.3,2.7-2.4,5.5-4,8.1
			c-1.8,3-3.4,6.2-5.1,9.3c-1.8,3.5-3.6,6.9-5.4,10.4c-0.4,0.9-0.9,1.7-1.4,2.5c-0.1,0-0.3,0-0.4-0.1
			C180.9,382,177.8,380.5,174.7,379z"/>
		<path class="st2" d="M127.5,387.1c0.3,0.2,0.5,0.4,0.8,0.5c5.8,3,11.6,6,17.5,9c5,2.6,9.9,5.1,14.9,7.7c1.2,0.6,2.4,1.1,3.7,1.7
			c0.3,0.2,0.5,0.4,0.7,0.6c2.6,1.4,5.2,2.7,7.9,4.1c5.6,2.9,11.2,5.8,16.8,8.6c0.4,0.2,0.8,0.5,1.2,0.7c-0.6,1.2-1.4,2.2-2.3,3.1
			c-0.9,0.9-1.1,0.9-2.2,0.4c-0.6-0.3-1.1-0.6-1.7-0.9c-18.9-9.8-37.7-19.6-56.6-29.4c-2.1-1.1-2.2-1.3-1.7-3.6
			C126.6,388.6,126.8,387.8,127.5,387.1z"/>
		<path class="st3" d="M184.4,383.6c0.5-0.8,1-1.6,1.4-2.5c1.8-3.5,3.6-7,5.4-10.4c1.6-3.1,3.3-6.3,5.1-9.3c1.6-2.6,2.7-5.4,4-8.1
			c0.6-1.2,1.1-2.5,1.2-3.8c0.8,0.3,1.5,0.6,2.3,0.9c1.3,0.9,2.7,0.9,4.2,0.7c-0.1,0.4-0.3,0.7-0.2,1.1c0.1,1.6-0.3,3.2-0.9,4.7
			c-0.7,1.7-1.3,3.4-2.1,5c-3.8,7.4-7.6,14.7-11.5,22c-0.7,1.3-1.4,2.6-2,3.9c-0.8-0.5-1.6-1-2.4-1.5c-0.3-0.2-0.5-0.4-0.7-0.6
			C186.8,385,185.6,384.3,184.4,383.6z"/>
		<path class="st4" d="M203.8,350.3c-0.8-0.3-1.5-0.6-2.3-0.9c-0.9-0.5-1.9-1.1-2.8-1.7c0.3-0.5,0.6-1,1-1.4c2.1-2.9,3.7-6,4.4-9.6
			c0.3-1.8,0.4-3.6-0.2-5.3c-0.5-1.5-1.4-2.6-3.1-2.9c0-0.1-0.1-0.2-0.1-0.3c1.5-3,2.9-6,4.4-9c0.3-0.5,0.6-1,0.9-1.5
			c0.1-0.1,0.2-0.3,0.3-0.4l0,0c1.1,0.3,2.2,0.5,3.4,0.8c2.8,0.8,5.6,1.2,8.5,1.1c0.3,0,0.6,0,1,0.1c-0.1,1.1-0.7,1.8-1.1,2.7
			c-0.2,0.5-0.6,0.9-0.8,1.3c-4.2,8.2-8.3,16.4-12.5,24.6C204.2,348.7,203.7,349.4,203.8,350.3z"/>
		<path class="st5" d="M190.9,420c-0.4-0.2-0.8-0.5-1.2-0.7c-5.6-2.9-11.2-5.8-16.8-8.6c-2.6-1.4-5.3-2.7-7.9-4.1
			c-0.3-0.1-0.5-0.4-0.7-0.6c0.2-0.1,0.4-0.3,0.6-0.3c1.8,0.3,3.6,0.7,5.4,1c1.1,0.1,2.2,0.2,3.3,0.1c3.7-0.4,7.2-1.4,10.2-3.6
			c0.6-0.5,1.2-1,1.8-1.4c0.9,0.4,1.7,0.8,2.6,1.2c1.4,0.7,2.7,1.3,4.1,2c0.8,0.4,1.6,0.9,2.4,1.3c0.7,0.4,1.1,0.9,1,1.7
			c-0.1,0.9-0.2,1.8-0.4,2.7C194.3,414,192.9,417.1,190.9,420z"/>
		<path class="st4" d="M184.4,383.6c1.2,0.7,2.4,1.4,3.5,2.1c0.3,0.2,0.5,0.4,0.7,0.6c-1.6,2.3-4.1,3.1-6.6,3.9
			c-1.6,0.5-3.1,0.4-4.7,0.5c-0.5-0.2-1.1-0.4-1.6-0.7c-2.4-1.2-4.9-2.4-7.3-3.5c-1.6-0.8-3.4-1.3-5.2-1.4c0.6-1.1,1-2.3,1.7-3.4
			c1.5-2.4,3.8-3.5,6.7-3.1c1,0.1,2,0.4,3,0.5c3.1,1.5,6.2,3,9.4,4.5C184.2,383.5,184.3,383.5,184.4,383.6z"/>
		<path class="st6" d="M200.6,328.3c0.1,0.1,0.1,0.2,0.1,0.3c-0.5,0.4-0.4,0.9-0.4,1.4c0,1.1,0.1,2.3-0.1,3.4
			c-0.6,3.2-2.1,6-3.6,8.8c-0.9,1.5-2.2,2.7-3.4,3.9c-1.7,1.6-3.8,2.6-6.2,2.6c-0.6-1.4-0.5-2.8-0.3-4.2c0.9-5.5,3.4-10,7.6-13.7
			C196,329.3,198,328.2,200.6,328.3z"/>
		<path class="st7" d="M186.9,348.8c2.4-0.1,4.5-1,6.2-2.6c1.3-1.2,2.6-2.3,3.4-3.9c1.6-2.8,3.1-5.6,3.6-8.8
			c0.2-1.1,0.1-2.3,0.1-3.4c0-0.5-0.1-1,0.4-1.4c1.7,0.3,2.5,1.4,3.1,2.9c0.6,1.8,0.5,3.6,0.2,5.3c-0.7,3.5-2.2,6.7-4.4,9.6
			c-0.3,0.5-0.6,1-1,1.4c-0.5,0.5-1,1-1.6,1.4c-0.9,0.7-1.7,1.4-2.6,1.9c-1.8,1.1-3.7,1.4-5.7,0.6C188,350.9,187,350.1,186.9,348.8z
			"/>
		<path class="st9" d="M177.4,390.6c1.6-0.1,3.2,0,4.7-0.5c2.5-0.7,5-1.6,6.6-3.9c0.8,0.5,1.6,1,2.4,1.5c0.8,0.7,1.7,1.4,2.5,2.1
			c1.9,1.9,2.5,4.1,1.5,6.7c-0.6,1.4-1.1,2.7-2.1,3.8c-0.7-0.7-1.4-1.5-2.2-2.1c-2.2-1.6-4.6-3-7.1-4.1c-0.6-0.4-1.2-0.7-1.8-1
			C180.4,392.2,178.9,391.4,177.4,390.6z"/>
		<path class="st8" d="M177.4,390.6c1.5,0.8,3,1.6,4.5,2.5c0.6,0.3,1.2,0.7,1.8,1c-1.5,1.1-3.3,1.5-5.1,1.5c-0.9,0-1.8,0-2.7,0
			c-0.4,0-0.7,0.2-1.1,0.3c-1.6-0.8-3.1-1.5-4.6-2.3c-3-1.5-5.9-3.1-8.9-4.6c-0.4-0.2-0.9-0.5-1.3-0.8c0.1-0.2,0.1-0.5,0.3-0.7
			c0.6-1.4,1.5-2.3,3.1-2.4c1.8,0.1,3.5,0.6,5.2,1.4c2.4,1.1,4.9,2.3,7.3,3.5C176.3,390.1,176.8,390.3,177.4,390.6z"/>
		<path class="st4" d="M228.5,305c-0.5,0-0.8,0.3-1.1,0.7c-0.5,0.8-1.1,1.6-1.6,2.4c-0.4,0.7-1,1-1.8,1.2c-1.4,0.3-2.8,0.3-4.2,0.3
			c-3.1,0-6.2,0-9.3,0c2.7-4,6.6-6.2,11.4-6.9c2.2-0.3,4.4,0.1,6.2,1.6C228.3,304.6,228.4,304.8,228.5,305z"/>
		<path class="st7" d="M174.8,395.8c0.4-0.1,0.7-0.3,1.1-0.3c0.9,0,1.8,0,2.7,0c1.8,0,3.6-0.4,5.1-1.5c2.5,1.1,4.9,2.5,7.1,4.1
			c0.8,0.6,1.5,1.4,2.2,2.1c0.8,1.7,0.4,3.2-0.7,4.6c-1.4-0.7-2.7-1.3-4.1-2c-0.9-0.4-1.7-0.8-2.6-1.2c-0.7-0.4-1.3-0.8-2-1.2
			C180.7,399,177.8,397.4,174.8,395.8z"/>
		<path class="st4" d="M210.3,310c-0.1,0.1-0.2,0.3-0.3,0.5C210.1,310.3,210.2,310.1,210.3,310z"/>
		<path class="st4" d="M206.4,316.7c-0.1,0.1-0.1,0.2-0.2,0.3C206.3,316.9,206.3,316.8,206.4,316.7z"/>
		<path class="st1" d="M206.1,317.4c-0.1,0.1-0.2,0.3-0.3,0.4C205.9,317.6,206,317.5,206.1,317.4z"/>
	</g>
	<g>
		<path class="st12" d="M97.4,238.2c2.1-3.7,5.2-6.3,8.8-8.3c0.4-0.2,0.8-0.4,1.2-0.6c0.3,0,0.5,0,0.8-0.1c2.5-1,5.2-1.3,7.8-1.1
			c0.3,0,0.5,0,0.8,0c0.3,0,0.6,0,0.9,0.1c0.7,0.3,1.4,0.5,2.2,0.7c2.1,0.8,3.9,1.8,5.3,3.5c-0.1,0.3-0.3,0.6-0.3,0.9
			c-0.1,2-0.1,4-0.3,5.9c-0.3,2.4-1.1,4.6-2.1,6.8c-0.4,0.9-0.9,1.7-1.5,2.4c-2.1,2.4-4.4,4.5-7.4,5.7c-1.5,0.6-2.9,0.9-4.5,1
			c-2,0.2-3.9-0.4-5.8-1.3c-1.9-0.9-3.5-2.2-4.3-4.3c-0.1-0.4-0.4-0.7-0.5-1c-0.3-1-0.6-2-0.7-3c-0.1-0.9-0.3-1.8-0.4-2.6
			c-0.1-0.9,0.2-1.9,0.3-2.8c0-0.4,0-0.9-0.1-1.4C97.8,238.6,97.6,238.4,97.4,238.2z M112.7,232.1c-2.9-0.1-5.1,0.9-6.3,1.8
			c-1.6,1.1-1.8,2.8-1.5,4.5c0.2,1.3,1.4,1.6,2.4,2c0.7,0.3,1.4,0.2,2.1,0.1c1.9-0.4,3.7-1.1,5.7-1.1c0.6,0,1.3-0.3,1.8-0.5
			c2.1-0.9,2.5-2.8,1-4.5C116.2,232.7,114.2,232.3,112.7,232.1z"/>
		<path class="st0" d="M151.5,264.6c0.8-1,2-1.4,3.2-1.6c1.1-0.1,2.3-0.2,3.5-0.2c4,0.1,8.1,0.3,12.1,0.9c1.7,0.3,3.3,0.6,4.8,1.3
			c2.1,0.8,3.8,2.1,5.1,4c1.3,1.9,2,4,1.6,6.4c-0.9,0.1-1.9,0.3-2.8,0.4c-1,0.1-2,0.3-3,0.4c-1.6,0.2-3.3,0.6-4.9,0.6
			c-4,0-7.9,0.4-11.9-0.3c-1.4-0.3-2.9-0.5-4.3-1c-1.1-0.4-2.2-0.9-3.4-1.4c0.2-0.8,0.3-1.5,0.5-2.3
			C152.8,269.5,152.7,267,151.5,264.6z"/>
		<path class="st4" d="M151.5,264.6c1.1,2.4,1.2,4.8,0.4,7.3c-0.8-0.1-1.4,0.3-2,0.6c-1,0.5-2.1,0.8-3.1,0.9
			c-3.5,0.3-6.9-0.1-10.2-1.3c-4.3-1.7-8.4-3.8-12.1-6.7c-0.3-0.2-0.4-0.6-0.7-0.9c0.9-0.6,1.7-1.2,2.4-1.8c2.2-1.9,3.8-4.4,4.8-7.1
			c0.3-1,0.5-2,0.8-2.9c2.8,2.2,5.8,4.3,9,5.9c1.6,0.8,3.1,1.5,4.7,2.3C147.6,261.8,149.8,262.9,151.5,264.6z"/>
		<path class="st13" d="M131.7,252.6c-0.3,1-0.4,2-0.8,2.9c-1,2.8-2.5,5.2-4.8,7.1c-0.7,0.6-1.5,1.1-2.4,1.8
			c0.3,0.3,0.4,0.7,0.7,0.9c3.7,2.8,7.8,5,12.1,6.7c3.3,1.3,6.7,1.6,10.2,1.3c1.1-0.1,2.1-0.4,3.1-0.9c0.6-0.3,1.2-0.7,2-0.6
			c-0.2,0.8-0.3,1.5-0.5,2.3c-0.2,0.4-0.4,0.8-0.6,1.1c-1.7-0.4-3.4-0.4-5.1-0.3c-1.2,0-2.4,0.3-3.5,0.9c-0.9,0.5-1.8,1-1.9,2.2
			c-0.6,0.8-0.1,1.5,0,2.3c-1.9-0.3-3.6-0.9-5.3-1.7c-7.6-3.4-14.3-8.1-20-14.1c-0.2-0.2-0.4-0.5-0.6-0.8c0.3-0.1,0.6-0.3,0.9-0.4
			c6.1-2.2,10.3-6.4,12.8-12.3c0.2-0.4,0.4-0.8,0.6-1.2C129.8,250.8,130.8,251.7,131.7,252.6z"/>
		<path class="st14" d="M97.4,238.2c0.1,0.2,0.4,0.4,0.4,0.6c0.1,0.4,0.1,0.9,0.1,1.4c-0.1,0.9-0.4,1.9-0.3,2.8
			c0.1,0.9,0.3,1.8,0.4,2.6c0.1,1,0.4,2,0.7,3c0.1,0.4,0.4,0.7,0.5,1c0.8,2.1,2.3,3.3,4.3,4.3c1.8,0.9,3.7,1.5,5.8,1.3
			c1.5-0.1,3-0.5,4.5-1c3.1-1.2,5.3-3.3,7.4-5.7c0.6-0.7,1.2-1.6,1.5-2.4c0.9-2.2,1.8-4.4,2.1-6.8c0.2-2,0.3-4,0.3-5.9
			c0-0.3,0.2-0.6,0.3-0.9c0.9,0.7,1.6,1.6,2,2.7c0,2.3,0,4.6,0,6.9c0,0.6,0,1.2-0.1,1.7c-0.3,1.7-0.8,3.4-1.4,5
			c-0.9,2.3-2,4.4-3.8,6.2c-2,2-4.3,3.5-6.9,4.4c-1.9,0.7-4,1.1-6,1.2c-2.5,0.2-4.9-0.4-7.1-1.5c-2.7-1.2-4.8-3.1-6.2-5.8
			c-0.3-0.6-0.7-1.1-1-1.6c-0.2-0.4-0.3-0.8-0.4-1.1c0-1,0-2.1,0.1-3.1C94.5,244.2,95.5,241.1,97.4,238.2z"/>
		<path class="st10" d="M94.7,251.8c0.3,0.5,0.7,1,1,1.6c1.4,2.7,3.5,4.6,6.2,5.8c2.2,1,4.6,1.7,7.1,1.5c2-0.2,4.1-0.5,6-1.2
			c2.6-1,4.9-2.4,6.9-4.4c1.8-1.8,2.9-3.9,3.8-6.2c0.6-1.6,1.1-3.3,1.4-5c0.1-0.6,0.1-1.1,0.1-1.7c0-2.3,0-4.6,0-6.9
			c1.5,1.8,2,4,2.3,6.2c0.4,2.4,0.1,4.9-0.5,7.2c-0.1,0.4-0.2,0.9-0.3,1.3c-0.2,0.4-0.4,0.8-0.6,1.2c-2.5,5.9-6.8,10.1-12.8,12.3
			c-0.3,0.1-0.6,0.3-0.9,0.4c-0.8,0.1-1.6,0.3-2.5,0.4c-5,0.7-9.4-0.5-13.1-4c-0.1-0.1-0.2-0.2-0.3-0.2c-0.9-1.3-1.8-2.6-2.8-3.9
			C95.4,254.7,94.7,253.4,94.7,251.8z"/>
		<path class="st15" d="M150.9,275.3c0.2-0.4,0.4-0.8,0.6-1.1c1.1,0.5,2.2,1,3.4,1.4c1.4,0.5,2.8,0.7,4.3,1c4,0.7,7.9,0.3,11.9,0.3
			c1.6,0,3.3-0.4,4.9-0.6c1-0.1,2-0.3,3-0.4c0.9-0.1,1.9-0.3,2.8-0.4c-0.1,3.5-1.9,5.9-5,7.3c-0.8,0.4-1.7,0.6-2.6,0.7
			c-4.7,0.7-9.4,0.6-14.2,0.2c-0.3,0-0.5-0.1-0.8-0.2c0.7-1.5,0.6-2.8-0.6-3.9c-0.9-1.5-2.5-2.2-4-2.9
			C153.5,276.1,152.1,275.8,150.9,275.3z"/>
		<path class="st16" d="M95.9,256.1c0.9,1.3,1.8,2.6,2.8,3.9c-0.7,0.2-1.5,0.4-2.2,0.5c-3.1,0.5-6.2,0.9-9.4,0.3
			c-3.4-0.6-5.7-2.4-7-5.6c-1.2-3-1.4-6.1-1-9.3c0.1-0.9,0.4-1.9,1.1-2.6c0.3,0.5,0.6,1,0.8,1.5c0.5,1.4,0.9,2.8,1.4,4.2
			c1.3,3.4,3.6,5.8,7.3,6.7c1.1,0.3,2.2,0.5,3.4,0.4C93.9,256,94.9,256.1,95.9,256.1z"/>
		<path class="st17" d="M117.8,228.2c-0.3,0-0.6,0-0.9-0.1c-0.3-0.4-0.8-0.3-1.3-0.3c-1,0-2.1,0-3.1,0c-0.4-0.7-0.7-1.3-1-1.9
			c-1-1.9-2.1-3.7-3.7-5.1c-0.8-0.7-1.8-1.3-2.9-1.4c-1.6-0.2-3.2,0.1-4.6,1.1c-0.6,0.5-1.3,0.8-1.8,1.1c-0.3-0.1-0.4-0.1-0.5-0.2
			c-0.3-0.3-0.6-0.7-0.8-1.1c-0.3-0.4-0.6-0.6-1.1-0.6c0.4-0.5,0.8-1,1.2-1.4c2-1.7,4.2-2.9,6.7-3.7c3.2-1,6-0.2,8,2.5
			c1,1.3,1.9,2.7,2.7,4.2C115.9,223.5,117.1,225.7,117.8,228.2z"/>
		<path class="st16" d="M95.9,219.7c0.5,0,0.8,0.2,1.1,0.6c0.3,0.4,0.5,0.7,0.8,1.1c0.1,0.1,0.2,0.1,0.5,0.2
			c0.6-0.3,1.3-0.7,1.8-1.1c1.4-1,2.9-1.3,4.6-1.1c1.1,0.1,2,0.7,2.9,1.4c1.7,1.4,2.8,3.2,3.7,5.1c0.3,0.6,0.7,1.2,1,1.9
			c1.1,0,2.1,0,3.1,0c0.4,0,0.9-0.1,1.3,0.3c-0.3,0-0.5,0-0.8,0c-2.7-0.2-5.3,0.1-7.8,1.1c-0.2,0.1-0.5,0.1-0.8,0.1
			c-0.6-1.1-1.1-2.2-1.8-3.2c-0.6-0.9-1.2-1-2.1-0.6c-0.5,0.3-1,0.6-1.5,0.9c-0.6,0.3-1.1,0.6-1.7,0.9c-1.5,0.6-2.9,0.3-4.1-0.9
			c-1.8-1.8-2.1-4.1-0.7-6.4C95.7,220,95.8,219.8,95.9,219.7L95.9,219.7z"/>
		<path class="st17" d="M95.9,256.1c-1,0-1.9,0-2.9,0c-1.2,0-2.3-0.1-3.4-0.4c-3.6-0.9-5.9-3.3-7.3-6.7c-0.5-1.4-0.9-2.8-1.4-4.2
			c-0.2-0.5-0.5-1-0.8-1.5c0.6-1,1.6-1.4,2.7-1.6c1.2-0.2,2.3-0.1,3.4,0.4c1.3,0.7,1.8,1.8,2,3.1c0.1,0.9,0.1,1.9,0.1,2.9
			c-0.1,2.4,0.4,2.7,2.8,2.8c1.1,0.1,2.2-0.2,3.3-0.3c0.2,0.4,0.3,0.8,0.4,1.1C94.7,253.4,95.4,254.7,95.9,256.1z"/>
		<path class="st18" d="M158.7,279.6c1.2,1.1,1.3,2.5,0.6,3.9c-1.6,1.7-3.6,2.2-5.8,2.3c-3.6,0.1-7-0.7-10.2-2.5
			c-1.3-0.7-2.3-1.7-3-2.9c-0.2-0.8-0.6-1.5,0-2.3c0.6,0.3,1.2,0.5,1.7,0.8c0.9,0.4,1.8,0.9,2.7,1.3c2.3,1,4.8,1.1,7.3,1.1
			c1.7,0,3.3-0.3,4.8-1.1C157.4,279.9,158.1,279.8,158.7,279.6z"/>
		<path class="st17" d="M95.9,219.7c-0.1,0.1-0.2,0.3-0.3,0.4C95.7,220,95.8,219.8,95.9,219.7z"/>
		<path class="st19" d="M112.7,232.1c1.4,0.1,3.5,0.5,5,2.2c1.6,1.7,1.2,3.6-1,4.5c-0.6,0.3-1.2,0.6-1.8,0.5c-2,0-3.8,0.6-5.7,1.1
			c-0.7,0.2-1.4,0.3-2.1-0.1c-1-0.5-2.2-0.7-2.4-2c-0.2-1.7-0.1-3.4,1.5-4.5C107.7,233,109.9,232,112.7,232.1z"/>
		<path class="st12" d="M158.7,279.6c-0.6,0.2-1.2,0.3-1.8,0.6c-1.5,0.8-3.1,1-4.8,1.1c-2.5,0-5-0.1-7.3-1.1
			c-0.9-0.4-1.8-0.9-2.7-1.3c-0.6-0.3-1.2-0.5-1.7-0.8c0.2-1.2,1-1.7,1.9-2.2c1.1-0.5,2.3-0.8,3.5-0.9c1.7-0.1,3.4,0,5.1,0.3
			c1.3,0.4,2.6,0.8,3.8,1.3C156.2,277.3,157.7,278.1,158.7,279.6z"/>
	</g>
	<g>
		<path class="st12" d="M338.2,335.4c-0.5-0.5-0.9-1-1.4-1.6c-1.4-1.7-2.6-3.6-3-5.8c0.2-0.2,0.5-0.4,0.7-0.6c0.5-0.8,1-1.7,1.5-2.5
			c1.6-2.8,3.8-5.2,6.5-7c3-2,6.3-3.1,10-3.1c2.1,0,4.1,0.5,6,1.3c1.1,0.5,2.2,1,3.1,1.9c1.7,1.6,3,3.5,3.4,5.9
			c0.3,1.3,0.3,2.5,0,3.8c-0.7,2.8-1.8,5.3-3.6,7.6c-0.4,0.5-0.7,1.1-0.7,1.8c-1.7,1.2-3.7,1.7-5.7,2.2c-1.8,0.4-3.6,0.5-5.4,0.5
			c-0.6,0-1.3,0-1.9,0c-1.7-0.5-3.5-1-5.2-1.5C341,337.2,339.6,336.3,338.2,335.4z M350,336.2c0.9,0.2,2-0.3,3-0.9
			c1.7-1,1.9-3.4,0.6-4.8c-0.8-0.9-1.8-1.4-3-1.7c-1.4-0.4-2.9-0.8-4.1-1.5c-1.1-0.6-2.2-0.5-3.4-0.4c-0.9,0.1-1.6,0.8-1.8,1.6
			c-0.2,1-0.2,2.1,0.4,3.2c0.8,1.3,1.8,2.3,3.1,3C346.3,335.6,347.9,336.1,350,336.2z"/>
		<path class="st20" d="M327.2,287.3c-2,0.3-3.8-0.2-5.5-1.2c-4.1-2.4-8-4.9-11.7-7.9c-1.6-1.3-3-2.6-4-4.4
			c-1.9-3.1-2.1-6.3-0.8-9.6c0.2-0.6,0.7-1.1,1-1.6c0.3,0,0.5,0.1,0.8,0.1c2.3,0.9,4.6,1.9,6.9,2.8c4.1,1.7,8.1,3.8,11.7,6.5
			c1.9,1.5,3.8,3,5.2,5.1c0.4,0.5,0.8,0.9,1.3,1.4c-0.7,0.8-1.3,1.5-2,2.3C328.2,282.6,327,284.7,327.2,287.3z"/>
		<path class="st17" d="M327.2,287.3c-0.2-2.7,0.9-4.7,2.8-6.5c1.5,0,3.1,0,4.6,0.5c2,0.8,3.8,1.8,5.5,3.1c2.6,2,4.5,4.5,6.4,7.1
			c1.9,2.6,3.1,5.6,4.5,8.5c0.1,0.2,0,0.4,0.1,0.6c-0.3,0.1-0.5,0.1-0.7,0.2c-1.5,0.3-3.1,0.5-4.5,1c-2,0.8-4,1.8-5.6,3.3
			c-0.8,0.7-1.8,1.4-1.8,2.6c-0.3-0.7-0.6-1.4-0.9-2.1c-1.3-3.3-3-6.4-5-9.3c-1.1-1.6-2.2-3.2-3.3-4.8
			C328.3,290.3,327.6,288.9,327.2,287.3z"/>
		<path class="st13" d="M338.4,307.8c0.1-1.2,1-1.9,1.8-2.6c1.7-1.5,3.6-2.5,5.6-3.3c1.4-0.5,3-0.7,4.5-1c0.2,0,0.5-0.1,0.7-0.2
			c0-0.3,0-0.5-0.1-0.6c-1.4-2.9-2.7-5.8-4.5-8.5c-1.9-2.6-3.8-5.1-6.4-7.1c-1.7-1.3-3.5-2.4-5.5-3.1c-1.5-0.6-3-0.6-4.6-0.5
			c0.7-0.8,1.3-1.5,2-2.3c0.2-0.1,0.5-0.3,0.7-0.5c0.5,0.4,1,0.7,1.5,1.1c1.6,1.2,3.3,2.2,5.2,2.6c1.2,0.3,2.5,0.5,3.6-0.5
			c0.6-0.2,0.8-0.7,1.1-1.2c0.2-0.3,0.3-0.7,0.5-1c1.7,1.3,3,3,4.2,4.7c3.7,5.3,6.5,11,8.5,17.2c0.5,1.7,0.9,3.5,1.3,5.2
			c-0.3,0-0.6,0-1,0c-6.2-1.1-11.9,0.3-17,4c-0.5,0.3-0.9,0.7-1.4,1C339.1,310.1,338.7,309,338.4,307.8z"/>
		<path class="st21" d="M360.6,337c0-0.7,0.3-1.2,0.7-1.8c1.8-2.3,2.9-4.8,3.6-7.6c0.3-1.3,0.3-2.5,0-3.8c-0.5-2.4-1.7-4.3-3.4-5.9
			c-0.9-0.9-2-1.4-3.1-1.9c-1.9-0.8-3.9-1.3-6-1.3c-3.7,0-7,1-10,3.1c-2.7,1.8-4.8,4.2-6.5,7c-0.5,0.8-1,1.7-1.5,2.5
			c-0.2,0.3-0.5,0.4-0.7,0.6c-0.5-1.3-0.7-2.5-0.5-3.9c0.5-0.1,0.6-0.6,0.9-1c0.5-1,1.1-2,1.6-3.1c1.1-2,2.7-3.5,4.3-5.1
			c1-1,2.1-2,3.4-2.8c4.4-2.9,9.1-3.3,14-2.1c2.5,0.6,4.7,1.7,6.8,3.2c0.8,0.5,1.5,1.2,2.1,1.9c1.3,1.6,2.3,3.4,2.9,5.4
			c0.3,1,0.6,2.1,0.5,3.2c-0.1,0.8,0,1.5,0,2.3c-0.5,0.5-0.4,1-0.2,1.6v0.1c-1.6,3.3-3.8,6-6.9,8.1
			C362.1,336.3,361.3,336.6,360.6,337z"/>
		<path class="st18" d="M369.8,326.1c0-0.8,0-1.5,0-2.3c0.1-1.1-0.2-2.2-0.5-3.2c-0.6-2-1.6-3.8-2.9-5.4c-0.6-0.7-1.4-1.4-2.1-1.9
			c-2.1-1.5-4.3-2.6-6.8-3.2c-4.9-1.2-9.6-0.8-14,2.1c-1.2,0.8-2.3,1.8-3.4,2.8c-1.6,1.6-3.2,3.1-4.3,5.1c-0.6,1-1.1,2-1.6,3.1
			c-0.2,0.4-0.3,0.9-0.9,1c-0.2-1.8,0.2-3.4,0.8-5c1-3.1,2.9-5.6,5.3-7.8c0.5-0.3,0.9-0.7,1.4-1c5.1-3.7,10.8-5.1,17-4
			c0.3,0.1,0.6,0,1,0c1.3,0.5,2.7,0.9,3.9,1.6c3.6,1.8,6.1,4.6,7.5,8.4c0.2,0.4,0.3,0.8,0.5,1.3c0.1,1.7,0.2,3.4,0.3,5.1
			c-0.3,1.1-0.6,2.3-0.9,3.5C370,326,369.9,326,369.8,326.1z"/>
		<path class="st22" d="M332.8,278.1c-0.2,0.1-0.5,0.3-0.7,0.5c-0.4-0.5-0.9-0.9-1.3-1.4c-1.4-2.1-3.3-3.6-5.2-5.1
			c-3.6-2.7-7.6-4.8-11.7-6.5c-2.3-1-4.6-1.9-6.9-2.8c-0.2-0.1-0.5-0.1-0.8-0.1c2.1-3.5,5.9-4.4,8.8-3.6c1.2,0.3,2.5,0.8,3.6,1.3
			c3.9,1.8,7.6,4,11.1,6.5c-0.2,0.2-0.4,0.5-0.6,0.7c-0.4,0.4-0.7,0.8-0.7,1.3c-0.5,0.7-0.3,1.5-0.1,2.2c0.4,1.5,1,2.8,1.9,4
			C331,276.1,331.9,277.1,332.8,278.1z"/>
		<path class="st17" d="M338.2,335.4c1.4,0.9,2.8,1.8,4.2,2.7c0.3,0.5,0.3,0.9,0.2,1.5c-0.6,2.8-0.2,5.6,1,8.2c0.9,2,2.5,2.8,4.5,3
			c0.9,0.1,1.8,0,2.7,0c0.4,0,0.7,0.1,1.2,0.2c0,0.8,0,1.5,0.1,2.1c0,0.4,0.2,0.6,0.5,0.7c-0.7,0.2-1.3,0.5-2,0.6
			c-2.7,0.4-5.4,0.4-8-0.5c-2.8-0.9-4.4-2.8-4.9-5.6c-0.5-2.9-0.4-5.9-0.2-8.8C337.6,338.2,338,336.8,338.2,335.4z"/>
		<path class="st13" d="M371,322.6c-0.1-1.7-0.2-3.4-0.3-5.1c3.2,0.9,6.3,2.3,9,4.1c1,0.7,1.9,1.5,2.7,2.4c1.4,1.5,2.1,3.4,2,5.5
			c-0.2,3.8-1.5,7.2-4.1,10.1l0,0c-0.1,0.1-0.3,0.3-0.4,0.4l0,0c-0.1,0.1-0.3,0.3-0.4,0.4l0,0c-0.1,0.1-0.3,0.2-0.5,0.3
			c-0.1,0-0.2,0-0.4,0c-0.6-0.4-0.5-1-0.4-1.6c0.3-1.3,0.5-2.6,0.8-3.9c0.7-2.8-0.1-5.2-1.3-7.6c-0.1-0.2-0.2-0.4-0.3-0.5
			C375.9,325.1,373.8,323.4,371,322.6z"/>
		<path class="st17" d="M371,322.6c2.8,0.8,4.9,2.5,6.7,4.6c0.1,0.1,0.2,0.3,0.3,0.5c1.1,2.4,1.9,4.8,1.3,7.6
			c-0.3,1.3-0.5,2.6-0.8,3.9c-0.1,0.5-0.3,1.2,0.4,1.6c0,0.1,0,0.2-0.1,0.3l-0.1,0.1l-0.1,0c-0.1,0.1-0.3,0.1-0.4,0.2
			c-2.2,0.7-3.9-0.2-5.3-1.7c-0.8-0.8-1.1-1.9-0.8-3c0.3-0.9,0.7-1.8,1.1-2.7c0.3-0.6,0.7-1.2,1-1.8c0.5-1,0.4-1.5-0.5-2.2
			c-0.5-0.4-1-0.8-1.6-1c-0.8-0.4-1.6-0.8-2.4-1.1v-0.1c0.2-0.5,0.4-1.1,0.5-1.6C370.4,324.9,370.7,323.8,371,322.6z"/>
		<path class="st13" d="M352.6,353.9c-0.3-0.1-0.5-0.3-0.5-0.7c0-0.7,0-1.4-0.1-2.1c-0.5-0.1-0.8-0.2-1.2-0.2c-0.9,0-1.8,0.1-2.7,0
			c-2-0.2-3.7-1-4.5-3c-1.1-2.6-1.5-5.4-1-8.2c0.1-0.6,0-1-0.2-1.5c1.7,0.5,3.5,1,5.2,1.5c0,1-0.1,1.9-0.1,2.9c0,0.5,0.1,1,0.3,1.5
			c0.1,0.4,0.4,0.7,0.8,0.7c0.6,0.1,1.3,0.1,1.9,0.1c0.8,0,1.7,0,2.5,0.2c1.7,0.2,2.6,1.3,3,2.9c0.6,2.4-0.3,4.3-2.5,5.7
			c-0.2,0.1-0.4,0.2-0.6,0.3l-0.1,0.1L352.6,353.9z"/>
		<path class="st18" d="M328.4,268.9c0-0.6,0.3-1,0.7-1.3c0.2-0.2,0.4-0.5,0.6-0.7c1.7-0.6,3.3-0.4,4.9,0.3c3.9,1.7,6.9,4.4,9,8
			c0.7,1.3,1,2.6,1.1,4c-0.1,0.3-0.3,0.7-0.5,1c-0.2,0.5-0.5,1-1.1,1.2c-0.8-2.6-2.3-4.7-4.3-6.5c-0.8-0.7-1.6-1.2-2.5-1.8
			c-2.2-1.4-4.5-2.5-7.2-2.4c-0.2,0-0.4-0.1-0.6-0.2C328.5,270,328.5,269.4,328.4,268.9z"/>
		<path class="st16" d="M378.7,341c0-0.1,0-0.2,0.1-0.3c0.1,0,0.2,0,0.4,0C379,340.8,378.9,341,378.7,341z"/>
		<path class="st16" d="M378.1,341.3c0.1-0.1,0.3-0.1,0.4-0.2C378.4,341.2,378.2,341.3,378.1,341.3z"/>
		<path class="st17" d="M352.8,353.8c0.2-0.1,0.4-0.2,0.6-0.3C353.2,353.6,353,353.7,352.8,353.8z"/>
		<path class="st16" d="M380.3,339.7L380.3,339.7L380.3,339.7z"/>
		<path class="st16" d="M380,340.1L380,340.1L380,340.1z"/>
		<path class="st16" d="M379.6,340.4L379.6,340.4C379.6,340.4,379.6,340.4,379.6,340.4z"/>
		<path class="st23" d="M350,336.2c-2.1,0-3.7-0.6-5.2-1.5c-1.3-0.8-2.4-1.7-3.1-3c-0.6-1-0.6-2.1-0.4-3.2c0.2-0.8,0.8-1.5,1.8-1.6
			c1.1-0.1,2.3-0.2,3.4,0.4c1.3,0.7,2.7,1.1,4.1,1.5c1.1,0.3,2.1,0.8,3,1.7c1.4,1.4,1.1,3.8-0.6,4.8
			C352,335.9,350.9,336.3,350,336.2z"/>
		<path class="st12" d="M328.4,268.9c0.1,0.6,0.1,1.1,0.2,1.7c0.3,0.1,0.5,0.2,0.6,0.2c2.7-0.1,5,1,7.2,2.4c0.9,0.5,1.7,1.1,2.5,1.8
			c2,1.8,3.5,3.9,4.3,6.5c-1.1,0.9-2.4,0.7-3.6,0.5c-2-0.5-3.6-1.5-5.2-2.6c-0.5-0.4-1-0.7-1.5-1.1c-0.9-1-1.8-2-2.6-3.1
			c-0.9-1.2-1.6-2.5-1.9-4C328.1,270.3,327.9,269.6,328.4,268.9z"/>
		<path class="st24" d="M370.1,326.1c-0.2,0.5-0.4,1.1-0.5,1.6c-0.2-0.6-0.3-1.1,0.2-1.6C369.9,326,370,326,370.1,326.1z"/>
	</g>
	<g>
		<path class="st4" d="M316.4,252.8c0.5,2,0.4,4.1,0.3,6.2c-0.5,6.1-2.2,11.9-4.7,17.4c-4,8.9-9.5,17-16.5,23.9
			c-1.7,1.7-3.7,3.2-5.5,4.8c-0.8,0.1-1.5,0.2-2.3,0.2c-8.5,0-17-0.1-25.5-0.2c-5.9,0-11.8,0-17.8,0c-0.5,0-1,0-1.5-0.1
			c-0.3-0.1-0.5-0.3-0.8-0.4c-1.6-0.3-3.3-0.6-4.9-1c-3.8-0.9-7.4-2-11-3.3c-2.9-1-5.6-2.4-8.3-4c-2.4-1.4-4.6-3-6.8-4.7
			c-0.9-0.6-1.7-1.4-2.2-2.4c0-0.7,0.1-1.4,0.1-2.2c0.3-0.7,0.4-1.3,0.2-2c0.1-1.8-0.1-3.6-0.4-5.4c-0.2-1.1-0.2-2.2-0.9-3.1
			c-0.1-0.5,0.1-1.1-0.4-1.5c-0.4-2.9-1.6-5.4-3.1-7.8c-0.4-0.8-0.8-1.5-1.1-2.3c-1.3-2.1-2.7-4.3-4.6-5.9c-0.3-0.7-0.8-1.3-1.6-1.4
			c-0.3-0.3-0.6-0.7-0.9-1c-2.1-1.6-4.5-2.7-7.3-2.7c0.1-0.3,0.2-0.6,0.3-1c2.5,0,4.9,0,7.4,0c0.2,0,0.4,0,0.6,0.1
			c0.9,0.4,1.8,0.3,2.7,0.3c11.8,0,23.7,0,35.5,0c0.8,0,1.7,0.1,2.5,0.1c-0.6,0.2-1.1,0.4-1.7,0.6c-0.4,0.1-0.9,0.1-1.3,0.3
			c-11.3,3.7-18,15-15.9,26.4c1.6,9,6.9,15.2,15.5,18.2c8.7,3,16.6,1.2,23.6-4.8c0.4-0.4,0.7-0.9,1.1-1.3l0,0
			c0.1-0.1,0.3-0.3,0.4-0.4l0,0c0.2-0.2,0.4-0.3,0.6-0.5c0.3-0.4,0.7-0.7,1-1.1c3.8-5.2,5.4-11,4.4-17.3
			c-1.5-9.4-6.8-15.9-15.9-19.1c-1-0.4-2.1-0.6-3.1-0.9c0.8,0,1.5-0.1,2.3-0.1c4.5,0,9,0,13.5,0c0.6,0,1.2,0.1,1.7-0.1
			c1.1-0.4,2.2-0.3,3.3-0.3c11.9,0,23.8,0,35.7,0c0.6,0,1.3,0.1,1.9-0.1c1.3-0.4,2.7-0.3,4-0.3C311.3,252.8,313.8,252.8,316.4,252.8
			z M273,287.2c0,1,0.1,2.1,0.6,3c0.1,1.3,0.8,2.4,1.5,3.4c2.2,2.8,5.1,3.4,8.2,2.3c1-0.4,1.9-1,2.9-1.5c0.5-0.2,0.9-0.6,1.2-1.1
			c0.4-0.2,0.8-0.4,1.1-0.6c1.9-1.7,3.5-3.7,4.9-5.8c0.1-0.1,0.1-0.4,0.1-0.5c0.7-0.3,0.9-1,1.1-1.6c0.7-1.4,1.5-2.8,2.2-4.3
			c0.5-1.1,0.9-2.3,1.3-3.4c0.4-0.6,0.5-1.2,0.5-1.9c1.1-2.9,1.6-5.9,1.4-9c0-0.6,0-1.3,0-2c0.2-1.8-0.3-3.6-1-5.3
			c-0.4-1-0.8-1.9-1.7-2.5c-0.9-1.3-2.3-2.1-3.8-2.3c-3.5-0.4-6.4,0.9-8.7,3.5c-0.8,0.1-1.2,0.7-1.6,1.4c-0.3,0.2-0.6,0.3-0.8,0.6
			c-1.4,1.8-2.7,3.6-4.1,5.4c-0.1,0.1,0,0.3,0,0.4c-0.4,0.6-0.8,1.3-1.2,2c-0.9,2-1.7,3.9-2.5,5.9c-0.2,0.6-0.3,1.2-0.4,1.8
			c-0.2,0.5-0.4,1-0.6,1.6c-0.7,2.8-1.3,5.5-1.1,8.4C272.8,285.9,272.6,286.5,273,287.2z M311.8,262.6c-0.2-1.3-0.4-2.9-0.9-4.3
			c-0.2-0.5-0.5-1.1-0.8-1.5c-0.7-1.1-1.8-1.5-3-1.2c-1,0.2-1.6,1-1.9,2c-0.1,0.7-0.3,1.4-0.3,2.1c0,2-0.2,3.8-0.8,5.7
			c-0.6,2.2-1.3,4.4-2,6.6c-0.3,0.9-0.4,1.8-0.4,2.7c0,0.5,0.2,1,0.6,1.4c1.3,1.4,2.3,1.5,3.9,0.3c0.8-0.6,1.5-1.4,2.1-2.2
			C310.7,270.7,311.5,266.8,311.8,262.6z M300.9,284.1c1.7,0,3.3-1.5,3.2-3.2c-0.1-1.1-1-2.2-2.1-2.5c-1.1-0.3-1.9,0.2-2.5,0.9
			c-1,1.1-0.8,2.4-0.3,3.6C299.5,283.7,300,284.1,300.9,284.1z"/>
		<path class="st25" d="M237.7,253.6c-0.8,0-1.7-0.1-2.5-0.1c-11.8,0-23.7,0-35.5,0c-0.9,0-1.8,0.1-2.7-0.3
			c-0.2-0.1-0.4-0.1-0.6-0.1c-2.4,0-4.9,0-7.4,0c-0.1,0.4-0.2,0.7-0.3,1c-1.7,0.3-3.3,0.9-4.3,2.4c-0.9,0.7-1.4,1.8-1.8,2.9
			c-0.6,1.6-1,3.3-0.9,5c-0.4,0.8-0.3,1.6-0.1,2.4c0,0.6,0.1,1.3,0.1,1.9c0.2,2.2,0.6,4.4,1.3,6.6c0.2,0.5,0.2,1.2,0.7,1.6
			c0,0.3,0,0.6,0.1,0.9c0.9,2.5,1.9,5,3.4,7.2c0.3,0.6,0.5,1.2,1.1,1.6c0.1,0.2,0.1,0.4,0.2,0.5c1.5,2.2,3.1,4.4,5.3,6
			c0.7,0.5,1.3,1,2,1.5c1.2,1,2.7,1.5,4.2,1.8c1.7,0.4,3.4,0.1,4.9-0.9c1.8-1.2,3-2.9,3.4-5.1c0.2-0.3,0.4-0.7,0.6-1
			c0.5,1,1.4,1.7,2.2,2.4c2.2,1.6,4.4,3.3,6.8,4.7c2.7,1.5,5.4,2.9,8.3,4c3.6,1.3,7.3,2.4,11,3.3c1.6,0.4,3.3,0.6,4.9,1
			c0.3,0.1,0.6,0.3,0.8,0.4c-0.7,0-1.4,0.1-2.1,0.1c-4.2,0-8.4,0-12.6,0c-1.8,0-3.6,0-5.4,0c-0.4,0-0.8-0.1-1.1-0.1
			c-5.1,0-10.2,0-15.3,0c-5,0-9.9,0-14.9,0c-7.1-5.5-12.7-12.3-17.4-20c-3.2-5.4-5.9-11-7.6-17c-1.1-3.7-1.7-7.5-1.7-11.4
			c0-2.9,0.5-5.6,1.1-8.4c0.8-0.5,1.6-0.3,2.4-0.3c16.6,0,33.2,0,49.8,0c0.8,0,1.5-0.1,2.3-0.1c0.6,0,1.3,0.1,1.9,0.1
			c30.3,0,60.5,0,90.7,0.1c0.5,0,1,0,1.5,0c0.3,0,0.6,0.2,0.9,0.3c0.2,1,0.4,2,0.6,3c0.1,0.6,0.1,1.1,0.1,1.7c-2.6,0-5.1,0-7.7,0
			c-1.3,0-2.7-0.1-4,0.3c-0.6,0.2-1.3,0.1-1.9,0.1c-11.9,0-23.8,0-35.7,0c-1.1,0-2.2-0.1-3.3,0.3c-0.5,0.2-1.1,0.1-1.7,0.1
			c-4.5,0-9,0-13.5,0c-0.8,0-1.5,0.1-2.3,0.1C243.4,253.4,240.6,253.4,237.7,253.6z"/>
		<path class="st0" d="M315.7,248.1c-0.3-0.1-0.6-0.3-0.9-0.3c-0.5-0.1-1,0-1.5,0c-30.3,0-60.5,0-90.7-0.1c-0.6,0-1.3,0-1.9-0.1
			c-0.1-0.3-0.2-0.6-0.6-0.7c-0.3-0.1-0.6,0-1,0c-3.1-0.1-6.2,0.3-9.2-0.4c-0.2,0-0.4,0-0.6,0c-2.7,0.1-5.4-0.3-8-0.8
			c-3.4-0.6-6.8-1.6-9.8-3.4c-1.5-0.9-3.2-1.7-4.2-3.3c0.7,0,1.4-0.1,2.1-0.1c4.4,0,8.9,0.1,13.3,0.1c7.1,0,14.2,0,21.3,0
			c20.9,0,41.9-0.1,62.8-0.1c9.7,0,19.5,0,29.2,0c0.8,0.1,1.3,0.5,1.6,1.2c0.9,2.2,0.9,4.4-0.2,6.6
			C316.9,247.6,316.4,248,315.7,248.1z"/>
		<path class="st6" d="M315.9,239.1c-9.7,0-19.5,0-29.2,0c-20.9,0-41.9,0.1-62.8,0.1c-7.1,0-14.2,0-21.3,0c-4.4,0-8.9-0.1-13.3-0.1
			c-0.7,0-1.4,0.1-2.1,0.1c-0.6,0-1.3-0.1-1.9-0.1c-6.4,0-12.9,0-19.3,0c0.6,0,1.3-0.1,1.9-0.1c10,0,20.1,0,30.1,0
			c0.8,0,1.5-0.1,2.3-0.2c1.9,0,3.9,0,5.8,0c5.1,0,10.1,0,15.2,0c6.4,0.2,18.6,0.1,20.4-0.2c-0.9-0.1-1.6-0.1-2.2-0.2
			c-2.3-0.5-4.5-1-6.7-1.8c-2.6-1.1-5.2-2.3-7.2-4.4c-2-2.1-3-4.4-2.8-7.3c0.1-0.8,0.3-1.5,0.4-2.3c0.7-0.1,1.5-0.3,2.2-0.3
			c1.1-0.1,2.1-0.1,3.2-0.2c0.5,0,1,0.1,1.5,0.1c7.6,0,15.1,0,22.7,0c0.6,0,1.1-0.1,1.7-0.1c1,0,1.9,0.1,2.9,0.1
			c3.7,0.1,7.3,0.2,11,0.8c3.9,0.6,7.5,1.7,10.7,4.1c3,2.2,4.8,5.1,5.6,8.7c0.2,0.9,0.4,1.9,0.6,2.9c0.5,0.1,1,0.2,1.5,0.2
			c3.4,0,6.8,0,10.2,0C303.3,239.1,309.6,239.1,315.9,239.1z"/>
		<path class="st0" d="M222.9,305.1c1.8,0,3.6,0,5.4,0c4.2,0,8.4,0,12.6,0c0.7,0,1.4,0,2.1-0.1c0.5,0,1,0.1,1.5,0.1
			c5.9,0,11.8,0,17.8,0c8.5,0,17,0.1,25.5,0.2c0.8,0,1.5-0.1,2.3-0.2c0.6,1,1,2.1,1.1,3.3c0,0.6,0,1.3-0.1,1.9c-0.3,1.6-0.8,2-2.5,2
			c-12.2,0-24.5,0-36.7-0.1c-18.4,0-36.9,0-55.3-0.1c-0.7,0-1.4-0.1-2.1-0.1c15.7,0,31.4,0,47.1,0c0.4,0,0.8,0,1.2,0
			c0.1,0,0.1,0,0.2-0.1c0,0,0-0.1,0.1-0.1c-1-0.2-2-0.4-3-0.5c-4.1-0.7-8-1.7-11.9-3.1c-1.5-0.5-2.9-1.3-4.4-1.9
			C223.2,305.9,222.9,305.6,222.9,305.1z"/>
		<path class="st0" d="M223.7,200.1c1.3-0.3,2.6-0.7,3.9-1c7.5-1.4,15.1-2,22.7-1.6c4.1,0.2,8.2,1,12.1,2.4c0.6,0.2,1.2,0.4,1.9,0.6
			c0.1-0.5,0.2-0.8,0.2-1.2c0-1.7-0.1-3.3-0.1-5c0-0.6,0-1.2,0.1-1.7c0-0.2,0.5-0.5,0.7-0.5c0.3,0,0.5,0.3,0.7,0.5
			c0.1,0.2,0.1,0.5,0.2,0.7c0.2,2.6,0.3,5.3,0,7.9c-0.2,1.8-0.7,3.4-1.7,4.9c-1,1.5-2.3,2.7-4.1,3.3c-0.6,0-1.3,0-1.9,0.1
			c-2.3,0.4-4.5,0.8-6.9,0.7c-1.5,0-3,0-4.4,0c-2.8,0.1-5.6-0.2-8.4-0.8c-3-0.6-5.9-1.4-8.6-3.1
			C227.5,204.7,225.3,202.8,223.7,200.1z"/>
		<path class="st3" d="M165.9,239.1c6.4,0,12.9,0,19.3,0c0.6,0,1.3,0.1,1.9,0.1c1,1.6,2.7,2.3,4.2,3.3c3,1.8,6.3,2.8,9.8,3.4
			c2.6,0.5,5.3,0.9,8,0.8c0.2,0,0.4,0,0.6,0c3.1,0.7,6.1,0.3,9.2,0.4c0.3,0,0.6,0,1,0c0.4,0.1,0.5,0.3,0.6,0.7
			c-0.8,0-1.5,0.1-2.3,0.1c-16.6,0-33.2,0-49.8,0c-0.8,0-1.7-0.1-2.4,0.3c-1.3-0.7-1.8-1.9-2.1-3.2c-0.3-1.6-0.1-3,0.5-4.5
			C164.7,239.7,165.2,239.2,165.9,239.1z"/>
		<path class="st26" d="M222.9,305.1c0,0.5,0.3,0.8,0.7,1c1.5,0.6,2.9,1.4,4.4,1.9c3.9,1.4,7.8,2.5,11.9,3.1c1,0.2,2,0.4,3,0.5
			c0,0,0,0.1-0.1,0.1c-0.1,0-0.1,0.1-0.2,0.1c-0.4,0-0.8,0-1.2,0c-15.7,0-31.4,0-47.1,0c-0.8,0-1.5,0-2.3,0
			c-1.2-1.3-1.4-2.8-1.2-4.4c0.2-0.9,0.4-1.7,0.7-2.6c5,0,9.9,0,14.9,0c5.1,0,10.2,0,15.3,0C222.1,305,222.5,305.1,222.9,305.1z"/>
		<path class="st3" d="M223.7,200.1c1.5,2.7,3.8,4.6,6.4,6.2c2.7,1.7,5.6,2.5,8.6,3.1c2.8,0.6,5.6,0.8,8.4,0.8c1.5,0,3,0,4.4,0
			c2.3,0.1,4.6-0.2,6.8-0.7c0.6-0.1,1.3-0.1,1.9-0.1c-1.2,0.8-2.6,1.1-3.9,1.4c-0.6,0.2-1.2,0.3-1.8,0.5c-1,0-1.9,0-2.9,0.1
			c-2,0.2-3.9,0.4-5.9,0.6c-2.5,0.2-5,0.4-7.5,0.5c-3,0-6-0.1-9.1,0c-0.3,0-0.6,0.2-0.9,0.3c-0.7-0.1-1.4-0.3-2.1-0.4
			c-1.9-0.2-3.7-0.6-5.4-1.2c-2.3-0.9-4-2.4-5.3-4.5c-1.2-1.9-1.6-4-2-6.2c-0.1-0.8,0.1-1.1,0.6-1.3c0.6-0.2,0.9,0.1,1.2,1
			c0.2,0.8,0.4,1.6,0.6,2.5c0.6-0.3,1-0.5,1.5-0.7C219.4,201.2,221.5,200.4,223.7,200.1z"/>
		<path class="st27" d="M221.2,238.8c-5.1,0-10.1,0-15.2,0c-1.9,0-3.9,0-5.8,0c0.2-5.5,2.4-9.8,7.3-12.5c3.1-1.7,6.4-2.7,9.9-3
			c-0.1,0.3-0.1,0.6-0.2,0.9c-0.7,1.9-1.1,3.8-0.9,5.8c0,0.1,0,0.3,0,0.4c-0.1,1,0.1,1.9,0.5,2.8c0.6,1.4,1.3,2.8,2.5,3.8
			C219.9,237.6,220.6,238.2,221.2,238.8z"/>
		<path class="st28" d="M238.3,212.6c2.5-0.2,5-0.3,7.5-0.5c2-0.2,3.9-0.4,5.9-0.6c1-0.1,1.9-0.1,2.9-0.1c0,3.6,0,7.2,0,10.8
			c-0.6,0-1.1,0.1-1.7,0.1c-7.6,0-15.1,0-22.7,0c-0.5,0-1-0.1-1.5-0.1c0-0.2,0.1-0.4,0.1-0.7c0.5,0.1,1,0.4,1.5,0.4
			c2.3,0,4.6,0,6.9,0c0.4,0,0.7-0.1,1-0.2c0.1-0.3,0.1-0.5,0.1-0.7C238.3,218.2,238.3,215.4,238.3,212.6z"/>
		<path class="st21" d="M221.2,238.8c-0.7-0.6-1.3-1.2-2-1.8c-1.2-1-1.9-2.4-2.5-3.8c-0.4-0.9-0.6-1.8-0.5-2.8c0-0.1,0-0.3,0-0.4
			c-0.2-2,0.2-3.9,0.9-5.8c0.1-0.3,0.2-0.6,0.2-0.9c1.9-0.5,3.8-0.8,5.8-0.7c-0.1,0.8-0.3,1.5-0.4,2.3c-0.2,2.9,0.8,5.2,2.8,7.3
			c2,2.1,4.6,3.3,7.2,4.4c2.1,0.9,4.4,1.4,6.7,1.8c0.6,0.1,1.3,0.1,2.2,0.2C239.9,238.9,227.6,239,221.2,238.8z"/>
		<path class="st29" d="M238.3,212.6c0,2.8,0,5.5,0,8.3c0,0.2-0.1,0.4-0.1,0.7c-0.3,0.1-0.7,0.2-1,0.2c-2.3,0-4.6,0-6.9,0
			c-0.5,0-1-0.2-1.5-0.4c-0.1-2.9-0.3-5.7-0.4-8.5c0.3-0.1,0.6-0.3,0.9-0.3C232.3,212.6,235.3,212.6,238.3,212.6z"/>
		<path class="st30" d="M237.7,253.6c2.9-0.3,5.7-0.3,8.6,0c1,0.3,2.1,0.6,3.1,0.9c9,3.3,14.4,9.7,15.9,19.1
			c1,6.3-0.6,12.1-4.4,17.3c-0.3,0.4-0.7,0.8-1,1.1c-0.2,0.2-0.4,0.3-0.6,0.5l0,0c-0.1,0.1-0.3,0.3-0.4,0.4l0,0
			c-0.6-0.1-1,0.2-1.5,0.4c-2.1,1.1-4.3,2.1-6.6,2.6c-1.5,0.3-3,0.8-4.5,0.8c-0.4,0-0.9,0-1.3,0.1c-1.2,0.3-2.4,0.3-3.6,0
			c-0.3-0.1-0.5-0.2-0.8-0.1c-1.6,0.1-3.1-0.4-4.5-0.8c-1.7-0.5-3.3-1.1-4.7-2.1c-2.2-1.4-4.1-3.1-5.5-5.3
			c-2.3-3.4-3.8-7.1-3.8-11.3c0-1.5,0.1-3.1,0.4-4.6c0.5-2.6,1.2-5.1,2.6-7.4c2.3-3.7,5.2-6.8,8.8-9.4c0.8-0.6,1.7-0.9,2.2-1.8
			C236.6,254.1,237.1,253.9,237.7,253.6z M239.1,258.1c-0.6,0.1-1.3,0.1-1.9,0.3c-10.6,2.8-15.9,13-14.1,22.2
			c2.3,11.8,14.6,18.7,25.9,14.3c3.5-1.4,6.6-3.5,8.6-6.8c0.2-0.3,0.5-0.6,0.7-0.9c2.8-4.6,3.6-9.6,2.3-14.8
			c-0.9-3.6-2.8-6.8-5.5-9.3c-2.9-2.8-6.5-4.4-10.4-5C242.8,257.7,241,257.5,239.1,258.1z"/>
		<path class="st31" d="M236,254.3c-0.5,0.9-1.4,1.3-2.2,1.8c-3.5,2.6-6.4,5.7-8.8,9.4c-1.4,2.3-2.2,4.8-2.6,7.4
			c-0.3,1.5-0.4,3-0.4,4.6c0,4.2,1.4,7.9,3.8,11.3c1.5,2.1,3.4,3.8,5.5,5.3c1.5,1,3.1,1.6,4.7,2.1c1.5,0.4,2.9,0.9,4.5,0.8
			c0.3,0,0.5,0.1,0.8,0.1c1.2,0.3,2.4,0.3,3.6,0c0.4-0.1,0.9-0.2,1.3-0.1c1.6,0,3-0.4,4.5-0.8c2.3-0.5,4.5-1.5,6.6-2.6
			c0.5-0.2,0.9-0.5,1.5-0.4c-0.4,0.4-0.6,1-1.1,1.3c-7,6-14.9,7.8-23.6,4.8c-8.6-3-13.9-9.3-15.5-18.2c-2.1-11.4,4.6-22.7,15.9-26.4
			C235.1,254.4,235.6,254.4,236,254.3z"/>
		<path class="st32" d="M204.3,267.4c1.5,2.4,2.7,4.9,3.1,7.8c-0.4,0-0.8,0-1.1,0.2c-1.5,0.5-3,0.9-4.5,1.5c-2.9,1.1-5.8,2.3-8.5,4
			c-0.4,0.3-0.9,0.4-1.4,0.6c-1.3-2.5-2.6-4.9-3.9-7.4c0.6-0.4,1.2-0.9,1.9-1.3c3.6-2,7.4-3.5,11.4-4.7
			C202.3,267.7,203.3,267.6,204.3,267.4z"/>
		<path class="st32" d="M274.5,275.2c0.1-0.6,0.1-1.3,0.4-1.8c0.8-2,1.7-3.9,2.5-5.9c0.6,0,1.2,0,1.7,0.1c4.2,1.1,8.3,2.6,12.1,4.7
			c0.9,0.5,1.8,0.9,2.5,1.7c-0.5,1.7-1.2,3.2-2.1,4.7c-0.5,0.9-1.2,1.6-1.4,2.7c-0.5-0.2-1.1-0.4-1.6-0.7c-0.5-0.2-0.9-0.5-1.3-0.8
			c-3.7-2-7.6-3.4-11.6-4.6C275.3,275.2,274.9,275.3,274.5,275.2z"/>
		<path class="st33" d="M311.8,262.6c-0.4,4.2-1.1,8.1-3.5,11.5c-0.6,0.8-1.3,1.7-2.1,2.2c-1.6,1.1-2.6,1-3.9-0.3
			c-0.4-0.4-0.5-0.9-0.6-1.4c0-0.9,0.1-1.8,0.4-2.7c0.7-2.2,1.4-4.4,2-6.6c0.5-1.9,0.8-3.8,0.8-5.7c0-0.7,0.1-1.4,0.3-2.1
			c0.2-1,0.8-1.8,1.9-2c1.2-0.2,2.3,0.2,3,1.2c0.3,0.5,0.6,1,0.8,1.5C311.5,259.7,311.6,261.3,311.8,262.6z"/>
		<path class="st32" d="M278.6,265.5c0-0.1,0-0.3,0-0.4c1.4-1.8,2.7-3.6,4.1-5.4c0.2-0.2,0.5-0.4,0.8-0.6c3.2,0.7,6.3,1.6,9.4,2.9
			c1.5,0.6,2.9,1.3,4,2.6c-0.6,2.3-1,4.6-2,6.8c-0.1,0.2,0,0.4,0,0.6c-0.2-0.1-0.5-0.1-0.7-0.2c-4.5-2.8-9.4-4.7-14.6-6
			C279.2,265.8,278.9,265.6,278.6,265.5z"/>
		<path class="st32" d="M198.6,259.2c1.9,1.7,3.3,3.8,4.6,5.9c-0.3,0.3-0.5,0.6-0.8,0.7c-1.8,0.6-3.6,1-5.3,1.7
			c-2.3,0.9-4.5,1.9-6.7,2.9c-1.1,0.5-2,1.1-3,1.7c-0.3-0.9-0.6-1.8-0.8-2.7c-0.4-1.6-1.1-3.3-1.1-5c1-0.6,2-1.4,3.1-1.9
			C191.7,261,195,259.8,198.6,259.2z"/>
		<path class="st32" d="M207.8,276.6c0.6,0.9,0.7,2.1,0.9,3.1c0.3,1.8,0.6,3.5,0.4,5.4c-2.8,0.8-5.6,1.9-8.2,3.3
			c-0.6,0.3-1.1,0.3-1.7,0.3c-0.2-0.6-0.8-0.8-1.3-1.1c-1.6-1-2.9-2.5-4.2-3.9c-0.2-0.2-0.2-0.6-0.4-0.9c1.1-0.7,2.3-1.5,3.5-2
			c3.4-1.4,6.7-3,10.3-3.9C207.4,276.9,207.6,276.8,207.8,276.6z"/>
		<path class="st32" d="M272.9,285.2c-0.2-2.9,0.4-5.6,1.1-8.4c4.6,1.2,9.1,3,13.3,5.3c0.6,0.3,1.1,0.7,1.4,1.3
			c-1.4,1.5-2.7,3-4.4,4.1c-0.6,0.4-1.2,0.9-1.8,1.3c-0.8,0-1.5-0.4-2.1-0.7C277.9,286.9,275.5,285.8,272.9,285.2z"/>
		<path class="st32" d="M285,257.8c2.3-2.6,5.2-3.8,8.7-3.5c1.6,0.2,2.9,0.9,3.8,2.3c0,1.1,0,2.3,0,3.5c0,0.8-0.1,1.5-0.8,2.1
			c-1.8-0.9-3.6-1.8-5.4-2.5C289.3,258.8,287.2,258.1,285,257.8z"/>
		<path class="st32" d="M184.5,256.5c1.1-1.5,2.6-2.1,4.3-2.4c2.8,0,5.1,1.1,7.3,2.7c0.4,0.3,0.6,0.6,0.9,1c-4,0.7-7.8,2.1-11.4,4.2
			c-0.3,0.2-0.7,0.3-1,0.4C184.5,260.4,184.5,258.5,184.5,256.5z"/>
		<path class="st26" d="M282.4,288.8c0.6-0.4,1.2-0.9,1.8-1.3c1.7-1.1,3-2.6,4.4-4.1c0.9,0.1,1.5,0.7,2.1,1.2
			c0.9,0.7,1.6,1.6,2.8,1.9c0,0.2,0,0.4-0.1,0.5c-1.5,2.1-3,4.1-4.9,5.8c-0.3,0.3-0.8,0.4-1.1,0.6c0-0.8-0.6-1.3-1.1-1.7
			c-1-0.8-2.1-1.5-3.1-2.2C283,289.3,282.7,289,282.4,288.8z"/>
		<path class="st26" d="M286.3,294.5c-1,0.5-1.9,1.1-2.9,1.5c-3.1,1.1-6,0.5-8.2-2.3c-0.8-1-1.4-2.1-1.5-3.4c1.4,0,2.9,0,4.3,0
			c0.6,0,1.1-0.2,1.4-0.8c1.5,0.9,3,1.7,4.5,2.6C284.8,292.7,285.6,293.5,286.3,294.5z"/>
		<path class="st3" d="M290.2,281.4c0.2-1,0.9-1.8,1.4-2.7c0.9-1.5,1.7-3,2.1-4.7c0.2,0.1,0.4,0.1,0.5,0.2c1,0.8,1.9,1.5,2.8,2.3
			c0.3,0.3,0.8,0.5,1.1,0.7c-0.4,1.1-0.8,2.3-1.3,3.4c-0.7,1.5-1.5,2.9-2.2,4.3C292.9,284.2,291.5,282.8,290.2,281.4z"/>
		<path class="st34" d="M187.3,272.1c1-0.6,2-1.2,3-1.7c2.2-1,4.4-2,6.7-2.9c1.7-0.7,3.6-1.1,5.3-1.7c0.3-0.1,0.6-0.5,0.8-0.7
			c0.4,0.8,0.8,1.5,1.1,2.3c-1,0.2-2,0.3-3,0.6c-4,1.2-7.8,2.7-11.4,4.7c-0.7,0.4-1.3,0.9-1.9,1.3c-0.8,0.6-1.6,1.2-2.4,1.8
			c-0.6,0.4-1.1,0.8-1.9,0.9c-0.5-0.4-0.5-1-0.7-1.6c0.8,0,1.2-0.7,1.7-1.1C185.6,273.5,186.6,273,187.3,272.1z"/>
		<path class="st34" d="M290.2,281.4c1.4,1.4,2.7,2.8,4.6,3.5c-0.3,0.6-0.5,1.3-1.1,1.6c-1.2-0.3-1.9-1.2-2.8-1.9
			c-0.7-0.5-1.3-1.1-2.1-1.2c-0.3-0.6-0.8-0.9-1.4-1.3c-4.2-2.3-8.7-4-13.3-5.3c0.2-0.5,0.4-1,0.6-1.6c0.4,0,0.8,0,1.1,0.1
			c4,1.3,7.9,2.7,11.6,4.6c0.5,0.2,0.9,0.5,1.3,0.8C289.1,281,289.6,281.2,290.2,281.4z"/>
		<path class="st34" d="M298.2,277.2c-0.4-0.2-0.8-0.4-1.1-0.7c-1-0.8-1.9-1.5-2.8-2.3c-0.1-0.1-0.4-0.1-0.5-0.2
			c-0.6-0.8-1.6-1.3-2.5-1.7c-3.8-2-7.9-3.5-12.1-4.7c-0.5-0.1-1.1-0.1-1.7-0.1c0.4-0.6,0.8-1.3,1.2-2c0.3,0.1,0.6,0.3,0.9,0.4
			c5.2,1.3,10,3.3,14.6,6c0.2,0.1,0.5,0.1,0.7,0.2c0.2,0.3,0.4,0.6,0.7,0.9c1.1,0.8,2.1,1.5,3.2,2.3
			C298.7,275.9,298.6,276.6,298.2,277.2z"/>
		<path class="st34" d="M207.8,276.6c-0.2,0.1-0.4,0.3-0.7,0.3c-3.6,0.9-6.9,2.5-10.3,3.9c-1.2,0.5-2.3,1.4-3.5,2
			c-1.4,1-2.9,1.8-4.1,3.1c-0.2,0.3-0.7,0.3-1,0.4c-0.6-0.4-0.8-1-1.1-1.6c0.3-0.1,0.6-0.1,0.9-0.3c1-0.7,1.9-1.4,2.9-2.2
			c0.3-0.3,0.6-0.6,0.9-1c0.5-0.2,1-0.3,1.4-0.6c2.7-1.7,5.6-2.8,8.5-4c1.5-0.6,3-1,4.5-1.5c0.4-0.1,0.8-0.1,1.1-0.2
			C207.9,275.6,207.7,276.2,207.8,276.6z"/>
		<path class="st26" d="M298.8,275.3c-1.1-0.8-2.2-1.5-3.2-2.3c-0.3-0.2-0.5-0.6-0.7-0.9c0-0.2,0-0.4,0-0.6c0.9-2.2,1.4-4.5,2-6.8
			c0.6,0.3,1.1,0.5,1.7,0.8c0.6,0.3,1.1,0.5,1.7,0.8C300.4,269.4,299.9,272.4,298.8,275.3z"/>
		<path class="st35" d="M184.6,262.4c0.4-0.1,0.7-0.2,1-0.4c3.6-2,7.3-3.4,11.4-4.2c0.9,0.1,1.3,0.7,1.6,1.4
			c-3.5,0.6-6.9,1.8-10.2,3.3c-1.1,0.5-2.1,1.3-3.1,1.9c-1.2,0.8-2.4,1.6-3.6,2.4c-0.2-0.8-0.4-1.6,0.1-2.4
			C182.9,264,183.7,263.2,184.6,262.4z"/>
		<path class="st34" d="M300.2,266.3c-0.6-0.3-1.1-0.5-1.7-0.8c-0.6-0.3-1.1-0.5-1.7-0.8c-1-1.3-2.5-2-4-2.6c-3-1.3-6.2-2.2-9.4-2.9
			c0.4-0.7,0.8-1.3,1.6-1.4c2.2,0.4,4.3,1,6.3,1.8c1.9,0.7,3.6,1.7,5.4,2.5c1.2,0.8,2.3,1.5,3.5,2.3
			C300.2,265,300.2,265.7,300.2,266.3z"/>
		<path class="st35" d="M286.3,294.5c-0.6-1-1.5-1.8-2.5-2.4c-1.5-0.9-3-1.7-4.5-2.6c-2-0.9-4.1-1.9-6.3-2.3c-0.4-0.6-0.2-1.3-0.2-2
			c2.6,0.7,5,1.7,7.4,2.9c0.7,0.3,1.3,0.8,2.1,0.7c0.3,0.3,0.5,0.5,0.8,0.8c1,0.7,2.1,1.4,3.1,2.2c0.5,0.4,1.1,0.9,1.1,1.7
			C287.2,293.9,286.8,294.3,286.3,294.5z"/>
		<path class="st35" d="M199.3,288.8c0.6,0,1.1-0.1,1.7-0.3c2.6-1.3,5.4-2.4,8.2-3.3c0.3,0.7,0.1,1.4-0.2,2
			c-2.4,0.5-4.6,1.3-6.6,2.7c-0.3,0.1-0.5,0.1-0.7,0.2c-1.9,0.9-3.5,2.2-5.2,3.3c-0.4,0.3-0.6,0.6-0.6,1.1c-0.7-0.5-1.3-1-2-1.5
			c0.4-0.2,0.9-0.3,1.1-0.6c0.9-0.9,1.9-1.6,2.9-2.2c0.4-0.2,0.8-0.5,1.1-0.8C199.1,289.3,199.1,289,199.3,288.8z"/>
		<path class="st36" d="M300.9,284.1c-0.9,0-1.5-0.4-1.8-1.2c-0.5-1.2-0.7-2.5,0.3-3.6c0.7-0.7,1.5-1.2,2.5-0.9
			c1.1,0.3,2,1.4,2.1,2.5C304.1,282.6,302.6,284.1,300.9,284.1z"/>
		<path class="st26" d="M300.2,264.4c-1.2-0.8-2.3-1.5-3.5-2.3c0.6-0.5,0.8-1.3,0.8-2.1c0-1.1,0-2.3,0-3.5c0.9,0.6,1.3,1.6,1.7,2.5
			C299.9,260.8,300.4,262.5,300.2,264.4z"/>
		<path class="st32" d="M202.3,289.9c2-1.4,4.2-2.2,6.6-2.7c0,0.7-0.1,1.4-0.1,2.2c-0.2,0.3-0.4,0.6-0.6,1c-0.9,0-1.8-0.1-2.7,0
			C204.5,290.3,203.4,290.2,202.3,289.9z"/>
		<path class="st32" d="M273,287.2c2.2,0.5,4.2,1.4,6.3,2.3c-0.3,0.6-0.8,0.8-1.4,0.8c-1.4,0-2.9,0-4.3,0
			C273.1,289.3,273.1,288.2,273,287.2z"/>
		<path class="st31" d="M259.3,292.7c0.2-0.2,0.4-0.3,0.6-0.5C259.6,292.4,259.4,292.5,259.3,292.7z"/>
		<path class="st31" d="M258.9,293.1c0.1-0.1,0.3-0.3,0.4-0.4C259.1,292.8,259,292.9,258.9,293.1z"/>
		<path class="st26" d="M199.3,288.8c-0.1,0.2-0.1,0.5-0.3,0.7c-0.3,0.3-0.7,0.5-1.1,0.8c-1,0.6-2,1.3-2.9,2.2
			c-0.3,0.3-0.8,0.4-1.1,0.6c-2.1-1.7-3.8-3.8-5.3-6c-0.1-0.1-0.1-0.4-0.2-0.5c0.3-0.1,0.8-0.2,1-0.4c1.2-1.3,2.7-2.1,4.1-3.1
			c0.1,0.3,0.1,0.6,0.4,0.9c1.3,1.4,2.6,2.8,4.2,3.9C198.4,288,199.1,288.1,199.3,288.8z"/>
		<path class="st26" d="M202.3,289.9c1,0.3,2.1,0.4,3.2,0.4c0.9,0,1.8,0,2.7,0c-0.4,2.2-1.5,3.9-3.4,5.1c-1.5,1-3.2,1.3-4.9,0.9
			c-1.5-0.3-2.9-0.8-4.2-1.8c0-0.5,0.2-0.9,0.6-1.1c1.7-1.1,3.3-2.4,5.2-3.3C201.8,290,202.1,290,202.3,289.9z"/>
		<path class="st26" d="M191.9,281.4c-0.3,0.3-0.6,0.7-0.9,1c-0.9,0.8-1.9,1.5-2.9,2.2c-0.2,0.2-0.6,0.2-0.9,0.3
			c-1.5-2.2-2.5-4.7-3.4-7.2c-0.1-0.3-0.1-0.6-0.1-0.9c0.7-0.1,1.3-0.5,1.9-0.9c0.8-0.6,1.6-1.2,2.4-1.8
			C189.3,276.5,190.6,279,191.9,281.4z"/>
		<path class="st26" d="M181.7,266.7c1.2-0.8,2.4-1.6,3.6-2.4c0.1,1.7,0.7,3.4,1.1,5c0.3,0.9,0.6,1.8,0.8,2.7
			c-0.7,0.9-1.6,1.4-2.5,2c-0.6,0.4-0.9,1.1-1.7,1.1c-0.7-2.1-1.1-4.3-1.3-6.6C181.8,268,181.7,267.4,181.7,266.7z"/>
		<path class="st26" d="M184.6,262.4c-0.9,0.8-1.7,1.6-2.8,2c-0.1-1.7,0.3-3.4,0.9-5c0.4-1.1,0.9-2.1,1.8-2.9
			C184.5,258.5,184.5,260.4,184.6,262.4z"/>
		<path class="st0" d="M239.1,258.1c1.8-0.6,3.7-0.4,5.5-0.2c4,0.5,7.5,2.2,10.4,5c2.7,2.6,4.6,5.7,5.5,9.3
			c1.3,5.2,0.5,10.2-2.3,14.8c-0.2,0.3-0.5,0.6-0.7,0.9c-0.6,0.3-1.2,0.5-1.7,0.8c-2.2,1.4-4.6,2.4-7.2,2.6c-3.9,0.4-7.7-0.4-11-2.7
			c-1.7-1.1-3.1-2.5-4.2-4.2c-1.8-2.5-2.9-5.3-2.9-8.4c0-1,0-2.1,0-3.1c0.1-2.8,0.9-5.3,2.3-7.6c0.9-1.6,2.1-2.9,3.4-4.2
			C237.3,260.2,238.2,259.1,239.1,258.1z M255.7,273.6c0,0,0.1,0,0.1,0c-0.2-1-0.3-2-0.6-3c-0.8-2.8-2.4-5.1-4.8-6.7
			c-1.1-0.8-2.3-1-3.6-1c-1.7,0-3.5,1.8-3.5,3.4c0,1.7,0.4,3.3,1.3,4.8c0.8,1.3,1.5,2.5,2.4,3.7c1.1,1.3,2.2,2.7,3.9,3.4
			c0.6,0.2,1.1,0.3,1.7,0.2c1.6-0.3,2.9-1.8,3.1-3.5C255.8,274.4,255.7,274,255.7,273.6z M251.5,283.2c0,1.5,1.4,2.9,2.8,2.8
			c1.6-0.1,2.7-1.6,2.6-3c0-1.7-1-2.7-2.7-2.8C252.7,280.2,251.3,281.2,251.5,283.2z"/>
		<path class="st26" d="M239.1,258.1c-1,1-1.9,2.1-2.9,3.1c-1.3,1.3-2.4,2.6-3.4,4.2c-1.4,2.4-2.2,4.9-2.3,7.6c0,1,0,2.1,0,3.1
			c0,3.1,1.2,5.9,2.9,8.4c1.1,1.6,2.5,3.1,4.2,4.2c3.4,2.3,7.1,3,11,2.7c2.6-0.2,5-1.3,7.2-2.6c0.5-0.3,1.2-0.5,1.7-0.8
			c-2,3.3-5.1,5.5-8.6,6.8c-11.2,4.4-23.6-2.5-25.9-14.3c-1.8-9.2,3.5-19.4,14.1-22.2C237.8,258.2,238.5,258.2,239.1,258.1z"/>
		<path class="st37" d="M255.7,273.6c0,0.4,0,0.8,0,1.2c-0.2,1.7-1.5,3.1-3.1,3.5c-0.6,0.1-1.1,0-1.7-0.2c-1.7-0.7-2.8-2-3.9-3.4
			c-0.9-1.1-1.7-2.4-2.4-3.7c-0.9-1.5-1.3-3-1.3-4.8c0-1.6,1.9-3.5,3.5-3.4c1.3,0,2.5,0.3,3.6,1c2.4,1.7,4,3.9,4.8,6.7
			c0.3,1,0.4,2,0.6,3C255.8,273.6,255.8,273.6,255.7,273.6z"/>
		<path class="st37" d="M251.5,283.2c-0.1-2,1.2-3,2.7-3c1.7,0,2.7,1,2.7,2.8c0,1.4-1.1,2.9-2.6,3
			C252.9,286.1,251.5,284.6,251.5,283.2z"/>
	</g>
	<g>
		<path class="st20" d="M339.4,133.1c-0.2-1.7-0.5-3.3-0.5-5c-0.1-4.9,0-9.8,0-14.7c0-0.4,0.1-0.9,0.2-1.3c0.2,1.1,0.9,1.6,2,1.6
			c1.5-0.1,3.1,0.1,4.6-0.1c1.6-0.3,3.2-0.3,4.8-0.3c0.5,0,1,0,1.5-0.1c2.5-0.5,5-0.3,7.5-0.6c2.3-0.3,4.6-0.1,6.9-0.4
			c3-0.3,6.1,0,9.2-0.4c1.3-0.2,2.7,0,4,0c0.1,1.2-0.1,2.4-0.3,3.6c-0.6,3.3-1.7,6.6-3,9.7c-0.6,1.3-1.1,2.7-1.7,4.1
			c-1.8,0.8-3.7,0.9-5.6,1.2c-1.3,0.2-2.7,0.3-4,0.5c-1.6,0.2-3.3,0.5-4.9,0.7c-2.2,0.2-4.5,0.3-6.7,0.4c-0.2,0-0.4,0-0.6,0
			c-1.4,0.4-2.9,0.3-4.4,0.3c-0.5,0-0.9-0.1-1.3,0.1c-1.6,0.4-3.2,0.3-4.8,0.3C341.4,132.7,340.4,132.8,339.4,133.1z"/>
		<path class="st20" d="M374.7,95.9c0.5,0.5,1,1,1.4,1.6c1.4,1.9,2.7,3.8,3.7,5.9c0.2,0.4,0.3,0.8,0.5,1.2c0,1.3,0,2.7-0.1,4
			c-2.4,0-4.8,0-7.1,0.1c-0.5,0-1.1-0.1-1.5,0.1c-1.3,0.4-2.7,0.3-4,0.3c-1.5,0-3-0.1-4.4,0.1c-1.5,0.2-2.9,0.2-4.4,0.3
			c-0.7,0-1.5-0.1-2.1,0.1c-1.5,0.4-3.1,0.3-4.6,0.3c-0.5,0-0.9,0-1.4,0.1c-2.8,0.5-5.6,0.3-8.4,0.7c-1,0.1-2,0.2-2.9,0.9
			c0.1-2.1,0.2-4.2,0.5-6.3c0.4-3.1,1-6.1,1.5-9.1c0.1-0.4,0.3-0.8,0.4-1.3c3.1-0.2,6.2-0.3,9.2-0.5c0.1,0,0.3,0,0.4-0.1
			c1-0.4,2-0.3,3.1-0.3c1.9,0,3.7,0,5.6,0c0.5,0,0.9,0,1.4,0.1c1.8,0.2,3.6,0.5,5.3,0.7c2.1,0.1,4.2,0.6,6.3,1
			C373.4,95.8,374,95.8,374.7,95.9z"/>
		<path class="st38" d="M384.3,131.1c-0.1,0.9-0.2,1.8-0.3,2.6c-0.8,4.2-2.2,8.1-4.2,11.9c-0.1,0.2-0.3,0.4-0.5,0.6
			c-0.7-0.1-1.2,0.3-1.8,0.6c-0.6,0.3-1.3,0.7-1.9,0.9c-3.5,1.4-7.1,2.6-10.8,3.5c-3.4,0.8-6.7,1.4-10.2,1.3c-2.3-0.1-4.6,0-6.9,0
			c-1.2,0-2.4,0.1-3.6-0.3c-0.5-0.1-1,0-1.5,0c-0.1-0.4-0.2-0.8-0.3-1.2c2.5-0.5,5-0.9,7.4-1.8c0.7-0.3,1.5-0.5,2.2-0.7
			c3-1,5.8-2.4,8.4-4.1c1.6-1.1,3.1-2.2,4.6-3.4c2.3-1.8,4.2-3.9,6-6.2c0.3-0.4,0.5-1,0.7-1.6c1.1,0,2.1-0.2,3.2-0.4
			c2-0.4,4-0.7,6-1.1C382,131.4,383.1,131.3,384.3,131.1z"/>
		<path class="st20" d="M371.6,133.1c-0.2,0.5-0.3,1.1-0.7,1.6c-1.8,2.2-3.7,4.4-6,6.2c-1.5,1.2-3,2.4-4.6,3.4
			c-2.6,1.7-5.4,3.1-8.4,4.1c-0.7,0.2-1.5,0.4-2.2,0.7c-2.4,0.9-4.9,1.3-7.4,1.8c-0.3-1.2-0.7-2.3-0.9-3.5
			c-0.6-3.5-1.1-7.1-1.6-10.6c0-0.3,0-0.5,0-0.8c0.7,0,1.5,0.1,2.1,0c1.1-0.3,2.2-0.2,3.3-0.3c2.9-0.1,5.8-0.3,8.6-0.4
			c0.2,0,0.4,0,0.6-0.1c0.9-0.1,1.8-0.2,2.7-0.3c0.5,0,0.9,0,1.4-0.1c2-0.2,3.9-0.5,5.9-0.7C366.7,134,369.2,133.6,371.6,133.1z"/>
		<path class="st15" d="M376.3,150.9c-0.2,0.3-0.4,0.7-0.6,1c-6.2,7.6-14,12.3-23.9,13.5c-3.8,0.4-7.5,0.1-11.1-0.7
			c-0.4-0.1-0.9-0.2-1.3-0.4c-0.6-0.3-0.9-0.9-0.8-1.6c0.1-0.7,0.7-1.2,1.5-1.3c0.4,0,0.9,0.1,1.3,0.2c1,0.2,1.9,0.4,2.9,0.5
			c0.5,0.1,1,0,1.5,0c0.1-0.8-0.3-1.3-0.5-1.9c-0.6-1.5-1.4-3-1.7-4.7c1.2,0,2.5,0,3.7,0c0.5,0,0.9,0,1.3,0.1
			c0.8,0.3,1.6,0.3,2.5,0.3c2-0.1,4,0.1,6-0.3c1.2-0.3,2.5-0.2,3.8-0.4c3.2-0.5,6.3-1.3,9.3-2.2
			C372.2,152.3,374.3,151.6,376.3,150.9z"/>
		<path class="st39" d="M342.3,91.7c0.3-2.3,1.2-4.3,2.1-6.3c0.2-0.4,0.5-0.8,0.6-1.2c0.1-1.9,1.8-2.1,3-2.8c0.5-0.3,1,0,1.4,0.4
			c0.4,0.5,1,0.6,1.5,0.7c3,0.3,5.8,1.1,8.5,2.2c0.3,0.1,0.6,0.2,0.9,0.2c0.4,0.6,1,0.7,1.6,0.9c2.9,1.5,5.6,3.3,8.1,5.4
			c0.3,0.3,0.6,0.7,0.9,1c-1.1-0.1-2.3-0.2-3.4-0.4c-2.9-0.4-5.8-0.8-8.8-0.7c-2.6,0-5.1,0-7.7,0c-0.5,0-1,0-1.5,0.1
			c-0.9,0.1-1.8,0.2-2.7,0.3c-0.6,0.1-1.3,0-1.9,0.1C344,91.4,343.1,91.6,342.3,91.7z"/>
		<path class="st40" d="M371.6,133.1c-2.5,0.5-4.9,0.9-7.4,1.1c-2,0.2-3.9,0.5-5.9,0.7c-0.5,0.1-0.9,0-1.4,0.1
			c-0.9,0.1-1.8,0.2-2.7,0.3c-0.2,0-0.4,0.1-0.6,0.1c-2.9,0.1-5.8,0.3-8.6,0.4c-1.1,0.1-2.2,0-3.3,0.3c-0.7,0.2-1.4,0-2.1,0
			c-0.1-1-0.2-2-0.3-2.9c1-0.3,2-0.4,3-0.4c1.6,0,3.2,0.1,4.8-0.3c0.4-0.1,0.9,0,1.3-0.1c1.5-0.1,3,0.1,4.4-0.3c0.2-0.1,0.4,0,0.6,0
			c2.2-0.1,4.5-0.2,6.7-0.4c1.6-0.1,3.3-0.4,4.9-0.7c1.3-0.2,2.7-0.3,4-0.5c1.9-0.3,3.8-0.4,5.6-1.2c0.8,0,1.5,0.1,2.3-0.1
			c1.9-0.4,3.9-0.8,5.8-1.2c0.6-0.1,1.3-0.1,1.9-0.2c0.1,1.2-0.1,2.3-0.4,3.4c-1.2,0.2-2.4,0.3-3.6,0.5c-2,0.3-4,0.7-6,1.1
			C373.8,132.9,372.7,133.1,371.6,133.1z"/>
		<path class="st40" d="M339.2,111.4c0.9-0.7,1.8-0.8,2.9-0.9c2.8-0.3,5.6-0.1,8.4-0.7c0.4-0.1,0.9-0.1,1.4-0.1
			c1.5-0.1,3.1,0.1,4.6-0.3c0.7-0.2,1.4,0,2.1-0.1c1.5-0.1,2.9-0.1,4.4-0.3c1.4-0.2,3-0.1,4.4-0.1c1.4,0,2.7,0.1,4-0.3
			c0.5-0.1,1-0.1,1.5-0.1c2.4,0,4.8,0,7.1-0.1c0.6,0,1.2,0,1.9,0c0.3,1,0.6,2,1,3.1c-1.1,0-2.1,0.1-3.2,0.1c-1.4,0-2.7-0.2-4,0
			c-3.1,0.4-6.2,0.1-9.2,0.4c-2.3,0.2-4.6,0.1-6.9,0.4c-2.5,0.3-5,0.1-7.5,0.6c-0.5,0.1-1,0.1-1.5,0.1c-1.6,0.1-3.2,0.1-4.8,0.3
			c-1.5,0.3-3.1,0.1-4.6,0.1c-1.1,0-1.8-0.4-2-1.6C339.2,111.9,339.2,111.7,339.2,111.4z"/>
		<path class="st6" d="M358.5,56.8c1.1-3.6,5.9-6.9,10.9-6c1.1,0.2,2.2,0.4,3,1.1c0.3,1,0.5,2.1,0.9,3.1c0.8,2.5-0.4,5.6-2.5,7.2
			c-1.5,1.1-3.1,1.8-5,1.5c-0.2,0-0.4,0-0.6,0c-1,0.1-1.8-0.4-2.6-1.1c-1.5-1.4-2.8-3-3.4-5C359.1,57.3,358.8,57.1,358.5,56.8z
			 M362.4,56.7c0,0.7-0.1,1.4,0.5,2c1,0.9,2.2,1.1,3.4,0.4c0.6-0.4,1.2-1,1.7-1.5c0.7-0.9,0.8-1.8,0.3-2.9c-0.5-1.1-1.4-1.4-2.5-1.3
			C363.9,53.4,362.4,54.9,362.4,56.7z"/>
		<path class="st41" d="M376.3,150.9c-2.1,0.7-4.1,1.4-6.2,2.1c-3.1,1-6.2,1.7-9.3,2.2c-1.3,0.2-2.6,0.1-3.8,0.4c-2,0.4-4,0.3-6,0.3
			c-0.8,0-1.7,0-2.5-0.3c-0.4-0.1-0.9-0.1-1.3-0.1c-1.2,0-2.5,0-3.7,0c-0.3-1.1-0.7-2.3-1-3.4c0.5,0,1.1-0.1,1.5,0
			c1.2,0.4,2.4,0.3,3.6,0.3c2.3,0,4.6-0.1,6.9,0c3.5,0.1,6.9-0.5,10.2-1.3c3.7-0.9,7.3-2.1,10.8-3.5c0.7-0.3,1.3-0.6,1.9-0.9
			c0.6-0.3,1.1-0.6,1.8-0.6C378.6,147.9,377.6,149.5,376.3,150.9z"/>
		<path class="st15" d="M379.7,111.8c1.1,0,2.1-0.1,3.2-0.1c0.8,1.5,1,3.2,1.2,4.8c0.6,3.7,1,7.4,0.5,11.1c-0.6,0.1-1.3,0.1-1.9,0.2
			c-1.9,0.4-3.9,0.9-5.8,1.2c-0.7,0.1-1.5,0.1-2.3,0.1c0.5-1.4,1.1-2.7,1.7-4.1c1.3-3.1,2.4-6.3,3-9.7
			C379.6,114.2,379.9,113,379.7,111.8z"/>
		<path class="st21" d="M358.5,56.8c0.2,0.3,0.6,0.5,0.7,0.9c0.6,2,1.9,3.6,3.4,5c0.8,0.7,1.6,1.1,2.6,1.1c0.2,0,0.4,0,0.6,0
			c1.9,0.3,3.5-0.4,5-1.5c2.1-1.5,3.2-4.6,2.5-7.2c-0.3-1-0.6-2.1-0.9-3.1c2,0.9,3.4,2.4,4.2,4.4c0.1,1.8-0.2,3.6-0.8,5.3
			c-0.7,2.1-1.8,3.9-3.8,4.9c-1.3,0.7-2.7,1.2-4.2,1.4c-0.7,0.1-1.4,0.1-2.1-0.1c-0.8-0.1-1.5-0.4-2.2-0.6c-1.3-0.3-2.2-1.1-2.9-2.1
			c-0.8-1.1-1.6-2.2-2-3.5c-0.2-0.5-0.6-1-0.9-1.5C357.6,59,357.9,57.9,358.5,56.8z"/>
		<path class="st40" d="M342.3,91.7c0.9-0.1,1.8-0.2,2.7-0.3c0.6-0.1,1.3-0.1,1.9-0.1c0.9-0.1,1.8-0.2,2.7-0.3
			c0.5-0.1,1-0.1,1.5-0.1c2.6,0,5.1,0,7.7,0c3,0,5.9,0.3,8.8,0.7c1.1,0.2,2.3,0.3,3.4,0.4c1.5,1.1,2.7,2.4,3.7,3.9
			c-0.6-0.1-1.3-0.1-1.9-0.2c-2.1-0.3-4.1-0.8-6.3-1c-1.8-0.1-3.6-0.4-5.3-0.7c-0.5-0.1-0.9-0.1-1.4-0.1c-1.9,0-3.7,0-5.6,0
			c-1,0-2.1-0.1-3.1,0.3c-0.1,0-0.3,0-0.4,0.1c-3.1,0.2-6.2,0.3-9.2,0.5C341.5,93.7,341.8,92.6,342.3,91.7z"/>
		<path class="st42" d="M357.7,60.3c0.3,0.5,0.7,0.9,0.9,1.5c0.4,1.3,1.3,2.4,2,3.5c0.7,1,1.6,1.8,2.9,2.1c0.8,0.2,1.5,0.5,2.2,0.6
			c0.7,0.1,1.4,0.2,2.1,0.1c1.5-0.2,2.9-0.7,4.2-1.4c2-1,3.1-2.8,3.8-4.9c0.6-1.7,0.9-3.5,0.8-5.3c1.3,2,1.4,4.2,1,6.5
			c-0.9,4.7-4.9,8-9.6,8.2c-0.6,0-1.1,0-1.7,0c-0.6-0.1-1.2-0.3-1.7-0.4c-0.5-0.3-1-0.5-1.5-0.8c-3.5-1.9-5.3-4.9-5.5-8.8
			C357.6,60.8,357.7,60.5,357.7,60.3z"/>
		<path class="st43" d="M364.6,70.6c0.6,0.1,1.2,0.3,1.7,0.4c-0.2,0.9-0.4,1.9-0.6,2.8c-0.5,1.6-1.6,2.2-3.3,1.9
			c-0.8-0.2-1.6-0.4-2.6-0.6c0.1,0.4,0.1,0.7,0.3,0.8c0.6,0.6,1.3,1.3,2,1.8c1.4,1,1.7,2.3,1.2,3.9c-0.5,1.3-0.9,2.7-1.3,4
			c-0.6-0.2-1.2-0.3-1.6-0.9c0.5-1.6,1.2-3.1,1.3-4.9c-0.5-0.4-1-0.8-1.4-1.3c-0.9-0.9-1.9-1.8-2.7-2.7c-0.3-0.4-0.6-0.9-0.7-1.3
			c-0.2-0.8,0.3-1.6,1.2-1.6c0.6,0,1.3,0.1,1.9,0.2c0.7,0.1,1.4,0.4,2,0.6c0.5,0.1,1,0.1,1.5,0.2C364.4,72.9,364.2,71.7,364.6,70.6z
			"/>
		<path class="st15" d="M382,108.7c-0.6,0-1.2,0-1.9,0c0-1.3,0-2.7,0.1-4C381.1,105.8,381.6,107.2,382,108.7z"/>
		<path class="st19" d="M362.4,56.7c0-1.8,1.5-3.3,3.4-3.4c1.1,0,2,0.3,2.5,1.3c0.5,1.1,0.4,2-0.3,2.9c-0.5,0.6-1,1.1-1.7,1.5
			c-1.1,0.7-2.4,0.5-3.4-0.4C362.3,58.1,362.4,57.4,362.4,56.7z"/>
	</g>
	<g>
		<path class="st20" d="M130.6,128.4c0.2,0.7,0.4,1.3,0.5,2c1.1,5.7,2,11.5,2.3,17.3c0,0.4,0,0.8,0,1.1c-1.2,0-2.5-0.1-3.7,0.1
			c-2.8,0.3-5.6,0.5-8.4,0.8c-2.2,0.2-4.4,0.3-6.5,0.4c-0.1,0-0.3,0-0.4,0.1c-1,0.1-1.9,0.3-2.9,0.3c-2.8,0.1-5.7,0.1-8.5,0.1
			c-1.7,0-3.5-0.1-5.2-0.1c0.1-0.9-0.6-1.6-1-2.2c-1.8-2.4-3.1-5-4.3-7.7c-0.9-2-1.8-4.1-2.1-6.4c1.1-0.6,2.3-0.5,3.5-0.7
			c1.4-0.2,2.9-0.3,4.4-0.5c2.3-0.3,4.6-0.7,6.9-0.7c0.3,0,0.5,0,0.8-0.1c2-0.2,3.9-0.5,5.9-0.7c2.2-0.2,4.3-0.3,6.5-0.4
			c0.1,0,0.1,0,0.2,0c2.8-0.4,5.6-0.6,8.4-0.7c0.8,0,1.5-0.2,2.3-0.3C130,129.8,130.5,129.3,130.6,128.4z"/>
		<path class="st20" d="M125.7,111.4c0.2,0.4,0.4,0.8,0.6,1.2c1.7,4.8,3.1,9.7,4.3,14.7c0.1,0.2,0,0.5,0.1,0.8
			c-0.8-1.2-2-1.2-3.3-1.1c-0.7,0.1-1.4,0.3-2.1,0.3c-2.3,0.2-4.6,0.3-6.9,0.4c-0.1,0-0.3,0-0.4,0c-2.2,0.2-4.3,0.5-6.5,0.7
			c-2,0.2-4,0.3-5.9,0.4c-0.2,0-0.4,0.1-0.6,0.1c-1.7,0.2-3.4,0.4-5.2,0.6c-1.8,0.2-3.6,0.4-5.3,0.7c-1.6,0.2-3.2,0.3-4.8,0.5
			c-0.1-0.6-0.3-1.1-0.4-1.7c0-0.7-0.2-1.4-0.5-2c0-0.2,0-0.4,0.1-0.6c1.1-3.3,2.3-6.4,4.3-9.3c0.4-0.1,0.9,0,1.3-0.2
			c1.9-0.6,3.8-1.3,5.7-1.8c2.6-0.8,5.2-1.5,7.8-1.9c1.9-0.3,3.8-0.6,5.7-0.8c2.2-0.3,4.4-0.4,6.7-0.6
			C122.1,111.6,123.9,111.8,125.7,111.4z"/>
		<path class="st38" d="M96.2,168.2c-1-1.4-2-2.7-2.9-4.1c-1.7-2.7-3-5.6-4-8.5c-0.2-0.7-0.4-1.4-0.5-2.1c2.8,0.1,5.5-0.3,8.3,0.3
			c0.3,0.1,0.6,0,1,0c1.2,0,2.4,0,3.7,0c1,1.4,2.4,2.5,3.7,3.6c1.9,1.6,4.1,2.9,6.2,4.1c3.1,1.7,6.4,2.9,9.8,3.8
			c3.4,0.9,6.8,1.5,10.4,1.4c0.5,0,1,0,1.5,0c0,0.5-0.1,1.1-0.1,1.6c-0.3,0-0.5-0.1-0.8,0c-2.7,0.7-5.5,1.2-8.3,1.7
			c-1.8,0.3-3.6,0.7-5.5,0.6c-2.2-0.1-4.4,0-6.6,0c-1.7-0.1-3.4-0.3-5.2-0.5c-1-0.1-2-0.3-3-0.5c-2.2-0.4-4.4-0.9-6.5-1.6
			C97,167.8,96.6,167.8,96.2,168.2z"/>
		<path class="st20" d="M133.3,166.8c-0.5,0-1,0-1.5,0c-3.6,0.2-7-0.5-10.4-1.4c-3.4-0.9-6.7-2.1-9.8-3.8c-2.2-1.2-4.3-2.5-6.2-4.1
			c-1.3-1.1-2.7-2.2-3.7-3.6c1.2,0,2.3,0,3.5,0c0.6,0,1.2,0,1.7-0.1c0.8-0.1,1.7-0.2,2.5-0.2c1.7-0.1,3.5,0,5.2-0.1
			c0.4,0,0.9,0.1,1.3-0.1c1.1-0.3,2.3-0.3,3.4-0.3c0.6,0,1.2,0,1.7,0c2.1-0.2,4.2-0.5,6.3-0.7c2.1-0.2,4.2-0.4,6.3-0.5
			c0.1,0.7,0.1,1.4,0.1,2.1c0,3.4,0,6.7-0.1,10.1C133.6,165,133.4,165.9,133.3,166.8z"/>
		<path class="st15" d="M132.6,171.7c0,1.7-0.6,3.3-0.9,4.9c-0.1,0.6-0.3,1.1-0.4,1.6c0.5,0.5,1,0.2,1.4,0.1
			c1.2-0.4,2.4-0.8,3.6-1.3c0.5-0.2,1-0.3,1.5,0c1,0.5,1.2,1.9,0.3,2.5c-0.5,0.4-1.1,0.6-1.7,0.8c-7.3,2.7-14.6,2.9-22,0.7
			c-5.2-1.6-9.8-4.3-13.8-8c-0.3-0.3-0.6-0.7-0.9-1c0.9,0.1,1.8,0.3,2.7,0.4c1.9,0.3,3.8,0.6,5.7,0.9c2.2,0.4,4.3,0.2,6.5,0.6
			c1.3,0.2,2.8,0.1,4.2-0.2c1.5-0.3,3.1-0.1,4.6-0.4c2.2-0.5,4.5-0.8,6.8-1.3C131,171.9,131.8,171.8,132.6,171.7z"/>
		<path class="st39" d="M96.2,112.9c0.4-0.6,0.8-1.2,1.3-1.7c2-2.2,4.2-4.2,6.6-5.9c0.6-0.2,1.1-0.5,1.5-1.1
			c0.4-0.2,0.8-0.3,1.2-0.5c2.3-1.3,4.8-2.4,7.4-3.1c0.7-0.2,1.4-0.4,1.9-1.1c0.4-0.6,1.1-0.6,1.8-0.4c0.4,0.2,0.8,0.4,1.2,0.5
			c0.8,0.2,1.2,0.6,1.5,1.3c0.2,0.5,0.6,1,0.9,1.5c0.9,1.7,1.9,3.3,2.8,5c0.1,0.3,0.2,0.6,0.2,0.9c-1.1,0.1-2.3,0.3-3.4,0.3
			c-3,0-6,0.4-8.9,0.8c-2.8,0.3-5.7,0.8-8.5,1.5C101.1,111.6,98.6,112.2,96.2,112.9z"/>
		<path class="st40" d="M133.6,151.9c-2.1,0.2-4.2,0.3-6.3,0.5c-2.1,0.2-4.2,0.5-6.3,0.7c-0.6,0.1-1.2,0-1.7,0c-1.2,0-2.3,0-3.4,0.3
			c-0.4,0.1-0.9,0.1-1.3,0.1c-1.7,0-3.5,0-5.2,0.1c-0.8,0-1.7,0.2-2.5,0.2c-0.6,0.1-1.2,0.1-1.7,0.1c-1.2,0-2.3,0-3.5,0
			c-1.2,0-2.4,0-3.7,0c-0.3,0-0.7,0.1-1,0c-2.7-0.7-5.5-0.3-8.3-0.3c-0.6-1.1-0.8-2.3-0.9-3.5c1.4-0.1,2.8,0.3,4.2,0.3
			c1.9,0.1,3.9,0,5.8,0c1.7,0,3.5,0.1,5.2,0.1c2.8,0,5.7,0,8.5-0.1c1,0,1.9-0.2,2.9-0.3c0.1,0,0.3,0,0.4-0.1
			c2.2-0.1,4.4-0.2,6.5-0.4c2.8-0.2,5.6-0.4,8.4-0.8c1.2-0.1,2.4-0.1,3.7-0.1C133.8,149.9,133.7,150.9,133.6,151.9z"/>
		<path class="st40" d="M89.6,130.7c1.6-0.2,3.2-0.3,4.8-0.5c1.8-0.2,3.6-0.4,5.3-0.7c1.7-0.2,3.4-0.4,5.2-0.6
			c0.2,0,0.4-0.1,0.6-0.1c2-0.1,4-0.3,5.9-0.4c2.2-0.2,4.3-0.4,6.5-0.7c0.1,0,0.3,0,0.4,0c2.3-0.2,4.6-0.3,6.9-0.4
			c0.7-0.1,1.4-0.2,2.1-0.3c1.3-0.2,2.5-0.1,3.3,1.1c0,0.1,0,0.3,0.1,0.4c-0.1,0.9-0.6,1.4-1.5,1.6c-0.8,0.1-1.5,0.3-2.3,0.3
			c-2.8,0.1-5.6,0.4-8.4,0.7c-0.1,0-0.1,0-0.2,0c-2.2,0.1-4.3,0.3-6.5,0.4c-2,0.2-3.9,0.4-5.9,0.7c-0.3,0-0.5,0.1-0.8,0.1
			c-2.3,0.1-4.6,0.4-6.9,0.7c-1.4,0.2-2.9,0.3-4.4,0.5c-1.2,0.2-2.4,0.2-3.5,0.7c-1.1,0-2.1,0-3.2,0c0.1-1,0.1-2.1,0.5-3.1
			C88.4,131,89.1,131.3,89.6,130.7z"/>
		<path class="st6" d="M88.4,73.8c1.9-1.7,4.2-2.4,6.7-2.2c3.4,0.2,6.2,1.6,7.9,4.6c-0.1,0.2-0.2,0.5-0.3,0.7
			c-0.5,1.3-0.8,2.7-1.4,4c-0.7,1.4-1.8,2.5-3.2,3.2c-1.9,1-3.8,0.7-5.6-0.1c-3-1.3-5.3-5.3-4.1-8.4c0.2-0.4,0.2-0.9,0.3-1.3
			C88.7,74.1,88.5,73.9,88.4,73.8z M95.7,73.8c-0.1,0-0.5-0.1-0.8,0c-0.9,0.2-1.6,0.8-1.7,1.6c-0.3,1.7,0.1,3.2,1.9,4
			c0.5,0.2,1,0.4,1.4,0.5c1.4,0.4,3.3-1.3,3.1-2.8c-0.1-1.2-1.1-1.8-1.8-2.6C97.3,73.9,96.6,73.8,95.7,73.8z"/>
		<path class="st41" d="M132.6,171.7c-0.8,0.1-1.6,0.1-2.5,0.3c-2.2,0.5-4.6,0.8-6.8,1.3c-1.5,0.4-3.1,0.1-4.6,0.4
			c-1.4,0.3-2.9,0.5-4.2,0.2c-2.2-0.4-4.3-0.2-6.5-0.6c-1.9-0.3-3.8-0.6-5.7-0.9c-0.9-0.1-1.8-0.3-2.7-0.4c-1.4-1.1-2.6-2.4-3.5-3.9
			c0.3-0.4,0.8-0.4,1.2-0.3c2.1,0.8,4.3,1.2,6.5,1.6c1,0.2,2,0.4,3,0.5c1.7,0.2,3.4,0.4,5.2,0.5c2.2,0.1,4.4,0,6.6,0
			c1.9,0.1,3.7-0.3,5.5-0.6c2.8-0.4,5.5-1,8.3-1.7c0.2-0.1,0.5,0,0.8,0C133.1,169.5,133.1,170.6,132.6,171.7z"/>
		<path class="st15" d="M87.2,134.2c1.1,0,2.1,0,3.2,0c0.3,2.2,1.2,4.3,2.1,6.4c1.2,2.7,2.6,5.3,4.3,7.7c0.5,0.6,1.1,1.3,1,2.2
			c-1.9,0-3.9,0.1-5.8,0c-1.4-0.1-2.8-0.4-4.2-0.3c-0.3-1.2-0.6-2.4-0.7-3.6c-0.5-3.9-0.6-7.8-0.1-11.8
			C87,134.5,87.1,134.4,87.2,134.2z"/>
		<path class="st40" d="M96.2,112.9c2.5-0.7,4.9-1.3,7.4-2c2.8-0.7,5.6-1.2,8.5-1.5c3-0.4,5.9-0.7,8.9-0.8c1.1,0,2.3-0.2,3.4-0.3
			c0.7,0.9,1.1,1.9,1.3,3c-1.8,0.4-3.6,0.3-5.4,0.4c-2.2,0.2-4.5,0.3-6.7,0.6c-1.9,0.3-3.8,0.5-5.7,0.8c-2.7,0.4-5.3,1.2-7.8,1.9
			c-1.9,0.6-3.8,1.3-5.7,1.8c-0.4,0.1-0.9,0.1-1.3,0.2C93.9,115.6,94.9,114.1,96.2,112.9z"/>
		<path class="st21" d="M88.4,73.8c0.1,0.2,0.3,0.3,0.3,0.4c-0.1,0.4-0.1,0.9-0.3,1.3c-1.2,3.1,1.1,7.1,4.1,8.4
			c1.8,0.8,3.7,1.1,5.6,0.1c1.4-0.7,2.6-1.8,3.2-3.2c0.6-1.3,1-2.7,1.4-4c0.1-0.2,0.2-0.5,0.3-0.7c0.9,1.1,1.4,2.4,1.5,3.8
			c-0.2,0.1-0.5,0.3-0.6,0.4c-0.2,1.6-1.1,3-1.7,4.4c-0.8,1.7-2.3,2.7-4.1,3.3c-1.7,0.5-3.4,0.5-5.1,0.3c-1.3-0.1-2.6-0.7-3.7-1.6
			c-1.6-1.4-3-3-3.6-5.1c-0.3-1.2-0.5-2.4-0.5-3.6C85.7,76.3,86.8,74.9,88.4,73.8z"/>
		<path class="st44" d="M85.3,78.2c0,1.2,0.2,2.4,0.5,3.6c0.6,2.2,1.9,3.7,3.6,5.1c1,0.9,2.3,1.4,3.7,1.6c1.7,0.2,3.4,0.2,5.1-0.3
			c1.8-0.5,3.2-1.5,4.1-3.3c0.7-1.4,1.5-2.8,1.7-4.4c0-0.2,0.4-0.3,0.6-0.4c0.7,4.1-0.8,7.3-3.9,9.8c-0.4,0.4-0.9,0.7-1.4,1
			c-0.6,0-1.2,0.3-1.7,0.7c-0.6,0.1-1.3,0.2-1.9,0.2c-6.7,0.7-12.1-5.2-11-11.8C84.8,79.4,84.8,78.7,85.3,78.2z"/>
		<path class="st45" d="M97.6,91.6c0.5-0.4,1-0.7,1.7-0.7c0.4,1,0.6,2.1,1.4,3.1c0.4-0.1,0.8-0.1,1.2-0.3c0.8-0.3,1.5-0.7,2.3-1
			c0.5-0.2,1.1-0.4,1.7-0.5c1-0.2,1.8,0.6,1.6,1.6c-0.1,0.5-0.3,1-0.6,1.4c-0.7,1.1-1.5,2.1-2.3,3.1c-0.3,0.4-0.8,0.9-1.2,1.3
			c0.5,1.7,1.3,3.1,2.1,4.6c-0.4,0.6-0.9,0.9-1.5,1.1c-0.7-1.3-1.3-2.7-2-4c-0.7-1.4-0.5-2.6,0.6-3.7c0.6-0.5,1-1.2,1.5-1.8
			c0.2-0.3,0.3-0.6,0.1-0.8c-0.3-0.3-0.6-0.1-0.8-0.1c-0.5,0.2-1,0.3-1.4,0.6c-1.2,0.6-2.6,0.2-3.4-1.4
			C98.2,93.4,97.9,92.4,97.6,91.6z"/>
		<path class="st15" d="M89.6,130.7c-0.5,0.6-1.3,0.3-1.9,0.4c0.1-1.4,0.4-2.8,1.1-4.1c0.3,0.7,0.5,1.3,0.5,2
			C89.3,129.6,89.5,130.2,89.6,130.7z"/>
		<path class="st19" d="M95.7,73.8c0.9-0.1,1.6,0,2.1,0.6c0.8,0.8,1.7,1.5,1.8,2.6c0.2,1.6-1.7,3.2-3.1,2.8c-0.5-0.1-1-0.3-1.4-0.5
			c-1.8-0.8-2.2-2.3-1.9-4c0.2-0.8,0.8-1.4,1.7-1.6C95.2,73.8,95.6,73.8,95.7,73.8z"/>
	</g>
	<g>
		<path class="st46" d="M210.3,37.9c2.8-0.3,5.5-0.6,8.3-0.8c6.2-0.4,12.5-0.8,18.7-1.1c10.2-0.5,20.4-0.7,30.5-0.6
			c6,0.1,12,0.2,18,0.5c9.9,0.5,19.8,1.6,29.5,3.8c4,0.9,7.9,2.2,11.7,3.8c7.7,3.4,13.3,8.9,17,16.4c2.2,4.4,3.6,9.1,4.7,13.9
			c1.4,6.2,2.2,12.4,2.8,18.7c1.1,11.6,1.5,23.3,1.3,35c-0.1,5.5-0.3,11.1-0.7,16.6c-0.6,8.4-1.6,16.8-3.8,25
			c-0.9,3.5-2.1,6.9-3.6,10.2c-3.5,7.8-9.2,13.5-16.8,17.2c-4,1.9-8.1,3.3-12.4,4.1c-1.6,0.3-3.2,0.5-4.8,0.8
			c-0.3-0.4-0.8-0.4-1.3-0.4c-1.5,0-3.1,0-4.6,0c-0.4,0-0.8,0-1.1,0.1c-0.9,0.3-1.8,0.3-2.7,0.3c-7,0-13.9,0-20.9,0
			c-0.7,0-1.4,0.1-2.1,0.1c-0.7,0.1-1.4,0.2-2.1,0.2c-2.5,0.1-5-0.1-7.5,0.3c-1.8,0.3-3.7,0.1-5.6,0.4c-2.1,0.3-4.2,0-6.3,0.4
			c-1.4,0.2-2.8,0-4.3,0.1c-0.5,0-1.1-0.1-1.5,0.1c-0.9,0.3-1.9,0.2-2.9,0.3c-2.9,0.1-5.9-0.3-8.9,0.4c-0.3,0.1-0.6,0-1,0
			c-11.1,0-22.2,0-33.3,0c-0.6,0-1.2,0.1-1.7-0.1c-0.8-0.3-1.6-0.2-2.5-0.3c-1,0-2.1,0.2-3.1-0.1c-1.8-0.5-3.6,0-5.3-0.7
			c-2.3,0-4.6-0.6-6.9-0.9c-2.2-0.3-4.4-0.9-6.6-1.4c-4.7-1-9.1-2.7-13.4-4.6c-1.2-0.5-2.2-1.3-3.4-1.9c-2.9-1.5-5.5-3.6-7.9-5.8
			c-1.6-1.4-3-3-4.3-4.7c-1.9-2.4-3.6-5-5-7.8c-1.3-2.4-2.3-4.9-3.3-7.4c-1-2.6-1.7-5.2-2.5-7.9c-1.1-3.8-1.8-7.6-2.6-11.4
			c-0.5-2.4-0.9-4.9-1.2-7.4c-0.2-1.6-0.3-3.2-0.4-4.8c0-0.2,0-0.4-0.1-0.6c-0.5-1.1-0.2-2.3-0.3-3.4c-0.1-1.1-0.4-2.3-0.4-3.4
			c0-5.5,0-11,0-16.4c0-0.5-0.1-1.1,0.1-1.5c0.3-0.8,0.3-1.7,0.3-2.5c0-0.4,0-0.8,0.1-1.2c0.2-1.4,0.6-2.9,0.7-4.4
			c0.2-2.6,0.8-5.1,1.4-7.6c0.8-3.6,1.9-7.2,3.2-10.7c1.8-4.5,3.9-8.7,6.6-12.6c2.1-3.1,4.7-5.8,7.2-8.5c0.7-0.8,1.6-1.3,2.3-2
			c1.2-1,2.3-2.1,3.5-3c4.1-3.2,8.7-5.8,13.3-8.2c1-0.5,2.1-0.9,3.2-1.4c3.4-1.8,7-3.2,10.7-4.4c3.6-1.3,7.3-2.5,11-3.4
			c4-1,8-2.2,12.2-2.8C210.1,38.5,210.3,38.2,210.3,37.9z M204.9,192.9c0.8,0,1.7,0,2.5,0c1.5-0.1,3.1-0.2,4.6-0.2
			c3.9-0.2,7.9-0.3,11.8-0.5c2.4-0.1,4.8-0.2,7.1-0.4c4.4-0.3,8.7-0.7,13.1-1c7-0.4,14-0.8,21-1.1c6.1-0.3,12.2-0.6,18.3-1.2
			c3.1-0.4,6.3-0.8,9.4-1.3c1.7-0.3,3.4-0.6,5-1.4c0.1,0,0.3,0,0.4,0c7.6-2.6,13.3-7.5,16.4-15.1c1.6-3.8,2.6-7.8,3.3-11.9
			c1.3-7.1,1.8-14.2,1.9-21.4c0.2-8.4,0.1-16.9-0.6-25.3c-0.4-5.1-1-10.3-2-15.3c-0.8-3.9-1.9-7.8-3.7-11.3
			c-2.8-5.5-7-9.5-12.7-11.9c-3.4-1.4-6.9-2.4-10.5-3.1c-6.2-1.2-12.5-1.9-18.8-2.2c-7.8-0.4-15.6-0.6-23.4-0.4
			c-0.6,0-1.1,0.1-1.7,0.2c-0.3,0-0.5-0.1-0.8-0.1c-1.7,0.1-3.4,0.1-5,0.2c-3.9,0.2-7.9,0.3-11.8,0.6c-4.5,0.3-9,0.6-13.5,1.1
			c-2.1,0.2-4.1,0.2-6.1,0.8c-0.7,0-1.4,0-2.1,0.1c-4.7,0.6-9.3,1.2-14,1.8c-6.3,0.9-12.6,2.2-18.7,3.9c-4.1,1.2-8.1,2.6-11.8,4.8
			c-5,2.9-8.6,6.9-10.7,12.3c-0.6,1.5-1.1,3-1.5,4.6c-1.3,4.6-1.6,9.4-1.8,14.2c-0.3,6.2,0,12.4,0.4,18.6c0.4,5.8,1,11.6,1.7,17.3
			c0.8,6.3,1.9,12.5,3.6,18.6c1.2,4.4,2.7,8.7,5,12.8c1.4,2.5,3.1,4.8,5.2,6.7c3.3,3,7.2,4.9,11.5,6c2.9,0.8,5.9,1.1,9,1.3
			C191.6,193.6,198.3,193.3,204.9,192.9z M339.5,77.7c0.1-2.2-0.5-4.3-1.2-6.4c-0.6-1.5-1.3-2.9-2.2-4.3c-1.3-1.9-2.5-3.8-4-5.4
			c-2.6-2.9-5.3-5.6-8.5-7.8c-3.1-2.2-6.3-4-9.8-5.3c-3.5-1.3-7.1-1.7-10.7-2.1c-0.4,0-0.9,0.1-1.3,0.1c-0.4,0-0.8,0.2-1.1,0.2
			c-2.2,0-4.2,0.7-6.1,1.7c-1,0.5-1.8,1.2-2.5,2.1c-1.5,1.8-1.6,4.5-0.2,6.1c0.4,0.4,0.7,0.9,1.2,1.2c1.2,0.6,2.4,1.3,3.6,1.8
			c2,0.9,4.1,1.6,6.1,2.4c3,1.3,5.7,3.2,8.3,5.2c1.4,1.1,2.8,2.1,3.9,3.5c2,2.5,4,5.1,5.9,7.7c1.4,1.9,3.1,3.7,4.8,5.3
			c1,1,2.3,1.7,3.6,2.2c1.5,0.5,3,0.8,4.5,0.4c1.7-0.4,3.2-1.1,4.3-2.7C339.1,81.7,339.6,79.8,339.5,77.7z M337.9,104.8
			c1.5,0.3,2.8-0.4,3.9-1.7c0.1-0.1,0.2-0.2,0.3-0.3c1.5-1.5,1.9-3.3,1.6-5.3c-0.3-2-1.3-3.7-2.9-4.8c-1.9-1.3-3.9-1.5-6-0.7
			c-2.4,0.9-3.6,4.4-3.3,6.2c0.2,1.4,0.6,2.7,1.5,3.9C334.1,103.9,335.6,105,337.9,104.8z"/>
		<path class="st47" d="M210.3,37.9c-0.1,0.3-0.2,0.6-0.6,0.7c-4.1,0.6-8.1,1.8-12.2,2.8c-3.7,1-7.4,2.2-11,3.4
			c-3.6,1.3-7.2,2.7-10.7,4.4c-1,0.5-2.1,0.9-3.2,1.4c-4.6,2.5-9.1,5-13.3,8.2c-1.2,0.9-2.3,2-3.5,3c-0.8,0.7-1.7,1.2-2.3,2
			c-2.5,2.8-5.1,5.4-7.2,8.5c-2.6,4-4.8,8.2-6.6,12.6c-1.4,3.5-2.4,7.1-3.2,10.7c-0.6,2.5-1.2,5-1.4,7.6c-0.1,1.5-0.5,2.9-0.7,4.4
			c-0.1,0.4,0,0.8-0.1,1.2c0,0.8,0,1.7-0.3,2.5c-0.2,0.5-0.1,1-0.1,1.5c0,5.5,0,11,0,16.5c0,1.1,0.3,2.3,0.4,3.4
			c0.1,1.1-0.1,2.3,0.3,3.4c0.1,0.2,0.1,0.4,0.1,0.6c0.1,1.6,0.2,3.2,0.4,4.8c0.3,2.5,0.7,4.9,1.2,7.4c0.8,3.8,1.5,7.7,2.6,11.4
			c0.8,2.6,1.6,5.3,2.5,7.9c0.9,2.5,2,5,3.3,7.4c1.4,2.8,3.1,5.4,5,7.8c1.3,1.7,2.7,3.3,4.3,4.7c2.4,2.2,5,4.2,7.9,5.8
			c1.1,0.6,2.2,1.3,3.4,1.9c4.3,2,8.8,3.6,13.4,4.6c2.2,0.5,4.4,1.2,6.6,1.4c2.3,0.3,4.5,0.9,6.9,0.9c1.7,0.6,3.6,0.2,5.3,0.7
			c1,0.3,2.1,0.1,3.1,0.1c0.8,0,1.7,0,2.5,0.3c0.5,0.2,1.1,0.1,1.7,0.1c11.1,0,22.2,0,33.3,0c0.3,0,0.7,0.1,1,0
			c2.9-0.7,5.9-0.2,8.9-0.4c1,0,1.9,0.1,2.9-0.3c0.5-0.2,1-0.1,1.5-0.1c1.4,0,2.9,0.2,4.3-0.1c2.1-0.4,4.3-0.1,6.3-0.4
			c1.9-0.3,3.8-0.1,5.6-0.4c2.5-0.4,5-0.2,7.5-0.3c0.7,0,1.4-0.2,2.1-0.2c0.7-0.1,1.4-0.1,2.1-0.1c7,0,13.9,0,20.9,0
			c0.9,0,1.8,0.1,2.7-0.3c0.3-0.1,0.8-0.1,1.1-0.1c1.5,0,3.1,0,4.6,0c0.5,0,0.9,0,1.3,0.4c-1.4,0.2-2.8,0.6-4.2,0.7
			c-4.7,0.5-9.4,0.9-14,1.3c-5.7,0.4-11.3,0.7-17,1c-5.5,0.3-10.9,0.6-16.4,0.9c-5.9,0.3-11.7,0.6-17.6,1.1
			c-4.8,0.4-9.5,0.6-14.3,0.9c-6.2,0.4-12.4,0.7-18.5,1c-4.4,0.2-8.8,0.4-13.1,0.6c-5,0.2-9.9,0.4-14.9,0.6
			c-6.5,0.2-13,0.1-19.5-0.6c-4.9-0.5-9.8-1.7-14.3-3.7c-6.6-2.9-11.7-7.4-15.5-13.5c-2.5-4-4.4-8.3-5.9-12.8
			c-2.2-6.3-3.7-12.9-5-19.4c-1.3-6.8-2.3-13.7-3-20.7c-0.8-7.2-1.4-14.5-1.7-21.8c-0.3-6.7-0.4-13.4-0.2-20.1
			c0.2-6.4,0.8-12.7,2.3-19c0.7-3.1,1.7-6.1,3.1-8.9c2.7-5.9,6.8-10.6,12.3-14.1c4.1-2.6,8.5-4.6,13.1-6.1c6.4-2.2,12.9-3.7,19.4-5
			c7.1-1.5,14.3-2.5,21.6-3.4c4-0.5,7.9-0.9,11.9-1.3c2.8-0.3,5.6-0.6,8.4-0.9C208.5,37.9,209.4,37.9,210.3,37.9z"/>
		<path class="st12" d="M246.3,67.9c0.6-0.1,1.1-0.2,1.7-0.2c7.8-0.2,15.6-0.1,23.4,0.4c6.3,0.3,12.6,1,18.8,2.2
			c3.6,0.7,7.1,1.7,10.5,3.1c5.7,2.4,9.9,6.4,12.7,11.9c1.8,3.6,2.9,7.4,3.7,11.3c1,5.1,1.6,10.2,2,15.3c0.7,8.4,0.8,16.9,0.6,25.3
			c-0.1,7.2-0.7,14.3-1.9,21.4c-0.7,4.1-1.8,8.1-3.3,11.9c-3.1,7.6-8.7,12.4-16.4,15.1c-0.1,0-0.3,0-0.4,0c-0.9-0.6-1.9-0.4-2.8-0.2
			c-0.8,0.2-1.6,0.2-2.5,0.3c-0.5,0-0.9-0.1-1.3,0.1c-0.9,0.3-1.8,0.3-2.7,0.3c-0.4,0-0.8-0.1-1.1,0.1c-1,0.4-2,0.3-3.1,0.3
			c-0.5,0-0.9-0.1-1.4,0.1c-1.5,0.5-2.9,0.3-4.4,0.3c-0.5,0-0.9-0.1-1.3,0.1c-0.9,0.3-1.8,0.3-2.7,0.3c-1.5,0-3,0-4.5,0
			c-0.5,0-1,0.1-1.5,0.1c-0.7,0.1-1.4,0.2-2.1,0.2c-6.3,0-12.6,0-18.9,0c-0.4,0-0.9,0.1-1.4-0.1c-1.4-0.5-2.8-0.3-4.2-0.3
			c-0.4,0-0.9,0.1-1.3-0.1c-1.1-0.4-2.2-0.3-3.3-0.3c-0.4,0-0.8,0-1.1-0.1c-0.8-0.3-1.6-0.3-2.5-0.3c-0.4,0-0.8-0.1-1.1-0.1
			c-1.6-0.2-3.2-0.4-4.8-0.6c-1.4-0.2-2.8-0.3-4.2-0.5c-1.1-0.2-2.3-0.4-3.4-0.6c-1.9-0.3-3.8-0.5-5.7-0.9c-4.3-1-8.7-1.7-12.9-2.9
			c-3.8-1.1-7.5-2.3-11-4.1c-3.8-2-7.1-4.6-9.6-8.1c-1.9-2.7-3.5-5.5-4.7-8.6c-2.2-6-3.8-12.3-4-18.7c0-0.3,0-0.5-0.1-0.8
			c-0.4-0.9-0.3-1.8-0.3-2.7c0-1.5,0-3,0-4.4c0-0.4-0.1-0.9,0.1-1.3c0.4-0.9,0.2-1.9,0.3-2.9c0.1-1.7,0.2-3.3,0.5-5
			c0.3-1.9,0.6-3.8,1.1-5.7c0.6-2.6,1.2-5.1,2.1-7.6c1.2-3.3,2.5-6.5,4.4-9.4c1.1-1.7,2.2-3.5,3.6-5c2.5-2.6,5-5.2,8-7.3
			c2.6-1.8,5.1-3.7,7.9-5.1c3.2-1.7,6.5-3.2,9.7-4.7c3.5-1.6,7.1-3,10.8-4.2c4.6-1.5,9.1-3,13.8-4.2c3.8-1,7.6-1.9,11.4-2.6
			C246,68.3,246.1,68.1,246.3,67.9z M308.2,95.8c0.1-1.6-0.3-2.9-0.8-4.3c-1-2.7-2.7-4.9-4.6-7c-2.9-3.2-6.4-5.8-10.4-7.5
			c-2.6-1.1-5.4-1.9-8.4-1.3c-1.2,0.3-2.3,0.8-3.3,1.5c-0.5,0.3-0.9,1-1,1.6c-0.6,2,0.2,3.7,2,4.8c0.4,0.2,0.8,0.4,1.2,0.6
			c0.9,0.3,1.8,0.7,2.7,1c1.4,0.6,2.7,1.3,3.8,2.5c1.5,1.6,2.9,3.3,4.1,5.1c1,1.6,2,3.1,3.1,4.6c1.4,1.9,3,3.5,5.4,4.1
			c2.3,0.6,4.8-0.6,5.7-2.8C308.1,97.7,308.3,96.7,308.2,95.8z M303.2,107.2c0,1.8,0.3,2.4,1.5,3.6c0.9,0.9,2,1.2,3.1,1.4
			c1.3,0.2,2.4-0.4,3.1-1.5c1.2-1.9,0.9-3.6-0.5-5.3c-1.3-1.6-2.9-1.8-4.7-1.6c-0.2,0-0.4,0.1-0.5,0.2
			C304.1,104.8,302.8,105.6,303.2,107.2z"/>
		<path class="st14" d="M246.3,67.9c-0.2,0.2-0.4,0.4-0.6,0.5c-3.9,0.6-7.6,1.6-11.4,2.6c-4.7,1.2-9.3,2.7-13.8,4.2
			c-3.7,1.2-7.3,2.6-10.8,4.2c-3.3,1.5-6.5,3-9.7,4.7c-2.8,1.5-5.4,3.3-7.9,5.1c-3,2.1-5.5,4.7-8,7.3c-1.4,1.5-2.5,3.3-3.6,5
			c-1.9,2.9-3.3,6.1-4.4,9.4c-0.9,2.5-1.5,5.1-2.1,7.6c-0.4,1.9-0.8,3.8-1.1,5.7c-0.2,1.6-0.4,3.3-0.5,5c-0.1,1,0,1.9-0.3,2.9
			c-0.1,0.4-0.1,0.9-0.1,1.3c0,1.5,0,3,0,4.4c0,0.9-0.1,1.8,0.3,2.7c0.1,0.2,0.1,0.5,0.1,0.8c0.2,6.5,1.8,12.7,4,18.7
			c1.1,3.1,2.8,5.9,4.7,8.6c2.5,3.5,5.8,6.1,9.6,8.1c3.5,1.8,7.2,3,11,4.1c4.3,1.2,8.6,2,12.9,2.9c1.9,0.4,3.8,0.6,5.7,0.9
			c1.1,0.2,2.3,0.4,3.4,0.6c1.4,0.2,2.8,0.4,4.2,0.5c1.6,0.2,3.2,0.4,4.8,0.6c0.4,0.1,0.8,0.1,1.1,0.1c0.8,0,1.7,0,2.5,0.3
			c0.3,0.1,0.8,0.1,1.1,0.1c1.1,0,2.2-0.1,3.3,0.3c0.4,0.1,0.9,0.1,1.3,0.1c1.4,0,2.8-0.1,4.2,0.3c0.4,0.1,0.9,0.1,1.4,0.1
			c6.3,0,12.6,0,18.9,0c0.7,0,1.4-0.2,2.1-0.2c0.5-0.1,1-0.1,1.5-0.1c1.5,0,3,0,4.5,0c0.9,0,1.8,0.1,2.7-0.3
			c0.4-0.1,0.9-0.1,1.3-0.1c1.5-0.1,3,0.1,4.4-0.3c0.4-0.1,0.9,0,1.4-0.1c1,0,2,0.1,3.1-0.3c0.3-0.1,0.8-0.1,1.1-0.1
			c0.9,0,1.8,0,2.7-0.3c0.4-0.1,0.9-0.1,1.3-0.1c0.8,0,1.6-0.1,2.5-0.3c0.9-0.2,1.9-0.4,2.8,0.2c-1.6,0.8-3.3,1.1-5,1.4
			c-3.1,0.5-6.2,1-9.4,1.3c-6.1,0.7-12.2,0.9-18.3,1.2c-7,0.3-14,0.7-21,1.1c-4.4,0.3-8.7,0.7-13.1,1c-2.4,0.2-4.8,0.3-7.1,0.4
			c-3.9,0.2-7.9,0.3-11.8,0.5c-1.5,0.1-3.1,0.2-4.6,0.2c-0.8,0-1.7,0-2.5,0c-0.4-0.1-0.7-0.2-1.1-0.3c-1.5-0.2-2.9-0.2-4.4-0.5
			c-2.2-0.4-4.4-0.9-6.6-1.5c-4.7-1.3-9.4-2.6-13.6-5.3c-2.3-1.4-4.6-2.9-6.4-4.9c-1.3-1.5-2.5-3.1-3.7-4.7
			c-1.2-1.6-2.1-3.5-2.9-5.4c-1.5-3.2-2.6-6.6-3.6-10c-1-3.7-1.9-7.4-2.4-11.3c-0.2-1.7-0.6-3.4-0.7-5.1c0-0.4-0.1-0.8-0.1-1.1
			c-0.1-0.7-0.2-1.4-0.2-2.1c0-0.4,0.1-0.8,0-1.2c-0.6-2-0.3-4-0.4-5.9c0-0.6,0.1-1.2-0.1-1.7c-0.4-1.1-0.3-2.2-0.3-3.3
			c0-2.3,0-4.6,0-7c0-0.4-0.1-0.9,0.1-1.3c0.5-1.3,0.3-2.7,0.3-4c0-0.6,0-1.3,0.1-1.9c0.2-1.5,0.5-3,0.7-4.6
			c0.2-1.2,0.2-2.4,0.5-3.6c0.7-3.1,1.4-6.3,2.7-9.2c0.9-2.1,2-4.2,3.4-6c1.3-1.7,2.9-3.1,4.3-4.7c1.1-1.2,2.3-2,3.6-2.9
			c3.6-2.5,7.4-4.4,11.4-6c3.6-1.4,7.2-2.8,10.9-3.8c3.5-1,7-1.9,10.6-2.6c0.7-0.1,1.6-0.1,2.1-0.7c2-0.6,4.1-0.6,6.1-0.8
			c4.5-0.4,9-0.8,13.5-1.1c3.9-0.3,7.9-0.4,11.8-0.6c1.7-0.1,3.4-0.1,5-0.2C245.8,67.8,246.1,67.9,246.3,67.9z"/>
		<path class="st48" d="M209.2,70.4c-0.6,0.6-1.4,0.6-2.1,0.7c-3.6,0.7-7.1,1.6-10.6,2.6c-3.7,1-7.3,2.3-10.9,3.8
			c-4,1.6-7.8,3.6-11.4,6c-1.3,0.9-2.5,1.8-3.6,2.9c-1.4,1.6-3,2.9-4.3,4.7c-1.4,1.9-2.4,3.9-3.4,6c-1.3,2.9-2,6.1-2.7,9.2
			c-0.3,1.2-0.3,2.4-0.5,3.6c-0.2,1.5-0.5,3-0.7,4.6c-0.1,0.6-0.1,1.3-0.1,1.9c-0.1,1.3,0.1,2.7-0.3,4c-0.1,0.4-0.1,0.9-0.1,1.3
			c0,2.3,0,4.6,0,7c0,1.1-0.1,2.2,0.3,3.3c0.2,0.5,0.1,1.1,0.1,1.7c0.1,2-0.2,4,0.4,5.9c0.1,0.4,0,0.8,0,1.2
			c0.1,0.7,0.2,1.4,0.2,2.1c0.1,0.4,0.1,0.8,0.1,1.1c0,1.7,0.4,3.4,0.7,5.1c0.5,3.8,1.4,7.6,2.4,11.3c0.9,3.4,2.1,6.8,3.6,10
			c0.9,1.9,1.7,3.8,2.9,5.4c1.2,1.6,2.3,3.2,3.7,4.7c1.8,2,4.1,3.5,6.4,4.9c4.2,2.6,8.9,4,13.6,5.3c2.2,0.6,4.4,1.1,6.6,1.5
			c1.4,0.3,2.9,0.3,4.4,0.5c0.4,0,0.7,0.2,1.1,0.3c-6.6,0.4-13.3,0.7-19.9,0.2c-3-0.2-6-0.5-9-1.3c-4.3-1.1-8.2-3-11.5-6
			c-2.1-1.9-3.8-4.2-5.2-6.7c-2.3-4-3.8-8.3-5-12.8c-1.7-6.1-2.8-12.3-3.6-18.6c-0.8-5.8-1.4-11.5-1.7-17.3
			c-0.4-6.2-0.7-12.4-0.4-18.6c0.2-4.8,0.6-9.5,1.8-14.2c0.4-1.6,0.9-3.1,1.5-4.6c2.1-5.4,5.7-9.4,10.7-12.3
			c3.7-2.1,7.7-3.6,11.8-4.8c6.1-1.8,12.4-3,18.7-3.9c4.6-0.7,9.3-1.2,14-1.8C207.8,70.3,208.5,70.4,209.2,70.4z"/>
		<path class="st49" d="M339.5,77.7c0.1,2.1-0.5,4-1.6,5.8c-1,1.6-2.5,2.3-4.3,2.7c-1.5,0.4-3,0.1-4.5-0.4c-1.3-0.5-2.6-1.2-3.6-2.2
			c-1.8-1.6-3.4-3.3-4.8-5.3c-1.9-2.6-3.9-5.1-5.9-7.7c-1.1-1.4-2.5-2.4-3.9-3.5c-2.6-2-5.3-3.9-8.3-5.2c-2-0.9-4.1-1.6-6.1-2.4
			c-1.2-0.5-2.4-1.2-3.6-1.8c-0.5-0.3-0.8-0.8-1.2-1.2c-1.4-1.6-1.3-4.3,0.2-6.1c0.7-0.8,1.5-1.6,2.5-2.1c1.9-1,3.9-1.6,6.1-1.7
			c0.4,0,0.8-0.1,1.1-0.2c0.4-0.1,0.9-0.2,1.3-0.1c3.6,0.4,7.3,0.8,10.7,2.1c3.5,1.3,6.8,3.1,9.8,5.3c3.2,2.2,5.9,5,8.5,7.8
			c1.5,1.7,2.8,3.6,4,5.4c0.9,1.3,1.6,2.8,2.2,4.3C339.1,73.3,339.6,75.4,339.5,77.7z"/>
		<path class="st33" d="M337.9,104.8c-2.3,0.2-3.8-0.9-5-2.6c-0.8-1.2-1.2-2.5-1.5-3.9c-0.3-1.8,0.9-5.3,3.3-6.2
			c2.1-0.8,4.2-0.6,6,0.7c1.7,1.1,2.6,2.9,2.9,4.8c0.3,2-0.1,3.8-1.6,5.3c-0.1,0.1-0.2,0.2-0.3,0.3
			C340.7,104.4,339.4,105.1,337.9,104.8z"/>
		<path class="st23" d="M308.2,95.8c0.1,0.9-0.1,1.9-0.5,2.9c-0.9,2.2-3.4,3.4-5.7,2.8c-2.4-0.6-4-2.2-5.4-4.1
			c-1.1-1.5-2.1-3.1-3.1-4.6c-1.2-1.8-2.6-3.5-4.1-5.1c-1.1-1.2-2.4-1.9-3.8-2.5c-0.9-0.4-1.8-0.7-2.7-1c-0.4-0.2-0.8-0.4-1.2-0.6
			c-1.8-1-2.6-2.8-2-4.8c0.2-0.6,0.6-1.2,1-1.6c1-0.7,2.1-1.2,3.3-1.5c3-0.7,5.7,0.1,8.4,1.3c4,1.7,7.5,4.3,10.4,7.5
			c1.9,2.1,3.6,4.3,4.6,7C307.9,92.9,308.3,94.2,308.2,95.8z"/>
		<path class="st23" d="M303.2,107.2c-0.3-1.6,1-2.4,2-3.3c0.1-0.1,0.4-0.2,0.5-0.2c1.8-0.2,3.4,0,4.7,1.6c1.4,1.7,1.6,3.5,0.5,5.3
			c-0.7,1.1-1.9,1.7-3.1,1.5c-1.1-0.1-2.2-0.5-3.1-1.4C303.5,109.6,303.2,109,303.2,107.2z"/>
	</g>
	<g>
		<g>
			<path class="st50" d="M262.6,85.8c1.1-1,2.5-0.9,3.8-0.6c0.7,0.2,1.3,0.5,2,0.8c5.4,2.6,10.8,5.1,16.2,7.7
				c1.2,0.6,2.4,1.2,3.6,1.8c0.8,0.4,1.5,0.9,2.2,1.6c2.2,2,3,4.4,2.4,7.3c-0.4,0.2-0.8,0.3-1.3,0.4c-0.7,0.2-1.3,0.6-2,0.6
				c-2.4,0.2-4.9,0.1-7.2-0.6c-3.5-1.1-6.9-2.4-10.1-4.1c-2.2-1.2-4.3-2.5-6.1-4.4c-2.3-2.3-3.5-5-3.4-8.3
				C262.6,87.4,262.6,86.6,262.6,85.8z"/>
			<path class="st15" d="M262.6,85.8c0,0.8,0,1.5,0,2.3c-0.1,3.3,1.1,5.9,3.4,8.3c1.8,1.8,3.9,3.2,6.1,4.4c3.2,1.7,6.6,3.1,10.1,4.1
				c2.4,0.7,4.8,0.8,7.2,0.6c0.7-0.1,1.3-0.4,2-0.6c0.4-0.1,0.8-0.3,1.3-0.4c-0.1,1.6-0.8,2.9-1.8,4.2c-1.2,1.5-2.8,2.3-4.7,2.4
				c-1.8,0.1-3.6-0.1-5.4-0.6c-2.4-0.7-4.8-1.5-7.1-2.6c-3.4-1.5-6.6-3.2-9.7-5.2c-1.3-0.8-2.4-1.7-3.4-2.8
				c-1.9-2.1-2.6-4.6-2.1-7.3c0.3-1.7,0.9-3.4,1.9-4.8C261.1,86.9,261.6,86.1,262.6,85.8z"/>
		</g>
		<g>
			<path class="st20" d="M167.8,114.2c0.9-1.2,2.1-1.7,3.4-2c1.7-0.5,3.5-0.8,5.3-1.2c4.3-0.8,8.6-1.5,12.9-2.3c1.5-0.3,3-0.6,4.5-1
				c4.2-0.9,6.4,1.2,7.2,4.5c0.3,1,0.4,2,0.3,3.1c-1.7,1.3-3.3,2.6-5.2,3.6c-3.4,1.8-7,2.9-10.7,3.7c-2,0.4-4.1,0.6-6.1,0.8
				c-2.3,0.2-4.5-0.3-6.6-0.8c-2.2-0.6-3.8-1.9-4.5-4.3C167.9,116.9,167.8,115.6,167.8,114.2z"/>
			<path class="st15" d="M167.8,114.2c0,1.3,0.1,2.7,0.5,4c0.7,2.3,2.3,3.7,4.5,4.3c2.1,0.6,4.4,1.1,6.6,0.8c2-0.2,4.1-0.4,6.1-0.8
				c3.7-0.7,7.3-1.9,10.7-3.7c1.9-1,3.6-2.3,5.2-3.6c0.3,3.2-1,5.8-3.6,7.6c-1.3,0.9-2.7,1.5-4.2,2c-4,1.3-8.1,2.1-12.2,2.7
				c-2.5,0.3-5,0.5-7.5,0.4c-1.4,0-2.7-0.3-4-0.7c-2.1-0.8-3.6-2.2-4.3-4.4c-0.9-2.9-0.6-5.6,1.3-8.1
				C167.3,114.6,167.6,114.4,167.8,114.2z"/>
		</g>
		<path class="st45" d="M241.3,148.9c0-0.6-0.1-1.3-0.1-1.9c0-0.4,0.3-0.7,0.7-0.8c0.4-0.1,0.8,0.2,0.9,0.6c0.1,0.2,0.1,0.5,0.2,0.8
			c0.5,4.1-0.3,7.8-2.8,11.2c-1.7,2.3-3.9,3.8-6.7,4.2c-3,0.5-5.7-0.3-8-2.1c-3.6-2.8-5.3-6.7-5.6-11.2c0-0.3,0-0.6,0.1-0.7
			c0.2-0.2,0.5-0.5,0.8-0.5s0.7,0.2,0.7,0.5c0.2,0.7,0.3,1.4,0.4,2.1c0.3,1.8,0.9,3.5,1.8,5.1c0.9,1.6,2.1,2.9,3.7,3.9
			c3.3,2.1,7.1,1.8,10-0.8c1.5-1.3,2.5-3,3.1-4.8C241.1,152.5,241.4,150.7,241.3,148.9z"/>
		<g>
			<path class="st51" d="M265,117.6c2-1.1,4.1-1.6,6.3-1.9c12.8-2.1,25.2,4.9,30.1,16.7c1.9,4.6,2.6,9.3,1.9,14.2
				c-0.3,0.1-0.6,0.2-0.8,0.4c-0.5,0.6-0.9,1.4-1.5,2c-1.5,1.5-2.9,3.2-4.5,4.5c-3.3,2.5-6.9,4.1-11,4.9c-2.3,0.4-4.5,0.5-6.7,0.1
				c-3.6-0.5-7.1-1.6-10.3-3.6c-1.8-1.1-3.5-2.5-4.8-4.2c-1.8-2.3-3.1-4.9-3.6-7.8c-0.4-2.1-0.9-4.1-0.8-6.3c0-0.9,0.3-1.8,0.3-2.7
				c0-1.4,0.4-2.8,0.7-4.2c0.7-3,1.8-5.9,3.2-8.7C263.9,120,264.4,118.8,265,117.6z M280.9,119.9c-0.4,0-0.8-0.1-1.2,0
				c-1,0.2-2,0.5-2.7,1.4c-1,1.3-1.3,2.8-0.3,4.3c0.4,0.6,0.8,1.2,1.3,1.7c1.2,1.2,2.4,2.4,3.6,3.5c1.5,1.4,2.9,2.9,4,4.7
				c0.7,1.2,1.9,1.8,3.2,2.3c1.3,0.5,2.3,0,3.2-0.7c1-0.8,1.5-2,1.6-3.4c0.1-1.3-0.1-2.5-0.6-3.6c-1.8-4.4-4.7-7.8-9.2-9.7
				C282.9,120,281.9,119.7,280.9,119.9z M297.4,143.1C297.5,143.1,297.5,143.1,297.4,143.1c0-0.3,0-0.6,0-1c-0.3-1.4-1.5-2.4-3-2.5
				c-1.7-0.1-2.8,0.5-3.3,2c-0.6,1.6,0.1,3.7,1.6,4.5c2.1,1.2,4.1,0.4,4.7-2.1C297.5,143.7,297.4,143.4,297.4,143.1z"/>
			<path class="st1" d="M265,117.6c-0.5,1.2-1,2.3-1.6,3.5c-1.4,2.8-2.5,5.7-3.2,8.7c-0.3,1.4-0.7,2.7-0.7,4.2
				c0,0.9-0.3,1.8-0.3,2.7c-0.1,2.1,0.4,4.2,0.8,6.3c0.5,2.9,1.8,5.5,3.6,7.8c1.3,1.7,3,3,4.8,4.2c3.1,2,6.6,3.1,10.3,3.6
				c2.2,0.3,4.5,0.3,6.7-0.1c4.1-0.7,7.8-2.4,11-4.9c1.7-1.3,3.1-2.9,4.5-4.5c0.6-0.6,1-1.4,1.5-2c0.2-0.2,0.5-0.3,0.8-0.4
				c-0.2,3.1-1.1,5.9-2.5,8.6c-4.3,8.4-11.1,13.6-20.4,15.2c-14.6,2.5-28.9-7-31.8-22.3c-2.4-12.5,4.1-25.2,16.1-30.5
				C264.7,117.7,264.8,117.7,265,117.6z"/>
			<path class="st33" d="M280.9,119.9c1-0.1,2,0.2,3,0.6c4.4,1.9,7.4,5.2,9.2,9.7c0.4,1.1,0.6,2.3,0.6,3.6c-0.1,1.4-0.6,2.5-1.6,3.4
				c-0.9,0.7-1.9,1.2-3.2,0.7c-1.3-0.5-2.5-1.1-3.2-2.3c-1.1-1.8-2.6-3.2-4-4.7c-1.2-1.2-2.4-2.3-3.6-3.5c-0.5-0.5-0.9-1.1-1.3-1.7
				c-0.9-1.5-0.6-3,0.3-4.3c0.6-0.9,1.6-1.2,2.7-1.4C280.1,119.8,280.5,119.9,280.9,119.9z"/>
			<path class="st33" d="M297.4,143.1c0,0.3,0.1,0.6,0,1c-0.6,2.5-2.6,3.3-4.7,2.1c-1.5-0.8-2.1-2.9-1.6-4.5c0.5-1.5,1.5-2.1,3.3-2
				c1.5,0.1,2.7,1.1,3,2.5C297.5,142.4,297.5,142.8,297.4,143.1C297.5,143.1,297.5,143.1,297.4,143.1z"/>
		</g>
		<g>
			<path class="st51" d="M185.6,133.9c6.8-2.5,13.3-1.7,19.4,2.3c7.5,5,10.7,14.1,8.8,21.9c-0.4,0-0.7,0.2-1,0.6
				c-0.3,0.4-0.6,0.8-0.9,1.2c-1.5,1.8-3.6,2.9-5.8,3.8c-2.1,0.9-4.4,1.4-6.8,1.4c-1.4,0-2.7,0.1-4.1,0c-1.7-0.1-3.4-0.4-5-1.1
				c-4.8-2.1-7.5-5.9-8.8-10.8c-0.3-0.9-0.4-1.9-0.5-2.8c-0.2-3.1,0.2-6.1,1.3-9.1c0.8-2.1,1.5-4.2,2.8-6.1
				C185.3,134.8,185.4,134.4,185.6,133.9z M206.9,147.1c0-0.3,0-0.6-0.1-0.8c-0.6-3.3-2.4-5.9-5.1-8c-1.1-0.8-2.3-1.3-3.7-1.6
				c-2.6-0.4-4.8,2.1-3.9,4.6c0.3,0.9,0.8,1.8,1.3,2.5c1.5,2,3.3,3.8,4.6,6c0.4,0.8,1.2,1.1,2,1.5c1.1,0.6,2.1,0.3,3.1-0.4
				C206.3,149.9,206.7,148.5,206.9,147.1z M209.6,156.4c0-1.9-1.2-3.2-3-3.3c-1.8-0.1-3.2,1.2-3.2,2.9c0,1.7,1.6,3.4,3.3,3.3
				C208.3,159.3,209.6,158,209.6,156.4z"/>
			<path class="st1" d="M185.6,133.9c-0.2,0.4-0.3,0.9-0.5,1.2c-1.3,1.9-2.1,4-2.8,6.1c-1.1,2.9-1.4,6-1.3,9.1
				c0.1,0.9,0.2,1.9,0.5,2.8c1.4,4.9,4.1,8.7,8.8,10.8c1.6,0.7,3.3,1.1,5,1.1c1.4,0.1,2.7,0,4.1,0c2.3,0,4.6-0.6,6.8-1.4
				c2.1-0.9,4.2-1.9,5.8-3.8c0.3-0.4,0.6-0.8,0.9-1.2c0.2-0.4,0.6-0.5,1-0.6c-1.7,7.8-6.4,13.1-13.8,15.8
				c-12.6,4.5-25.8-3.8-28-16.4c-1.7-9.8,3.6-19.9,13.3-23.6C185.3,134,185.5,134,185.6,133.9z"/>
			<path class="st33" d="M206.9,147.1c-0.2,1.5-0.6,2.9-1.8,3.9c-0.9,0.7-1.9,0.9-3.1,0.4c-0.8-0.4-1.5-0.7-2-1.5
				c-1.3-2.2-3.1-3.9-4.6-6c-0.6-0.8-1-1.6-1.3-2.5c-0.9-2.5,1.3-5,3.9-4.6c1.4,0.2,2.6,0.7,3.7,1.6c2.6,2,4.4,4.7,5.1,8
				C206.9,146.5,206.9,146.8,206.9,147.1z"/>
			<path class="st33" d="M209.6,156.4c0,1.6-1.3,2.9-2.9,2.9c-1.7,0-3.4-1.7-3.3-3.3c0-1.6,1.5-2.9,3.2-2.9
				C208.4,153.2,209.6,154.5,209.6,156.4z"/>
		</g>
	</g>
</g>
</svg>
