<?xml version="1.0" encoding="utf-8"?>
<!-- Generator: Adobe Illustrator 24.0.2, SVG Export Plug-In . SVG Version: 6.00 Build 0)  -->
<svg version="1.0" id="Layer_1" xmlns="http://www.w3.org/2000/svg" xmlns:xlink="http://www.w3.org/1999/xlink" x="0px" y="0px"
	 viewBox="0 0 453.54 453.54" enable-background="new 0 0 453.54 453.54" xml:space="preserve">
<g>
	<path fill="#1EA192" d="M150.78,257.15c2.14-0.45,4.23-0.05,6.29,0.48c2.37,0.61,4.71,1.33,7.09,1.89
		c2.63,0.62,5.29,1.08,7.93,1.67c1.31,0.29,2.64,0.61,3.88,1.12c1.51,0.62,2.79,1.6,3.28,3.29c-0.28,0.35-0.58,0.68-0.83,1.05
		c-1.85,2.82-4.48,4.53-7.73,5.28c-3.32,0.77-6.66,0.6-9.9-0.29c-2.65-0.73-5.23-1.75-7.53-3.32c-1.27-0.86-2.51-1.77-3.77-2.65
		c0.24-0.58,0.52-1.15,0.7-1.74c0.23-0.72,0.37-1.46,0.55-2.19C151.35,260.21,151.11,258.68,150.78,257.15z"/>
	<path fill="#443C54" d="M150.78,257.15c0.33,1.53,0.58,3.06-0.03,4.58c-0.9,0.33-1.79,0.7-2.7,0.97c-3.39,1.01-6.66,0.23-9.77-1.01
		c-3.6-1.44-6.68-3.77-9.52-6.4c-1.03-0.96-2.04-1.94-3.04-2.92c-0.21-0.21-0.35-0.48-0.6-0.83c0.95-0.81,1.98-1.33,2.92-1.98
		c0.57-0.4,1.21-0.77,1.66-1.29c1.36-1.61,2.84-3.15,3.59-5.19c0.13-0.35,0.43-0.63,0.65-0.94c3.24,3.57,6.75,6.85,10.79,9.52
		c0.96,0.64,1.91,1.3,2.85,1.97C148.91,254.55,150.02,255.69,150.78,257.15z"/>
	<path fill="#3A3143" d="M133.94,242.13c-0.22,0.31-0.52,0.59-0.65,0.94c-0.75,2.04-2.23,3.58-3.59,5.19
		c-0.44,0.52-1.08,0.89-1.66,1.29c-0.94,0.66-1.97,1.18-2.92,1.98c0.25,0.35,0.39,0.62,0.6,0.83c1,0.99,2.01,1.97,3.04,2.92
		c2.84,2.63,5.92,4.96,9.52,6.4c3.11,1.24,6.38,2.02,9.77,1.01c0.92-0.27,1.8-0.64,2.7-0.97c-0.18,0.73-0.33,1.47-0.55,2.19
		c-0.19,0.6-0.47,1.16-0.7,1.74c-0.17,0.27-0.33,0.54-0.5,0.8c-0.59-0.24-1.17-0.48-1.76-0.73c-1.36-0.57-2.77-0.94-4.24-1.12
		c-1.08-0.13-2.17-0.11-3.22,0.2c-1.18,0.35-2.28,0.84-2.78,2.11c-0.62,0.76-0.4,1.69-0.54,2.55c-2.13-0.78-4-2.03-5.81-3.35
		c-3.65-2.66-6.83-5.81-9.7-9.29c-1.39-1.69-2.69-3.44-3.78-5.34c-0.44-0.77-0.74-1.63-1.1-2.45c0.57-0.1,1.13-0.19,1.7-0.3
		c3.91-0.74,7.46-2.23,10.58-4.77c1.46-1.19,2.61-2.64,3.84-4.02C132.77,240.69,133.35,241.41,133.94,242.13z"/>
	<path fill="#218B8B" d="M148.99,266.47c0.17-0.27,0.33-0.54,0.5-0.8c1.26,0.88,2.5,1.79,3.77,2.65c2.31,1.57,4.88,2.59,7.53,3.32
		c3.24,0.89,6.59,1.06,9.9,0.29c3.25-0.75,5.88-2.46,7.73-5.28c0.24-0.37,0.55-0.7,0.83-1.05c0.2,0.4,0.47,0.78,0.58,1.2
		c0.83,3.1,0.53,6.13-0.84,9.02c-1,2.11-2.73,3.36-4.98,3.91c-1.84,0.45-3.69,0.45-5.56,0.29c-3.29-0.27-6.47-1.03-9.6-2.04
		c-1.34-0.43-2.63-1-3.94-1.51c0.15-0.64,0.58-1.24,0.32-1.95c-0.09-0.61-0.1-1.25-0.3-1.83c-0.52-1.54-1.54-2.77-2.76-3.8
		C151.15,268.02,150.05,267.27,148.99,266.47z"/>
	<path fill="#473D55" d="M87.29,220.43c0.35-0.67,0.63-1.38,1.05-2c1-1.44,2.46-1.8,4.08-1.37c0.86,0.23,1.7,0.59,2.46,1.05
		c1.36,0.83,2.72,1.69,3.97,2.69c4.49,3.6,8.94,7.26,13.4,10.9c-1.84,1.13-3.69,2.25-5.53,3.38c-0.24-0.2-0.46-0.45-0.73-0.6
		c-1.22-0.69-2.43-1.42-3.7-2.02c-3.03-1.42-5.78-3.3-8.51-5.18c-1.95-1.34-3.74-2.91-4.86-5.07c-0.24-0.45-0.51-0.9-0.84-1.29
		C87.88,220.7,87.55,220.59,87.29,220.43z"/>
	<path fill="#443C54" d="M119.88,199.78c2.06-0.56,3.5,0.37,4.51,2.01c0.56,0.91,0.98,1.96,1.25,3c0.56,2.16,1.12,4.35,1.41,6.55
		c0.47,3.55,0.73,7.12,1.09,10.69c-1.52,0.94-3.05,1.87-4.57,2.81c-0.36-0.61-0.83-1.18-1.07-1.83c-0.52-1.38-1.15-2.72-1.65-4.09
		c-1.24-3.43-2.55-6.85-3.29-10.45c-0.38-1.84-0.56-3.68-0.56-5.55c-0.01-1.37,0.46-2.37,1.76-2.91c0,0,0.05-0.01,0.05-0.01
		C119.17,199.93,119.52,199.85,119.88,199.78z"/>
	<path fill="#1EA192" d="M106.72,235.09c1.84-1.13,3.69-2.25,5.53-3.38c0.95-0.5,1.93-0.94,2.84-1.5c1.68-1.01,3.32-2.09,4.97-3.13
		c0.97-0.57,1.95-1.15,2.92-1.72c0.28,0.37,0.45,0.74,0.2,1.23c-0.42,0.86-0.72,1.78-1.2,2.61c-2.22,3.88-5.18,7.09-8.84,9.66
		c-0.26,0.18-0.59,0.32-0.77,0.56c-0.76,1.01-1.88,1.52-2.87,2.22c-0.84,0.57-1.68,1.13-2.52,1.7c-0.88,0.55-1.76,1.11-2.64,1.66
		c-0.29,0.13-0.61,0.22-0.86,0.4c-0.8,0.58-1.51,0.44-2.25-0.14c-1.38-1.09-2.06-2.55-2.33-4.24c-0.1-0.65,0.18-1.09,0.71-1.43
		c0.97-0.61,1.92-1.25,2.88-1.87C103.91,236.84,105.31,235.97,106.72,235.09z"/>
	<path fill="#F2B630" d="M134.41,227.24c0.42,1.78,0.56,3.57,0.13,5.37c-0.04,0.2-0.08,0.39-0.11,0.59c0,0,0.03-0.04,0.03-0.04
		c-0.75,0.3-1.23,0.9-1.71,1.51c-1.04,1.32-2.23,2.46-3.72,3.28c-0.67,0.37-1.32,0.79-1.95,1.24c-1.91,1.37-4.07,2.15-6.34,2.6
		c-3.05,0.62-5.98,0.17-8.74-1.29c0.37-0.25,0.73-0.52,1.12-0.75c5.19-3.11,10.37-6.23,15.58-9.31
		C130.57,229.32,132.51,228.3,134.41,227.24z"/>
	<path fill="#278A88" d="M134.41,227.24c-1.91,1.06-3.84,2.08-5.72,3.2c-5.21,3.08-10.39,6.2-15.58,9.31
		c-0.38,0.23-0.75,0.5-1.12,0.75c-0.83,0.39-1.65,0.77-2.48,1.16c0.98-0.7,2.11-1.22,2.87-2.22c0.18-0.24,0.51-0.38,0.77-0.56
		c3.66-2.56,6.62-5.78,8.84-9.66c0.47-0.83,0.77-1.75,1.2-2.61c0.24-0.49,0.08-0.86-0.2-1.23c0.2-0.17,0.4-0.35,0.59-0.52
		c1.52-0.94,3.05-1.87,4.57-2.81c1.08-0.56,2.18-1.07,3.22-1.68c0.86-0.5,1.27-0.66,2.22,0.24c0.98,0.93,1.83,1.98,2.23,3.32
		c0.44,1.45,0.27,1.98-0.97,2.94C134.69,226.97,134.56,227.11,134.41,227.24z"/>
	<path fill="#3C3345" d="M123.57,224.84c-0.2,0.17-0.4,0.35-0.59,0.52c-0.97,0.57-1.95,1.15-2.92,1.72
		c-2.63-4.99-5.03-10.09-6.71-15.49c-0.42-1.34-0.69-2.73-0.87-4.12c-0.4-3.03,0.88-5.22,3.58-6.59c0.85-0.43,1.73-0.81,2.71-0.87
		c-1.3,0.54-1.77,1.54-1.77,2.91c0.01,1.87,0.18,3.71,0.56,5.55c0.75,3.6,2.05,7.01,3.29,10.45c0.5,1.38,1.13,2.71,1.65,4.09
		C122.75,223.66,123.21,224.23,123.57,224.84z"/>
	<path fill="#3C3345" d="M106.72,235.09c-1.4,0.88-2.81,1.76-4.22,2.64c-1.52-0.82-3.05-1.62-4.57-2.45
		c-2.31-1.26-4.56-2.61-6.64-4.23c-0.86-0.67-1.68-1.39-2.44-2.16c-2.4-2.45-2.98-5.27-1.56-8.45c0.26,0.16,0.59,0.27,0.77,0.49
		c0.33,0.39,0.6,0.83,0.84,1.29c1.13,2.17,2.92,3.73,4.86,5.07c2.74,1.88,5.48,3.77,8.51,5.18c1.27,0.59,2.48,1.33,3.7,2.02
		C106.25,234.64,106.47,234.88,106.72,235.09z"/>
	<path fill="#F3A627" d="M109.51,241.65c0.83-0.39,1.65-0.77,2.48-1.16c2.76,1.46,5.69,1.91,8.74,1.29c2.27-0.46,4.43-1.24,6.34-2.6
		c0.63-0.45,1.28-0.87,1.95-1.24c1.49-0.82,2.68-1.95,3.72-3.28c0.48-0.61,0.96-1.21,1.71-1.51c-0.05,1.59-0.47,3.08-1.28,4.46
		c-0.41,0.31-0.85,0.58-1.21,0.94c-0.77,0.76-1.45,1.63-2.26,2.35c-1.63,1.46-3.44,2.65-5.52,3.43c-2.01,0.75-4.08,1.19-6.2,1.28
		c-3.11,0.13-6.16-0.16-9.03-1.49c-0.64-0.29-1.31-0.52-1.96-0.77C107.83,242.78,108.67,242.22,109.51,241.65z"/>
	<path fill="#F19020" d="M106.99,243.35c0.66,0.26,1.33,0.48,1.96,0.77c2.87,1.33,5.92,1.63,9.03,1.49c2.13-0.09,4.2-0.52,6.2-1.28
		c2.08-0.78,3.88-1.97,5.52-3.43c0.81-0.72,1.49-1.58,2.26-2.35c0.36-0.36,0.8-0.63,1.21-0.94c-0.33,0.78-0.66,1.56-0.99,2.34
		c-1.23,1.38-2.38,2.83-3.84,4.02c-3.12,2.54-6.67,4.03-10.58,4.77c-0.56,0.11-1.13,0.2-1.7,0.3c-0.26-0.02-0.51-0.06-0.76-0.06
		c-4.17,0.09-7.77-1.38-10.95-3.99C105.23,244.45,106.11,243.9,106.99,243.35z"/>
	<path fill="#F19323" d="M155.22,274.51c0.26,0.71-0.17,1.31-0.32,1.95c-1.37,1.72-3.24,2.26-5.32,2.13
		c-4.67-0.29-8.47-2.36-11.53-5.85c-0.81-0.93-1.29-2.06-1.6-3.26c0.14-0.86-0.08-1.79,0.54-2.55c0.98,1.67,2.31,3.04,3.72,4.34
		c0.37,0.34,0.79,0.65,1.21,0.93c2.04,1.39,4.28,2.26,6.71,2.7c1.54,0.28,3.03,0.35,4.54-0.08
		C153.84,274.63,154.49,274.29,155.22,274.51z"/>
	<path fill="#3C3345" d="M119.88,199.78c-0.36,0.07-0.71,0.15-1.07,0.22C119.17,199.93,119.52,199.85,119.88,199.78z"/>
	<path fill="#F3A627" d="M134.42,233.2c0.04-0.2,0.08-0.39,0.11-0.59C134.5,232.81,134.46,233,134.42,233.2z"/>
	<path fill="#F2B630" d="M155.22,274.51c-0.73-0.22-1.38,0.12-2.04,0.31c-1.52,0.44-3,0.36-4.54,0.08c-2.44-0.44-4.67-1.31-6.71-2.7
		c-0.42-0.29-0.83-0.59-1.21-0.93c-1.41-1.3-2.74-2.67-3.72-4.34c0.5-1.26,1.6-1.76,2.78-2.11c1.05-0.31,2.14-0.33,3.22-0.2
		c1.46,0.18,2.88,0.55,4.24,1.12c0.58,0.24,1.17,0.48,1.76,0.73c1.06,0.8,2.16,1.56,3.17,2.41c1.22,1.03,2.23,2.26,2.76,3.8
		C155.12,273.26,155.12,273.9,155.22,274.51z"/>
</g>
<g>
	<path fill="#F4B833" d="M92.6,75.65c1.84-1.42,3.8-1.23,5.79-0.39c0.69,0.29,1.35,0.67,2.12,1.06c0.37-0.58,0.31-1.17,0.44-1.7
		c0.43-1.65,1.16-3.12,2.46-4.25c2.08-1.81,4.77-1.82,6.79,0.05c1.77,1.63,2.73,3.68,2.8,6.11c-0.17,0.09-0.42,0.13-0.49,0.27
		c-0.44,0.93-0.92,1.85-1.25,2.82c-0.73,2.16-2.33,3.49-4.19,4.57c-1.32,0.77-2.78,0.9-4.29,0.86c-4.18-0.11-7.16-2.1-9.14-5.71
		C93.03,78.18,92.77,76.93,92.6,75.65z M110.44,75.41c0.01-1.99-0.5-3.02-1.94-4.06c-1.01-0.73-2.15-0.83-2.85-0.25
		c-0.72,0.59-0.92,1.76-0.34,2.83c0.61,1.13,1.3,2.21,2.02,3.26c0.24,0.34,0.66,0.6,1.06,0.77c0.66,0.28,1.25,0.01,1.63-0.62
		C110.41,76.7,110.49,76.01,110.44,75.41z"/>
	<path fill="#F3A829" d="M92.6,75.65c0.17,1.28,0.42,2.53,1.05,3.67c1.98,3.61,4.96,5.6,9.14,5.71c1.51,0.04,2.97-0.09,4.29-0.86
		c1.86-1.08,3.46-2.42,4.19-4.57c0.33-0.97,0.8-1.89,1.25-2.82c0.06-0.14,0.32-0.18,0.49-0.27c0.4,2.95-0.24,5.65-1.94,8.09
		c-1.22,0.58-2.45,1.12-3.65,1.73c-2.4,1.24-4.99,1.25-7.52,0.85c-2.54-0.4-4.65-1.77-6.32-3.76c-1.49-1.77-2.29-3.82-2.48-6.12
		C91.3,76.51,91.83,75.97,92.6,75.65z"/>
	<path fill="#F39324" d="M91.09,77.33c0.19,2.3,1,4.35,2.48,6.12c1.67,1.99,3.79,3.37,6.32,3.76c2.53,0.4,5.12,0.39,7.52-0.85
		c1.2-0.62,2.43-1.16,3.65-1.73c-0.96,1.96-2.53,3.37-4.2,4.68c-0.56,0.22-1.12,0.45-1.69,0.67c-2.11,0.27-4.2,0.35-6.28-0.28
		c-3.06-0.92-5.5-2.65-7.24-5.35c-0.67-1.04-1.09-2.18-1.28-3.39C90.19,79.68,90.22,78.41,91.09,77.33z"/>
	<path fill="#F3D148" d="M110.44,75.41c0.04,0.6-0.03,1.29-0.42,1.93c-0.39,0.63-0.97,0.9-1.63,0.62c-0.4-0.17-0.82-0.43-1.06-0.77
		c-0.73-1.05-1.42-2.14-2.02-3.26c-0.57-1.07-0.38-2.24,0.34-2.83c0.7-0.58,1.85-0.48,2.85,0.25
		C109.95,72.39,110.46,73.42,110.44,75.41z"/>
	<path fill="#52475F" d="M105.38,89.78c0.48-0.43,1.04-0.66,1.68-0.71c0.41,1.01,0.63,2.1,1.44,3.07c0.37-0.08,0.81-0.11,1.2-0.26
		c0.78-0.3,1.53-0.68,2.31-0.98c0.54-0.21,1.08-0.44,1.65-0.53c1.01-0.16,1.79,0.63,1.6,1.63c-0.1,0.49-0.28,1.01-0.57,1.42
		c-0.73,1.06-1.53,2.07-2.32,3.09c-0.35,0.45-0.75,0.87-1.15,1.34c0.46,1.68,1.35,3.11,2.1,4.6c-0.36,0.56-0.88,0.9-1.5,1.1
		c-0.66-1.32-1.32-2.65-1.99-3.97c-0.69-1.38-0.52-2.59,0.61-3.69c0.55-0.54,1.03-1.15,1.51-1.75c0.21-0.26,0.29-0.57,0.09-0.77
		c-0.32-0.32-0.56-0.14-0.79-0.06c-0.49,0.17-0.97,0.34-1.44,0.55c-1.23,0.56-2.61,0.19-3.36-1.36
		C106.03,91.61,105.73,90.68,105.38,89.78z"/>
</g>
<g>
	<g>
		<path fill="#23A192" d="M301.35,402.36c1.6-0.05,3.2-0.12,4.8-0.15c3.01-0.05,6.03-0.03,9.04-0.12c1.06-0.03,1.87,0.31,2.54,1.08
			c0.29,0.34,0.62,0.65,0.88,1.02c2.48,3.58,3.84,7.5,3.62,11.9c-0.84,0-1.67-0.02-2.51-0.01c-5.73,0.1-11.45,0.22-17.18,0.29
			c-4.31,0.06-8.63,0.08-12.94,0.09c-3.03,0.01-6.05-0.04-9.08-0.06c-0.06-0.33-0.19-0.61-0.56-0.69c-0.63-0.14-1.25-0.28-1.87-0.44
			c-2.52-0.64-4.85-1.72-7.04-3.08c-2-1.24-3.56-2.98-5.03-4.75c-1.05-1.27-1.93-2.73-2.2-4.44c0.92-0.06,1.84-0.12,2.76-0.17
			c0.64,0.03,1.28,0.08,1.93,0.07c4.31-0.09,8.63-0.22,12.94-0.29C288.08,402.51,294.72,402.44,301.35,402.36z"/>
		<path fill="#393042" d="M282.65,309.72c0.62,2.8,0.65,5.64,0.52,8.49c-1.44,0.15-2.81-0.26-4.17-0.58
			c-2.38-0.55-4.71-1.28-6.89-2.44c-0.43-0.23-0.89-0.6-1.44-0.24c-0.06,0.11-0.17,0.22-0.17,0.33c-0.02,1.47-0.26,2.95,0.22,4.41
			c0.14,0.41,0.1,0.89,0.1,1.34c0,9.34,0,18.68-0.01,28.02c-1.46,0.12-2.78-0.46-4.14-0.8c-1.13-1.34-1.51-2.95-1.58-4.65
			c-0.05-1.09-0.07-2.18-0.07-3.27c0.01-8.99,0.04-17.99,0.05-26.98c0.01-3.08,0.05-6.17-0.02-9.25c-0.04-1.95,0.54-3.64,1.65-5.2
			c0.1-0.11,0.2-0.23,0.3-0.34c0,0,0.04-0.04,0.04-0.04c0.12-0.11,0.23-0.23,0.35-0.34l0.04-0.03c0.23-0.16,0.45-0.31,0.68-0.47
			l-0.01,0.01c0.27-0.12,0.54-0.25,0.8-0.37l-0.01,0c0.12,0.04,0.24,0.09,0.37,0.13c0.14,1.39,0.33,2.78,0.4,4.18
			c0.04,0.88,0.4,1.45,1.13,1.85c1.34,0.74,2.67,1.51,4.04,2.21c1.65,0.86,3.33,1.65,4.98,2.5
			C280.76,308.68,281.7,309.2,282.65,309.72z"/>
		<path fill="#23A192" d="M283.22,356.96c0.08,0.89,0.2,1.79,0.22,2.68c0.07,2.57,0.1,5.14,0.14,7.7
			c0.08,5.52,0.18,11.04,0.23,16.56c0.01,1.28-0.11,2.56-0.18,3.84c-2.35-0.1-4.7-0.21-7.05-0.29c-1.27-0.05-2.55-0.04-3.82-0.06
			c-0.01-2.96-0.01-5.92-0.03-8.88c0-0.58-0.07-1.15-0.12-1.72c-0.07-0.76-0.2-1.52-0.24-2.28c-0.17-3.91,0.16-7.82-0.33-11.73
			c-0.31-2.47-0.06-5.01-0.06-7.52c0-0.26-0.01-0.53,0.08-0.76c0.36-0.87,0.31-1.77,0.27-2.67c-0.04-0.92,0.15-1.78,0.42-2.64
			c1.14-0.05,2.27-0.11,3.41-0.16c0.22,0.6,0.43,1.2,0.66,1.8c0.53,1.38,1.15,2.71,2.11,3.86
			C280.07,356.04,281.4,356.96,283.22,356.96z"/>
		<path fill="#463F57" d="M280.52,416.4c3.03,0.02,6.05,0.06,9.08,0.06c4.31-0.01,8.63-0.03,12.94-0.09
			c5.73-0.08,11.46-0.2,17.18-0.29c0.84-0.01,1.67,0,2.51,0.01c0.21,1.52-0.16,2.94-0.78,4.3c-0.2,0.44-0.55,0.71-1.05,0.71
			c-0.39,0.01-0.77,0.02-1.16,0.02c-19.69,0.29-39.39,0.58-59.08,0.87c-2.19,0.03-4.38,0.11-6.56,0.14
			c-1.51,0.02-1.75-0.16-2.21-1.61c-0.37-1.16-0.7-2.34-0.61-3.59c0.77-0.02,1.55-0.06,2.32-0.07c6.19-0.03,12.37-0.03,18.56-0.1
			c2.89-0.03,5.78-0.22,8.68-0.33C280.4,416.44,280.46,416.42,280.52,416.4z"/>
		<path fill="#1B8A8A" d="M272.78,349.2c-0.27,0.86-0.46,1.73-0.42,2.64c0.04,0.89,0.08,1.8-0.27,2.67
			c-0.09,0.23-0.08,0.51-0.08,0.76c0,2.51-0.26,5.05,0.06,7.52c0.5,3.92,0.16,7.83,0.33,11.73c0.03,0.76,0.17,1.52,0.24,2.28
			c0.05,0.57,0.12,1.15,0.12,1.72c0.02,2.96,0.02,5.92,0.03,8.88c-1.55,0.18-3.15-0.1-4.67,0.45c-0.99,0.03-1.99,0.05-2.98,0.08
			c-0.07-1.67-0.17-3.34-0.22-5.01c-0.24-8.93-0.63-17.87-0.29-26.81c0.07-1.87,0.24-3.72,0.8-5.52c0.27-0.85,0.5-1.74,1.25-2.35
			c1.37,0.33,2.69,0.91,4.14,0.79C271.47,349.1,272.12,349.15,272.78,349.2z"/>
		<path fill="#463C54" d="M272.78,349.2c-0.66-0.05-1.31-0.1-1.97-0.15c0-9.34,0.01-18.68,0.01-28.02c0-0.45,0.04-0.93-0.1-1.34
			c-0.48-1.46-0.24-2.93-0.22-4.41c0-0.11,0.11-0.22,0.17-0.33c0.55-0.35,1,0.01,1.44,0.24c2.18,1.16,4.51,1.89,6.89,2.44
			c1.37,0.32,2.74,0.73,4.17,0.58c0.03,1.59,0.09,3.17,0.09,4.76c0,2.61-0.05,5.22-0.08,7.82c-2.56-0.36-4.32,0.81-5.54,2.94
			c-0.41,0.72-0.76,1.48-1.04,2.26c-1.07,3.07-1.32,6.24-0.95,9.46c0.14,1.2,0.34,2.4,0.52,3.6
			C275.05,349.09,273.91,349.14,272.78,349.2z"/>
		<path fill="#1D8989" d="M280.52,416.4c-0.06,0.01-0.13,0.04-0.19,0.04c-2.89,0.12-5.78,0.3-8.68,0.33
			c-6.19,0.07-12.37,0.07-18.56,0.1c-0.77,0-1.55,0.04-2.32,0.07c-0.61-3.4-0.37-6.77,0.33-10.12c0.17-0.81,0.49-1.59,0.76-2.38
			c0.32-0.96,0.96-1.45,2.02-1.41c0.77,0.03,1.54-0.05,2.31-0.08c0.83,0.01,1.65,0.03,2.48,0.03c1.71,0.01,3.43,0.02,5.14,0.03
			c0.27,1.71,1.15,3.17,2.2,4.44c1.47,1.77,3.03,3.52,5.03,4.75c2.2,1.36,4.52,2.44,7.04,3.08c0.62,0.16,1.25,0.3,1.87,0.44
			C280.33,415.8,280.46,416.07,280.52,416.4z"/>
		<path fill="#463C54" d="M268.11,387.85c1.52-0.55,3.11-0.27,4.67-0.45c1.27,0.02,2.55,0.01,3.82,0.06
			c2.35,0.08,4.7,0.19,7.05,0.29c0.68,0.16,1.37,0.32,2.05,0.49c3.09,0.81,5,2.69,5.41,5.94c0.16,1.27,0.28,2.54-0.02,3.8
			c-1.85-0.53-3.72-0.91-5.66-0.97c-5.33-0.17-10.65-0.06-15.98,0.05c-0.19,0-0.38,0.05-0.57,0.08c-0.12-0.05-0.23-0.1-0.35-0.16
			c0.43-0.09,0.85-0.25,1.28-0.26c1.41-0.03,2.82-0.01,4.22-0.02c0.48,0,0.97,0.07,1.57-0.11c-0.24-0.21-0.35-0.37-0.5-0.44
			c-1.33-0.63-2.54-1.43-3.69-2.36c-0.72-0.59-1.14-1.36-1.77-1.98C268.54,390.75,267.98,389.42,268.11,387.85z"/>
		<path fill="#F4B833" d="M283.58,331.05c1.32,0.39,2.13,1.4,2.88,2.44c1.04,1.42,1.7,3.04,2.14,4.73c0.98,3.73,1.12,7.5,0.37,11.3
			c-0.28,1.4-0.72,2.75-1.44,3.98c-0.32,0.54-0.77,1-1.17,1.49c-0.24-0.07-0.56-0.07-0.72-0.23c-0.96-0.95-2-1.84-2.79-2.91
			c-1.45-1.95-2.13-4.29-2.27-6.65c-0.16-2.67-0.33-5.38,0.27-8.06c0.37-1.65,0.85-3.21,1.81-4.61
			C282.99,332.04,283.27,331.54,283.58,331.05z"/>
		<path fill="#F19220" d="M283.58,331.05c-0.31,0.49-0.59,0.99-0.92,1.47c-0.96,1.4-1.44,2.96-1.81,4.61
			c-0.6,2.68-0.43,5.39-0.27,8.06c0.14,2.36,0.82,4.7,2.27,6.65c0.79,1.07,1.83,1.97,2.79,2.91c0.16,0.16,0.48,0.15,0.72,0.23
			c-0.69,1.22-1.89,1.63-3.14,1.97c-1.82,0.01-3.15-0.92-4.26-2.26c-0.95-1.15-1.58-2.48-2.11-3.86c-0.23-0.6-0.44-1.2-0.66-1.8
			c-0.18-1.2-0.38-2.39-0.52-3.6c-0.38-3.22-0.13-6.39,0.95-9.46c0.27-0.78,0.63-1.54,1.04-2.26c1.22-2.13,2.98-3.3,5.54-2.94
			C283.32,330.88,283.45,330.96,283.58,331.05z"/>
		<path fill="#F0B633" d="M268.87,397.15c0.19-0.03,0.38-0.08,0.57-0.08c5.33-0.11,10.65-0.22,15.98-0.05
			c1.95,0.06,3.81,0.44,5.66,0.97c1.5,0.99,1.79,2.54,1.8,4.23c1.02,0.34,1.98,0.15,2.91,0.17c0.9,0.01,1.79-0.03,2.69-0.03
			c0.96-0.01,1.92,0,2.87,0c-6.64,0.08-13.27,0.15-19.91,0.25c-4.31,0.07-8.63,0.2-12.94,0.29c-0.64,0.01-1.28-0.05-1.93-0.07
			c0.42-0.4,0.96-0.3,1.46-0.3c2.18-0.02,4.37-0.02,6.55-0.03c0.29,0,0.57-0.03,1.07-0.05c-0.32-0.27-0.44-0.44-0.59-0.48
			c-1.6-0.42-2.86-1.45-4.15-2.37C270.08,398.98,269.14,398.32,268.87,397.15z"/>
		<path fill="#3B3243" d="M268.11,387.85c-0.13,1.57,0.43,2.9,1.52,3.98c0.63,0.62,1.05,1.39,1.77,1.98
			c1.16,0.94,2.36,1.73,3.69,2.36c0.15,0.07,0.26,0.22,0.5,0.44c-0.6,0.19-1.09,0.11-1.57,0.11c-1.41,0.01-2.82-0.01-4.22,0.02
			c-0.43,0.01-0.85,0.17-1.28,0.26c-1.14,0.05-2.29,0.05-3.42,0.17c-2.52,0.25-5.1,0.16-7.43,1.39c-0.36-1.65-0.35-3.3-0.07-4.97
			c0.37-2.23,1.6-3.75,3.69-4.53c0.95-0.36,1.97-0.55,2.96-0.83c0.3-0.08,0.59-0.2,0.89-0.31
			C266.12,387.9,267.12,387.87,268.11,387.85z"/>
		<path fill="#463C54" d="M282.65,309.72c-0.95-0.51-1.9-1.04-2.86-1.53c-1.66-0.84-3.33-1.64-4.98-2.5
			c-1.36-0.71-2.69-1.47-4.04-2.21c-0.73-0.4-1.09-0.98-1.13-1.85c-0.06-1.4-0.26-2.78-0.4-4.18c1.29-0.03,2.57-0.06,3.86-0.09
			c1.66,0.4,3.02,1.35,4.26,2.46C280.33,302.47,282.14,305.75,282.65,309.72z"/>
		<path fill="#F1901E" d="M257.67,398.56c2.33-1.24,4.91-1.15,7.43-1.39c1.14-0.11,2.28-0.11,3.42-0.17
			c0.12,0.05,0.23,0.11,0.35,0.16c0.27,1.16,1.21,1.83,2.06,2.44c1.29,0.93,2.55,1.96,4.15,2.37c0.15,0.04,0.27,0.21,0.59,0.48
			c-0.5,0.02-0.79,0.05-1.07,0.05c-2.18,0.01-4.37,0.01-6.55,0.03c-0.5,0-1.04-0.1-1.46,0.3c-0.92,0.06-1.84,0.12-2.76,0.17
			c-1.72-0.01-3.43-0.01-5.15-0.03c-0.83-0.01-1.65-0.02-2.48-0.03C256,401.25,256.24,399.7,257.67,398.56z"/>
		<path fill="#825E65" d="M273.11,297.35c-1.29,0.03-2.57,0.06-3.86,0.09c-0.12-0.04-0.24-0.09-0.37-0.13
			C270.3,296.64,271.71,296.69,273.11,297.35z"/>
		<path fill="#825E65" d="M268.1,297.68c-0.23,0.16-0.45,0.31-0.68,0.47C267.65,297.99,267.88,297.83,268.1,297.68z"/>
		<path fill="#825E65" d="M268.89,297.31c-0.27,0.12-0.54,0.25-0.8,0.37C268.26,297.34,268.54,297.26,268.89,297.31z"/>
		<path fill="#825E65" d="M267,298.56c-0.1,0.11-0.2,0.23-0.3,0.34C266.8,298.79,266.9,298.67,267,298.56z"/>
		<path fill="#825E65" d="M267.38,298.18c-0.12,0.11-0.23,0.23-0.35,0.34C267.15,298.4,267.27,298.29,267.38,298.18z"/>
	</g>
	<g>
		<path fill="#23A192" d="M136.08,382.86c0.08-0.24,0.12-0.5,0.24-0.72c1.77-3.22,4.18-5.84,7.34-7.74c0.49-0.3,1.02-0.54,1.54-0.79
			c1.31-0.64,2.51-0.55,3.84,0.16c5.72,3.06,11.5,6.03,17.26,9.02c0.74,0.38,1.51,0.72,2.26,1.08c0.43,0.27,0.85,0.57,1.3,0.81
			c2.96,1.55,5.91,3.1,8.88,4.63c1.54,0.79,3.1,1.54,4.64,2.31c2.96,1.57,5.92,3.13,8.87,4.7c0.67,0.36,1.32,0.77,1.98,1.16
			c-0.6,0.48-1.17,0.99-1.79,1.44c-3.04,2.21-6.51,3.22-10.2,3.57c-1.08,0.1-2.19,0.06-3.26-0.09c-1.83-0.26-3.63-0.67-5.45-0.97
			c-0.19-0.03-0.43,0.2-0.64,0.31c-1.22-0.56-2.47-1.06-3.67-1.67c-4.97-2.55-9.92-5.14-14.88-7.7c-5.82-3.01-11.64-6-17.46-9
			C136.62,383.21,136.35,383.03,136.08,382.86z"/>
		<path fill="#393042" d="M237.12,300.8c0.71,0.55,1,1.37,1.09,2.18c0.18,1.59,0.17,3.16-0.6,4.69
			c-5.65,11.26-11.24,22.54-16.87,33.81c-0.54,1.09-1.17,2.15-1.82,3.18c-0.59,0.93-1.29,1.77-2.4,2.14
			c-1.45,0.14-2.89,0.15-4.16-0.73c-0.07-0.89,0.42-1.6,0.79-2.34c4.16-8.2,8.32-16.39,12.49-24.58c0.23-0.46,0.55-0.86,0.79-1.32
			c0.44-0.83,1.04-1.61,1.14-2.66c-0.4-0.02-0.71-0.07-1.03-0.06c-2.91,0.08-5.74-0.34-8.54-1.13c-1.11-0.31-2.23-0.56-3.35-0.84
			c0.04-0.12,0.08-0.24,0.12-0.37c0.06-0.11,0.12-0.21,0.18-0.32c0.98-2.21,2.12-4.34,3.6-6.26c0.11-0.15,0.23-0.3,0.34-0.45
			c0.07-0.1,0.14-0.2,0.2-0.3c3.09,0,6.19-0.01,9.28-0.01c1.41,0,2.81-0.02,4.21-0.33c0.84-0.19,1.4-0.49,1.83-1.21
			c0.5-0.82,1.07-1.6,1.58-2.42C236.29,301.07,236.63,300.83,237.12,300.8z"/>
		<path fill="#23A192" d="M183.29,374.81c0.27-0.65,0.49-1.33,0.81-1.95c4.2-8.11,8.42-16.22,12.64-24.33
			c0.18-0.34,0.41-0.65,0.62-0.97c2.01,0.83,3.92,0.5,5.71-0.61c0.92-0.57,1.78-1.26,2.63-1.94c0.55-0.44,1.04-0.95,1.56-1.44
			c0.94,0.55,1.89,1.1,2.83,1.66c-0.09,1.37-0.62,2.62-1.18,3.83c-1.27,2.73-2.42,5.5-3.97,8.1c-1.8,3.02-3.41,6.16-5.06,9.28
			c-1.83,3.45-3.61,6.94-5.42,10.4c-0.44,0.85-0.95,1.67-1.43,2.5c-0.13-0.03-0.26-0.03-0.37-0.08
			C189.53,377.78,186.41,376.29,183.29,374.81z"/>
		<path fill="#463F57" d="M136.08,382.86c0.27,0.17,0.53,0.35,0.81,0.5c5.82,3,11.64,6,17.46,9c4.96,2.56,9.91,5.15,14.88,7.7
			c1.19,0.61,2.44,1.12,3.67,1.67c0.25,0.19,0.47,0.43,0.74,0.58c2.62,1.38,5.24,2.74,7.87,4.1c5.6,2.89,11.2,5.76,16.8,8.64
			c0.4,0.21,0.78,0.45,1.17,0.67c-0.6,1.16-1.39,2.16-2.32,3.06c-0.89,0.85-1.14,0.89-2.21,0.37c-0.58-0.28-1.15-0.58-1.72-0.88
			c-18.86-9.79-37.72-19.58-56.57-29.37c-2.1-1.09-2.23-1.31-1.65-3.62C135.21,384.43,135.42,383.53,136.08,382.86z"/>
		<path fill="#1B8A8A" d="M193.03,379.34c0.48-0.83,0.98-1.65,1.43-2.5c1.82-3.46,3.59-6.95,5.42-10.4
			c1.65-3.11,3.26-6.25,5.06-9.28c1.55-2.6,2.71-5.38,3.97-8.1c0.56-1.21,1.1-2.46,1.18-3.83c0.76,0.28,1.52,0.57,2.27,0.85
			c1.28,0.87,2.71,0.87,4.16,0.73c-0.08,0.36-0.25,0.73-0.23,1.09c0.07,1.64-0.31,3.2-0.9,4.7c-0.66,1.67-1.31,3.35-2.13,4.95
			c-3.8,7.36-7.65,14.69-11.48,22.03c-0.68,1.31-1.36,2.62-2.04,3.93c-0.82-0.5-1.63-0.99-2.45-1.49c-0.25-0.19-0.48-0.4-0.74-0.56
			C195.38,380.74,194.2,380.05,193.03,379.34z"/>
		<path fill="#463C54" d="M212.36,346.08c-0.76-0.28-1.52-0.57-2.27-0.85c-0.94-0.55-1.89-1.1-2.83-1.66
			c0.32-0.48,0.63-0.96,0.97-1.42c2.12-2.89,3.68-6.05,4.35-9.59c0.34-1.78,0.45-3.59-0.2-5.34c-0.54-1.45-1.4-2.61-3.08-2.86
			c-0.03-0.12-0.07-0.23-0.13-0.34c1.46-2.99,2.92-5.99,4.39-8.98c0.25-0.51,0.58-0.99,0.87-1.49c0.09-0.14,0.17-0.29,0.26-0.43
			l-0.02,0.01c1.12,0.28,2.24,0.53,3.35,0.84c2.79,0.79,5.63,1.21,8.54,1.13c0.32-0.01,0.63,0.04,1.03,0.06
			c-0.1,1.06-0.7,1.83-1.14,2.66c-0.24,0.45-0.56,0.86-0.79,1.32c-4.17,8.19-8.33,16.38-12.49,24.58
			C212.78,344.48,212.29,345.19,212.36,346.08z"/>
		<path fill="#1D8989" d="M199.48,415.72c-0.39-0.22-0.77-0.46-1.17-0.67c-5.6-2.88-11.2-5.76-16.8-8.64
			c-2.63-1.35-5.25-2.72-7.87-4.1c-0.27-0.14-0.49-0.38-0.74-0.58c0.22-0.11,0.45-0.34,0.64-0.31c1.82,0.31,3.62,0.71,5.45,0.97
			c1.07,0.15,2.19,0.19,3.26,0.09c3.68-0.35,7.16-1.36,10.2-3.57c0.62-0.45,1.19-0.96,1.79-1.44c0.85,0.4,1.7,0.8,2.55,1.21
			c1.36,0.66,2.71,1.33,4.06,1.99c0.78,0.43,1.56,0.89,2.36,1.3c0.72,0.36,1.05,0.92,0.96,1.71c-0.1,0.89-0.16,1.8-0.38,2.66
			C202.91,409.73,201.54,412.89,199.48,415.72z"/>
		<path fill="#463C54" d="M193.03,379.34c1.18,0.7,2.36,1.4,3.53,2.12c0.26,0.16,0.49,0.37,0.74,0.56c-1.6,2.31-4.08,3.13-6.61,3.87
			c-1.55,0.45-3.15,0.38-4.74,0.45c-0.53-0.23-1.06-0.44-1.58-0.69c-2.43-1.16-4.85-2.36-7.3-3.49c-1.64-0.76-3.35-1.3-5.17-1.4
			c0.56-1.14,1.03-2.34,1.71-3.41c1.54-2.44,3.79-3.53,6.69-3.09c1.01,0.15,2,0.37,3,0.55c3.12,1.49,6.24,2.97,9.36,4.45
			C192.76,379.31,192.9,379.32,193.03,379.34z"/>
		<path fill="#F4B833" d="M209.17,324.03c0.06,0.1,0.11,0.22,0.13,0.34c-0.51,0.35-0.4,0.9-0.41,1.4c-0.04,1.15,0.06,2.32-0.14,3.44
			c-0.58,3.19-2.07,6.03-3.65,8.82c-0.87,1.53-2.2,2.66-3.45,3.85c-1.72,1.64-3.78,2.59-6.2,2.65c-0.62-1.35-0.53-2.78-0.3-4.17
			c0.92-5.45,3.45-10.04,7.58-13.72C204.55,325.03,206.64,323.94,209.17,324.03z"/>
		<path fill="#F19220" d="M195.45,344.53c2.42-0.06,4.48-1,6.2-2.65c1.25-1.19,2.58-2.32,3.45-3.85c1.59-2.79,3.07-5.63,3.65-8.82
			c0.21-1.12,0.1-2.29,0.14-3.44c0.02-0.5-0.1-1.04,0.41-1.4c1.68,0.25,2.54,1.41,3.08,2.86c0.64,1.75,0.54,3.56,0.2,5.34
			c-0.67,3.54-2.22,6.69-4.35,9.59c-0.34,0.46-0.65,0.95-0.97,1.42c-0.52,0.48-1,1-1.56,1.44c-0.85,0.68-1.71,1.37-2.63,1.94
			c-1.79,1.11-3.7,1.43-5.71,0.61C196.56,346.65,195.57,345.86,195.45,344.53z"/>
		<path fill="#3B3243" d="M185.94,386.33c1.59-0.07,3.19,0,4.74-0.45c2.53-0.74,5.01-1.56,6.61-3.87c0.82,0.5,1.63,0.99,2.45,1.49
			c0.83,0.7,1.71,1.36,2.49,2.11c1.95,1.88,2.5,4.12,1.47,6.67c-0.55,1.36-1.1,2.73-2.15,3.81c-0.72-0.71-1.36-1.54-2.18-2.12
			c-2.24-1.59-4.62-2.95-7.11-4.11c-0.6-0.35-1.2-0.71-1.81-1.05C188.94,387.98,187.44,387.16,185.94,386.33z"/>
		<path fill="#F0B633" d="M185.94,386.33c1.5,0.83,3,1.65,4.5,2.48c0.61,0.34,1.21,0.7,1.81,1.05c-1.53,1.07-3.25,1.45-5.09,1.45
			c-0.9,0-1.8-0.03-2.7,0.02c-0.36,0.02-0.71,0.19-1.07,0.29c-1.55-0.77-3.11-1.52-4.64-2.31c-2.97-1.53-5.92-3.08-8.88-4.63
			c-0.45-0.24-0.87-0.54-1.3-0.81c0.08-0.24,0.15-0.48,0.25-0.71c0.56-1.39,1.53-2.27,3.08-2.41c1.82,0.11,3.54,0.64,5.17,1.4
			c2.45,1.13,4.86,2.33,7.3,3.49C184.88,385.89,185.41,386.1,185.94,386.33z"/>
		<path fill="#463C54" d="M237.12,300.8c-0.49,0.02-0.83,0.26-1.09,0.68c-0.51,0.82-1.08,1.59-1.58,2.42
			c-0.43,0.71-0.99,1.02-1.83,1.21c-1.4,0.31-2.8,0.33-4.21,0.33c-3.09,0.01-6.19,0.01-9.28,0.01c2.74-4.03,6.59-6.24,11.36-6.87
			c2.23-0.29,4.38,0.11,6.18,1.62C236.85,300.37,236.97,300.6,237.12,300.8z"/>
		<path fill="#F19220" d="M183.39,391.62c0.36-0.1,0.71-0.28,1.07-0.29c0.9-0.04,1.8-0.02,2.7-0.02c1.84,0.01,3.56-0.38,5.09-1.45
			c2.5,1.15,4.88,2.52,7.11,4.11c0.82,0.58,1.46,1.41,2.18,2.12c0.75,1.68,0.37,3.19-0.7,4.59c-1.35-0.66-2.71-1.33-4.06-1.99
			c-0.85-0.41-1.7-0.81-2.55-1.21c-0.66-0.39-1.31-0.8-1.98-1.16C189.31,394.75,186.35,393.18,183.39,391.62z"/>
		<path fill="#463C54" d="M218.92,305.76c-0.11,0.15-0.23,0.3-0.34,0.45C218.69,306.06,218.81,305.91,218.92,305.76z"/>
		<path fill="#463C54" d="M214.97,312.47c-0.06,0.11-0.12,0.21-0.18,0.32C214.86,312.68,214.92,312.58,214.97,312.47z"/>
		<path fill="#393042" d="M214.69,313.14c-0.09,0.14-0.17,0.29-0.26,0.43C214.52,313.43,214.61,313.28,214.69,313.14z"/>
	</g>
	<g>
		<path fill="#F3B630" d="M346.77,331.2c-0.46-0.52-0.93-1.03-1.37-1.57c-1.43-1.72-2.63-3.56-2.97-5.83
			c0.24-0.21,0.54-0.37,0.7-0.63c0.52-0.81,0.98-1.66,1.46-2.49c1.64-2.81,3.76-5.18,6.47-7c3.01-2.02,6.3-3.09,9.97-3.07
			c2.11,0.01,4.06,0.46,5.98,1.26c1.13,0.47,2.21,1,3.12,1.86c1.73,1.63,2.95,3.49,3.41,5.89c0.25,1.3,0.28,2.5-0.04,3.79
			c-0.68,2.79-1.82,5.33-3.6,7.59c-0.4,0.51-0.73,1.06-0.72,1.75c-1.72,1.21-3.71,1.73-5.7,2.23c-1.77,0.44-3.57,0.47-5.38,0.45
			c-0.64-0.01-1.29-0.02-1.93-0.04c-1.73-0.49-3.46-0.99-5.19-1.48C349.57,333,348.17,332.1,346.77,331.2z M358.57,331.93
			c0.92,0.18,1.99-0.27,2.98-0.89c1.68-1.05,1.93-3.4,0.58-4.81c-0.83-0.87-1.84-1.38-2.97-1.66c-1.43-0.36-2.85-0.75-4.14-1.48
			c-1.08-0.61-2.24-0.52-3.38-0.42c-0.91,0.08-1.57,0.75-1.75,1.58c-0.23,1.05-0.21,2.15,0.38,3.17c0.76,1.32,1.83,2.25,3.13,3.02
			C354.91,331.34,356.5,331.91,358.57,331.93z"/>
		<path fill="#1EA192" d="M335.84,283.11c-2.01,0.3-3.82-0.24-5.54-1.23c-4.07-2.35-8-4.93-11.66-7.89
			c-1.56-1.25-2.99-2.65-4.04-4.38c-1.88-3.07-2.12-6.29-0.76-9.61c0.24-0.58,0.67-1.08,1.01-1.61c0.25,0.05,0.52,0.06,0.75,0.15
			c2.31,0.94,4.61,1.89,6.91,2.84c4.15,1.71,8.12,3.77,11.71,6.48c1.94,1.47,3.81,3.01,5.19,5.06c0.35,0.52,0.84,0.94,1.27,1.41
			c-0.67,0.76-1.34,1.52-2,2.27C336.77,278.37,335.61,280.44,335.84,283.11z"/>
		<path fill="#483E57" d="M335.84,283.11c-0.23-2.67,0.93-4.74,2.82-6.5c1.55-0.05,3.06-0.03,4.56,0.54c2,0.76,3.78,1.81,5.49,3.12
			c2.6,1.99,4.5,4.53,6.37,7.15c1.88,2.64,3.12,5.6,4.54,8.48c0.08,0.16,0.05,0.36,0.08,0.62c-0.27,0.07-0.5,0.14-0.74,0.19
			c-1.5,0.33-3.06,0.48-4.49,1.01c-2.04,0.76-3.98,1.82-5.64,3.28c-0.8,0.7-1.76,1.35-1.84,2.59c-0.29-0.7-0.6-1.4-0.88-2.11
			c-1.31-3.29-3.05-6.35-5.02-9.28c-1.07-1.6-2.18-3.17-3.26-4.75C336.93,286.12,336.2,284.7,335.84,283.11z"/>
		<path fill="#3A3143" d="M347,303.59c0.08-1.24,1.04-1.89,1.84-2.59c1.66-1.45,3.6-2.51,5.64-3.28c1.42-0.53,2.99-0.69,4.49-1.01
			c0.24-0.05,0.47-0.12,0.74-0.19c-0.03-0.26-0.01-0.47-0.08-0.62c-1.42-2.87-2.66-5.84-4.54-8.48c-1.86-2.62-3.77-5.15-6.37-7.15
			c-1.71-1.31-3.49-2.36-5.49-3.12c-1.5-0.57-3.01-0.59-4.56-0.54c0.67-0.76,1.34-1.52,2-2.27c0.24-0.15,0.48-0.3,0.72-0.45
			c0.52,0.36,1.04,0.71,1.55,1.08c1.6,1.17,3.28,2.19,5.23,2.63c1.24,0.28,2.51,0.47,3.62-0.45c0.57-0.21,0.84-0.68,1.08-1.18
			c0.16-0.33,0.3-0.66,0.45-0.99c1.7,1.3,2.98,2.99,4.21,4.71c3.74,5.27,6.55,11.01,8.48,17.17c0.53,1.71,0.9,3.47,1.34,5.21
			c-0.32-0.01-0.65,0.03-0.96-0.02c-6.24-1.13-11.88,0.28-16.99,3.98c-0.47,0.34-0.94,0.67-1.41,1.01
			C347.65,305.89,347.33,304.74,347,303.59z"/>
		<path fill="#F4A827" d="M369.17,332.74c0-0.68,0.32-1.24,0.72-1.75c1.78-2.26,2.91-4.8,3.6-7.59c0.31-1.29,0.28-2.48,0.04-3.79
			c-0.45-2.4-1.67-4.27-3.41-5.89c-0.91-0.86-1.98-1.38-3.12-1.86c-1.92-0.8-3.88-1.25-5.98-1.26c-3.67-0.02-6.95,1.05-9.97,3.07
			c-2.71,1.82-4.83,4.19-6.47,7c-0.48,0.83-0.95,1.68-1.46,2.49c-0.16,0.26-0.46,0.42-0.7,0.63c-0.52-1.25-0.68-2.55-0.53-3.9
			c0.54-0.1,0.65-0.58,0.85-0.96c0.55-1.01,1.07-2.05,1.63-3.06c1.1-2,2.74-3.54,4.33-5.13c1.05-1.05,2.15-2,3.39-2.83
			c4.35-2.89,9.06-3.31,14-2.08c2.45,0.61,4.7,1.74,6.76,3.18c0.78,0.55,1.54,1.18,2.14,1.91c1.29,1.6,2.3,3.41,2.92,5.37
			c0.32,1.02,0.63,2.08,0.53,3.21c-0.07,0.77-0.02,1.54-0.02,2.31c-0.48,0.47-0.43,1.02-0.23,1.58l0,0.08
			c-1.56,3.31-3.83,6.01-6.86,8.06C370.66,332.02,369.89,332.35,369.17,332.74z"/>
		<path fill="#F29221" d="M378.42,321.83c0-0.77-0.05-1.55,0.02-2.31c0.1-1.12-0.2-2.18-0.53-3.21c-0.62-1.96-1.63-3.77-2.92-5.37
			c-0.59-0.74-1.36-1.37-2.14-1.91c-2.06-1.45-4.32-2.57-6.76-3.18c-4.93-1.23-9.64-0.81-14,2.08c-1.24,0.82-2.34,1.78-3.39,2.83
			c-1.59,1.59-3.23,3.13-4.33,5.13c-0.56,1.01-1.08,2.04-1.63,3.06c-0.21,0.38-0.32,0.87-0.85,0.96c-0.17-1.75,0.24-3.41,0.8-5.04
			c1.05-3.08,2.89-5.64,5.29-7.82c0.47-0.34,0.94-0.67,1.41-1.01c5.11-3.7,10.75-5.11,16.99-3.98c0.31,0.06,0.64,0.02,0.96,0.02
			c1.31,0.52,2.67,0.94,3.92,1.57c3.59,1.81,6.11,4.62,7.52,8.4c0.16,0.42,0.32,0.84,0.48,1.26c0.11,1.69,0.23,3.37,0.34,5.06
			c-0.29,1.15-0.58,2.31-0.87,3.46C378.63,321.83,378.53,321.83,378.42,321.83z"/>
		<path fill="#218B8A" d="M341.39,273.89c-0.24,0.15-0.48,0.3-0.72,0.45c-0.43-0.47-0.92-0.89-1.27-1.41
			c-1.38-2.06-3.25-3.6-5.19-5.06c-3.6-2.71-7.56-4.77-11.71-6.48c-2.3-0.95-4.61-1.9-6.91-2.84c-0.23-0.09-0.5-0.1-0.75-0.15
			c2.12-3.48,5.91-4.37,8.77-3.63c1.23,0.32,2.45,0.76,3.61,1.3c3.9,1.82,7.6,3.97,11.08,6.52c-0.2,0.24-0.4,0.49-0.61,0.73
			c-0.35,0.38-0.68,0.77-0.68,1.33c-0.46,0.72-0.29,1.46-0.11,2.22c0.36,1.45,1.01,2.77,1.92,3.95
			C339.62,271.86,340.52,272.86,341.39,273.89z"/>
		<path fill="#483E57" d="M346.77,331.2c1.4,0.9,2.8,1.81,4.2,2.71c0.27,0.45,0.34,0.89,0.23,1.45c-0.58,2.83-0.18,5.57,0.95,8.21
			c0.85,1.97,2.51,2.81,4.53,3.02c0.89,0.09,1.79,0,2.69,0.03c0.37,0.01,0.73,0.12,1.2,0.2c0.03,0.76,0.05,1.46,0.07,2.15
			c0.01,0.38,0.21,0.58,0.55,0.69c-0.67,0.21-1.32,0.5-2,0.61c-2.69,0.44-5.36,0.35-7.99-0.46c-2.8-0.86-4.38-2.75-4.9-5.6
			c-0.54-2.94-0.41-5.89-0.17-8.83C346.24,333.97,346.54,332.59,346.77,331.2z"/>
		<path fill="#3A3143" d="M379.61,318.37c-0.11-1.69-0.23-3.37-0.34-5.06c3.23,0.9,6.27,2.25,9.03,4.14
			c0.99,0.68,1.91,1.52,2.72,2.41c1.4,1.53,2.07,3.43,1.96,5.48c-0.2,3.81-1.47,7.24-4.06,10.12c0,0,0.02-0.02,0.02-0.02
			c-0.13,0.13-0.25,0.26-0.38,0.4c0,0,0.01-0.01,0.01-0.01c-0.13,0.12-0.26,0.25-0.39,0.37c0,0,0.03-0.01,0.03-0.01
			c-0.15,0.11-0.31,0.22-0.46,0.33c-0.12,0.02-0.24,0.03-0.36,0.04c-0.63-0.4-0.51-1.02-0.37-1.56c0.34-1.3,0.51-2.64,0.82-3.93
			c0.67-2.75-0.11-5.17-1.25-7.58c-0.08-0.17-0.17-0.35-0.29-0.49C384.46,320.9,382.36,319.16,379.61,318.37z"/>
		<path fill="#483E57" d="M379.61,318.37c2.75,0.79,4.85,2.53,6.69,4.63c0.12,0.14,0.21,0.32,0.29,0.49
			c1.14,2.41,1.91,4.83,1.25,7.58c-0.31,1.29-0.48,2.63-0.82,3.93c-0.14,0.54-0.26,1.16,0.37,1.56c-0.02,0.09-0.04,0.18-0.06,0.27
			l-0.09,0.11c0,0-0.14-0.02-0.14-0.02c-0.14,0.06-0.29,0.13-0.43,0.19c-2.18,0.72-3.89-0.18-5.32-1.7
			c-0.78-0.83-1.1-1.92-0.76-3.04c0.28-0.91,0.68-1.79,1.08-2.66c0.3-0.64,0.72-1.21,1.04-1.84c0.49-0.99,0.4-1.47-0.47-2.17
			c-0.5-0.4-1.05-0.75-1.61-1.04c-0.79-0.42-1.62-0.77-2.43-1.15c0,0,0-0.08,0-0.08c0.18-0.53,0.36-1.06,0.54-1.58
			C379.03,320.68,379.32,319.53,379.61,318.37z"/>
		<path fill="#3A3143" d="M361.19,349.65c-0.33-0.11-0.54-0.31-0.55-0.69c-0.02-0.69-0.04-1.39-0.07-2.15
			c-0.48-0.08-0.84-0.19-1.2-0.2c-0.89-0.03-1.8,0.07-2.69-0.03c-2.02-0.21-3.68-1.05-4.53-3.02c-1.14-2.64-1.54-5.38-0.95-8.21
			c0.11-0.56,0.05-1-0.23-1.45c1.73,0.49,3.46,0.99,5.19,1.48c-0.05,0.96-0.13,1.92-0.13,2.88c0,0.5,0.13,1.01,0.26,1.5
			c0.1,0.4,0.41,0.66,0.82,0.7c0.64,0.06,1.28,0.06,1.91,0.1c0.83,0.05,1.66,0.04,2.48,0.16c1.67,0.23,2.58,1.33,2.96,2.88
			c0.59,2.4-0.26,4.29-2.48,5.67c-0.2,0.1-0.39,0.21-0.59,0.31c0,0-0.09,0.09-0.09,0.09L361.19,349.65z"/>
		<path fill="#F29221" d="M336.99,264.64c0-0.56,0.34-0.95,0.68-1.33c0.21-0.23,0.41-0.48,0.61-0.73c1.67-0.56,3.3-0.38,4.88,0.3
			c3.91,1.67,6.89,4.39,9.04,8.05c0.73,1.25,0.99,2.63,1.12,4.05c-0.15,0.33-0.3,0.66-0.45,0.99c-0.24,0.5-0.51,0.98-1.08,1.18
			c-0.8-2.58-2.29-4.72-4.32-6.48c-0.77-0.67-1.63-1.24-2.5-1.79c-2.19-1.4-4.5-2.47-7.19-2.37c-0.17,0.01-0.35-0.11-0.63-0.21
			C337.1,265.76,337.04,265.2,336.99,264.64z"/>
		<path fill="#393244" d="M387.33,336.83c0.02-0.09,0.04-0.18,0.06-0.27c0.12-0.01,0.24-0.02,0.36-0.04
			C387.6,336.62,387.46,336.72,387.33,336.83z"/>
		<path fill="#393244" d="M386.67,337.11c0.14-0.06,0.29-0.13,0.43-0.19C386.95,336.99,386.81,337.05,386.67,337.11z"/>
		<path fill="#483E57" d="M361.4,349.58c0.2-0.1,0.39-0.21,0.59-0.31C361.8,349.37,361.6,349.48,361.4,349.58z"/>
		<path fill="#393244" d="M388.93,335.45c0,0-0.02,0.02-0.02,0.02C388.91,335.47,388.93,335.45,388.93,335.45z"/>
		<path fill="#393244" d="M388.56,335.84c0,0-0.01,0.01-0.01,0.01C388.55,335.85,388.56,335.84,388.56,335.84z"/>
		<path fill="#393244" d="M388.2,336.19c0,0-0.03,0.01-0.03,0.01C388.17,336.2,388.2,336.19,388.2,336.19z"/>
		<path fill="#F2D248" d="M358.57,331.93c-2.07-0.02-3.66-0.59-5.18-1.5c-1.3-0.77-2.37-1.71-3.13-3.02
			c-0.59-1.02-0.6-2.12-0.38-3.17c0.18-0.83,0.83-1.5,1.75-1.58c1.14-0.1,2.29-0.19,3.38,0.42c1.29,0.73,2.71,1.12,4.14,1.48
			c1.13,0.29,2.15,0.8,2.97,1.66c1.35,1.41,1.09,3.76-0.58,4.81C360.56,331.67,359.49,332.11,358.57,331.93z"/>
		<path fill="#F0B630" d="M336.99,264.64c0.06,0.56,0.11,1.12,0.17,1.67c0.28,0.09,0.46,0.21,0.63,0.21c2.69-0.1,5,0.96,7.19,2.37
			c0.86,0.55,1.72,1.13,2.5,1.79c2.03,1.75,3.51,3.9,4.32,6.48c-1.11,0.92-2.39,0.74-3.62,0.45c-1.95-0.45-3.63-1.47-5.23-2.63
			c-0.51-0.37-1.03-0.72-1.55-1.08c-0.87-1.03-1.77-2.03-2.59-3.09c-0.91-1.17-1.56-2.49-1.92-3.95
			C336.69,266.11,336.53,265.36,336.99,264.64z"/>
		<path fill="#D68630" d="M378.74,321.83c-0.18,0.53-0.36,1.06-0.54,1.58c-0.21-0.57-0.25-1.11,0.23-1.59
			C378.53,321.83,378.63,321.83,378.74,321.83z"/>
	</g>
	<g>
		<path fill="#463C54" d="M325.01,248.54c0.45,2.03,0.41,4.09,0.26,6.15c-0.45,6.11-2.2,11.86-4.72,17.41
			c-4.05,8.94-9.45,16.97-16.46,23.86c-1.74,1.71-3.67,3.23-5.51,4.84c-0.76,0.08-1.52,0.24-2.28,0.24
			c-8.49-0.04-16.97-0.12-25.46-0.16c-5.92-0.03-11.83-0.02-17.75-0.04c-0.51,0-1.03-0.04-1.54-0.07c-0.28-0.13-0.54-0.32-0.84-0.38
			c-1.63-0.34-3.27-0.59-4.88-0.96c-3.75-0.87-7.43-1.99-11.04-3.3c-2.9-1.05-5.65-2.44-8.33-3.96c-2.41-1.36-4.59-3.05-6.81-4.67
			c-0.88-0.64-1.71-1.37-2.22-2.36c0.03-0.72,0.06-1.44,0.09-2.16c0.34-0.66,0.45-1.33,0.19-2.04c0.13-1.81-0.14-3.59-0.43-5.36
			c-0.18-1.06-0.2-2.18-0.85-3.12c-0.09-0.5,0.09-1.07-0.41-1.45c-0.39-2.85-1.62-5.37-3.09-7.79c-0.38-0.76-0.76-1.53-1.14-2.29
			c-1.3-2.15-2.69-4.25-4.62-5.91c-0.34-0.7-0.76-1.3-1.61-1.41c-0.3-0.33-0.56-0.71-0.9-0.97c-2.15-1.62-4.52-2.68-7.27-2.68
			c0.08-0.3,0.16-0.59,0.26-0.98c2.51,0,4.95,0,7.39,0c0.19,0,0.4,0,0.57,0.08c0.86,0.38,1.77,0.28,2.67,0.28
			c11.84,0.01,23.69,0,35.53,0.01c0.83,0,1.67,0.07,2.5,0.11c-0.57,0.21-1.14,0.43-1.71,0.64c-0.44,0.08-0.9,0.11-1.32,0.25
			c-11.32,3.7-18.01,14.96-15.94,26.38c1.62,8.95,6.86,15.24,15.48,18.23c8.69,3.02,16.64,1.2,23.61-4.79
			c0.42-0.36,0.72-0.87,1.08-1.32l-0.04,0.01c0.14-0.14,0.28-0.28,0.42-0.42c0,0-0.04,0.05-0.04,0.05c0.19-0.17,0.38-0.33,0.57-0.5
			c0.34-0.38,0.72-0.74,1.02-1.15c3.81-5.17,5.42-11,4.43-17.3c-1.47-9.43-6.84-15.87-15.89-19.13c-1.02-0.37-2.08-0.63-3.13-0.94
			c0.77-0.04,1.54-0.12,2.31-0.12c4.5-0.01,9.01-0.01,13.51-0.01c0.58,0,1.2,0.09,1.72-0.08c1.08-0.36,2.16-0.29,3.25-0.29
			c11.9-0.01,23.81-0.01,35.71-0.01c0.64,0,1.33,0.11,1.92-0.07c1.33-0.4,2.67-0.29,4.02-0.31
			C319.86,248.53,322.44,248.54,325.01,248.54z M281.63,282.97c0.05,1.05,0.1,2.09,0.6,3.05c0.12,1.32,0.78,2.42,1.55,3.42
			c2.18,2.84,5.11,3.42,8.18,2.29c1.01-0.37,1.94-0.96,2.9-1.46c0.54-0.21,0.94-0.58,1.2-1.1c0.38-0.21,0.81-0.37,1.14-0.64
			c1.93-1.67,3.45-3.71,4.9-5.79c0.1-0.14,0.09-0.36,0.14-0.55c0.66-0.32,0.87-0.96,1.14-1.57c0.73-1.43,1.51-2.83,2.18-4.29
			c0.5-1.1,0.85-2.27,1.26-3.41c0.42-0.56,0.49-1.22,0.54-1.89c1.12-2.88,1.63-5.86,1.44-8.95c0.01-0.65,0.02-1.3,0.03-1.95
			c0.16-1.84-0.34-3.57-0.98-5.26c-0.36-0.96-0.79-1.91-1.68-2.54c-0.94-1.33-2.25-2.1-3.83-2.26c-3.49-0.36-6.36,0.92-8.7,3.48
			c-0.81,0.14-1.21,0.73-1.56,1.39c-0.25,0.19-0.57,0.32-0.75,0.56c-1.38,1.8-2.73,3.61-4.08,5.42c-0.06,0.09-0.02,0.25-0.03,0.37
			c-0.39,0.65-0.78,1.3-1.18,1.95c-0.85,1.96-1.72,3.92-2.53,5.9c-0.23,0.57-0.25,1.22-0.36,1.84c-0.2,0.52-0.39,1.04-0.59,1.56
			c-0.71,2.76-1.32,5.52-1.09,8.4C281.39,281.64,281.2,282.33,281.63,282.97z M320.44,258.36c-0.23-1.33-0.37-2.86-0.94-4.31
			c-0.21-0.54-0.47-1.07-0.8-1.54c-0.74-1.05-1.81-1.46-3.04-1.23c-1.05,0.2-1.65,0.96-1.88,1.97c-0.15,0.68-0.3,1.39-0.29,2.08
			c0.05,1.95-0.22,3.84-0.76,5.7c-0.65,2.22-1.3,4.44-2,6.64c-0.28,0.88-0.39,1.75-0.37,2.66c0.02,0.55,0.19,1,0.56,1.39
			c1.31,1.36,2.31,1.46,3.91,0.33c0.82-0.58,1.5-1.41,2.1-2.24C319.34,266.47,320.04,262.57,320.44,258.36z M309.49,279.87
			c1.72,0.04,3.25-1.53,3.16-3.19c-0.06-1.07-0.96-2.17-2.1-2.5c-1.06-0.31-1.88,0.19-2.55,0.93c-1.01,1.11-0.82,2.35-0.28,3.59
			C308.04,279.49,308.63,279.91,309.49,279.87z"/>
		<path fill="#373042" d="M246.3,249.43c-0.83-0.04-1.67-0.11-2.5-0.11c-11.84-0.01-23.69-0.01-35.53-0.01
			c-0.9,0-1.8,0.09-2.67-0.28c-0.17-0.07-0.38-0.08-0.57-0.08c-2.44,0-4.88,0-7.39,0c-0.1,0.38-0.18,0.68-0.26,0.98
			c-1.71,0.3-3.27,0.88-4.33,2.37c-0.93,0.74-1.38,1.79-1.79,2.85c-0.63,1.6-0.98,3.26-0.91,5c-0.45,0.77-0.29,1.57-0.09,2.36
			c0.04,0.63,0.09,1.26,0.13,1.89c0.17,2.24,0.57,4.43,1.27,6.56c0.21,0.54,0.16,1.18,0.68,1.58c0.03,0.31,0.01,0.65,0.11,0.93
			c0.91,2.49,1.88,4.96,3.38,7.18c0.28,0.58,0.5,1.21,1.1,1.56c0.05,0.18,0.07,0.4,0.17,0.55c1.52,2.22,3.13,4.36,5.29,6.03
			c0.66,0.5,1.32,1,1.97,1.5c1.22,0.99,2.67,1.5,4.17,1.82c1.74,0.37,3.42,0.14,4.94-0.89c1.83-1.24,3-2.91,3.35-5.11
			c0.2-0.33,0.4-0.66,0.6-0.98c0.52,1,1.35,1.72,2.23,2.36c2.22,1.63,4.4,3.31,6.81,4.67c2.69,1.52,5.43,2.91,8.33,3.96
			c3.62,1.31,7.3,2.42,11.04,3.3c1.62,0.38,3.26,0.63,4.88,0.96c0.29,0.06,0.56,0.25,0.84,0.38c-0.71,0.02-1.41,0.07-2.12,0.07
			c-4.18,0-8.37-0.01-12.55-0.01c-1.8,0-3.6,0.03-5.4,0.05c-0.38-0.03-0.77-0.08-1.15-0.08c-5.09-0.01-10.17,0-15.26-0.01
			c-4.96-0.01-9.92-0.03-14.87-0.05c-7.11-5.53-12.74-12.34-17.37-20.01c-3.24-5.36-5.91-10.98-7.63-17.02
			c-1.06-3.73-1.68-7.53-1.71-11.41c-0.02-2.85,0.48-5.63,1.14-8.39c0.77-0.47,1.62-0.32,2.45-0.32c16.59-0.01,33.18,0,49.77-0.01
			c0.77,0,1.54-0.07,2.3-0.1c0.64,0.02,1.29,0.06,1.93,0.06c30.25,0.02,60.49,0.04,90.74,0.07c0.51,0,1.03-0.03,1.54,0.02
			c0.31,0.03,0.6,0.18,0.91,0.28c0.2,0.99,0.43,1.98,0.6,2.97c0.1,0.56,0.11,1.13,0.15,1.69c-2.57,0-5.15,0-7.72,0.01
			c-1.34,0.01-2.69-0.1-4.02,0.31c-0.59,0.18-1.28,0.07-1.92,0.07c-11.9,0.01-23.81,0.01-35.71,0.01c-1.09,0-2.17-0.07-3.25,0.29
			c-0.53,0.18-1.15,0.08-1.72,0.08c-4.5,0.01-9.01,0-13.51,0.01c-0.77,0-1.54,0.08-2.31,0.12C252,249.13,249.15,249.13,246.3,249.43
			z"/>
		<path fill="#23A192" d="M324.26,243.88c-0.3-0.1-0.6-0.25-0.91-0.28c-0.51-0.05-1.03-0.02-1.54-0.02
			c-30.25-0.02-60.49-0.04-90.74-0.07c-0.64,0-1.29-0.04-1.93-0.06c-0.08-0.33-0.23-0.61-0.59-0.67c-0.32-0.05-0.64-0.03-0.96-0.04
			c-3.07-0.12-6.17,0.28-9.22-0.38c-0.18-0.04-0.39-0.01-0.58-0.01c-2.7,0.09-5.36-0.29-8.01-0.76c-3.44-0.61-6.75-1.58-9.76-3.38
			c-1.53-0.91-3.2-1.69-4.24-3.26c0.7-0.04,1.41-0.12,2.11-0.12c4.45,0.02,8.89,0.06,13.34,0.07c7.09,0.01,14.18,0,21.27-0.01
			c20.94-0.02,41.89-0.05,62.83-0.07c9.73-0.01,19.46,0,29.19,0c0.77,0.08,1.29,0.52,1.57,1.21c0.92,2.23,0.86,4.44-0.23,6.62
			C325.53,243.35,325,243.76,324.26,243.88z"/>
		<path fill="#F1B833" d="M324.52,234.85c-9.73,0-19.46-0.01-29.19,0c-20.94,0.02-41.89,0.05-62.83,0.07
			c-7.09,0.01-14.18,0.02-21.27,0.01c-4.45-0.01-8.89-0.06-13.34-0.07c-0.7,0-1.41,0.08-2.11,0.12c-0.64-0.04-1.28-0.11-1.92-0.11
			c-6.44-0.01-12.88,0-19.32,0c0.64-0.02,1.28-0.05,1.92-0.05c10.03,0,20.07,0.02,30.1,0.01c0.76,0,1.52-0.14,2.28-0.21
			c1.93,0,3.85,0,5.78,0c5.07-0.01,10.14-0.03,15.22-0.04c6.37,0.24,18.63,0.14,20.43-0.23c-0.95-0.07-1.59-0.05-2.2-0.18
			c-2.26-0.46-4.52-0.96-6.66-1.84c-2.62-1.07-5.17-2.25-7.19-4.37c-1.97-2.07-3-4.43-2.76-7.3c0.06-0.76,0.25-1.51,0.38-2.27
			c0.74-0.11,1.48-0.26,2.22-0.32c1.06-0.09,2.13-0.11,3.2-0.16c0.51,0.03,1.02,0.09,1.53,0.09c7.56,0.02,15.11,0.03,22.67,0.03
			c0.57,0,1.15-0.05,1.72-0.08c0.96,0.03,1.93,0.07,2.89,0.09c3.67,0.07,7.34,0.24,10.97,0.78c3.86,0.58,7.5,1.74,10.68,4.15
			c2.95,2.24,4.81,5.14,5.6,8.74c0.21,0.94,0.37,1.88,0.57,2.95c0.49,0.06,0.98,0.16,1.47,0.17c3.41,0.01,6.83,0.01,10.24,0.01
			C311.9,234.83,318.21,234.84,324.52,234.85z"/>
		<path fill="#23A192" d="M231.48,300.87c1.8-0.02,3.6-0.05,5.4-0.05c4.18,0,8.37,0.01,12.55,0.01c0.71,0,1.41-0.04,2.12-0.07
			c0.51,0.02,1.03,0.06,1.54,0.07c5.92,0.02,11.83,0.01,17.75,0.04c8.49,0.04,16.97,0.12,25.46,0.16c0.76,0,1.52-0.15,2.28-0.24
			c0.57,1.02,1.05,2.08,1.08,3.27c0.02,0.64,0.02,1.29-0.09,1.92c-0.3,1.62-0.8,2.01-2.49,2c-12.24-0.02-24.49-0.05-36.73-0.07
			c-18.43-0.03-36.86-0.05-55.29-0.08c-0.7,0-1.4-0.09-2.11-0.14c15.71,0,31.43,0,47.14,0c0.39,0,0.77-0.01,1.16-0.02
			c0.06,0,0.13-0.03,0.18-0.06c0.03-0.02,0.04-0.06,0.07-0.11c-1-0.18-1.99-0.37-2.99-0.53c-4.06-0.68-8.02-1.73-11.88-3.14
			c-1.5-0.55-2.95-1.27-4.42-1.92C231.76,301.71,231.46,301.4,231.48,300.87z"/>
		<path fill="#23A192" d="M232.33,195.91c1.3-0.33,2.59-0.73,3.9-0.99c7.49-1.44,15.05-2,22.67-1.6c4.13,0.22,8.17,0.99,12.08,2.38
			c0.59,0.21,1.19,0.4,1.93,0.65c0.1-0.48,0.24-0.84,0.24-1.19c-0.01-1.67-0.08-3.34-0.09-5.01c-0.01-0.57,0-1.16,0.13-1.71
			c0.05-0.22,0.47-0.49,0.72-0.48c0.25,0,0.55,0.27,0.73,0.51c0.14,0.18,0.14,0.49,0.16,0.74c0.21,2.63,0.32,5.26-0.03,7.9
			c-0.24,1.75-0.72,3.4-1.69,4.88c-1.02,1.54-2.33,2.73-4.15,3.27c-0.64,0.02-1.3-0.04-1.92,0.08c-2.27,0.45-4.54,0.76-6.85,0.69
			c-1.48-0.04-2.96-0.04-4.44,0c-2.83,0.08-5.62-0.2-8.39-0.75c-3.03-0.61-5.94-1.43-8.6-3.11
			C236.13,200.5,233.87,198.59,232.33,195.91z"/>
		<path fill="#1B8A8A" d="M174.54,234.86c6.44,0,12.88,0,19.32,0c0.64,0,1.28,0.07,1.92,0.11c1.04,1.57,2.71,2.34,4.24,3.26
			c3.01,1.79,6.33,2.77,9.76,3.38c2.65,0.47,5.31,0.85,8.01,0.76c0.19-0.01,0.39-0.03,0.58,0.01c3.05,0.66,6.15,0.26,9.22,0.38
			c0.32,0.01,0.65,0,0.96,0.04c0.36,0.05,0.52,0.34,0.59,0.67c-0.77,0.04-1.54,0.1-2.3,0.1c-16.59,0.01-33.18,0-49.77,0.01
			c-0.83,0-1.68-0.15-2.45,0.32c-1.34-0.66-1.82-1.85-2.1-3.23c-0.32-1.57-0.08-3.04,0.5-4.49
			C173.3,235.48,173.76,234.99,174.54,234.86z"/>
		<path fill="#1D8788" d="M231.48,300.87c-0.01,0.52,0.29,0.84,0.73,1.03c1.47,0.65,2.91,1.36,4.42,1.92
			c3.86,1.42,7.82,2.46,11.88,3.14c1,0.17,1.99,0.35,2.99,0.53c-0.03,0.05-0.04,0.1-0.07,0.11c-0.05,0.03-0.12,0.06-0.18,0.06
			c-0.39,0.01-0.77,0.02-1.16,0.02c-15.71,0-31.43,0-47.14,0c-0.76,0-1.53,0-2.26,0c-1.17-1.31-1.45-2.78-1.17-4.37
			c0.16-0.88,0.45-1.73,0.68-2.59c4.96,0.02,9.92,0.04,14.87,0.05c5.09,0.01,10.17,0,15.26,0.01
			C230.71,300.79,231.09,300.85,231.48,300.87z"/>
		<path fill="#1B8A8A" d="M232.33,195.91c1.54,2.69,3.79,4.6,6.39,6.24c2.66,1.69,5.57,2.51,8.6,3.11c2.78,0.56,5.56,0.83,8.39,0.75
			c1.48-0.04,2.96-0.04,4.44,0c2.32,0.06,4.59-0.24,6.85-0.69c0.62-0.12,1.28-0.06,1.92-0.08c-1.17,0.84-2.57,1.05-3.9,1.44
			c-0.61,0.18-1.23,0.32-1.84,0.49c-0.96,0.04-1.92,0.04-2.88,0.13c-1.98,0.18-3.95,0.45-5.93,0.62c-2.49,0.21-4.99,0.35-7.49,0.51
			c-3.02-0.02-6.04-0.05-9.07-0.04c-0.3,0-0.6,0.19-0.9,0.3c-0.69-0.12-1.38-0.28-2.08-0.35c-1.86-0.2-3.68-0.6-5.44-1.24
			c-2.33-0.86-4.03-2.41-5.32-4.54c-1.16-1.91-1.61-4.01-1.98-6.16c-0.13-0.76,0.08-1.12,0.57-1.26c0.56-0.16,0.94,0.14,1.16,0.96
			c0.21,0.8,0.39,1.6,0.62,2.54c0.59-0.27,1.04-0.47,1.48-0.68C227.99,197.01,230.06,196.15,232.33,195.91z"/>
		<path fill="#F2901D" d="M229.83,234.56c-5.07,0.01-10.14,0.03-15.22,0.04c-1.93,0-3.85,0-5.78,0c0.17-5.49,2.42-9.78,7.31-12.48
			c3.07-1.69,6.36-2.71,9.87-3.02c-0.08,0.31-0.12,0.63-0.23,0.92c-0.74,1.86-1.11,3.78-0.92,5.79c0.01,0.13,0.01,0.26,0,0.38
			c-0.11,0.98,0.14,1.91,0.51,2.79c0.59,1.41,1.25,2.8,2.48,3.8C228.54,233.35,229.17,233.97,229.83,234.56z"/>
		<path fill="#453E55" d="M246.9,208.43c2.5-0.17,4.99-0.31,7.49-0.51c1.98-0.16,3.95-0.44,5.93-0.62c0.96-0.09,1.92-0.09,2.88-0.13
			c-0.01,3.59-0.01,7.18-0.02,10.78c-0.57,0.03-1.15,0.08-1.72,0.08c-7.56-0.01-15.11-0.02-22.67-0.03c-0.51,0-1.02-0.06-1.53-0.09
			c0.03-0.23,0.05-0.45,0.08-0.68c0.49,0.13,0.97,0.36,1.46,0.37c2.31,0.04,4.62,0.02,6.93,0c0.36,0,0.71-0.15,1.04-0.23
			c0.06-0.29,0.13-0.47,0.13-0.66C246.9,213.94,246.9,211.18,246.9,208.43z"/>
		<path fill="#F3A827" d="M229.83,234.56c-0.66-0.59-1.3-1.21-1.98-1.77c-1.23-1.01-1.89-2.39-2.48-3.8
			c-0.37-0.88-0.62-1.81-0.51-2.79c0.01-0.13,0.01-0.26,0-0.38c-0.19-2.01,0.19-3.92,0.92-5.79c0.12-0.29,0.16-0.61,0.23-0.92
			c1.9-0.52,3.84-0.8,5.81-0.72c-0.13,0.76-0.31,1.51-0.38,2.27c-0.24,2.86,0.79,5.23,2.76,7.3c2.02,2.12,4.57,3.3,7.19,4.37
			c2.14,0.88,4.4,1.37,6.66,1.84c0.61,0.13,1.25,0.11,2.2,0.18C248.46,234.7,236.2,234.8,229.83,234.56z"/>
		<path fill="#362D41" d="M246.9,208.43c0,2.76,0,5.51,0,8.27c0,0.19-0.07,0.37-0.13,0.66c-0.33,0.08-0.69,0.22-1.04,0.23
			c-2.31,0.02-4.62,0.04-6.93,0c-0.49-0.01-0.97-0.24-1.46-0.37c-0.13-2.85-0.27-5.69-0.4-8.54c0.3-0.1,0.6-0.3,0.9-0.3
			C240.85,208.38,243.87,208.41,246.9,208.43z"/>
		<path fill="#EFB532" d="M246.3,249.43c2.85-0.29,5.7-0.29,8.55,0.02c1.04,0.31,2.1,0.57,3.13,0.94
			c9.05,3.26,14.42,9.7,15.89,19.13c0.98,6.29-0.62,12.13-4.43,17.3c-0.3,0.41-0.68,0.77-1.02,1.15c-0.19,0.17-0.38,0.33-0.57,0.5
			c0,0,0.04-0.05,0.04-0.05c-0.14,0.14-0.28,0.28-0.42,0.42c0,0,0.04-0.01,0.04-0.01c-0.56-0.12-1,0.19-1.45,0.43
			c-2.11,1.11-4.26,2.09-6.6,2.62c-1.5,0.34-2.97,0.78-4.53,0.77c-0.44,0-0.9,0.04-1.33,0.15c-1.21,0.31-2.41,0.3-3.62,0.01
			c-0.25-0.06-0.5-0.16-0.75-0.15c-1.57,0.08-3.05-0.38-4.52-0.8c-1.67-0.47-3.26-1.1-4.74-2.06c-2.18-1.42-4.08-3.11-5.54-5.26
			c-2.32-3.41-3.81-7.1-3.76-11.31c0.02-1.54,0.11-3.06,0.38-4.59c0.47-2.61,1.21-5.12,2.63-7.38c2.31-3.68,5.22-6.79,8.75-9.35
			c0.76-0.55,1.7-0.93,2.17-1.84C245.16,249.85,245.73,249.64,246.3,249.43z M247.73,253.87c-0.64,0.08-1.29,0.09-1.9,0.26
			c-10.56,2.81-15.86,12.99-14.09,22.17c2.28,11.82,14.64,18.69,25.87,14.29c3.53-1.39,6.56-3.52,8.6-6.84
			c0.24-0.3,0.52-0.58,0.71-0.9c2.78-4.63,3.59-9.58,2.29-14.82c-0.9-3.64-2.76-6.77-5.51-9.33c-2.95-2.75-6.46-4.43-10.45-4.98
			C251.43,253.45,249.56,253.28,247.73,253.87z"/>
		<path fill="#EF8F1F" d="M244.59,250.07c-0.47,0.91-1.41,1.29-2.17,1.84c-3.53,2.56-6.44,5.67-8.75,9.35
			c-1.42,2.26-2.16,4.77-2.63,7.38c-0.27,1.52-0.36,3.04-0.38,4.59c-0.04,4.21,1.44,7.9,3.76,11.31c1.47,2.15,3.37,3.84,5.54,5.26
			c1.47,0.96,3.07,1.59,4.74,2.06c1.48,0.42,2.95,0.89,4.52,0.8c0.25-0.01,0.5,0.09,0.75,0.15c1.21,0.29,2.41,0.3,3.62-0.01
			c0.43-0.11,0.89-0.16,1.33-0.15c1.56,0.01,3.03-0.43,4.53-0.77c2.34-0.53,4.49-1.51,6.6-2.62c0.45-0.24,0.89-0.55,1.45-0.43
			c-0.36,0.44-0.65,0.95-1.08,1.32c-6.98,5.99-14.92,7.81-23.61,4.79c-8.62-2.99-13.86-9.28-15.48-18.23
			c-2.07-11.43,4.62-22.68,15.94-26.38C243.69,250.18,244.15,250.15,244.59,250.07z"/>
		<path fill="#1BA091" d="M212.92,263.18c1.47,2.42,2.7,4.94,3.09,7.79c-0.38,0.05-0.77,0.05-1.13,0.16
			c-1.51,0.48-3.04,0.94-4.52,1.51c-2.92,1.11-5.81,2.28-8.47,3.96c-0.42,0.27-0.93,0.39-1.4,0.57c-1.29-2.46-2.58-4.91-3.86-7.37
			c0.63-0.44,1.22-0.94,1.88-1.32c3.6-2.03,7.43-3.54,11.4-4.71C210.88,263.5,211.91,263.38,212.92,263.18z"/>
		<path fill="#1BA091" d="M283.13,271c0.12-0.62,0.13-1.27,0.36-1.84c0.8-1.98,1.68-3.93,2.53-5.9c0.57,0.03,1.17-0.04,1.7,0.11
			c4.19,1.15,8.26,2.61,12.1,4.66c0.89,0.48,1.82,0.92,2.48,1.74c-0.47,1.68-1.22,3.22-2.13,4.71c-0.52,0.86-1.24,1.64-1.41,2.69
			c-0.53-0.22-1.07-0.41-1.58-0.66c-0.46-0.23-0.87-0.54-1.32-0.78c-3.7-1.95-7.62-3.35-11.59-4.62
			C283.91,271,283.51,271.03,283.13,271z"/>
		<path fill="#6F667A" d="M320.44,258.36c-0.39,4.2-1.1,8.11-3.51,11.46c-0.6,0.83-1.28,1.66-2.1,2.24c-1.6,1.13-2.6,1.03-3.91-0.33
			c-0.38-0.39-0.55-0.85-0.56-1.39c-0.03-0.91,0.09-1.78,0.37-2.66c0.7-2.2,1.35-4.42,2-6.64c0.55-1.86,0.81-3.76,0.76-5.7
			c-0.02-0.69,0.14-1.4,0.29-2.08c0.22-1.02,0.83-1.78,1.88-1.97c1.24-0.23,2.31,0.18,3.04,1.23c0.33,0.47,0.59,1,0.8,1.54
			C320.06,255.5,320.21,257.04,320.44,258.36z"/>
		<path fill="#1BA091" d="M287.19,261.3c0.01-0.13-0.03-0.29,0.03-0.37c1.35-1.82,2.71-3.63,4.08-5.42c0.18-0.24,0.5-0.38,0.75-0.56
			c3.21,0.71,6.34,1.64,9.36,2.93c1.48,0.63,2.94,1.31,3.97,2.62c-0.6,2.29-1.05,4.61-1.96,6.81c-0.07,0.17-0.02,0.38-0.03,0.57
			c-0.24-0.07-0.51-0.1-0.72-0.22c-4.55-2.76-9.43-4.74-14.6-6.01C287.77,261.58,287.49,261.42,287.19,261.3z"/>
		<path fill="#1BA091" d="M207.16,254.98c1.93,1.67,3.31,3.76,4.62,5.91c-0.28,0.25-0.52,0.62-0.84,0.73
			c-1.77,0.59-3.59,1.02-5.32,1.68c-2.28,0.87-4.5,1.89-6.72,2.9c-1.05,0.48-2.03,1.11-3.04,1.67c-0.28-0.91-0.58-1.82-0.83-2.74
			c-0.45-1.65-1.05-3.27-1.13-5.01c1.03-0.63,2-1.39,3.1-1.88C200.25,256.8,203.62,255.61,207.16,254.98z"/>
		<path fill="#1BA091" d="M216.43,272.43c0.65,0.94,0.68,2.06,0.85,3.12c0.29,1.77,0.56,3.55,0.43,5.36
			c-2.84,0.84-5.57,1.94-8.2,3.28c-0.55,0.28-1.09,0.33-1.67,0.34c-0.19-0.63-0.8-0.8-1.27-1.1c-1.65-1.03-2.88-2.51-4.21-3.88
			c-0.2-0.21-0.24-0.57-0.36-0.86c1.15-0.69,2.25-1.52,3.47-2.04c3.36-1.44,6.67-3.03,10.25-3.89
			C215.98,272.71,216.2,272.55,216.43,272.43z"/>
		<path fill="#1BA091" d="M281.45,280.95c-0.23-2.88,0.38-5.65,1.09-8.4c4.65,1.24,9.1,2.98,13.32,5.29
			c0.57,0.31,1.1,0.66,1.41,1.25c-1.36,1.5-2.72,3-4.42,4.15c-0.62,0.42-1.22,0.88-1.83,1.31c-0.8,0.02-1.45-0.4-2.13-0.74
			C286.5,282.64,284.04,281.62,281.45,280.95z"/>
		<path fill="#1BA091" d="M293.62,253.56c2.34-2.56,5.21-3.84,8.7-3.48c1.59,0.17,2.9,0.93,3.83,2.26c-0.02,1.15-0.05,2.3-0.05,3.45
			c0,0.8-0.15,1.52-0.78,2.08c-1.8-0.85-3.57-1.79-5.42-2.52C297.88,254.54,295.79,253.91,293.62,253.56z"/>
		<path fill="#1BA091" d="M193.05,252.29c1.06-1.49,2.62-2.07,4.33-2.37c2.75,0,5.12,1.06,7.27,2.68c0.35,0.26,0.6,0.64,0.9,0.97
			c-4.03,0.74-7.82,2.13-11.37,4.18c-0.32,0.18-0.69,0.28-1.03,0.42C193.12,256.21,193.09,254.25,193.05,252.29z"/>
		<path fill="#1D8788" d="M291.02,284.56c0.61-0.44,1.21-0.89,1.83-1.31c1.69-1.15,3.05-2.65,4.41-4.15c0.88,0.1,1.48,0.68,2.14,1.2
			c0.89,0.7,1.65,1.61,2.82,1.9c-0.04,0.18-0.04,0.4-0.14,0.55c-1.46,2.08-2.97,4.12-4.9,5.79c-0.32,0.28-0.75,0.43-1.14,0.64
			c0.01-0.81-0.59-1.25-1.13-1.66c-1-0.77-2.06-1.46-3.08-2.2C291.54,285.1,291.3,284.81,291.02,284.56z"/>
		<path fill="#1D8788" d="M294.86,290.27c-0.96,0.49-1.89,1.08-2.9,1.46c-3.07,1.14-6,0.55-8.18-2.29c-0.77-1.01-1.43-2.1-1.55-3.42
			c1.44,0.01,2.87,0.02,4.31,0.03c0.61,0.01,1.11-0.17,1.38-0.76c1.49,0.87,2.99,1.73,4.48,2.61
			C293.4,288.49,294.22,289.29,294.86,290.27z"/>
		<path fill="#1B8A8A" d="M298.76,277.17c0.17-1.05,0.89-1.83,1.41-2.69c0.91-1.49,1.66-3.03,2.13-4.71
			c0.18,0.06,0.4,0.07,0.54,0.18c0.95,0.76,1.88,1.55,2.83,2.31c0.34,0.27,0.75,0.45,1.13,0.67c-0.41,1.14-0.76,2.31-1.26,3.41
			c-0.66,1.46-1.45,2.86-2.18,4.29C301.49,279.93,300.13,278.54,298.76,277.17z"/>
		<path fill="#0B7580" d="M195.85,267.88c1.01-0.56,1.99-1.19,3.04-1.67c2.22-1.02,4.45-2.03,6.72-2.9
			c1.73-0.67,3.56-1.09,5.32-1.68c0.33-0.11,0.56-0.48,0.84-0.73c0.38,0.76,0.76,1.53,1.14,2.29c-1.01,0.2-2.04,0.32-3.01,0.61
			c-3.96,1.17-7.79,2.68-11.4,4.71c-0.66,0.37-1.26,0.87-1.88,1.32c-0.81,0.61-1.63,1.2-2.42,1.83c-0.56,0.44-1.12,0.83-1.86,0.89
			c-0.52-0.4-0.48-1.04-0.68-1.58c0.81,0.02,1.16-0.7,1.72-1.08C194.25,269.27,195.19,268.74,195.85,267.88z"/>
		<path fill="#0B7580" d="M298.76,277.17c1.37,1.37,2.73,2.76,4.61,3.46c-0.27,0.6-0.48,1.25-1.14,1.57
			c-1.17-0.29-1.93-1.2-2.82-1.9c-0.66-0.52-1.26-1.1-2.14-1.2c-0.31-0.59-0.83-0.94-1.41-1.25c-4.23-2.31-8.68-4.05-13.32-5.29
			c0.2-0.52,0.39-1.04,0.59-1.56c0.38,0.04,0.78,0.01,1.14,0.12c3.97,1.27,7.89,2.67,11.59,4.62c0.45,0.24,0.87,0.55,1.32,0.78
			C297.69,276.76,298.23,276.96,298.76,277.17z"/>
		<path fill="#0B7580" d="M306.8,272.93c-0.38-0.22-0.79-0.4-1.13-0.67c-0.96-0.75-1.88-1.55-2.83-2.31
			c-0.14-0.11-0.36-0.12-0.54-0.18c-0.65-0.82-1.59-1.27-2.48-1.74c-3.84-2.06-7.91-3.51-12.1-4.66c-0.54-0.15-1.13-0.08-1.7-0.11
			c0.39-0.65,0.78-1.3,1.18-1.95c0.3,0.12,0.58,0.27,0.89,0.35c5.17,1.26,10.04,3.25,14.6,6.01c0.21,0.13,0.48,0.15,0.72,0.22
			c0.24,0.29,0.43,0.64,0.72,0.86c1.06,0.79,2.15,1.54,3.22,2.31C307.3,271.71,307.22,272.37,306.8,272.93z"/>
		<path fill="#0B7580" d="M216.43,272.43c-0.23,0.12-0.45,0.28-0.69,0.34c-3.58,0.86-6.89,2.45-10.25,3.89
			c-1.22,0.53-2.32,1.35-3.47,2.04c-1.38,0.99-2.88,1.81-4.06,3.08c-0.23,0.25-0.67,0.3-1.01,0.44c-0.6-0.36-0.82-0.98-1.1-1.56
			c0.29-0.11,0.63-0.15,0.87-0.33c0.98-0.7,1.95-1.42,2.89-2.17c0.34-0.27,0.6-0.65,0.89-0.97c0.47-0.19,0.98-0.31,1.4-0.57
			c2.66-1.68,5.56-2.84,8.47-3.96c1.48-0.57,3.01-1.03,4.52-1.51c0.36-0.11,0.75-0.11,1.13-0.16
			C216.51,271.36,216.33,271.93,216.43,272.43z"/>
		<path fill="#1D8788" d="M307.34,271.05c-1.08-0.77-2.17-1.51-3.22-2.31c-0.29-0.22-0.48-0.57-0.72-0.86
			c0.01-0.19-0.04-0.41,0.03-0.57c0.91-2.2,1.36-4.52,1.96-6.81c0.56,0.27,1.13,0.55,1.69,0.81c0.56,0.27,1.13,0.52,1.7,0.79
			C308.97,265.19,308.46,268.16,307.34,271.05z"/>
		<path fill="#12737E" d="M193.15,258.17c0.35-0.14,0.71-0.24,1.03-0.42c3.55-2.05,7.34-3.44,11.37-4.18
			c0.85,0.12,1.27,0.72,1.61,1.41c-3.54,0.63-6.91,1.82-10.18,3.27c-1.09,0.49-2.07,1.25-3.1,1.88c-1.21,0.79-2.42,1.58-3.62,2.37
			c-0.2-0.8-0.35-1.59,0.09-2.36C191.48,259.76,192.3,258.94,193.15,258.17z"/>
		<path fill="#0B7580" d="M308.78,262.09c-0.57-0.26-1.13-0.52-1.7-0.79c-0.57-0.27-1.13-0.54-1.69-0.81
			c-1.03-1.31-2.49-2-3.97-2.62c-3.02-1.28-6.16-2.22-9.36-2.93c0.35-0.66,0.75-1.25,1.56-1.39c2.16,0.35,4.26,0.99,6.28,1.79
			c1.85,0.73,3.61,1.67,5.42,2.52c1.16,0.76,2.33,1.51,3.49,2.27C308.8,260.79,308.79,261.44,308.78,262.09z"/>
		<path fill="#12737E" d="M294.86,290.27c-0.64-0.98-1.46-1.78-2.47-2.38c-1.49-0.88-2.98-1.74-4.48-2.61
			c-2.04-0.91-4.07-1.87-6.29-2.32c-0.43-0.64-0.24-1.33-0.17-2.01c2.59,0.66,5.05,1.68,7.44,2.87c0.68,0.34,1.33,0.76,2.13,0.74
			c0.27,0.25,0.52,0.54,0.82,0.75c1.02,0.74,2.08,1.43,3.08,2.2c0.54,0.41,1.14,0.85,1.13,1.66
			C295.8,289.7,295.4,290.06,294.86,290.27z"/>
		<path fill="#12737E" d="M207.84,284.54c0.58,0,1.12-0.06,1.67-0.34c2.63-1.34,5.36-2.44,8.2-3.28c0.26,0.71,0.14,1.39-0.19,2.04
			c-2.37,0.48-4.59,1.32-6.58,2.71c-0.25,0.06-0.51,0.08-0.74,0.19c-1.89,0.85-3.49,2.16-5.21,3.29c-0.38,0.25-0.63,0.64-0.62,1.14
			c-0.66-0.5-1.32-1-1.97-1.5c0.39-0.2,0.86-0.31,1.15-0.6c0.87-0.87,1.85-1.56,2.89-2.2c0.38-0.24,0.76-0.48,1.09-0.78
			C207.69,285.04,207.74,284.76,207.84,284.54z"/>
		<path fill="#6E6579" d="M309.49,279.87c-0.86,0.04-1.45-0.39-1.78-1.16c-0.54-1.24-0.72-2.48,0.28-3.59
			c0.67-0.74,1.49-1.24,2.55-0.93c1.14,0.33,2.04,1.42,2.1,2.5C312.74,278.35,311.2,279.91,309.49,279.87z"/>
		<path fill="#1D8788" d="M308.81,260.14c-1.16-0.76-2.33-1.51-3.49-2.27c0.63-0.55,0.78-1.28,0.78-2.08c0-1.15,0.03-2.3,0.05-3.45
			c0.89,0.62,1.32,1.58,1.68,2.54C308.47,256.57,308.97,258.3,308.81,260.14z"/>
		<path fill="#1BA091" d="M210.94,285.67c2-1.39,4.21-2.23,6.58-2.71c-0.03,0.72-0.06,1.44-0.09,2.16c-0.2,0.33-0.4,0.65-0.6,0.98
			c-0.9-0.02-1.79-0.06-2.69-0.04C213.05,286.09,211.98,286.01,210.94,285.67z"/>
		<path fill="#1BA091" d="M281.63,282.97c2.22,0.45,4.24,1.41,6.29,2.32c-0.27,0.6-0.77,0.77-1.38,0.76
			c-1.44-0.01-2.87-0.02-4.31-0.03C281.72,285.06,281.67,284.02,281.63,282.97z"/>
		<path fill="#EF8F1F" d="M267.84,288.46c0.19-0.17,0.38-0.33,0.57-0.5C268.22,288.13,268.03,288.29,267.84,288.46z"/>
		<path fill="#EF8F1F" d="M267.46,288.84c0.14-0.14,0.28-0.28,0.42-0.42C267.74,288.56,267.6,288.7,267.46,288.84z"/>
		<path fill="#1D8788" d="M207.84,284.54c-0.1,0.22-0.15,0.51-0.32,0.66c-0.33,0.3-0.71,0.55-1.09,0.78
			c-1.03,0.64-2.02,1.33-2.89,2.2c-0.29,0.29-0.76,0.41-1.15,0.6c-2.15-1.66-3.77-3.8-5.29-6.03c-0.1-0.15-0.11-0.36-0.17-0.55
			c0.34-0.14,0.78-0.19,1.01-0.44c1.18-1.27,2.68-2.08,4.06-3.08c0.11,0.29,0.15,0.65,0.36,0.86c1.33,1.37,2.56,2.84,4.21,3.88
			C207.05,283.73,207.65,283.91,207.84,284.54z"/>
		<path fill="#1D8788" d="M210.94,285.67c1.04,0.34,2.12,0.42,3.21,0.4c0.89-0.02,1.79,0.02,2.69,0.04
			c-0.36,2.2-1.52,3.87-3.35,5.11c-1.52,1.03-3.2,1.26-4.94,0.89c-1.5-0.32-2.95-0.83-4.17-1.82c-0.01-0.5,0.23-0.89,0.62-1.14
			c1.72-1.12,3.32-2.44,5.21-3.29C210.42,285.75,210.69,285.73,210.94,285.67z"/>
		<path fill="#1D8788" d="M200.49,277.18c-0.29,0.33-0.55,0.7-0.89,0.97c-0.94,0.75-1.91,1.47-2.89,2.17
			c-0.24,0.17-0.58,0.22-0.87,0.33c-1.5-2.22-2.47-4.69-3.38-7.18c-0.1-0.29-0.08-0.62-0.11-0.93c0.73-0.06,1.3-0.45,1.86-0.89
			c0.79-0.63,1.61-1.22,2.42-1.83C197.91,272.27,199.2,274.72,200.49,277.18z"/>
		<path fill="#1D8788" d="M190.26,262.5c1.21-0.79,2.42-1.58,3.62-2.37c0.09,1.73,0.68,3.36,1.13,5.01
			c0.25,0.92,0.55,1.83,0.83,2.74c-0.66,0.87-1.6,1.39-2.47,1.99c-0.55,0.38-0.91,1.1-1.72,1.08c-0.71-2.13-1.11-4.32-1.27-6.56
			C190.35,263.76,190.3,263.13,190.26,262.5z"/>
		<path fill="#1D8788" d="M193.15,258.17c-0.85,0.77-1.67,1.59-2.8,1.97c-0.07-1.73,0.28-3.4,0.91-5c0.41-1.06,0.86-2.11,1.79-2.85
			C193.09,254.25,193.12,256.21,193.15,258.17z"/>
		<path fill="#23A192" d="M247.73,253.87c1.83-0.58,3.7-0.41,5.53-0.16c3.99,0.55,7.49,2.23,10.45,4.98
			c2.75,2.56,4.61,5.69,5.51,9.33c1.29,5.24,0.48,10.19-2.29,14.82c-0.2,0.33-0.47,0.6-0.71,0.9c-0.58,0.27-1.19,0.48-1.72,0.81
			c-2.21,1.38-4.57,2.4-7.17,2.63c-3.95,0.35-7.66-0.43-11.01-2.68c-1.68-1.13-3.05-2.55-4.19-4.2c-1.75-2.53-2.94-5.26-2.95-8.4
			c0-1.03-0.02-2.06,0-3.09c0.06-2.76,0.91-5.29,2.3-7.65c0.92-1.56,2.05-2.94,3.37-4.2C245.86,255.98,246.77,254.9,247.73,253.87z
			 M264.31,269.37c0.04-0.01,0.08-0.01,0.11-0.02c-0.18-1-0.29-2.03-0.56-3c-0.78-2.82-2.39-5.07-4.81-6.74
			c-1.11-0.76-2.3-1-3.62-1.04c-1.67-0.05-3.49,1.84-3.53,3.44c-0.04,1.74,0.38,3.31,1.25,4.77c0.75,1.26,1.53,2.53,2.45,3.67
			c1.08,1.34,2.22,2.67,3.9,3.35c0.56,0.23,1.11,0.34,1.69,0.22c1.62-0.33,2.95-1.83,3.12-3.48
			C264.34,270.14,264.31,269.76,264.31,269.37z M260.06,278.96c0.01,1.45,1.43,2.91,2.79,2.8c1.55-0.13,2.66-1.58,2.64-3.02
			c-0.02-1.7-1.03-2.73-2.73-2.76C261.27,275.97,259.93,277,260.06,278.96z"/>
		<path fill="#1D8788" d="M247.73,253.87c-0.96,1.03-1.87,2.12-2.89,3.09c-1.31,1.26-2.45,2.64-3.37,4.2
			c-1.39,2.36-2.24,4.89-2.3,7.65c-0.02,1.03-0.01,2.06,0,3.09c0.01,3.14,1.2,5.87,2.95,8.4c1.14,1.65,2.51,3.07,4.19,4.2
			c3.35,2.25,7.06,3.03,11.01,2.68c2.6-0.23,4.96-1.25,7.17-2.63c0.53-0.33,1.15-0.55,1.72-0.81c-2.04,3.32-5.06,5.45-8.6,6.84
			c-11.24,4.41-23.59-2.46-25.87-14.29c-1.77-9.18,3.53-19.35,14.09-22.17C246.44,253.96,247.09,253.95,247.73,253.87z"/>
		<path fill="#5CBBB1" d="M264.31,269.37c0,0.39,0.03,0.77-0.01,1.16c-0.17,1.66-1.5,3.15-3.12,3.48c-0.58,0.12-1.13,0.01-1.69-0.22
			c-1.68-0.68-2.82-2.01-3.9-3.35c-0.92-1.14-1.69-2.41-2.45-3.67c-0.87-1.45-1.29-3.02-1.25-4.77c0.04-1.6,1.86-3.49,3.53-3.44
			c1.32,0.04,2.51,0.27,3.62,1.04c2.43,1.67,4.03,3.92,4.81,6.74c0.27,0.98,0.38,2,0.56,3
			C264.39,269.36,264.35,269.36,264.31,269.37z"/>
		<path fill="#5CBBB1" d="M260.06,278.96c-0.13-1.97,1.21-3,2.7-2.97c1.7,0.03,2.71,1.05,2.73,2.76c0.02,1.44-1.09,2.89-2.64,3.02
			C261.49,281.88,260.07,280.42,260.06,278.96z"/>
	</g>
	<g>
		<path fill="#1EA192" d="M348.02,128.88c-0.17-1.66-0.48-3.31-0.5-4.97c-0.07-4.9-0.03-9.79-0.02-14.69c0-0.44,0.15-0.88,0.24-1.31
			c0.21,1.13,0.9,1.62,2.04,1.58c1.54-0.05,3.11,0.12,4.62-0.13c1.6-0.26,3.19-0.25,4.79-0.31c0.51-0.02,1.04,0.04,1.54-0.07
			c2.46-0.54,4.97-0.29,7.45-0.62c2.27-0.3,4.59-0.14,6.9-0.37c3.05-0.3,6.14-0.03,9.21-0.4c1.33-0.16,2.69-0.02,4.04-0.01
			c0.14,1.23-0.1,2.41-0.33,3.61c-0.62,3.35-1.69,6.55-3.01,9.68c-0.57,1.35-1.1,2.72-1.66,4.08c-1.78,0.81-3.72,0.85-5.6,1.16
			c-1.32,0.22-2.66,0.31-3.99,0.48c-1.64,0.21-3.28,0.51-4.93,0.66c-2.23,0.2-4.46,0.3-6.69,0.45c-0.19,0.01-0.4-0.02-0.57,0.04
			c-1.44,0.44-2.92,0.29-4.39,0.34c-0.45,0.02-0.92-0.07-1.34,0.05c-1.58,0.43-3.18,0.32-4.78,0.32
			C350,128.44,349,128.58,348.02,128.88z"/>
		<path fill="#1EA192" d="M383.26,91.66c0.46,0.52,0.95,1.01,1.36,1.56c1.42,1.87,2.68,3.85,3.73,5.95c0.2,0.39,0.31,0.82,0.46,1.23
			c-0.03,1.34-0.05,2.68-0.08,4.02c-2.38,0.02-4.76,0.04-7.14,0.06c-0.51,0-1.06-0.07-1.54,0.06c-1.33,0.36-2.68,0.26-4.03,0.29
			c-1.48,0.03-2.99-0.12-4.43,0.12c-1.48,0.24-2.94,0.24-4.41,0.29c-0.71,0.03-1.45-0.1-2.12,0.07c-1.53,0.38-3.07,0.27-4.6,0.33
			c-0.45,0.02-0.91-0.02-1.35,0.06c-2.79,0.52-5.63,0.3-8.43,0.65c-1.05,0.13-2.03,0.23-2.88,0.89c0.14-2.11,0.19-4.22,0.46-6.31
			c0.4-3.05,0.95-6.07,1.45-9.11c0.07-0.44,0.25-0.85,0.38-1.28c3.08-0.15,6.16-0.3,9.24-0.46c0.13-0.01,0.26-0.01,0.38-0.05
			c1-0.36,2.04-0.27,3.06-0.28c1.87-0.01,3.74,0,5.61,0c0.45,0,0.9,0.01,1.35,0.06c1.78,0.21,3.56,0.53,5.34,0.65
			c2.13,0.14,4.19,0.62,6.27,0.97C381.99,91.53,382.63,91.58,383.26,91.66z"/>
		<path fill="#18898A" d="M392.93,126.85c-0.11,0.88-0.16,1.77-0.34,2.64c-0.82,4.16-2.21,8.12-4.21,11.87
			c-0.12,0.22-0.3,0.41-0.45,0.61c-0.68-0.05-1.24,0.27-1.82,0.55c-0.63,0.31-1.25,0.66-1.91,0.92c-3.52,1.37-7.09,2.59-10.77,3.46
			c-3.36,0.79-6.74,1.45-10.23,1.3c-2.31-0.1-4.62-0.01-6.93-0.03c-1.21-0.01-2.43,0.09-3.62-0.31c-0.46-0.15-1.02-0.03-1.53-0.03
			c-0.1-0.4-0.2-0.79-0.3-1.19c2.51-0.46,5.04-0.86,7.44-1.78c0.72-0.27,1.46-0.49,2.19-0.73c3-1,5.79-2.4,8.43-4.13
			c1.6-1.06,3.11-2.24,4.64-3.41c2.32-1.77,4.19-3.95,6.02-6.17c0.34-0.42,0.45-1.03,0.67-1.55c1.08,0,2.14-0.2,3.2-0.41
			c1.98-0.4,3.97-0.74,5.96-1.07C390.55,127.18,391.74,127.03,392.93,126.85z"/>
		<path fill="#1EA192" d="M380.21,128.87c-0.22,0.52-0.32,1.14-0.67,1.55c-1.83,2.22-3.7,4.4-6.02,6.17
			c-1.53,1.16-3.03,2.35-4.64,3.41c-2.63,1.74-5.43,3.13-8.43,4.13c-0.73,0.24-1.47,0.45-2.19,0.73c-2.4,0.92-4.93,1.32-7.44,1.78
			c-0.32-1.16-0.73-2.3-0.93-3.48c-0.6-3.52-1.12-7.05-1.65-10.58c-0.04-0.25,0.02-0.51,0.04-0.76c0.71,0.01,1.45,0.15,2.11-0.02
			c1.09-0.27,2.17-0.22,3.26-0.27c2.88-0.13,5.77-0.28,8.65-0.43c0.19-0.01,0.38-0.04,0.58-0.06c0.89-0.1,1.78-0.21,2.67-0.29
			c0.45-0.04,0.9-0.01,1.35-0.06c1.97-0.22,3.94-0.51,5.91-0.69C375.3,129.77,377.76,129.38,380.21,128.87z"/>
		<path fill="#218B8B" d="M384.92,146.63c-0.2,0.33-0.36,0.68-0.6,0.98c-6.19,7.65-14.05,12.34-23.9,13.49
			c-3.75,0.44-7.45,0.12-11.12-0.71c-0.44-0.1-0.87-0.24-1.27-0.44c-0.65-0.33-0.93-0.95-0.82-1.6c0.13-0.71,0.72-1.24,1.5-1.25
			c0.44,0,0.89,0.11,1.33,0.19c0.95,0.17,1.89,0.38,2.85,0.52c0.49,0.07,1,0.01,1.5,0.01c0.14-0.78-0.31-1.3-0.55-1.88
			c-0.64-1.54-1.41-3.03-1.72-4.69c1.22,0.01,2.45,0.02,3.67,0.04c0.45,0.01,0.93-0.04,1.34,0.11c0.82,0.29,1.65,0.28,2.48,0.26
			c1.99-0.06,3.97,0.12,5.96-0.31c1.23-0.27,2.54-0.19,3.81-0.39c3.18-0.5,6.28-1.25,9.34-2.21
			C380.8,148.08,382.85,147.33,384.92,146.63z"/>
		<path fill="#23A193" d="M350.85,87.42c0.31-2.25,1.16-4.32,2.12-6.35c0.19-0.41,0.54-0.79,0.57-1.21
			c0.14-1.91,1.82-2.13,3.03-2.82c0.45-0.26,1.03,0.02,1.39,0.41c0.43,0.46,0.96,0.6,1.55,0.66c2.95,0.31,5.79,1.08,8.55,2.16
			c0.29,0.12,0.62,0.16,0.93,0.23c0.36,0.6,1.01,0.69,1.6,0.87c2.92,1.46,5.62,3.25,8.09,5.39c0.33,0.29,0.59,0.65,0.89,0.98
			c-1.14-0.13-2.29-0.22-3.42-0.4c-2.91-0.45-5.83-0.76-8.79-0.73c-2.57,0.03-5.14,0.02-7.71,0.04c-0.51,0-1.02,0.04-1.53,0.09
			c-0.89,0.08-1.78,0.19-2.67,0.27c-0.64,0.05-1.28,0.04-1.92,0.1C352.63,87.2,351.74,87.32,350.85,87.42z"/>
		<path fill="#0B7582" d="M380.21,128.87c-2.45,0.51-4.91,0.9-7.4,1.12c-1.98,0.18-3.94,0.46-5.91,0.69
			c-0.45,0.05-0.9,0.02-1.35,0.06c-0.89,0.08-1.78,0.19-2.67,0.29c-0.19,0.02-0.38,0.05-0.58,0.06c-2.88,0.15-5.77,0.3-8.65,0.43
			c-1.09,0.05-2.17,0.01-3.26,0.27c-0.67,0.16-1.4,0.02-2.11,0.02c-0.09-0.98-0.17-1.96-0.26-2.93c0.98-0.31,1.98-0.44,3.02-0.44
			c1.6,0,3.2,0.11,4.78-0.32c0.42-0.11,0.89-0.03,1.34-0.05c1.47-0.05,2.95,0.1,4.39-0.34c0.18-0.05,0.38-0.02,0.57-0.04
			c2.23-0.14,4.47-0.24,6.69-0.45c1.65-0.15,3.28-0.45,4.93-0.66c1.33-0.17,2.67-0.26,3.99-0.48c1.88-0.31,3.82-0.35,5.6-1.16
			c0.77-0.02,1.55,0.06,2.3-0.08c1.94-0.37,3.85-0.84,5.79-1.24c0.62-0.13,1.26-0.14,1.89-0.21c0.13,1.17-0.09,2.31-0.39,3.44
			c-1.19,0.17-2.38,0.33-3.56,0.53c-1.99,0.34-3.98,0.68-5.96,1.07C382.34,128.67,381.29,128.87,380.21,128.87z"/>
		<path fill="#0B7582" d="M347.8,107.22c0.85-0.66,1.84-0.75,2.88-0.89c2.8-0.35,5.65-0.13,8.43-0.65c0.44-0.08,0.9-0.05,1.35-0.06
			c1.54-0.05,3.08,0.05,4.6-0.33c0.67-0.17,1.41-0.04,2.12-0.07c1.47-0.05,2.94-0.05,4.41-0.29c1.44-0.24,2.95-0.08,4.43-0.12
			c1.35-0.03,2.7,0.07,4.03-0.29c0.48-0.13,1.02-0.05,1.54-0.06c2.38-0.02,4.76-0.04,7.14-0.06c0.62,0.01,1.23,0.03,1.85,0.04
			c0.32,1.02,0.64,2.03,0.97,3.05c-1.07,0.02-2.15,0.05-3.22,0.07c-1.35-0.01-2.71-0.15-4.04,0.01c-3.07,0.38-6.16,0.11-9.21,0.4
			c-2.31,0.23-4.63,0.07-6.9,0.37c-2.48,0.33-5,0.08-7.45,0.62c-0.49,0.11-1.02,0.05-1.54,0.07c-1.6,0.06-3.19,0.05-4.79,0.31
			c-1.51,0.25-3.08,0.08-4.62,0.13c-1.14,0.04-1.83-0.45-2.04-1.58C347.76,107.68,347.78,107.45,347.8,107.22z"/>
		<path fill="#F4B833" d="M367.14,52.58c1.08-3.62,5.93-6.93,10.9-5.99c1.06,0.2,2.16,0.38,3.03,1.12c0.28,1.05,0.55,2.1,0.86,3.14
			c0.75,2.53-0.36,5.62-2.49,7.17c-1.52,1.1-3.11,1.78-5.02,1.52c-0.19-0.03-0.39-0.01-0.58,0c-1.04,0.06-1.84-0.38-2.59-1.06
			c-1.55-1.41-2.79-3-3.42-5.03C367.73,53.12,367.37,52.87,367.14,52.58z M370.96,52.48c-0.01,0.71-0.06,1.41,0.54,1.97
			c0.98,0.91,2.24,1.13,3.35,0.41c0.63-0.41,1.22-0.96,1.68-1.55c0.67-0.86,0.83-1.83,0.32-2.89c-0.53-1.08-1.36-1.4-2.5-1.35
			C372.51,49.14,370.97,50.63,370.96,52.48z"/>
		<path fill="#087480" d="M384.92,146.63c-2.06,0.7-4.11,1.45-6.19,2.1c-3.06,0.96-6.17,1.71-9.34,2.21
			c-1.28,0.2-2.58,0.13-3.81,0.39c-1.99,0.43-3.97,0.25-5.96,0.31c-0.83,0.02-1.66,0.04-2.48-0.26c-0.41-0.15-0.89-0.1-1.34-0.11
			c-1.22-0.02-2.45-0.03-3.67-0.04c-0.33-1.14-0.66-2.27-0.99-3.41c0.51,0,1.07-0.12,1.53,0.03c1.2,0.4,2.41,0.3,3.62,0.31
			c2.31,0.02,4.62-0.07,6.93,0.03c3.49,0.15,6.87-0.51,10.23-1.3c3.68-0.86,7.25-2.09,10.77-3.46c0.66-0.25,1.27-0.6,1.91-0.92
			c0.58-0.28,1.14-0.61,1.82-0.55C387.2,143.7,386.19,145.25,384.92,146.63z"/>
		<path fill="#218B8B" d="M388.33,107.58c1.07-0.02,2.15-0.05,3.22-0.07c0.75,1.52,0.95,3.18,1.23,4.81
			c0.64,3.67,0.98,7.37,0.53,11.1c-0.63,0.07-1.27,0.08-1.89,0.21c-1.93,0.4-3.85,0.88-5.79,1.24c-0.74,0.14-1.53,0.06-2.3,0.08
			c0.55-1.36,1.09-2.73,1.66-4.08c1.32-3.13,2.38-6.33,3.01-9.68C388.23,109.99,388.47,108.81,388.33,107.58z"/>
		<path fill="#F4A827" d="M367.14,52.58c0.24,0.29,0.59,0.54,0.69,0.86c0.63,2.03,1.87,3.63,3.42,5.03
			c0.75,0.68,1.56,1.12,2.59,1.06c0.19-0.01,0.39-0.02,0.58,0c1.91,0.26,3.5-0.41,5.02-1.52c2.12-1.54,3.23-4.64,2.49-7.17
			c-0.31-1.04-0.57-2.09-0.86-3.14c1.98,0.93,3.42,2.38,4.23,4.43c0.1,1.82-0.18,3.59-0.8,5.3c-0.74,2.06-1.8,3.87-3.83,4.89
			c-1.32,0.67-2.71,1.19-4.18,1.4c-0.69,0.1-1.42,0.05-2.11-0.06c-0.75-0.12-1.48-0.44-2.23-0.6c-1.28-0.28-2.22-1.07-2.92-2.09
			c-0.75-1.11-1.61-2.16-2.03-3.48c-0.17-0.53-0.58-0.98-0.89-1.46C366.23,54.81,366.47,53.65,367.14,52.58z"/>
		<path fill="#0B7582" d="M350.85,87.42c0.89-0.1,1.77-0.22,2.66-0.3c0.64-0.06,1.28-0.05,1.92-0.1c0.89-0.07,1.78-0.19,2.67-0.27
			c0.51-0.05,1.02-0.09,1.53-0.09c2.57-0.02,5.14-0.01,7.71-0.04c2.95-0.03,5.87,0.28,8.79,0.73c1.13,0.17,2.28,0.27,3.42,0.4
			c1.47,1.08,2.67,2.42,3.7,3.92c-0.63-0.08-1.27-0.13-1.9-0.24c-2.09-0.35-4.15-0.83-6.27-0.97c-1.79-0.12-3.56-0.44-5.34-0.65
			c-0.45-0.05-0.9-0.06-1.35-0.06c-1.87-0.01-3.74-0.01-5.61,0c-1.03,0.01-2.07-0.08-3.06,0.28c-0.12,0.04-0.25,0.04-0.38,0.05
			c-3.08,0.15-6.16,0.31-9.24,0.46C350.14,89.44,350.39,88.4,350.85,87.42z"/>
		<path fill="#F29525" d="M366.32,56.05c0.3,0.48,0.72,0.93,0.89,1.46c0.42,1.32,1.28,2.38,2.03,3.48c0.69,1.02,1.64,1.81,2.92,2.09
			c0.75,0.16,1.47,0.48,2.23,0.6c0.69,0.11,1.42,0.16,2.11,0.06c1.47-0.22,2.86-0.73,4.18-1.4c2.02-1.03,3.09-2.84,3.83-4.89
			c0.61-1.72,0.9-3.48,0.8-5.3c1.27,2,1.44,4.2,0.99,6.45c-0.92,4.66-4.86,7.98-9.61,8.18c-0.57,0.02-1.15,0-1.73-0.01
			c-0.58-0.13-1.16-0.25-1.73-0.38c-0.52-0.25-1.05-0.47-1.55-0.75c-3.45-1.93-5.31-4.86-5.47-8.84
			C366.18,56.55,366.27,56.3,366.32,56.05z"/>
		<path fill="#534960" d="M373.21,66.39c0.58,0.13,1.16,0.25,1.73,0.38c-0.21,0.94-0.35,1.9-0.65,2.81
			c-0.53,1.64-1.56,2.21-3.27,1.89c-0.8-0.15-1.59-0.36-2.59-0.59c0.14,0.43,0.14,0.71,0.28,0.84c0.65,0.62,1.29,1.26,2.02,1.77
			c1.43,1,1.74,2.28,1.19,3.87c-0.46,1.33-0.89,2.67-1.34,4.01c-0.59-0.18-1.24-0.27-1.6-0.87c0.45-1.59,1.21-3.1,1.31-4.88
			c-0.47-0.41-0.97-0.81-1.42-1.25c-0.92-0.89-1.85-1.78-2.71-2.73c-0.33-0.36-0.57-0.86-0.7-1.34c-0.24-0.85,0.28-1.57,1.16-1.62
			c0.63-0.03,1.28,0.07,1.9,0.2c0.69,0.14,1.35,0.41,2.04,0.57c0.49,0.11,1,0.14,1.51,0.21C372.96,68.7,372.78,67.44,373.21,66.39z"
			/>
		<path fill="#218B8B" d="M390.59,104.46c-0.62-0.01-1.23-0.03-1.85-0.04c0.03-1.34,0.05-2.68,0.08-4.02
			C389.71,101.62,390.23,103.01,390.59,104.46z"/>
		<path fill="#F3D148" d="M370.96,52.48c0.01-1.85,1.55-3.34,3.39-3.42c1.15-0.05,1.98,0.27,2.5,1.35c0.51,1.06,0.35,2.03-0.32,2.89
			c-0.47,0.6-1.05,1.14-1.68,1.55c-1.12,0.72-2.37,0.5-3.35-0.41C370.9,53.89,370.95,53.18,370.96,52.48z"/>
	</g>
	<g>
		<path fill="#1EA192" d="M139.23,124.19c0.18,0.67,0.4,1.34,0.54,2.02c1.14,5.73,1.96,11.49,2.25,17.33
			c0.02,0.38-0.01,0.77-0.01,1.15c-1.22,0.02-2.46-0.07-3.67,0.08c-2.8,0.34-5.62,0.54-8.43,0.77c-2.18,0.18-4.36,0.31-6.54,0.36
			c-0.13,0-0.26,0.03-0.38,0.05c-0.96,0.1-1.91,0.26-2.87,0.27c-2.84,0.05-5.67,0.05-8.51,0.05c-1.74,0-3.48-0.05-5.22-0.08
			c0.08-0.93-0.56-1.57-1.04-2.21c-1.77-2.39-3.13-5-4.33-7.69c-0.91-2.03-1.75-4.12-2.08-6.35c1.11-0.55,2.34-0.54,3.52-0.71
			c1.45-0.22,2.93-0.26,4.39-0.46c2.28-0.33,4.55-0.69,6.86-0.74c0.26-0.01,0.51-0.04,0.77-0.07c1.97-0.22,3.93-0.49,5.9-0.66
			c2.17-0.19,4.34-0.3,6.51-0.45c0.06,0,0.13-0.01,0.19-0.02c2.79-0.37,5.59-0.63,8.4-0.74c0.76-0.03,1.52-0.18,2.27-0.32
			C138.61,125.6,139.09,125.04,139.23,124.19z"/>
		<path fill="#1EA192" d="M134.26,107.13c0.2,0.39,0.44,0.77,0.59,1.18c1.72,4.82,3.14,9.72,4.28,14.71
			c0.06,0.24,0.03,0.51,0.05,0.76c-0.8-1.22-2.01-1.24-3.27-1.08c-0.7,0.09-1.39,0.25-2.09,0.3c-2.3,0.17-4.61,0.3-6.92,0.45
			c-0.13,0.01-0.26,0.03-0.38,0.04c-2.17,0.23-4.33,0.48-6.5,0.68c-1.98,0.18-3.97,0.29-5.95,0.44c-0.19,0.01-0.38,0.08-0.57,0.1
			c-1.72,0.21-3.43,0.41-5.15,0.63c-1.78,0.22-3.56,0.45-5.34,0.66c-1.59,0.19-3.19,0.34-4.78,0.52c-0.13-0.55-0.35-1.11-0.36-1.66
			c-0.02-0.73-0.18-1.39-0.47-2.04c0.01-0.19-0.01-0.39,0.05-0.56c1.05-3.27,2.28-6.45,4.28-9.27c0.44-0.06,0.91-0.04,1.33-0.18
			c1.89-0.6,3.76-1.27,5.66-1.85c2.57-0.78,5.16-1.48,7.82-1.93c1.89-0.32,3.79-0.58,5.69-0.83c2.22-0.29,4.45-0.45,6.68-0.63
			C130.68,107.42,132.49,107.58,134.26,107.13z"/>
		<path fill="#18898A" d="M104.81,164.01c-0.98-1.35-2.02-2.66-2.92-4.06c-1.71-2.67-3-5.55-4.04-8.54
			c-0.23-0.66-0.36-1.36-0.53-2.05c2.75,0.06,5.52-0.34,8.25,0.32c0.31,0.07,0.64,0.03,0.96,0.02c1.22,0,2.44-0.01,3.66-0.01
			c1.04,1.4,2.38,2.47,3.71,3.58c1.93,1.62,4.06,2.9,6.24,4.1c3.09,1.7,6.4,2.92,9.83,3.77c3.42,0.85,6.85,1.54,10.4,1.36
			c0.51-0.03,1.03,0.01,1.54,0.01c-0.04,0.52-0.07,1.05-0.11,1.57c-0.26,0-0.53-0.06-0.77-0.01c-2.73,0.67-5.48,1.22-8.26,1.67
			c-1.83,0.3-3.64,0.68-5.51,0.63c-2.18-0.06-4.37,0.04-6.55-0.03c-1.72-0.06-3.44-0.27-5.15-0.47c-1.01-0.11-2.02-0.3-3.02-0.49
			c-2.2-0.43-4.38-0.9-6.5-1.65C105.6,163.59,105.14,163.58,104.81,164.01z"/>
		<path fill="#1EA192" d="M141.91,162.52c-0.51-0.01-1.03-0.04-1.54-0.01c-3.55,0.18-6.99-0.51-10.4-1.36
			c-3.43-0.85-6.73-2.07-9.83-3.77c-2.18-1.2-4.31-2.48-6.24-4.1c-1.33-1.11-2.67-2.18-3.71-3.58c1.16,0,2.31,0,3.47-0.01
			c0.58-0.01,1.15-0.04,1.73-0.09c0.83-0.07,1.65-0.2,2.48-0.22c1.73-0.05,3.47-0.04,5.21-0.06c0.45-0.01,0.93,0.05,1.34-0.07
			c1.13-0.34,2.29-0.26,3.44-0.3c0.58-0.02,1.16,0.01,1.73-0.04c2.1-0.22,4.19-0.49,6.29-0.69c2.1-0.2,4.21-0.35,6.32-0.52
			c0.05,0.7,0.14,1.41,0.14,2.11c-0.01,3.35-0.02,6.7-0.09,10.06C142.23,160.74,142.03,161.63,141.91,162.52z"/>
		<path fill="#218B8B" d="M141.23,167.49c0.03,1.7-0.57,3.28-0.95,4.9c-0.13,0.55-0.27,1.09-0.39,1.56
			c0.53,0.49,0.98,0.24,1.38,0.12c1.23-0.39,2.44-0.82,3.65-1.27c0.51-0.19,0.99-0.25,1.49,0c1.04,0.53,1.22,1.86,0.28,2.54
			c-0.51,0.37-1.13,0.62-1.73,0.84c-7.25,2.71-14.58,2.95-21.99,0.67c-5.2-1.6-9.75-4.33-13.76-7.98c-0.33-0.3-0.59-0.67-0.88-1
			c0.88,0.13,1.77,0.27,2.65,0.4c1.9,0.28,3.8,0.57,5.69,0.89c2.16,0.37,4.34,0.21,6.5,0.6c1.35,0.24,2.79,0.09,4.21-0.23
			c1.49-0.33,3.05-0.06,4.59-0.44c2.23-0.54,4.54-0.78,6.79-1.29C139.59,167.65,140.4,167.54,141.23,167.49z"/>
		<path fill="#23A193" d="M104.75,108.68c0.42-0.56,0.8-1.16,1.26-1.68c1.97-2.22,4.19-4.17,6.58-5.92c0.63-0.19,1.14-0.54,1.5-1.1
			c0.41-0.18,0.83-0.32,1.22-0.54c2.34-1.35,4.82-2.37,7.41-3.12c0.74-0.22,1.43-0.43,1.92-1.13c0.41-0.58,1.09-0.61,1.75-0.36
			c0.42,0.16,0.81,0.4,1.24,0.51c0.75,0.2,1.2,0.61,1.48,1.35c0.19,0.53,0.59,0.97,0.87,1.47c0.94,1.67,1.87,3.35,2.78,5.03
			c0.14,0.27,0.15,0.61,0.22,0.91c-1.14,0.1-2.28,0.29-3.42,0.3c-3.01,0.04-5.98,0.41-8.95,0.77c-2.85,0.35-5.67,0.84-8.46,1.54
			C109.67,107.33,107.21,108.02,104.75,108.68z"/>
		<path fill="#0B7582" d="M142.2,147.68c-2.11,0.17-4.21,0.32-6.32,0.52c-2.1,0.2-4.19,0.47-6.29,0.69
			c-0.57,0.06-1.16,0.03-1.73,0.04c-1.15,0.04-2.31-0.04-3.44,0.3c-0.42,0.13-0.89,0.07-1.34,0.07c-1.74,0.02-3.47,0.01-5.21,0.06
			c-0.83,0.02-1.65,0.16-2.48,0.22c-0.57,0.05-1.15,0.08-1.73,0.09c-1.16,0.02-2.31,0.01-3.47,0.01c-1.22,0-2.44,0.01-3.66,0.01
			c-0.32,0-0.66,0.05-0.96-0.02c-2.73-0.66-5.5-0.26-8.25-0.32c-0.55-1.11-0.8-2.3-0.93-3.52c1.42-0.09,2.81,0.25,4.21,0.34
			c1.92,0.12,3.86,0.01,5.8-0.01c1.74,0.03,3.48,0.08,5.22,0.08c2.84,0,5.67,0,8.51-0.05c0.96-0.02,1.91-0.18,2.87-0.27
			c0.13-0.01,0.26-0.04,0.38-0.05c2.18-0.05,4.36-0.18,6.54-0.36c2.81-0.23,5.63-0.43,8.43-0.77c1.21-0.15,2.45-0.06,3.67-0.08
			C142.37,145.67,142.31,146.67,142.2,147.68z"/>
		<path fill="#0B7582" d="M98.22,126.52c1.59-0.17,3.19-0.33,4.78-0.52c1.78-0.21,3.56-0.44,5.34-0.66
			c1.72-0.21,3.43-0.41,5.15-0.63c0.19-0.02,0.38-0.09,0.57-0.1c1.98-0.15,3.97-0.27,5.95-0.44c2.17-0.2,4.33-0.45,6.5-0.68
			c0.13-0.01,0.26-0.04,0.38-0.04c2.31-0.15,4.61-0.28,6.92-0.45c0.7-0.05,1.39-0.21,2.09-0.3c1.26-0.16,2.46-0.14,3.27,1.08
			c0.02,0.13,0.04,0.27,0.06,0.4c-0.14,0.85-0.62,1.41-1.47,1.57c-0.75,0.14-1.51,0.29-2.27,0.32c-2.81,0.11-5.61,0.37-8.4,0.74
			c-0.06,0.01-0.13,0.02-0.19,0.02c-2.17,0.15-4.35,0.26-6.51,0.45c-1.97,0.17-3.93,0.44-5.9,0.66c-0.25,0.03-0.51,0.06-0.77,0.07
			c-2.31,0.05-4.58,0.42-6.86,0.74c-1.45,0.21-2.93,0.25-4.39,0.46c-1.18,0.18-2.41,0.17-3.52,0.71c-1.05,0.01-2.11,0.02-3.16,0.02
			c0.07-1.04,0.07-2.1,0.53-3.07C96.96,126.79,97.68,127.11,98.22,126.52z"/>
		<path fill="#087480" d="M141.23,167.49c-0.83,0.05-1.64,0.15-2.47,0.34c-2.24,0.51-4.55,0.75-6.79,1.29
			c-1.54,0.37-3.1,0.1-4.59,0.44c-1.42,0.32-2.86,0.47-4.21,0.23c-2.16-0.39-4.34-0.23-6.5-0.6c-1.89-0.32-3.79-0.62-5.69-0.89
			c-0.89-0.13-1.77-0.27-2.65-0.4c-1.41-1.08-2.55-2.41-3.53-3.88c0.34-0.43,0.8-0.41,1.23-0.26c2.12,0.75,4.3,1.22,6.5,1.65
			c1,0.19,2.01,0.38,3.02,0.49c1.71,0.19,3.43,0.4,5.15,0.47c2.18,0.08,4.37-0.02,6.55,0.03c1.88,0.05,3.68-0.33,5.51-0.63
			c2.78-0.45,5.53-1,8.26-1.67c0.24-0.06,0.51,0,0.77,0.01C141.68,165.24,141.7,166.41,141.23,167.49z"/>
		<path fill="#218B8B" d="M95.78,129.96c1.05-0.01,2.11-0.02,3.16-0.02c0.33,2.24,1.17,4.32,2.08,6.35c1.2,2.69,2.56,5.3,4.33,7.69
			c0.48,0.64,1.12,1.28,1.04,2.21c-1.93,0.01-3.87,0.13-5.8,0.01c-1.4-0.09-2.79-0.44-4.21-0.34c-0.25-1.19-0.56-2.38-0.73-3.59
			c-0.54-3.92-0.56-7.84-0.06-11.77C95.61,130.32,95.72,130.14,95.78,129.96z"/>
		<path fill="#0B7582" d="M104.75,108.68c2.46-0.66,4.92-1.35,7.4-1.97c2.78-0.69,5.6-1.19,8.46-1.54c2.98-0.36,5.95-0.73,8.95-0.77
			c1.14-0.01,2.28-0.2,3.42-0.3c0.65,0.92,1.09,1.92,1.28,3.04c-1.76,0.44-3.57,0.28-5.36,0.42c-2.23,0.18-4.46,0.34-6.68,0.63
			c-1.9,0.25-3.8,0.51-5.69,0.83c-2.66,0.45-5.25,1.15-7.82,1.93c-1.9,0.58-3.77,1.25-5.66,1.85c-0.42,0.13-0.88,0.12-1.33,0.18
			C102.5,111.39,103.47,109.92,104.75,108.68z"/>
	</g>
	<g>
		<path fill="#443C54" d="M218.92,33.65c2.76-0.26,5.51-0.57,8.27-0.75c6.24-0.41,12.48-0.8,18.72-1.12
			c10.17-0.52,20.36-0.71,30.54-0.56c5.99,0.09,11.99,0.2,17.97,0.52c9.92,0.53,19.78,1.57,29.49,3.79
			c4.03,0.92,7.94,2.17,11.73,3.85c7.69,3.4,13.32,8.9,17.04,16.41c2.19,4.41,3.64,9.08,4.72,13.87c1.39,6.17,2.2,12.43,2.79,18.72
			c1.1,11.63,1.5,23.29,1.31,34.97c-0.09,5.54-0.3,11.09-0.67,16.62c-0.58,8.43-1.64,16.81-3.79,25.01
			c-0.92,3.5-2.07,6.91-3.57,10.2c-3.53,7.76-9.16,13.46-16.8,17.21c-3.96,1.94-8.13,3.25-12.43,4.13
			c-1.57,0.32-3.16,0.52-4.75,0.78c-0.33-0.4-0.8-0.36-1.25-0.36c-1.55,0-3.09,0-4.64,0.01c-0.38,0-0.8-0.03-1.15,0.1
			c-0.88,0.34-1.78,0.27-2.67,0.27c-6.96,0.01-13.92,0-20.89,0.01c-0.7,0-1.41,0.07-2.11,0.13c-0.7,0.06-1.39,0.2-2.1,0.24
			c-2.5,0.12-5-0.11-7.5,0.33c-1.81,0.32-3.7,0.13-5.56,0.39c-2.08,0.29-4.22,0.04-6.33,0.4c-1.38,0.23-2.83,0.04-4.25,0.05
			c-0.51,0-1.07-0.07-1.53,0.09c-0.95,0.34-1.91,0.24-2.87,0.29c-2.95,0.13-5.92-0.33-8.85,0.36c-0.31,0.07-0.64,0.02-0.96,0.02
			c-11.09,0-22.18,0-33.26,0c-0.58,0-1.19,0.05-1.72-0.12c-0.83-0.27-1.65-0.24-2.48-0.26c-1.03-0.02-2.11,0.16-3.08-0.1
			c-1.76-0.47-3.61-0.04-5.33-0.67c-2.33,0.03-4.56-0.65-6.85-0.92c-2.21-0.25-4.38-0.94-6.57-1.42c-4.67-1.02-9.11-2.69-13.45-4.65
			c-1.17-0.53-2.24-1.26-3.38-1.86c-2.92-1.54-5.5-3.56-7.91-5.78c-1.56-1.43-2.98-3.03-4.29-4.69c-1.91-2.42-3.55-5.04-4.98-7.79
			c-1.25-2.4-2.33-4.88-3.26-7.42c-0.96-2.59-1.74-5.24-2.54-7.89c-1.13-3.75-1.82-7.6-2.61-11.43c-0.5-2.44-0.87-4.92-1.21-7.39
			c-0.22-1.58-0.29-3.19-0.43-4.79c-0.02-0.19,0-0.4-0.07-0.57c-0.47-1.12-0.23-2.29-0.32-3.44c-0.09-1.15-0.35-2.29-0.36-3.44
			c-0.04-5.48-0.02-10.96-0.01-16.45c0-0.51-0.05-1.06,0.11-1.53c0.28-0.82,0.26-1.65,0.27-2.48c0.01-0.39-0.01-0.78,0.05-1.16
			c0.22-1.45,0.58-2.9,0.68-4.36c0.17-2.58,0.81-5.07,1.36-7.56c0.81-3.63,1.87-7.2,3.24-10.68c1.75-4.46,3.95-8.65,6.59-12.64
			c2.07-3.12,4.66-5.8,7.16-8.55c0.68-0.75,1.56-1.33,2.34-2c1.17-1,2.29-2.07,3.51-3c4.14-3.18,8.67-5.75,13.27-8.2
			c1.02-0.54,2.14-0.89,3.17-1.42c3.45-1.75,7.04-3.16,10.68-4.42c3.64-1.27,7.31-2.45,11.04-3.41c4.03-1.04,8.04-2.22,12.16-2.84
			C218.74,34.28,218.86,33.98,218.92,33.65z M213.48,188.7c0.84-0.01,1.67,0.01,2.51-0.03c1.54-0.06,3.09-0.17,4.63-0.23
			c3.93-0.17,7.85-0.32,11.78-0.5c2.38-0.11,4.76-0.24,7.14-0.41c4.37-0.31,8.73-0.71,13.1-0.97c7.01-0.42,14.02-0.8,21.04-1.14
			c6.11-0.29,12.23-0.56,18.32-1.24c3.13-0.35,6.26-0.8,9.37-1.34c1.7-0.3,3.42-0.62,5-1.42c0.13-0.01,0.26,0.01,0.38-0.03
			c7.65-2.63,13.26-7.48,16.38-15.07c1.58-3.84,2.6-7.82,3.33-11.88c1.27-7.06,1.79-14.19,1.93-21.35
			c0.18-8.44,0.06-16.88-0.64-25.31c-0.43-5.14-0.97-10.26-2.02-15.31c-0.81-3.92-1.92-7.75-3.72-11.35
			c-2.76-5.53-6.98-9.5-12.67-11.91c-3.4-1.44-6.93-2.4-10.54-3.11c-6.2-1.23-12.48-1.87-18.78-2.21
			c-7.78-0.43-15.58-0.55-23.38-0.38c-0.57,0.01-1.14,0.12-1.72,0.19c-0.25-0.04-0.5-0.12-0.75-0.11c-1.67,0.06-3.35,0.12-5.02,0.2
			c-3.92,0.17-7.85,0.3-11.77,0.55c-4.5,0.29-8.99,0.64-13.48,1.05c-2.04,0.19-4.12,0.21-6.12,0.77c-0.71,0.02-1.42-0.02-2.12,0.07
			c-4.66,0.58-9.33,1.16-13.98,1.81c-6.32,0.88-12.56,2.16-18.7,3.91c-4.1,1.17-8.08,2.63-11.8,4.76
			c-4.99,2.86-8.61,6.92-10.71,12.29c-0.58,1.5-1.08,3.03-1.5,4.59c-1.25,4.63-1.58,9.4-1.8,14.16c-0.28,6.19,0,12.38,0.4,18.56
			c0.37,5.79,0.96,11.56,1.73,17.31c0.84,6.27,1.94,12.48,3.61,18.58c1.21,4.42,2.72,8.74,4.99,12.75c1.4,2.49,3.09,4.75,5.21,6.68
			c3.32,3.02,7.24,4.89,11.53,6.03c2.94,0.77,5.94,1.09,8.97,1.3C200.23,189.4,206.85,189.09,213.48,188.7z M348.15,73.44
			c0.08-2.23-0.46-4.32-1.24-6.39c-0.58-1.52-1.31-2.95-2.21-4.28c-1.26-1.86-2.51-3.76-4.01-5.41c-2.59-2.86-5.33-5.59-8.52-7.82
			c-3.07-2.15-6.28-3.98-9.82-5.29c-3.49-1.28-7.1-1.68-10.74-2.09c-0.43-0.05-0.89,0.08-1.33,0.14c-0.38,0.05-0.76,0.17-1.14,0.18
			c-2.17,0.04-4.16,0.71-6.08,1.67c-1.01,0.5-1.82,1.23-2.51,2.08c-1.47,1.81-1.6,4.46-0.18,6.06c0.38,0.43,0.67,0.93,1.21,1.21
			c1.2,0.61,2.37,1.29,3.6,1.82c2.01,0.86,4.08,1.58,6.09,2.44c3.04,1.3,5.72,3.22,8.32,5.22c1.37,1.06,2.79,2.09,3.87,3.47
			c1.97,2.53,3.95,5.07,5.86,7.65c1.43,1.92,3.07,3.65,4.81,5.27c1.04,0.97,2.26,1.71,3.61,2.2c1.46,0.53,2.97,0.83,4.51,0.43
			c1.71-0.44,3.23-1.13,4.26-2.72C347.66,77.47,348.23,75.56,348.15,73.44z M346.5,100.58c1.5,0.26,2.82-0.38,3.89-1.65
			c0.08-0.1,0.18-0.18,0.27-0.27c1.5-1.48,1.93-3.35,1.64-5.31c-0.29-1.96-1.25-3.67-2.92-4.81c-1.85-1.26-3.88-1.52-6.03-0.68
			c-2.4,0.94-3.61,4.42-3.31,6.23c0.23,1.39,0.62,2.74,1.45,3.93C342.68,99.69,344.16,100.75,346.5,100.58z"/>
		<path fill="#372E42" d="M218.92,33.65c-0.07,0.33-0.18,0.63-0.57,0.68c-4.13,0.63-8.14,1.81-12.16,2.84
			c-3.73,0.96-7.4,2.15-11.04,3.41c-3.64,1.27-7.23,2.68-10.68,4.42c-1.03,0.52-2.15,0.87-3.17,1.42c-4.59,2.46-9.12,5.02-13.27,8.2
			c-1.22,0.94-2.34,2-3.51,3c-0.78,0.67-1.66,1.24-2.34,2c-2.5,2.75-5.1,5.43-7.16,8.55c-2.64,3.98-4.83,8.18-6.59,12.64
			c-1.37,3.48-2.43,7.05-3.24,10.68c-0.56,2.49-1.2,4.98-1.36,7.56c-0.09,1.46-0.46,2.9-0.68,4.36c-0.06,0.38-0.04,0.77-0.05,1.16
			c-0.01,0.84,0.01,1.66-0.27,2.48c-0.16,0.47-0.11,1.02-0.11,1.53c-0.01,5.48-0.03,10.97,0.01,16.45c0.01,1.15,0.27,2.29,0.36,3.44
			c0.09,1.15-0.15,2.32,0.32,3.44c0.07,0.17,0.05,0.38,0.07,0.57c0.14,1.6,0.21,3.2,0.43,4.79c0.34,2.47,0.71,4.95,1.21,7.39
			c0.79,3.83,1.48,7.68,2.61,11.43c0.8,2.64,1.59,5.3,2.54,7.89c0.93,2.53,2.01,5.01,3.26,7.42c1.43,2.75,3.06,5.36,4.98,7.79
			c1.31,1.66,2.73,3.27,4.29,4.69c2.41,2.21,4.99,4.24,7.91,5.78c1.14,0.6,2.21,1.33,3.38,1.86c4.34,1.96,8.79,3.62,13.45,4.65
			c2.19,0.48,4.35,1.17,6.57,1.42c2.29,0.26,4.52,0.94,6.85,0.92c1.72,0.64,3.57,0.2,5.33,0.67c0.97,0.26,2.05,0.08,3.08,0.1
			c0.83,0.01,1.66-0.01,2.48,0.26c0.53,0.17,1.15,0.12,1.72,0.12c11.09,0.01,22.18,0,33.26,0c0.32,0,0.66,0.05,0.96-0.02
			c2.93-0.69,5.9-0.23,8.85-0.36c0.96-0.04,1.92,0.05,2.87-0.29c0.46-0.17,1.02-0.09,1.53-0.09c1.42-0.01,2.87,0.18,4.25-0.05
			c2.12-0.36,4.25-0.11,6.33-0.4c1.86-0.26,3.75-0.07,5.56-0.39c2.51-0.44,5-0.21,7.5-0.33c0.7-0.03,1.4-0.17,2.1-0.24
			c0.7-0.06,1.41-0.13,2.11-0.13c6.96-0.01,13.92-0.01,20.89-0.01c0.9,0,1.8,0.07,2.67-0.27c0.34-0.13,0.76-0.1,1.15-0.1
			c1.55-0.01,3.09-0.01,4.64-0.01c0.45,0,0.91-0.04,1.25,0.36c-1.39,0.24-2.78,0.56-4.18,0.7c-4.68,0.46-9.36,0.92-14.05,1.26
			c-5.66,0.41-11.32,0.72-16.98,1.04c-5.47,0.31-10.94,0.6-16.41,0.88c-5.86,0.3-11.72,0.55-17.56,1.05
			c-4.75,0.41-9.52,0.65-14.28,0.92c-6.18,0.35-12.36,0.68-18.54,0.98c-4.38,0.21-8.76,0.38-13.14,0.55
			c-4.96,0.2-9.92,0.39-14.88,0.55c-6.51,0.22-13.02,0.07-19.51-0.63c-4.95-0.53-9.76-1.7-14.34-3.74
			c-6.56-2.91-11.73-7.4-15.52-13.49c-2.5-4.02-4.36-8.32-5.9-12.78c-2.2-6.34-3.73-12.86-5.01-19.44
			c-1.33-6.84-2.27-13.74-3.02-20.66c-0.79-7.24-1.37-14.5-1.74-21.79c-0.33-6.71-0.43-13.41-0.23-20.12
			c0.19-6.39,0.75-12.74,2.25-18.98c0.74-3.07,1.72-6.07,3.05-8.94c2.73-5.89,6.81-10.59,12.27-14.1c4.09-2.63,8.5-4.58,13.09-6.13
			c6.35-2.15,12.86-3.71,19.43-5.04c7.14-1.45,14.34-2.48,21.56-3.39c3.96-0.5,7.94-0.86,11.91-1.29c2.82-0.31,5.63-0.64,8.45-0.93
			C217.12,33.71,218.02,33.7,218.92,33.65z"/>
		<path fill="#F3B630" d="M254.91,63.69c0.57-0.06,1.14-0.17,1.72-0.19c7.8-0.18,15.59-0.05,23.38,0.38
			c6.3,0.35,12.58,0.99,18.78,2.21c3.61,0.71,7.14,1.67,10.54,3.11c5.69,2.42,9.91,6.38,12.67,11.91c1.8,3.6,2.91,7.43,3.72,11.35
			c1.04,5.06,1.59,10.17,2.02,15.31c0.7,8.43,0.82,16.87,0.64,25.31c-0.15,7.16-0.67,14.29-1.93,21.35
			c-0.73,4.06-1.75,8.05-3.33,11.88c-3.12,7.59-8.72,12.44-16.38,15.07c-0.12,0.04-0.25,0.02-0.38,0.03
			c-0.88-0.62-1.88-0.43-2.78-0.22c-0.83,0.19-1.64,0.24-2.48,0.26c-0.45,0.01-0.94-0.06-1.34,0.09c-0.88,0.33-1.77,0.27-2.67,0.29
			c-0.39,0.01-0.81-0.05-1.15,0.08c-1,0.39-2.03,0.28-3.06,0.3c-0.45,0.01-0.94-0.09-1.35,0.05c-1.45,0.48-2.93,0.29-4.41,0.34
			c-0.45,0.01-0.94-0.05-1.34,0.1c-0.88,0.33-1.77,0.27-2.67,0.28c-1.48,0.01-2.96-0.01-4.45,0.01c-0.51,0.01-1.02,0.07-1.53,0.13
			c-0.7,0.08-1.39,0.24-2.09,0.24c-6.32,0.02-12.63,0.01-18.95,0.01c-0.45,0-0.94,0.09-1.35-0.05c-1.39-0.47-2.8-0.29-4.21-0.33
			c-0.45-0.01-0.94,0.07-1.34-0.07c-1.07-0.38-2.16-0.29-3.25-0.32c-0.39-0.01-0.81,0.04-1.15-0.09c-0.81-0.32-1.64-0.27-2.48-0.3
			c-0.38-0.01-0.77-0.07-1.15-0.12c-1.58-0.21-3.16-0.44-4.75-0.65c-1.39-0.18-2.8-0.33-4.19-0.53c-1.14-0.17-2.26-0.44-3.4-0.62
			c-1.89-0.3-3.82-0.46-5.69-0.88c-4.31-0.96-8.66-1.7-12.92-2.94c-3.77-1.1-7.5-2.26-10.99-4.09c-3.81-2-7.08-4.65-9.6-8.15
			c-1.92-2.67-3.53-5.54-4.67-8.62c-2.23-6.04-3.79-12.25-3.98-18.73c-0.01-0.26,0.02-0.54-0.08-0.76c-0.38-0.87-0.29-1.77-0.3-2.67
			c-0.01-1.48-0.01-2.97,0-4.45c0-0.45-0.07-0.94,0.08-1.34c0.35-0.94,0.24-1.91,0.31-2.86c0.12-1.66,0.24-3.33,0.48-4.97
			c0.28-1.9,0.63-3.79,1.08-5.65c0.61-2.56,1.19-5.14,2.07-7.61c1.16-3.27,2.54-6.47,4.44-9.4c1.12-1.73,2.18-3.5,3.61-4.98
			c2.49-2.59,5.01-5.17,7.98-7.26c2.58-1.81,5.14-3.65,7.93-5.11c3.19-1.67,6.46-3.19,9.73-4.7c3.5-1.62,7.1-2.99,10.76-4.22
			c4.56-1.54,9.15-3,13.82-4.2c3.78-0.97,7.57-1.92,11.43-2.56C254.55,64.11,254.72,63.84,254.91,63.69z M316.8,91.57
			c0.07-1.56-0.28-2.91-0.79-4.25c-1.04-2.68-2.72-4.95-4.62-7.04c-2.93-3.21-6.36-5.83-10.38-7.53c-2.65-1.12-5.42-1.91-8.39-1.25
			c-1.23,0.27-2.32,0.79-3.3,1.5c-0.48,0.35-0.85,0.99-1.03,1.57c-0.61,1.96,0.16,3.73,1.98,4.75c0.39,0.22,0.8,0.43,1.21,0.59
			c0.89,0.35,1.81,0.65,2.7,1.02c1.43,0.6,2.74,1.35,3.83,2.52c1.5,1.6,2.88,3.28,4.09,5.1c1.04,1.55,2.02,3.14,3.11,4.64
			c1.38,1.9,3.04,3.47,5.43,4.09c2.32,0.6,4.83-0.61,5.69-2.83C316.7,93.5,316.93,92.5,316.8,91.57z M311.76,102.93
			c0,1.83,0.28,2.42,1.46,3.56c0.88,0.86,1.99,1.24,3.12,1.38c1.29,0.15,2.44-0.43,3.14-1.52c1.18-1.86,0.91-3.62-0.47-5.33
			c-1.26-1.57-2.88-1.79-4.7-1.57c-0.18,0.02-0.4,0.08-0.53,0.19C312.72,100.55,311.43,101.35,311.76,102.93z"/>
		<path fill="#F3A627" d="M254.91,63.69c-0.19,0.16-0.36,0.42-0.56,0.46c-3.86,0.64-7.65,1.59-11.43,2.56
			c-4.67,1.2-9.25,2.66-13.82,4.2c-3.66,1.23-7.26,2.6-10.76,4.22c-3.27,1.51-6.54,3.03-9.73,4.7c-2.79,1.46-5.35,3.3-7.93,5.11
			c-2.97,2.09-5.48,4.66-7.98,7.26c-1.43,1.48-2.49,3.26-3.61,4.98c-1.9,2.94-3.27,6.14-4.44,9.4c-0.88,2.47-1.46,5.05-2.07,7.61
			c-0.45,1.86-0.8,3.76-1.08,5.65c-0.25,1.64-0.36,3.31-0.48,4.97c-0.07,0.96,0.04,1.92-0.31,2.86c-0.15,0.4-0.08,0.89-0.08,1.34
			c-0.01,1.48-0.01,2.97,0,4.45c0,0.9-0.08,1.8,0.3,2.67c0.1,0.22,0.07,0.51,0.08,0.76c0.2,6.49,1.75,12.69,3.98,18.73
			c1.14,3.08,2.75,5.95,4.67,8.62c2.52,3.51,5.79,6.15,9.6,8.15c3.49,1.83,7.22,2.99,10.99,4.09c4.25,1.24,8.61,1.98,12.92,2.94
			c1.87,0.42,3.79,0.58,5.69,0.88c1.14,0.18,2.26,0.45,3.4,0.62c1.39,0.21,2.79,0.35,4.19,0.53c1.58,0.21,3.16,0.43,4.75,0.65
			c0.38,0.05,0.76,0.11,1.15,0.12c0.83,0.02,1.67-0.03,2.48,0.3c0.34,0.14,0.76,0.08,1.15,0.09c1.09,0.02,2.18-0.06,3.25,0.32
			c0.41,0.14,0.89,0.06,1.34,0.07c1.41,0.04,2.83-0.13,4.21,0.33c0.41,0.14,0.89,0.05,1.35,0.05c6.32,0,12.63,0.01,18.95-0.01
			c0.7,0,1.39-0.17,2.09-0.24c0.51-0.06,1.02-0.12,1.53-0.13c1.48-0.02,2.96,0,4.45-0.01c0.9-0.01,1.79,0.05,2.67-0.28
			c0.4-0.15,0.89-0.09,1.34-0.1c1.47-0.05,2.96,0.14,4.41-0.34c0.41-0.14,0.9-0.04,1.35-0.05c1.02-0.02,2.05,0.09,3.06-0.3
			c0.34-0.13,0.76-0.07,1.15-0.08c0.9-0.02,1.79,0.04,2.67-0.29c0.4-0.15,0.89-0.08,1.34-0.09c0.83-0.02,1.65-0.07,2.48-0.26
			c0.9-0.21,1.9-0.4,2.78,0.22c-1.57,0.8-3.3,1.12-4.99,1.42c-3.11,0.54-6.23,0.99-9.37,1.34c-6.09,0.68-12.2,0.95-18.32,1.24
			c-7.01,0.34-14.03,0.71-21.04,1.14c-4.37,0.26-8.73,0.66-13.1,0.97c-2.38,0.17-4.76,0.3-7.14,0.41c-3.93,0.18-7.85,0.33-11.78,0.5
			c-1.54,0.07-3.09,0.17-4.63,0.23c-0.83,0.03-1.67,0.02-2.51,0.03c-0.36-0.09-0.72-0.22-1.09-0.27c-1.46-0.18-2.94-0.24-4.38-0.51
			c-2.2-0.41-4.4-0.88-6.56-1.46c-4.72-1.27-9.4-2.62-13.6-5.26c-2.29-1.44-4.55-2.93-6.37-4.94c-1.33-1.47-2.48-3.1-3.67-4.69
			c-1.24-1.65-2.06-3.54-2.92-5.41c-1.48-3.22-2.63-6.56-3.55-9.97c-1.01-3.71-1.93-7.44-2.44-11.26c-0.23-1.71-0.65-3.39-0.66-5.13
			c0-0.38-0.08-0.76-0.13-1.15c-0.08-0.7-0.18-1.39-0.24-2.09c-0.04-0.38,0.07-0.8-0.04-1.16c-0.59-1.96-0.27-3.97-0.36-5.95
			c-0.02-0.58,0.09-1.2-0.08-1.73c-0.35-1.08-0.29-2.16-0.29-3.25c-0.01-2.32-0.01-4.64,0-6.96c0-0.45-0.08-0.94,0.06-1.34
			c0.46-1.32,0.26-2.68,0.32-4.02c0.02-0.64,0-1.29,0.08-1.93c0.2-1.52,0.47-3.03,0.69-4.55c0.17-1.2,0.23-2.43,0.48-3.61
			c0.68-3.13,1.38-6.27,2.67-9.22c0.93-2.12,1.96-4.17,3.38-6.04c1.29-1.71,2.9-3.1,4.33-4.66c1.05-1.15,2.3-2.04,3.57-2.92
			c3.55-2.48,7.38-4.43,11.39-6.04c3.57-1.44,7.18-2.76,10.91-3.78c3.52-0.96,7.04-1.91,10.64-2.57c0.72-0.13,1.55-0.12,2.15-0.69
			c2-0.56,4.07-0.59,6.12-0.77c4.49-0.41,8.98-0.76,13.48-1.05c3.92-0.25,7.85-0.37,11.77-0.55c1.67-0.07,3.35-0.14,5.02-0.2
			C254.4,63.56,254.66,63.65,254.91,63.69z"/>
		<path fill="#F18F1D" d="M217.76,66.14c-0.61,0.57-1.44,0.56-2.15,0.69c-3.6,0.66-7.12,1.61-10.64,2.57
			c-3.73,1.01-7.34,2.34-10.91,3.78c-4,1.61-7.84,3.57-11.39,6.04c-1.26,0.88-2.52,1.78-3.57,2.92c-1.43,1.56-3.04,2.94-4.33,4.66
			c-1.42,1.87-2.45,3.93-3.38,6.04c-1.3,2.95-2,6.09-2.67,9.22c-0.26,1.18-0.31,2.41-0.48,3.61c-0.22,1.52-0.48,3.03-0.69,4.55
			c-0.08,0.63-0.06,1.28-0.08,1.93c-0.05,1.34,0.14,2.7-0.32,4.02c-0.14,0.41-0.06,0.89-0.06,1.34c0,2.32-0.01,4.64,0,6.96
			c0,1.09-0.06,2.17,0.29,3.25c0.17,0.53,0.06,1.15,0.08,1.73c0.08,1.98-0.23,3.99,0.36,5.95c0.11,0.36,0,0.77,0.04,1.16
			c0.06,0.7,0.16,1.4,0.24,2.09c0.05,0.38,0.13,0.76,0.13,1.15c0.01,1.74,0.44,3.42,0.66,5.13c0.51,3.82,1.43,7.55,2.44,11.26
			c0.92,3.41,2.07,6.75,3.55,9.97c0.86,1.87,1.68,3.75,2.92,5.41c1.19,1.59,2.34,3.22,3.67,4.69c1.82,2.01,4.08,3.5,6.37,4.94
			c4.2,2.64,8.88,3.99,13.6,5.26c2.16,0.58,4.36,1.05,6.56,1.46c1.44,0.27,2.92,0.33,4.38,0.51c0.37,0.04,0.73,0.17,1.09,0.27
			c-6.63,0.39-13.25,0.7-19.89,0.22c-3.03-0.22-6.03-0.53-8.97-1.3c-4.3-1.13-8.21-3.01-11.53-6.03c-2.12-1.93-3.81-4.19-5.21-6.68
			c-2.26-4.01-3.78-8.33-4.99-12.75c-1.67-6.1-2.77-12.31-3.61-18.58c-0.77-5.75-1.36-11.52-1.73-17.31
			c-0.4-6.18-0.69-12.37-0.4-18.56c0.22-4.76,0.55-9.53,1.8-14.16c0.42-1.55,0.92-3.09,1.5-4.59c2.1-5.37,5.72-9.43,10.71-12.29
			c3.71-2.13,7.7-3.59,11.8-4.76c6.14-1.75,12.38-3.03,18.7-3.91c4.65-0.65,9.32-1.22,13.98-1.81
			C216.34,66.12,217.06,66.16,217.76,66.14z"/>
		<path fill="#70677A" d="M348.15,73.44c0.09,2.12-0.48,4.03-1.65,5.83c-1.03,1.6-2.55,2.28-4.26,2.72c-1.55,0.4-3.05,0.1-4.51-0.43
			c-1.34-0.49-2.56-1.22-3.61-2.2c-1.75-1.62-3.38-3.35-4.81-5.27c-1.91-2.58-3.89-5.12-5.86-7.65c-1.08-1.38-2.5-2.42-3.87-3.47
			c-2.6-2.01-5.28-3.92-8.32-5.22c-2.01-0.86-4.08-1.58-6.09-2.44c-1.23-0.53-2.4-1.21-3.6-1.82c-0.54-0.27-0.83-0.77-1.21-1.21
			c-1.42-1.61-1.29-4.25,0.18-6.06c0.69-0.85,1.5-1.58,2.51-2.08c1.93-0.95,3.91-1.63,6.08-1.67c0.38-0.01,0.76-0.13,1.14-0.18
			c0.44-0.06,0.9-0.19,1.33-0.14c3.63,0.4,7.25,0.81,10.74,2.09c3.54,1.3,6.75,3.14,9.82,5.29c3.19,2.23,5.93,4.96,8.52,7.82
			c1.5,1.66,2.75,3.56,4.01,5.41c0.9,1.33,1.63,2.75,2.21,4.28C347.69,69.12,348.23,71.21,348.15,73.44z"/>
		<path fill="#6F667A" d="M346.5,100.58c-2.34,0.17-3.83-0.89-5-2.57c-0.83-1.19-1.22-2.54-1.45-3.93c-0.3-1.81,0.91-5.3,3.31-6.23
			c2.15-0.84,4.18-0.58,6.03,0.68c1.67,1.14,2.63,2.86,2.92,4.81c0.29,1.96-0.14,3.83-1.64,5.31c-0.09,0.09-0.19,0.18-0.27,0.27
			C349.33,100.2,348,100.84,346.5,100.58z"/>
		<path fill="#F2D248" d="M316.8,91.57c0.13,0.93-0.1,1.93-0.47,2.9c-0.85,2.22-3.37,3.43-5.69,2.83c-2.39-0.62-4.04-2.19-5.43-4.09
			c-1.1-1.5-2.08-3.09-3.11-4.64c-1.22-1.82-2.6-3.5-4.09-5.1c-1.09-1.17-2.4-1.92-3.83-2.52c-0.89-0.37-1.81-0.67-2.7-1.02
			c-0.42-0.17-0.82-0.37-1.21-0.59c-1.81-1.02-2.59-2.79-1.98-4.75c0.18-0.58,0.56-1.23,1.03-1.57c0.98-0.71,2.08-1.23,3.3-1.5
			c2.97-0.66,5.73,0.13,8.39,1.25c4.02,1.7,7.45,4.31,10.38,7.53c1.9,2.08,3.58,4.35,4.62,7.04
			C316.52,88.66,316.86,90.01,316.8,91.57z"/>
		<path fill="#F2D248" d="M311.76,102.93c-0.34-1.58,0.96-2.38,2.02-3.3c0.13-0.12,0.35-0.17,0.53-0.19
			c1.81-0.22,3.44,0.01,4.7,1.57c1.38,1.72,1.65,3.48,0.47,5.33c-0.7,1.09-1.85,1.68-3.14,1.52c-1.14-0.14-2.24-0.52-3.12-1.38
			C312.04,105.34,311.76,104.76,311.76,102.93z"/>
	</g>
	<g>
		<g>
			<path fill="#4B4159" d="M283.41,164.97c11.05-0.57,19.21-5.82,24.36-15.68c2.03-3.88,2.96-8.1,2.93-12.5
				c0-0.61-0.04-1.22,0.02-1.82c0.11-1.11,0.94-1.92,1.96-1.97c1.09-0.05,1.91,0.56,2.17,1.72c0.13,0.59,0.18,1.2,0.19,1.81
				c0.07,15.78-11.03,29.4-26.34,32.19c-16.79,3.06-31.76-8.14-34.44-24.26c-0.36-2.15-0.43-4.3-0.39-6.46
				c0.01-0.4,0.03-0.82,0.12-1.21c0.26-1.07,1.18-1.74,2.23-1.65c0.99,0.08,1.74,0.77,1.86,1.82c0.07,0.6,0.02,1.21,0.02,1.82
				c0,4.11,0.69,8.09,2.54,11.77C265.29,159.87,272.96,164.52,283.41,164.97z"/>
		</g>
		<g>
			<path fill="#4B4159" d="M197.16,165.16c-6.89-0.25-13.09-3.34-17.89-9.22c-2.47-3.03-4.11-6.49-5.03-10.28
				c-0.13-0.52-0.21-1.07-0.2-1.6c0-0.91,0.66-1.71,1.49-1.95c0.93-0.26,1.96,0.13,2.4,1.04c0.29,0.6,0.43,1.27,0.6,1.92
				c0.96,3.59,2.65,6.78,5.23,9.47c4.15,4.32,9.2,6.54,15.24,6.22c5.19-0.27,9.49-2.45,12.93-6.3c3.07-3.44,4.7-7.51,5.12-12.09
				c0.05-0.54,0.04-1.09,0.16-1.61c0.25-1.08,1.21-1.83,2.17-1.76c1.04,0.07,1.83,0.83,2.01,1.96c0.05,0.33,0.06,0.68,0.03,1.01
				c-0.81,9.2-4.95,16.29-13.21,20.71C205.01,164.39,201.52,165.14,197.16,165.16z"/>
		</g>
		<g>
			<path fill="#1EA192" d="M267.14,85.21c0.41-1.77,1.41-3.21,2.67-4.46c1.76-1.74,3.83-2.17,6.14-1.15
				c0.49,0.22,0.98,0.46,1.44,0.75c5.74,3.7,11.75,6.92,17.65,10.35c1.22,0.71,2.42,1.49,3.52,2.37c1.15,0.92,2.25,1.95,2.48,3.55
				c-0.56,0.83-1.13,1.65-1.69,2.48c-1.06,1.56-2.41,2.79-4.31,3.09c-1.19,0.19-2.45,0.26-3.62,0.06c-2.93-0.49-5.76-1.48-8.36-2.87
				c-2.84-1.51-5.57-3.23-8.09-5.31c-2.79-2.3-5.19-4.87-7.05-7.97C267.71,85.78,267.4,85.51,267.14,85.21z"/>
			<path fill="#238C8C" d="M267.14,85.21c0.26,0.3,0.57,0.56,0.77,0.9c1.85,3.1,4.25,5.67,7.05,7.97c2.52,2.07,5.24,3.8,8.09,5.31
				c2.61,1.39,5.43,2.38,8.36,2.87c1.17,0.2,2.44,0.13,3.62-0.06c1.91-0.3,3.25-1.53,4.31-3.09c0.56-0.83,1.13-1.65,1.69-2.48
				c0.22,0.63,0.59,1.25,0.64,1.89c0.23,3.23-0.87,5.97-3.36,8.08c-1.06,0.9-2.33,1.34-3.72,1.42c-1.71,0.1-3.35-0.17-4.98-0.69
				c-3.83-1.2-7.36-3.03-10.79-5.05c-2.68-1.58-5.31-3.23-7.69-5.24c-1.07-0.91-2.13-1.9-2.96-3.03
				C266.15,91.31,265.84,88.34,267.14,85.21z"/>
		</g>
		<g>
			<path fill="#1EA192" d="M177.35,96.66c0.18-1.05,0.76-1.89,1.51-2.56c1.05-0.94,2.13-1.89,3.32-2.62
				c2.58-1.59,5.26-3.03,7.88-4.56c3.37-1.98,6.72-4,10.09-5.99c0.81-0.48,1.63-0.97,2.49-1.34c2.13-0.93,4.1-0.62,5.8,0.98
				c1.4,1.31,2.51,2.81,2.91,4.74c-0.24,0.22-0.59,0.4-0.71,0.68c-1,2.29-2.8,3.96-4.48,5.68c-2.21,2.26-4.74,4.17-7.44,5.86
				c-3.46,2.17-7.15,3.8-11.13,4.65c-1.29,0.28-2.71,0.28-4.02,0.08c-1.61-0.25-2.99-1.06-3.97-2.52
				C178.9,98.68,178.43,97.44,177.35,96.66z"/>
			<path fill="#238C8C" d="M177.35,96.66c1.07,0.78,1.55,2.02,2.25,3.06c0.98,1.46,2.35,2.27,3.97,2.52
				c1.31,0.21,2.73,0.2,4.02-0.08c3.99-0.85,7.67-2.47,11.13-4.65c2.7-1.69,5.23-3.6,7.44-5.86c1.68-1.72,3.49-3.39,4.48-5.68
				c0.12-0.28,0.47-0.46,0.71-0.68c1.37,3.12,0.94,6.07-1.07,8.74c-0.88,1.17-1.96,2.24-3.12,3.14c-5.12,4-10.68,7.26-16.75,9.62
				c-1.89,0.73-3.83,1.25-5.89,1.24c-2.49-0.01-4.43-1.04-5.86-3.02c-1.61-2.23-2.27-4.71-1.7-7.45
				C177.03,97.26,177.22,96.97,177.35,96.66z"/>
		</g>
		<g>
			<path fill="#3B3245" d="M232.09,153.81c-1.6-3.51-1.28-8.08,0.8-10.95c0.43-0.59,0.94-1.15,1.51-1.61
				c2.04-1.63,4.64-1.66,6.7-0.06c0.63,0.49,1.24,1.07,1.65,1.75c2.21,3.63,2.56,7.41,0.65,11.3c-0.29-0.44-0.59-0.88-0.87-1.33
				c-0.46-0.74-0.85-1.54-1.38-2.23c-1.55-2.05-4.17-2.27-6.01-0.54c-0.93,0.88-1.88,1.74-2.36,2.99
				C232.68,153.4,232.33,153.58,232.09,153.81z"/>
			<path fill="#4B4159" d="M232.09,153.81c0.24-0.23,0.59-0.41,0.7-0.69c0.48-1.25,1.43-2.11,2.36-2.99
				c1.84-1.73,4.45-1.51,6.01,0.54c0.53,0.69,0.91,1.49,1.38,2.23c0.28,0.45,0.58,0.89,0.87,1.33c-0.39,1.35-1.3,2.31-2.4,3.1
				c-1.95,1.39-4.42,1.37-6.36-0.05C233.45,156.39,232.5,155.29,232.09,153.81z"/>
		</g>
	</g>
</g>
</svg>
