<?xml version="1.0" encoding="utf-8"?>
<!-- Generator: Adobe Illustrator 24.0.2, SVG Export Plug-In . SVG Version: 6.00 Build 0)  -->
<svg version="1.1" id="Layer_1" xmlns="http://www.w3.org/2000/svg" xmlns:xlink="http://www.w3.org/1999/xlink" x="0px" y="0px"
	viewBox="0 0 453.5 453.5" style="enable-background:new 0 0 453.5 453.5;" xml:space="preserve">
<style type="text/css">
	.st0{fill:#453B54;}
	.st1{fill:#362D41;}
	.st2{fill:#1EA192;}
	.st3{fill:#188989;}
	.st4{fill:#F3B630;}
	.st5{fill:#18898A;}
	.st6{fill:#F3A627;}
	.st7{fill:#F5A626;}
	.st8{fill:#05737F;}
	.st9{fill:#097280;}
	.st10{fill:#F2901D;}
	.st11{fill:#483F57;}
	.st12{fill:#483E57;}
	.st13{fill:#F28F1B;}
	.st14{fill:#70677A;}
	.st15{fill:#F2D24A;}
	.st16{fill:#F2D248;}
	.st17{fill:#F1D14A;}
	.st18{fill:#20A292;}
	.st19{fill:#218B8B;}
	.st20{fill:#238C8C;}
	.st21{fill:#393042;}
	.st22{fill:#443C54;}
	.st23{fill:#3B3245;}
	.st24{fill:#6F667A;}
	.st25{fill:#4B4159;}
</style>
	<g>
	<g>
		<path class="st0" d="M191.2,117.4c0.9-0.1,1.7-0.3,2.6-0.3c20.1-0.7,40.2-1,60.4-0.4c10.5,0.3,20.9,0.8,31.3,1.5
			c11.4,0.7,22.8,1.9,34.1,3.7c9.6,1.5,19.2,3.4,28.5,6.3c4.2,1.3,8.2,2.9,12.1,4.8c11.7,5.6,19.7,14.6,24.3,26.6
			c2.3,6.1,3.8,12.4,4.8,18.8c0.5,3.3,0.9,6.7,1.3,10c0.3,3.9,0.5,7.8,0.8,11.7c0,1.6,0,3.2,0,4.8c0,6.7,0,13.4,0,20.2
			c0,0.6-0.1,1.3,0.5,1.7c0,0,0,0,0,0c-0.4,2.8-0.8,5.7-0.5,8.6c-0.2,5.1-0.5,10.2-0.7,15.2c0,0.5-0.1,1-0.1,1.6
			c-0.1,1.7-0.2,3.3-0.3,5c-0.1,1.5-0.3,2.9-0.4,4.4c-0.4,3.2-0.7,6.3-1.1,9.5c-0.2,2.1-0.4,4.2-0.7,6.3c-0.1,0.2-0.3,0.5-0.3,0.7
			c-0.3,2.1-0.5,4.2-0.7,6.2c-0.7,1.7-0.5,3.6-1,5.4c-1,4.4-2.1,8.8-3.1,13.2c-1.4,4.7-2.8,9.3-4.8,13.8c-1,2.1-2,4.2-3.1,6.2
			c-5.6,10.2-14,17.2-24.8,21.6c-5.3,2.1-10.8,3.5-16.4,4.3c-1.9,0.3-3.9,0.4-5.8,0.6c-0.6-0.8-1.5-0.5-2.2-0.5c-4,0-8,0-12,0
			c-0.8,0-1.6,0.1-2.4-0.1c-1.2-0.4-2.4-0.4-3.7-0.4c-2.2,0-4.4,0-6.6,0c-0.6,0-1.3,0.1-1.8-0.1c-1.3-0.5-2.6-0.4-3.9-0.4
			c-3.2-0.1-6.4,0.4-9.5-0.5c-0.4-0.1-0.9,0-1.3,0c-8.8,0-17.6,0-26.3,0c-0.9,0-1.8,0.2-2.6,0.3c-2.8,0.4-5.7,0.4-8.5,0.1
			c-1.3-0.2-2.6-0.3-3.9-0.3c-6.4,0-12.8,0-19.2,0c-0.8,0-1.7,0.1-2.4-0.1c-1.4-0.5-2.8-0.3-4.2-0.4c-3.9-0.1-7.8,0.4-11.6-0.5
			c-0.5-0.1-1.1,0-1.6,0c-1.6,0-3.2,0-4.8,0c-0.7,0-1.4-0.1-2.1-0.2c-0.9-0.1-1.7-0.3-2.6-0.3c-2.4-0.1-4.8,0.2-7.1-0.5
			c-0.3-0.1-0.7,0-1.1,0c-2.7-0.2-5.5-0.3-8.2-0.6c-3.6-0.4-7.1-1-10.7-1.5c-2.5-0.4-5.1-0.7-7.5-1.3c-3.8-0.9-7.6-1.7-11.3-2.8
			c-5.2-1.5-10.3-3.2-15.2-5.4c-7.5-3.4-14.3-7.7-20-13.7c-1.2-1.2-2.2-2.6-3.3-3.8c-2.4-2.6-4.3-5.6-6-8.7
			c-2.9-5.4-5.3-11-7.1-16.8c-2-6.5-3.5-13.1-4.4-19.9c-0.2-1.5-0.4-3-0.6-4.4c-0.3-2.4-0.5-4.9-1-7.3c-0.5-2.8-0.6-5.6-0.5-8.5
			c0-0.3-0.1-0.5-0.1-0.8c-0.1-1-0.3-1.9-0.4-2.9c0-6.7,0-13.3,0-20c0-0.6-0.1-1.3,0.1-1.8c0.6-1.6,0.4-3.2,0.4-4.7
			c0-0.7,0-1.4,0.1-2.1c0.3-2.3,0.7-4.5,1-6.8c0.2-1.8,0.3-3.7,0.6-5.5c1.1-5.5,2.4-11,4-16.4c2.1-6.8,4.7-13.5,8.3-19.8
			c3.5-6.2,7.9-11.7,12.7-16.9c1.3-1.4,2.9-2.6,4.3-3.9c1.6-1.4,3.1-2.9,4.8-4.1c4.1-2.8,8.2-5.6,12.5-7.9c4.9-2.6,10-5,15.2-7
			c5.3-2,10.7-3.7,16.1-5.4c2-0.7,4.1-1.2,6.1-1.7c3-0.7,6-1.3,9-2c2.2-0.5,4.3-0.9,6.5-1.3c2.6-0.5,5.2-0.8,7.7-1.2
			c-0.8-0.3-1.5-0.3-2.3-0.4C195.4,117.5,193.3,117.4,191.2,117.4z M181.2,329.4c3.7,0.1,7.4,0.3,11.1,0.3c11.4,0,22.8,0.1,34.3,0
			c7.8,0,15.6-0.2,23.4-0.2c10.5-0.1,21.1,0,31.6-0.1c7.8,0,15.6-0.4,23.3-1.6c2.7-0.4,5.4-0.8,7.9-2.1c0.3,0,0.5,0,0.8-0.1
			c8.1-2.8,14.7-7.6,19.2-15.1c3.4-5.6,5.4-11.7,7-18c2.6-10.4,3.9-21.1,4.7-31.8c0.4-5.7,0.8-11.5,0.9-17.3
			c0.4-12.2,0.2-24.3-1.4-36.4c-0.7-5.2-1.8-10.3-3.7-15.2c-3-7.8-7.8-14.1-15.2-18.2c-1.5-0.9-3.1-1.6-4.8-2.4
			c-4.3-1.9-8.8-3.2-13.4-4.3c-10.8-2.5-21.8-4-32.8-4.8c-3.7-0.3-7.4-0.6-11.1-0.8c-3.1-0.2-6.2-0.2-9.3-0.3
			c-1-0.1-2.1-0.3-3.1-0.4c-13.4-0.3-26.8-0.4-40.2,0c-3.3,0.1-6.7,0.3-10,0.5c-2.1,0.1-4.2,0.2-6.4,0.3c-8.9,0.4-17.7,1.1-26.5,2.2
			c-6.5,0.8-13,1.9-19.4,3.4c-5.8,1.4-11.4,3.2-16.7,6.1c-5.6,3.1-10,7.3-13.1,12.9c-2.6,4.6-4.2,9.6-5.3,14.7
			c-1.7,7.7-2.3,15.6-2.6,23.5c-0.5,14.9-0.1,29.8,1.4,44.6c0.7,7.2,1.8,14.4,3.3,21.5c1.3,6,3.1,11.8,5.9,17.3
			c4.1,8,10.3,13.6,18.6,17c4.9,2,10,3,15.2,3.6c3.4,0.4,6.9,0.7,10.3,0.9C170.6,329.4,175.9,329.4,181.2,329.4z M376.2,180
			c-0.2-3.6-0.7-6.7-2.1-9.8c-2.7-6-6.3-11.2-10.7-16c-3-3.3-6.3-6.2-9.9-8.8c-2.7-2-5.6-3.8-8.6-5.2c-4.4-2-9.1-3.4-13.9-4.1
			c-4.8-0.7-9.3-0.4-13.8,1.2c-1.9,0.7-3.4,1.8-4.8,3.3c-1.2,1.3-1.8,3.1-1.6,4.6c0.3,2.2,1.2,4.2,3.2,5.6c2.4,1.6,4.9,2.8,7.5,3.9
			c6.8,2.7,12.5,6.9,17.9,11.7c2.9,2.6,5,5.9,7.3,9.1c2,2.9,3.9,5.9,6,8.7c1.6,2.2,3.4,4.3,5.7,5.9c2.5,1.7,5.1,2.8,8.2,2.6
			c2.3-0.2,4.3-0.9,5.9-2.5c1.6-1.6,2.9-3.4,3.2-5.7C375.8,182.9,376,181.5,376.2,180z M380.3,209.6c0.3-2.1-0.7-4-1.9-5.7
			c-1.8-2.5-4.4-3.8-7.5-3.8c-2.2,0-4.1,1-5.5,2.8c-1.5,2-2.3,4.2-2,6.7c0.2,2,1,3.8,2.1,5.4c1.8,2.9,5.5,4.3,8.8,3.2
			C377.8,217.2,380.2,213.8,380.3,209.6z"/>
		<path class="st1" d="M191.2,117.4c2.1,0,4.2,0.1,6.4,0.1c0.8,0,1.5,0.1,2.3,0.4c-2.6,0.4-5.2,0.8-7.7,1.2
			c-2.2,0.4-4.3,0.8-6.5,1.3c-3,0.6-6,1.3-9,2c-2.1,0.5-4.1,1-6.1,1.7c-5.4,1.7-10.8,3.4-16.1,5.4c-5.2,2-10.3,4.3-15.2,7
			c-4.4,2.4-8.5,5.1-12.5,7.9c-1.7,1.2-3.2,2.7-4.8,4.1c-1.5,1.3-3,2.4-4.3,3.9c-4.8,5.2-9.2,10.7-12.7,16.9
			c-3.6,6.3-6.1,12.9-8.3,19.8c-1.7,5.4-3,10.9-4,16.4c-0.4,1.8-0.4,3.7-0.6,5.5c-0.3,2.3-0.7,4.5-1,6.8c-0.1,0.7-0.1,1.4-0.1,2.1
			c0,1.6,0.1,3.2-0.4,4.7c-0.2,0.6-0.1,1.2-0.1,1.8c0,6.7,0,13.3,0,20c0,1,0.2,1.9,0.4,2.9c0,0.3,0.1,0.5,0.1,0.8
			c0,2.8,0.1,5.6,0.5,8.5c0.4,2.4,0.6,4.9,1,7.3c0.2,1.5,0.4,3,0.6,4.4c0.9,6.7,2.4,13.4,4.4,19.9c1.8,5.9,4.2,11.5,7.1,16.8
			c1.7,3.1,3.5,6.1,6,8.7c1.1,1.2,2.2,2.6,3.3,3.8c5.7,6,12.5,10.3,20,13.7c4.9,2.2,10,3.9,15.2,5.4c3.7,1.1,7.5,1.9,11.3,2.8
			c2.5,0.6,5,0.9,7.5,1.3c3.6,0.5,7.1,1.1,10.7,1.5c2.7,0.3,5.4,0.4,8.2,0.6c0.4,0,0.7-0.1,1.1,0c2.3,0.8,4.7,0.4,7.1,0.5
			c0.9,0,1.7,0.2,2.6,0.3c0.7,0.1,1.4,0.2,2.1,0.2c1.6,0,3.2,0,4.8,0c0.5,0,1.1-0.1,1.6,0c3.9,0.9,7.8,0.4,11.6,0.5
			c1.4,0.1,2.8-0.1,4.2,0.4c0.7,0.2,1.6,0.1,2.4,0.1c6.4,0,12.8,0,19.2,0c1.3,0,2.6,0.2,3.9,0.3c2.8,0.3,5.6,0.4,8.5-0.1
			c0.9-0.1,1.7-0.3,2.6-0.3c8.8,0,17.6,0,26.3,0c0.4,0,0.9-0.1,1.3,0c3.1,0.8,6.3,0.4,9.5,0.5c1.3,0,2.6-0.1,3.9,0.4
			c0.6,0.2,1.2,0.1,1.8,0.1c2.2,0,4.4,0,6.6,0c1.2,0,2.5,0,3.7,0.4c0.7,0.2,1.6,0.1,2.4,0.1c4,0,8,0,12,0c0.8,0,1.6-0.2,2.2,0.5
			c-0.9,0.1-1.7,0.4-2.6,0.4c-8.6,0.7-17.2,1.1-25.8,1.1c-17.9,0-35.8,0-53.7,0c-8.8,0-17.5,0.4-26.3,0.4c-15.2,0-30.5-0.1-45.7-0.2
			c-8.3-0.1-16.7-0.1-25-0.3c-7.1-0.2-14.2-0.6-21.2-1.4c-7.3-0.9-14.5-2.3-21.4-5.1c-11.5-4.7-20.1-12.4-25.6-23.6
			c-1.7-3.5-3-7.2-4.6-10.8c-0.4-1.2-0.7-2.3-1.1-3.5c-0.9-3.2-1.8-6.4-2.7-9.7c-0.3-1.4-0.6-2.9-1-4.3c-0.5-2.8-0.9-5.6-1.4-8.4
			c0-0.1-0.1-0.1-0.1-0.2c-0.1-1-0.2-1.9-0.3-2.9c-0.5-3.6-0.9-7.3-1.4-10.9c0-0.4,0.1-0.7,0-1c-0.5-1.8-0.5-3.7-0.5-5.5
			c0-0.9,0.1-1.8-0.4-2.6c-0.4-7.4-0.8-14.9-1.2-22.3c0-3.6,0-7.2,0-10.8c0-0.5-0.2-1-0.4-1.5c0-3.5,0-7,0-10.6
			c0.5-1.3,0.7-2.5-0.1-3.8l0,0c0.5-2.5,0.7-5,0.5-7.5c0.1-3,0.3-5.9,0.4-8.9c0.4-4.1,0.8-8.1,1.3-12.2c1-8.4,2.7-16.6,5.8-24.5
			c3-7.5,7.3-14.1,13.6-19.4c4.4-3.7,9.4-6.4,14.6-8.6c6.1-2.6,12.5-4.3,19-5.8c10.3-2.3,20.7-3.8,31.2-4.9c9.3-1,18.5-1.7,27.8-2.1
			c2.7-0.1,5.5-0.3,8.2-0.5C189.2,117.4,190.2,117.4,191.2,117.4z"/>
		<path class="st2" d="M422.9,208.6c2.7,3.1,4.6,6.7,6.3,10.4c0.7,1.4,1.6,2.8,1.7,4.4c-1.1,0.8-0.1,2.3-1.2,3.2
			c-0.3,0-0.6,0.1-0.9,0.1c-5.8,0-11.7,0-17.5-0.1c-0.5,0-1.1-0.1-1.6-0.2c-2.6-0.5-5.3-0.4-7.9-0.1c-1.8,0.2-3.5,0.3-5.3,0.3
			c-1.5,0-3,0-4.5,0c0,0,0,0,0,0c0-6.5,0-12.9,0-19.4c0-0.8-0.2-1.6,0.4-2.3c0.2-0.1,0.5-0.1,0.7-0.2c4.3-0.2,8.7,0,12.9,0.7
			c4.9,0.7,9.8,1.5,14.5,2.9C421.3,208.6,422.1,209.1,422.9,208.6z"/>
		<path class="st2" d="M65.8,215.5c0,3.5,0,7,0,10.6c-0.4,2.4,0.3,4.9-0.4,7.3c-2.7,0.5-5.2,0.7-7.8,0.7c-3.4,0-6.9,0-10.3,0.4
			c-3.2,0.4-6.5,0.1-9.8,0.6c-2.1,0.3-4.2-0.1-6.3,0.5c-0.6,0.2-1.2,0.1-1.8,0c-0.2,0-0.5-0.2-0.7-0.2c-0.2-0.7-0.5-1.4-0.7-2.1
			c-0.5,0.3-0.8,0.5-1.2,0.8c0.1-0.6,0.2-1.2,0.4-1.8c1.7-5.2,4.1-10.1,7.1-14.7c0.1-0.2,0.4-0.4,0.5-0.6c0.4,0.4,0.8,0.1,1.2,0
			c5.9-1.9,12-3.1,18.1-4.2c1.7-0.3,3.5-0.5,5.3-0.6c2.1-0.1,4.2-0.1,6.3-0.5c0,0,0,0,0,0C65.7,213,65.8,214.3,65.8,215.5z"/>
		<path class="st3" d="M387.1,284.1c0.2-2.1,0.5-4.2,0.7-6.2c0-0.2,0.2-0.5,0.3-0.7c0.1,0.5,0.2,1,0.4,1.8
			c11-3.6,20.2-9.6,27.7-18.6c-1-0.1-1.8-0.1-2.5-0.2c0.6-0.7,1.5-0.5,2.3-0.5c1.3-0.1,2.6-0.1,4-0.2c2.3-0.2,4.5-0.5,6.8-0.9
			c2.4-0.4,4.9-0.4,7.2-1.6c-0.5,4.3-1.9,8.4-3.5,12.5c-1.3,3.3-2.8,6.5-5,9.3c-0.2-0.1-0.5-0.4-0.7-0.3c-0.8,0.3-1.7,0.6-2.5,0.9
			c-2.7,0.9-5.3,1.9-8.1,2.7c-3.5,1-7,1.8-10.6,2.3c-3.1,0.5-6.3,1-9.5,0.9c-1.6,0-3.2,0-4.8,0c-0.4,0-0.9,0-1.3,0
			C387.5,285.1,387.3,284.7,387.1,284.1z"/>
		<path class="st3" d="M70.1,283.5c0,0.1,0.1,0.1,0.1,0.2c0.5,2.8,0.9,5.6,1.4,8.4c-2.5,0.7-5.1,0.5-7.6,0.5c-1.6,0-3.2-0.4-4.7-0.5
			c-3.2-0.1-6.3-0.8-9.4-1.3c-4.1-0.7-8.1-1.8-12-3.2c-0.7-0.2-1.3-0.4-2-0.5c-0.1,0-0.2,0.4-0.4,0.6c-0.9-1.4-1.9-2.7-2.8-4.1
			c-3.1-5.2-5.3-10.7-6.7-16.6c-0.1-0.3-0.1-0.7-0.1-1c0.5,0.2,1,0.4,1.5,0.5c2.8,0.4,5.5,0.9,8.3,1c2.6,0.1,5.2,0.2,7.8,0.6
			c0.3,0.4,0.5,0.7,0.8,1.1c3.4,3.7,7.2,7,11.5,9.6c3.9,2.4,8,4.4,12.4,5.9c0.5,0.2,1,0.2,1.6,0.3C69.8,284.5,69.9,284,70.1,283.5z"
		/>
		<path class="st3" d="M383,302.7c1-4.4,2.1-8.8,3.1-13.2c3.7,0,7.4,0,11.1,0c0.6,0,1.3,0.1,1.8-0.1c2.9-0.6,5.9-0.8,8.8-1.5
			c4.7-1,9.3-2,13.7-3.8c-1.9,2.8-4.4,5.1-7,7.2c-6.8,5.7-14.6,9.3-23.4,10.7C388.5,302.4,385.7,302.5,383,302.7z"/>
		<path class="st3" d="M72.6,296.5c0.9,3.2,1.8,6.4,2.7,9.7c0.3,1.2,0.7,2.3,1.1,3.5c-2.9-0.3-5.8-0.4-8.7-0.9
			c-8.7-1.4-16.2-5.1-22.9-10.7c-2-1.6-3.9-3.3-5.4-5.4c1.3,0.4,2.5,0.8,3.8,1.1c3.2,0.7,6.3,1.5,9.5,2c2.9,0.5,5.9,1,8.9,1.1
			C65.2,297,68.9,297.3,72.6,296.5z"/>
		<path class="st4" d="M403.7,154.2c2.6-5.8,8.9-9,15-7.7c1.9,0.4,3.8,0.8,5.3,2.3c-0.2,0.3-0.5,0.6-0.4,0.9
			c0.1,0.6,0.4,1.2,0.5,1.8c0.5,1.8,0.4,3.6,0,5.5c-0.5,2.4-2.1,4-3.8,5.3c-2.7,2-5.8,2.9-9.2,1.5c-2-0.8-3.4-2.2-4.4-4
			c-0.8-1.4-1.3-2.9-2-4.3C404.5,155,404.1,154.6,403.7,154.2z M417.5,153c0-1.8-0.7-2.8-2.4-3.3c-1.4-0.5-2.6,0.1-3.7,0.7
			c-2.5,1.3-2.7,3.6-2.3,5.4c0.2,1.1,1.1,1.8,2.1,2.1C414.4,158.8,417.5,156.2,417.5,153z"/>
		<path class="st4" d="M31.2,157.5c4.1-3.7,12.4-4,17.3,0.5c1.2,1.1,2.4,2.1,2.9,3.7c-0.5,0.3-0.5,0.9-0.6,1.4
			c-0.7,2.3-1.4,4.6-3.1,6.3c-3.3,3.5-3.3,2.9-6.9,3c-4.5,0.1-7.2-2.3-9.1-6c-0.3-0.6-0.5-1.3-0.5-2c-0.1-2-0.2-4.1,0.6-6
			C32,157.8,31.7,157.5,31.2,157.5z M43.5,166.3c0.3-0.1,0.7-0.2,1-0.4c2.3-1.5,2.7-4,0.9-6.1c-0.9-1.1-2.2-1.7-3.5-2.2
			c-0.2-0.1-0.4-0.1-0.5,0c-1.5,0.3-2.9,0.8-3.5,2.4c-0.6,1.5-0.3,2.8,0.6,4c0.8,1,1.7,1.7,3,2C42.2,166.1,42.8,166.2,43.5,166.3z"
		/>
		<path class="st5" d="M433.1,230.2c0.4,1.8,0.9,3.6,1.2,5.4c1.1,6.6,1,13.2,0.1,19.8c0,0.2-0.2,0.5-0.3,0.7
			c-0.1-0.8-0.2-1.7-0.3-2.4c-0.3-0.1-0.5-0.3-0.7-0.3c-2,0.3-3.9,0.7-5.9,0.8c-2.4,0.2-4.6,0.9-7,0.7c2.4-3.9,4.4-8,5.9-12.3
			c1.3-3.6,2.4-7.3,3.1-11.1c0.8,0,1.6,0,2.4,0C432.5,231.5,432.9,231,433.1,230.2z"/>
		<path class="st3" d="M25.2,263c-0.3-1.9-0.7-3.8-0.9-5.7c-0.4-6.1-0.2-12.1,1-18.1c0.1-0.3,0.3-0.6,0.4-1c0.1,0.7,0.2,1.3,0.3,2
			c1.3-0.1,2.4-0.1,3.5-0.2c0,0.4,0,0.7,0.1,1.1c0.9,3.2,1.6,6.5,3,9.6c2,4.5,4.1,8.8,7,12.8c-1.5-0.1-3-0.1-4.5-0.2
			c-2.5-0.2-5-0.6-7.6-0.9c-0.5-0.1-1.1,0-1.6,0.1C25.7,262.5,25.4,262.8,25.2,263z"/>
		<path class="st2" d="M66.6,195.4c-0.1,3-0.3,5.9-0.4,8.9c-0.2,1-0.5,2-0.8,3c-1.5,0.5-3.1,0.8-4.7,0.7c-3.7-0.1-7.3,0.7-10.9,1.3
			c-3.6,0.7-7.2,1.5-10.8,2.3c2.6-3.3,5.8-5.9,9.1-8.3c0.8-0.6,1.5-1.2,2.3-1.7c0.9-0.2,1.7-0.5,2.1-1.4c0.4-0.1,0.9-0.1,1.3-0.3
			C57.9,197.9,62.2,196.5,66.6,195.4z"/>
		<path class="st2" d="M391.5,200c-0.3-3.9-0.5-7.8-0.8-11.7c4.4,0.8,8.6,2,12.6,4c0.5,0.2,0.8,0.2,1.2-0.1c0.6,1.3,0.8,1.4,2.1,1.2
			c0.2,0.9,1,1.1,1.7,1.6c3.2,2,6.2,4.3,8.9,7c0.4,0.4,0.7,0.8,1,1.2c-2.4-0.4-4.8-0.7-7.2-1.2c-4.6-0.9-9.2-1.5-13.8-1.5
			c-1.1,0-2.3,0-3.4,0C393,200.5,392.2,200.2,391.5,200z"/>
		<path class="st6" d="M31.2,157.5c0.5,0.1,0.8,0.3,0.6,0.9c-0.8,1.9-0.7,4-0.6,6c0,0.7,0.2,1.4,0.5,2c1.9,3.7,4.7,6.1,9.1,6
			c3.6-0.1,3.6,0.5,6.9-3c1.7-1.8,2.4-4.1,3.1-6.3c0.1-0.5,0.1-1.1,0.6-1.4c1.9,3,2.6,6.2,1.6,9.7c0-0.6,0-1.2,0-1.9
			c0-0.6,0.1-1.3-0.2-2c-0.8,1.8-1.5,3.4-2.2,5c-1,2.3-2.7,3.9-5.1,4.8c-3.2,1.1-6.4,1.5-9.6,0.4c-3.2-1.1-5.8-3.1-7.2-6.2
			c-0.9-1.9-1.6-3.9-1.8-6.1c0-0.3-0.3-0.6-0.5-0.9C27.1,161.4,28.7,159.1,31.2,157.5z"/>
		<path class="st7" d="M403.7,154.2c0.3,0.4,0.8,0.7,1,1.2c0.7,1.4,1.3,2.9,2,4.3c1,1.8,2.4,3.3,4.4,4c3.4,1.3,6.5,0.5,9.2-1.5
			c1.8-1.3,3.3-2.9,3.8-5.3c0.4-1.8,0.5-3.7,0-5.5c-0.2-0.6-0.4-1.2-0.5-1.8c0-0.3,0.3-0.6,0.4-0.9c2.7,1.6,4.4,4,5.2,7
			c-0.7,1.1-0.9,2.4-1.1,3.7c-0.6,3.7-2.8,6.4-5.8,8.5c-1.4,0.9-3,1.6-4.7,1.6c-1.5,0-3,0.2-4.5,0c-3.3-0.4-6.1-1.7-7.7-4.9
			c-0.9-1.7-1.7-3.4-2.7-5.5c-0.1,1.3-0.1,2.2-0.2,3.1C401.7,159.5,402.4,156.8,403.7,154.2z"/>
		<path class="st8" d="M420.2,254.9c2.4,0.2,4.7-0.5,7-0.7c2-0.1,4-0.6,5.9-0.8c0.1,0,0.3,0.1,0.7,0.3c0.1,0.7,0.2,1.6,0.3,2.4
			c0,0.3-0.1,0.6-0.1,1c-2.3,1.2-4.8,1.2-7.2,1.6c-2.3,0.3-4.5,0.6-6.8,0.9c-1.3,0.1-2.6,0.1-4,0.2c-0.8,0-1.6-0.2-2.3,0.5
			c-3.3,0.2-6.5,0.4-9.8,0.6c-1.1,0.1-2.2-0.1-3.2,0.1c-1.9,0.5-3.9,0.3-5.8,0.4c-1.7,0-3.4,0.1-5,0.1c0.1-1.5,0.3-2.9,0.4-4.4
			c2.7,0,5.3,0.2,8-0.1c2.5-0.3,4.9-0.3,7.4-0.4c2.7-0.2,5.5-0.2,8.2-0.6c1.5-0.2,3-0.3,4.5-0.5C419,255.3,419.6,255.1,420.2,254.9z
			"/>
		<path class="st8" d="M433.1,230.2c-0.2,0.8-0.6,1.3-1.4,1.2c-0.8,0-1.6,0-2.4,0c0,0,0,0,0,0c-0.4-0.2-0.7-0.5-1.1-0.5
			c-0.9-0.1-1.7,0-2.6,0c-10.2,0-20.4-0.1-30.6,0c-0.9,0-2-0.3-2.9,0.5c0,0.7,0,1.5-0.1,2.3c-0.1,0.5-0.3,1-0.4,1.5
			c-0.3-2.9,0.1-5.7,0.5-8.6c1.5,0,3,0,4.5,0c1.8,0,3.5-0.1,5.3-0.3c2.6-0.3,5.3-0.4,7.9,0.1c0.5,0.1,1,0.2,1.6,0.2
			c5.8,0,11.7,0.1,17.5,0.1c0.3,0,0.7-0.1,0.9-0.1c1.1-0.9,0.1-2.4,1.2-3.2c0,0,0,0,0,0c-0.1,0.5,0,0.9,0.5,1.1l0,0
			c-0.1,1-0.1,2,0.9,2.6C432.5,228.2,432.8,229.2,433.1,230.2z"/>
		<path class="st8" d="M25.2,263c0.3-0.2,0.5-0.5,0.8-0.6c0.5-0.1,1.1-0.1,1.6-0.1c2.5,0.3,5,0.6,7.6,0.9c1.5,0.1,3,0.1,4.5,0.2
			c1.1,0.2,2.3,0.4,3.4,0.5c3.9,0.2,7.8,0.1,11.6,0.5c3.4,0.3,6.9,0.1,10.3,0.1c0.7,0,1.4-0.1,2.2-0.2c0.1-1.3,0.1-2.4,0.2-3.5
			c0.6,0.8,0.4,1.7,0.4,2.6c0,1.9,0,3.7,0.5,5.5c0.1,0.3,0,0.7,0,1c-0.5-0.8-1.2-1.1-2.2-1.1c-4.1,0.1-8.1,0-12.2,0
			c-0.7,0-1.4,0.1-2.1,0c-2.8-0.6-5.6-0.4-8.4-0.4c-2.6-0.5-5.2-0.5-7.8-0.6c-2.8-0.1-5.5-0.6-8.3-1c-0.5-0.1-1-0.3-1.5-0.5
			C25.6,265,25.4,264,25.2,263z"/>
		<path class="st8" d="M29.6,240c-1.1,0.1-2.3,0.1-3.5,0.2c-0.1-0.6-0.2-1.3-0.3-2c0.2-0.9,0.4-1.7,0.6-2.6c0.6-0.4,0.6-1,0.5-1.6
			l0,0c0.4-0.2,0.7-0.5,1.2-0.8c0.3,0.7,0.5,1.4,0.7,2.1c0.2,0.1,0.4,0.2,0.7,0.2c0.6,0,1.3,0.1,1.8,0c2.1-0.6,4.2-0.2,6.3-0.5
			c3.3-0.5,6.6-0.2,9.8-0.6c3.4-0.4,6.9-0.4,10.3-0.4c2.6,0,5.1-0.2,7.8-0.7c0.6-2.4,0-4.9,0.4-7.3c0.1,0.5,0.4,1,0.4,1.5
			c0,3.6,0,7.2,0,10.8c-0.7-0.5-1.4-0.6-2.3-0.4c-0.6,0.1-1.2,0.3-1.8,0.3c-4.9,0.1-9.7-0.1-14.6,0.5c-2.8,0.3-5.6,0.2-8.4,0.5
			C35.9,239.6,32.7,239.8,29.6,240z"/>
		<path class="st9" d="M421.6,284.1c-4.4,1.8-9,2.8-13.7,3.8c-2.9,0.6-5.9,0.8-8.8,1.5c-0.6,0.1-1.2,0.1-1.8,0.1
			c-3.7,0-7.4,0-11.1,0c0.4-1.8,0.3-3.7,1-5.4c0.1,0.5,0.3,1,1,1.1c0.4,0,0.9,0,1.3,0c1.6,0,3.2,0,4.8,0c3.2,0.1,6.3-0.5,9.5-0.9
			c3.6-0.5,7.1-1.3,10.6-2.3c2.7-0.8,5.4-1.8,8.1-2.7c0.8-0.3,1.6-0.6,2.5-0.9c0.2-0.1,0.4,0.2,0.7,0.3
			C424.5,280.8,423.2,282.5,421.6,284.1z"/>
		<path class="st9" d="M72.6,296.5c-3.7,0.8-7.4,0.6-11.1,0.4c-3-0.1-5.9-0.6-8.9-1.1c-3.2-0.6-6.4-1.3-9.5-2
			c-1.3-0.3-2.5-0.7-3.8-1.1c-1.5-1.4-2.8-3-3.9-4.8c0.1-0.2,0.3-0.6,0.4-0.6c0.7,0.1,1.4,0.3,2,0.5c3.9,1.4,7.9,2.5,12,3.2
			c3.1,0.6,6.2,1.3,9.4,1.3c1.6,0,3.1,0.5,4.7,0.5c2.6-0.1,5.1,0.1,7.6-0.5C71.9,293.6,72.2,295,72.6,296.5z"/>
		<path class="st8" d="M391.5,200c0.8,0.2,1.5,0.4,2.3,0.5c1.1,0.1,2.3,0,3.4,0c4.7,0,9.3,0.6,13.8,1.5c2.4,0.5,4.8,0.8,7.2,1.2
			c1.8,1.6,3.4,3.3,4.6,5.4c-0.8,0.5-1.6,0-2.3-0.2c-4.7-1.4-9.6-2.2-14.5-2.9c-4.3-0.6-8.6-0.9-12.9-0.7c-0.3,0-0.5,0.1-0.7,0.2
			c-0.7,0.7-0.4,1.5-0.4,2.3c0,6.5,0,12.9,0,19.4c-0.6-0.4-0.5-1.1-0.5-1.7c0-6.7,0-13.4,0-20.2C391.4,203.2,391.4,201.6,391.5,200z
			"/>
		<path class="st10" d="M402.5,162.4c0.1-0.9,0.1-1.8,0.2-3.1c1,2,1.9,3.8,2.7,5.5c1.6,3.2,4.4,4.5,7.7,4.9c1.5,0.2,3,0.1,4.5,0
			c1.7-0.1,3.3-0.7,4.7-1.6c3-2.1,5.2-4.7,5.8-8.5c0.2-1.3,0.4-2.6,1.1-3.7c2.5,5.7-0.4,14.7-8.4,17.5c-1.5,0.5-3.1,0.7-4.7,0.7
			c-0.9,0-1.8,0-2.6-0.1c-0.8-0.2-1.6-0.4-2.3-0.6c-0.8-0.4-1.5-0.8-2.3-1.3C405.4,169.8,403,166.7,402.5,162.4z"/>
		<path class="st8" d="M39.1,211.7c3.6-0.8,7.2-1.7,10.8-2.3c3.6-0.7,7.2-1.4,10.9-1.3c1.6,0,3.1-0.2,4.7-0.7c0.3-1,0.5-2,0.8-3
			c0.3,2.5,0,5-0.5,7.5c-2.1,0.5-4.2,0.4-6.3,0.5c-1.8,0.1-3.5,0.3-5.3,0.6c-6.1,1.1-12.2,2.2-18.1,4.2c-0.4,0.1-0.8,0.4-1.2,0
			C36,215.1,37.3,213.3,39.1,211.7z"/>
		<path class="st10" d="M26.4,164.4c0.2,0.3,0.5,0.6,0.5,0.9c0.2,2.2,0.9,4.2,1.8,6.1c1.5,3.1,4,5.1,7.2,6.2
			c3.2,1.2,6.4,0.8,9.6-0.4c2.4-0.9,4-2.5,5.1-4.8c0.7-1.6,1.4-3.2,2.2-5c0.3,0.8,0.2,1.4,0.2,2c0,0.6,0,1.2,0,1.9
			c-0.5,3.7-2.6,6.4-5.5,8.6c-0.8,0.6-1.6,1-2.4,1.5c-0.8,0.3-1.5,0.5-2.3,0.8c-2.4,0.2-4.7,0.3-7.1-0.3
			C28.3,179.9,23.7,171.9,26.4,164.4z"/>
		<path class="st11" d="M411.1,173.4c0.8,0.2,1.6,0.4,2.3,0.6c-0.3,1-0.5,2.1-0.8,3.1c-1,3-2.4,3.8-5.5,2.9
			c-1.1-0.3-2.2-0.7-3.6-1.1c0.3,0.6,0.4,0.9,0.6,1.1c1,1,1.9,2.1,3,3c1.9,1.5,2.2,3.3,1.3,5.4c-0.7,1.6-1.3,3.3-1.9,5
			c-1.3,0.2-1.5,0.1-2.1-1.2c0.6-1.5,1.1-3,1.7-4.5c0.5-1.2,0.3-2.1-0.8-3c-1.4-1.2-2.6-2.6-3.8-4c-0.5-0.5-0.8-1.1-1.1-1.8
			c-0.7-1.7,0.2-3,2.1-2.8c0.8,0.1,1.5,0.3,2.3,0.5c0.9,0.3,1.8,0.7,2.8,0.9c1.8,0.5,2.2,0.3,2.8-1.6
			C410.7,175.1,410.9,174.2,411.1,173.4z"/>
		<path class="st12" d="M42.7,182.3c0.8-0.3,1.5-0.5,2.3-0.8c0.6,1.4,0.7,3.1,1.8,4.3c1,0.2,1.8-0.2,2.6-0.5
			c1.1-0.4,2.1-0.8,3.2-1.2c0.5-0.2,1-0.3,1.6-0.3c1.3,0,2.2,1,1.9,2.3c-0.2,0.7-0.6,1.5-1,2.1c-1.3,1.6-2.6,3.1-4,4.6
			c-0.8,0.8-1,1.6-0.5,2.6c0.7,1.6,1.4,3.2,2.1,4.9c-0.4,0.9-1.2,1.2-2.1,1.4c-0.8-2-1.7-4.1-2.5-6.1c-0.6-1.5-0.3-2.8,0.8-3.9
			c0.6-0.6,1.2-1.1,1.7-1.7c0.8-0.9,1.6-1.9,2.7-3.2c-1,0.3-1.5,0.4-2,0.5c-0.9,0.3-1.8,0.7-2.8,1c-2.2,0.6-3.6-0.1-4.5-2.2
			C43.5,184.8,43.2,183.5,42.7,182.3z"/>
		<path class="st2" d="M432.3,227.1c-1.1-0.6-1-1.6-0.9-2.6C432,225.3,432.2,226.2,432.3,227.1z"/>
		<path class="st2" d="M26.8,234.1c0.1,0.6,0.2,1.2-0.5,1.6C26.3,235.1,26.3,234.5,26.8,234.1z"/>
		<path class="st2" d="M431.3,224.5c-0.5-0.3-0.6-0.7-0.5-1.1C431.3,223.7,431.4,224.1,431.3,224.5z"/>
		<path class="st4" d="M253.8,161.1c3.1,0.1,6.2,0.1,9.3,0.3c3.7,0.2,7.4,0.5,11.1,0.8c11.1,0.9,22,2.3,32.8,4.8
			c4.6,1.1,9.1,2.4,13.4,4.3c1.6,0.7,3.2,1.5,4.8,2.4c7.4,4.1,12.2,10.3,15.2,18.2c1.9,4.9,3,10,3.7,15.2
			c1.6,12.1,1.8,24.2,1.4,36.4c-0.2,5.8-0.5,11.5-0.9,17.3c-0.8,10.7-2.1,21.4-4.7,31.8c-1.6,6.3-3.6,12.4-7,18
			c-4.5,7.5-11.1,12.3-19.2,15.1c-0.2,0.1-0.5,0.1-0.8,0.1c-1.9,0-3.7-0.2-5.6,0.1c-1.2,0.2-2.4,0.3-3.7,0.3c-1.9,0-3.7,0-5.6,0
			c-0.7,0-1.4,0.1-2.1,0.2c-1,0.1-2.1,0.3-3.1,0.3c-8.5,0-17,0-25.5,0c-2.4,0-4.8,0.3-7.1-0.5c-0.5-0.2-1.1,0-1.6,0
			c-1.9,0-3.7,0-5.6,0c-0.6,0-1.3,0.1-1.8-0.1c-1.5-0.5-3-0.3-4.5-0.4c-2.7-0.2-5.5-0.2-8.2-0.7c-1.6-0.3-3.2-0.2-4.7-0.5
			c-1.8-0.3-3.6-0.6-5.5-0.9c-2.9-0.4-5.7-0.8-8.6-1.3c-2.1-0.4-4.1-1-6.2-1.3c-4.5-0.6-8.8-1.7-13.2-2.7c-3.1-0.7-6.2-1.4-9.2-2.2
			c-4.8-1.3-9.7-2.7-14.5-4.3c-3.3-1.1-6.4-2.5-9.5-4.1c-5.3-2.8-10-6.3-13.6-11.1c-2.5-3.3-4.4-6.9-6-10.6
			c-2.2-5.1-3.3-10.6-4.5-16c-0.3-1.7-0.3-3.4-0.6-5c-0.3-1.2-0.4-2.4-0.4-3.7c0.2-6.5-0.5-12.9,0.5-19.4c0.3-1.9,0.3-3.9,0.7-5.8
			c0.6-3,1.3-6,2-9c1.5-6,3.4-11.9,6.3-17.4c0.4-0.7,0.7-1.4,1.1-2.1c2.3-4.7,5.5-8.6,9-12.4c1.4-1.6,3.1-2.9,4.7-4.3
			c3.8-3.1,7.8-5.8,12.1-8.1c3-1.7,5.9-3.5,9.2-4.7c3.7-1.4,7.3-3.2,11-4.5c6.7-2.4,13.4-4.6,20.3-6.3c4-1,8-2,12.1-2.8
			c4.2-0.9,8.4-1.7,12.7-2.3c3-0.4,5.9-1,8.9-0.9C252.9,161.2,253.3,161.1,253.8,161.1z M301.8,174.4c-1.6-0.2-3.7,0.5-5.7,1.4
			c-3.3,1.4-3.4,7.2-0.6,8.7c1.7,0.9,3.4,1.8,5.1,2.7c1,0.5,2.2,0.8,3.1,1.5c1.7,1.5,3.4,3.1,4.7,5c1.9,2.6,3.5,5.5,5.3,8.3
			c1.1,1.8,2.2,3.6,3.5,5.3c2,2.5,4.4,4.4,7.9,4c0.2,0,0.4,0,0.5,0c2,0.1,3.4-0.9,4.5-2.4c1.5-2.2,2.1-4.7,1.7-7.3
			c-0.2-1.6-0.7-3.1-1.3-4.6c-1.5-3.8-3.8-7.2-6.5-10.2c-2.9-3.3-6.3-6.2-10.1-8.5C310.4,176,306.7,174.4,301.8,174.4z M329.2,214.4
			c-1.3-0.1-2.5,0.3-3.6,1.2c-1.8,1.5-2.2,3.9-1.4,6.3c0.3,1,0.7,2,1.7,2.6c0.9,0.5,1.9,1.1,2.8,1.4c2.2,0.7,4.9,0.3,6.1-2.6
			c0.9-2.1,0.6-4-0.5-5.8C333.2,215.7,331.7,214.2,329.2,214.4z"/>
		<path class="st6" d="M253.8,161.1c-0.4,0-0.9,0.1-1.3,0.1c-3,0-6,0.6-8.9,0.9c-4.3,0.6-8.5,1.4-12.7,2.3
			c-4.1,0.8-8.1,1.9-12.1,2.8c-6.9,1.6-13.6,3.9-20.3,6.3c-3.7,1.3-7.3,3.1-11,4.5c-3.3,1.2-6.2,3-9.2,4.7c-4.3,2.3-8.3,5-12.1,8.1
			c-1.6,1.4-3.3,2.7-4.7,4.3c-3.5,3.8-6.7,7.8-9,12.4c-0.3,0.7-0.7,1.4-1.1,2.1c-3,5.5-4.9,11.4-6.3,17.4c-0.7,3-1.4,6-2,9
			c-0.4,1.9-0.4,3.9-0.7,5.8c-1,6.4-0.3,12.9-0.5,19.4c0,1.2,0.1,2.4,0.4,3.7c0.4,1.6,0.3,3.3,0.6,5c1.1,5.4,2.2,10.9,4.5,16
			c1.6,3.7,3.6,7.3,6,10.6c3.7,4.8,8.3,8.4,13.6,11.1c3.1,1.6,6.3,3,9.5,4.1c4.8,1.6,9.6,2.9,14.5,4.3c3.1,0.8,6.2,1.5,9.2,2.2
			c4.4,1,8.7,2.1,13.2,2.7c2.1,0.3,4.1,0.9,6.2,1.3c2.9,0.5,5.7,0.9,8.6,1.3c1.8,0.3,3.7,0.6,5.5,0.9c1.6,0.3,3.1,0.2,4.7,0.5
			c2.7,0.5,5.4,0.5,8.2,0.7c1.5,0.1,3-0.1,4.5,0.4c0.6,0.2,1.2,0.1,1.8,0.1c1.9,0,3.7,0,5.6,0c0.5,0,1.1-0.1,1.6,0
			c2.3,0.8,4.7,0.5,7.1,0.5c8.5,0,17,0,25.5,0c1,0,2.1-0.2,3.1-0.3c0.7-0.1,1.4-0.2,2.1-0.2c1.9,0,3.7,0,5.6,0
			c1.2,0,2.4-0.1,3.7-0.3c1.8-0.3,3.7-0.1,5.6-0.1c-2.5,1.3-5.2,1.6-7.9,2.1c-7.7,1.3-15.5,1.6-23.3,1.6c-10.5,0-21.1,0-31.6,0.1
			c-7.8,0-15.6,0.2-23.4,0.2c-11.4,0-22.8,0-34.3,0c-3.7,0-7.4-0.2-11.1-0.3c-0.7-0.8-1.7-0.4-2.5-0.6c-5.1-1.1-10.2-2.3-15.1-4
			c-4.3-1.4-8.5-3.2-12.4-5.4c-3.2-1.8-6.2-4-9-6.5c-1.2-1-2.1-2.4-3.1-3.6c-3-3.4-5.3-7.3-7.1-11.5c-2.6-6.1-4.3-12.5-5.6-19
			c-0.6-2.9-1.1-5.7-1.5-8.6c-0.3-1.9-0.5-3.9-0.6-5.8c-0.1-1.5,0.1-3-0.5-4.5c-0.2-0.5-0.1-1.1-0.1-1.6c0-4.8-0.1-9.6,0-14.4
			c0.1-4.8-0.2-9.5,0.4-14.3c0.4-3.5,0.6-7,1.1-10.5c0.6-4,1.3-8,2.2-11.9c1.4-5.6,3.1-11.1,6.2-16c1.4-2.3,2.8-4.5,4.8-6.3
			c1.1-0.9,2-2,3-3c2-2.1,4.4-3.5,6.8-5.1c2.7-1.8,5.8-3.1,8.7-4.5c6-2.8,12.2-4.7,18.5-6.4c7.9-2.1,16-3.7,24.1-4.4
			c0.2,0,0.5-0.2,0.7-0.4c3.3-0.2,6.7-0.4,10-0.5c13.4-0.3,26.8-0.3,40.2,0C251.7,160.8,252.7,161,253.8,161.1z"/>
		<path class="st13" d="M200.4,161.3c-0.2,0.1-0.4,0.4-0.7,0.4c-8.2,0.8-16.2,2.3-24.1,4.4c-6.3,1.7-12.6,3.6-18.5,6.4
			c-3,1.4-6,2.6-8.7,4.5c-2.4,1.6-4.8,3-6.8,5.1c-1,1-2,2.1-3,3c-2,1.8-3.4,4.1-4.8,6.3c-3,5-4.8,10.4-6.2,16
			c-1,3.9-1.7,7.9-2.2,11.9c-0.5,3.5-0.7,7-1.1,10.5c-0.6,4.8-0.3,9.6-0.4,14.3c-0.1,4.8,0,9.6,0,14.4c0,0.5-0.1,1.1,0.1,1.6
			c0.5,1.5,0.3,3,0.5,4.5c0.1,1.9,0.3,3.9,0.6,5.8c0.4,2.9,1,5.7,1.5,8.6c1.3,6.5,2.9,12.9,5.6,19c1.8,4.2,4.1,8,7.1,11.5
			c1,1.2,2,2.5,3.1,3.6c2.8,2.5,5.8,4.7,9,6.5c3.9,2.2,8.1,4,12.4,5.4c4.9,1.7,10,2.9,15.1,4c0.8,0.2,1.8-0.3,2.5,0.6
			c-5.3-0.1-10.6,0-15.9-0.2c-3.4-0.1-6.9-0.5-10.3-0.9c-5.2-0.6-10.3-1.6-15.2-3.6c-8.3-3.4-14.6-9-18.6-17
			c-2.8-5.5-4.6-11.3-5.9-17.3c-1.6-7.1-2.6-14.3-3.3-21.5c-1.5-14.9-1.8-29.7-1.4-44.6c0.3-7.9,0.9-15.8,2.6-23.5
			c1.1-5.1,2.7-10.1,5.3-14.7c3.1-5.6,7.5-9.8,13.1-12.9c5.3-2.9,10.9-4.7,16.7-6.1c6.4-1.5,12.8-2.6,19.4-3.4
			c8.8-1.1,17.6-1.8,26.5-2.2C196.1,161.5,198.2,161.4,200.4,161.3z"/>
		<path class="st14" d="M376.2,180c-0.2,1.5-0.4,3-0.6,4.4c-0.3,2.3-1.6,4.1-3.2,5.7c-1.7,1.7-3.6,2.4-5.9,2.5
			c-3.1,0.2-5.7-0.9-8.2-2.6c-2.3-1.6-4.1-3.7-5.7-5.9c-2.1-2.9-4-5.9-6-8.7c-2.2-3.2-4.4-6.5-7.3-9.1c-5.3-4.8-11.1-9-17.9-11.7
			c-2.6-1-5.2-2.2-7.5-3.9c-2-1.4-2.9-3.4-3.2-5.6c-0.2-1.6,0.4-3.3,1.6-4.6c1.3-1.5,2.9-2.6,4.8-3.3c4.5-1.6,9.1-1.9,13.8-1.2
			c4.9,0.7,9.5,2.1,13.9,4.1c3.1,1.4,5.9,3.2,8.6,5.2c3.6,2.6,6.9,5.6,9.9,8.8c4.4,4.8,8.1,10.1,10.7,16
			C375.5,173.3,376,176.4,376.2,180z"/>
		<path class="st2" d="M391.5,235.2c0.1-0.5,0.4-1,0.4-1.5c0.1-0.8,0.1-1.6,0.1-2.3c0.9-0.8,2-0.5,2.9-0.5c10.2,0,20.4,0,30.6,0
			c0.5,0.2,0.9,0.4,1.4,0.5c0.8,0.1,1.6,0,2.3,0c0,0,0,0,0,0c-0.7,3.8-1.8,7.5-3.1,11.1c-1.6,4.3-3.5,8.4-5.9,12.3
			c-0.6,0.2-1.2,0.4-1.8,0.5c-1.5,0.1-3,0.2-4.5,0.5c-2.7,0.4-5.4,0.5-8.2,0.6c-2.5,0.1-4.9,0.1-7.4,0.4c-2.6,0.3-5.3,0.1-8,0.1
			c0.1-1.7,0.2-3.3,0.3-5c0-0.5,0.1-1,0.1-1.6C391,245.4,391.3,240.3,391.5,235.2z"/>
		<path class="st2" d="M390,261.4c1.7,0,3.4-0.1,5-0.1c1.9,0,3.9,0.1,5.8-0.4c1-0.2,2.1-0.1,3.2-0.1c3.3-0.2,6.5-0.4,9.8-0.6
			c0.8,0.1,1.5,0.1,2.5,0.2c-7.5,9-16.7,15-27.7,18.6c-0.2-0.8-0.3-1.3-0.4-1.8c0.2-2.1,0.4-4.2,0.7-6.3
			C389.2,267.7,389.6,264.5,390,261.4z"/>
		<path class="st14" d="M380.3,209.6c0,4.2-2.4,7.5-6.1,8.7c-3.3,1-7-0.3-8.8-3.2c-1-1.7-1.9-3.5-2.1-5.4c-0.2-2.5,0.5-4.7,2-6.7
			c1.4-1.8,3.3-2.8,5.5-2.8c3.1,0,5.7,1.2,7.5,3.8C379.6,205.6,380.6,207.6,380.3,209.6z"/>
		<path class="st2" d="M29.6,240c3.2-0.2,6.3-0.4,9.5-0.7c2.8-0.3,5.7-0.1,8.4-0.5c4.8-0.6,9.7-0.4,14.6-0.5c0.6,0,1.2-0.2,1.8-0.3
			c0.8-0.2,1.6-0.1,2.3,0.4c0.4,7.4,0.8,14.9,1.2,22.3c-0.1,1.1-0.1,2.3-0.2,3.5c-0.8,0.1-1.5,0.2-2.2,0.2c-3.4,0-6.9,0.2-10.3-0.1
			c-3.9-0.3-7.8-0.3-11.6-0.5c-1.1,0-2.3-0.3-3.4-0.5c-2.9-3.9-5-8.3-7-12.8c-1.4-3.1-2.1-6.4-3-9.6C29.6,240.7,29.6,240.4,29.6,240
			z"/>
		<path class="st2" d="M43.4,268.2c2.8,0.1,5.6-0.2,8.4,0.4c0.7,0.2,1.4,0,2.1,0c4.1,0,8.1,0,12.2,0c1,0,1.7,0.4,2.2,1.1
			c0.5,3.6,0.9,7.3,1.4,10.9c0.1,0.9,0.2,1.9,0.3,2.9c-0.1,0.5-0.2,1-0.3,1.6c-0.6-0.1-1.1-0.2-1.6-0.3c-4.3-1.5-8.4-3.5-12.4-5.9
			c-4.3-2.6-8.1-6-11.5-9.6C43.9,268.9,43.7,268.6,43.4,268.2z"/>
		<path class="st8" d="M65.8,215.5c0-1.3-0.1-2.5-0.1-3.8C66.5,213,66.3,214.3,65.8,215.5z"/>
		<path class="st15" d="M417.5,153c0,3.3-3.2,5.8-6.3,4.9c-1.1-0.3-1.9-1.1-2.1-2.1c-0.4-1.8-0.2-4.1,2.3-5.4
			c1.2-0.6,2.3-1.2,3.7-0.7C416.8,150.2,417.5,151.2,417.5,153z"/>
		<path class="st16" d="M43.5,166.3c-0.7-0.1-1.4-0.3-2.1-0.4c-1.3-0.3-2.2-1-3-2c-0.9-1.2-1.2-2.5-0.6-4c0.7-1.6,2-2.1,3.5-2.4
			c0.2,0,0.4,0,0.5,0c1.3,0.5,2.6,1.1,3.5,2.2c1.8,2.1,1.4,4.6-0.9,6.1C44.2,166.1,43.9,166.2,43.5,166.3z"/>
		<path class="st5" d="M429.2,231.5c-0.8,0-1.6,0-2.3,0c-0.5-0.1-0.9-0.3-1.4-0.5c0.9,0,1.7-0.1,2.6,0
			C428.5,231,428.9,231.3,429.2,231.5z"/>
		<path class="st17" d="M301.8,174.4c4.9,0,8.6,1.6,12.1,3.7c3.8,2.3,7.2,5.2,10.1,8.5c2.7,3.1,5,6.4,6.5,10.2c0.6,1.5,1,3,1.3,4.6
			c0.4,2.6-0.2,5.2-1.7,7.3c-1,1.5-2.5,2.5-4.5,2.4c-0.2,0-0.4,0-0.5,0c-3.5,0.4-5.9-1.4-7.9-4c-1.3-1.7-2.4-3.5-3.5-5.3
			c-1.8-2.8-3.3-5.6-5.3-8.3c-1.3-1.8-3-3.5-4.7-5c-0.8-0.7-2-1-3.1-1.5c-1.7-0.9-3.4-1.8-5.1-2.7c-2.7-1.5-2.7-7.3,0.6-8.7
			C298.2,175,300.2,174.2,301.8,174.4z"/>
		<path class="st15" d="M329.2,214.4c2.5-0.2,4.1,1.2,5.2,3.1c1.1,1.8,1.4,3.7,0.5,5.8c-1.2,2.9-3.9,3.3-6.1,2.6
			c-1-0.3-1.9-0.9-2.8-1.4c-1-0.5-1.4-1.6-1.7-2.6c-0.8-2.4-0.4-4.8,1.4-6.3C326.6,214.7,327.8,214.3,329.2,214.4z"/>
	</g>
		<g>
		<g>
			<path class="st18" d="M266.3,183.1c1.4-1.1,3.1-1.3,4.8-0.8c1.3,0.4,2.7,0.9,3.9,1.5c7.2,3.8,14.7,7,22,10.5
				c1.9,0.9,3.8,1.9,5.6,3c4.4,2.8,6,6.5,5,11.8c-0.9-0.1-1.7,0.2-2.6,0.5c-1.8,0.6-3.7,1.3-5.7,1c-2.3-0.4-4.7-0.7-7-1.4
				c-4.7-1.4-9.1-3.5-13.4-5.7c-2.1-1-4-2.3-5.8-3.6c-4.7-3.5-7-8.1-6.9-13.9C266.3,185,266.3,184.1,266.3,183.1z"/>
			<path class="st19" d="M266.3,183.1c0,1,0,1.9,0,2.9c-0.1,5.8,2.2,10.4,6.9,13.9c1.9,1.4,3.8,2.6,5.8,3.6
				c4.3,2.2,8.7,4.3,13.4,5.7c2.3,0.7,4.6,1,7,1.4c1.9,0.3,3.8-0.3,5.7-1c0.8-0.3,1.6-0.6,2.6-0.5c-0.2,0.7-0.3,1.4-0.5,2
				c-1.7,4.6-5.4,6.9-10.3,6.7c-3-0.2-5.9-0.9-8.8-1.9c-6.7-2.3-13.1-5.4-19.1-9.2c-2-1.2-3.8-2.6-5.3-4.3c-2.6-3-3.6-6.4-2.8-10.3
				c0.5-2.5,1.4-4.7,2.9-6.7C264.4,184.4,265.1,183.4,266.3,183.1z"/>
		</g>
			<g>
			<path class="st2" d="M148.1,205.3c0.4-2.1,1.8-3.6,3.4-4.9c1.4-1.2,3-2.2,4.6-3.2c4.9-3,9.9-6,14.8-9c2.1-1.3,4.2-2.7,6.3-4
				c1.1-0.7,2.2-1.5,3.4-2c2.9-1.4,5.7-1,8.1,1.2c1.8,1.7,3.2,3.5,3.8,6c-0.7,0.3-1,1-1.3,1.6c-1,1.6-2,3.4-3.3,4.8
				c-2.5,2.7-5,5.3-7.9,7.5c-2.6,1.9-5.2,3.7-8,5.2c-3.7,1.9-7.6,3.4-11.7,4.1c-3.1,0.5-5.8,0-8-2.3c-1-1.1-1.9-2.3-2.8-3.5
				C148.9,206.2,148.5,205.8,148.1,205.3z"/>
				<path class="st20" d="M148.1,205.3c0.4,0.4,0.8,0.9,1.2,1.4c0.9,1.2,1.8,2.4,2.8,3.5c2.2,2.3,4.8,2.9,8,2.3
				c4.2-0.7,8-2.2,11.7-4.1c2.8-1.5,5.4-3.3,8-5.2c3-2.2,5.5-4.8,7.9-7.5c1.3-1.4,2.2-3.2,3.3-4.8c0.4-0.6,0.6-1.3,1.3-1.6
				c1.8,3.8,1.4,7.4-0.7,10.9c-1.2,1.9-2.7,3.5-4.5,4.9c-6.4,5.1-13.3,9.5-20.8,12.8c-2.3,1-4.6,1.8-7.1,2.1c-4,0.5-7.2-0.8-9.5-4.1
				c-2-2.9-2.8-6.1-2.1-9.6C147.7,206,147.9,205.7,148.1,205.3z"/>
		</g>
			<g>
			<path class="st21" d="M209.9,281.5c-2-2.9-2.9-6.2-3.6-9.6c-0.7-3-0.7-6.1-0.7-9.3c0-1.9,0.8-3,2.6-3.5c2-0.6,4-1.3,6.1-1.8
				c6.9-1.5,13.9-1.9,20.9-0.8c1.2,0.2,2.4,0.6,3.6,0.9c0.9,0.3,1.4,0.9,1.6,1.9c0.6,3.1,0.6,6.2,0.3,9.3c-0.3,3.9-1.2,7.7-3,11.2
				c-0.2,0.4-0.5,0.7-0.7,1.1c-1.1-0.5-1.3-1.6-2-2.5c-2.9-3.7-6.4-6.3-11.4-6c-0.5,0-1.1,0-1.6,0c-0.5,0.1-1.1,0.1-1.5,0.3
				c-3,1.3-5.8,3-7.6,5.9c-0.5,0.8-1.1,1.6-1.8,2.3C210.8,281.3,210.3,281.3,209.9,281.5z"/>
				<path class="st22" d="M209.9,281.5c0.4-0.2,0.9-0.2,1.2-0.5c0.7-0.7,1.3-1.5,1.8-2.3c1.8-2.9,4.6-4.5,7.6-5.9
				c0.5-0.2,1-0.3,1.5-0.3c0.5-0.1,1.1,0,1.6,0c5-0.3,8.5,2.3,11.4,6c0.6,0.8,0.9,2,2,2.5c-1.4,3.3-3.7,5.8-6.6,7.7
				c-4.5,2.9-9.2,2.9-13.7,0.2C213.7,287,211.4,284.6,209.9,281.5z"/>
		</g>
			<g>
			<path class="st22" d="M269.4,226.9c4.8-2.3,10-3.1,15.2-3.1c17.9,0.1,32.7,12.6,36.7,28.9c1.6,6.5,1.5,13-0.2,19.5
				c-0.1,0.4-0.4,0.8-0.6,1.3c-0.4-0.4-0.6-0.6-0.8-0.9c-6.1-7.7-14.2-12.5-23.6-14.9c-11.2-2.9-22.2-2-32.7,2.8
				c-0.4,0.2-0.8,0.3-1.2,0.5c-0.1-1.9,0.2-3.9-0.5-5.8c-0.1-0.4,0-0.9-0.1-1.3c-0.2-1.5,0.4-3,0.5-4.5c0-2,0.5-3.9,0.9-5.7
				c1.3-5.3,3.3-10.4,6.1-15.2C269.3,228,269.3,227.4,269.4,226.9z M310.5,248.9c-0.5-2.1-0.6-4.2-1.6-6.2c-0.9-1.9-1.9-3.8-3.3-5.5
				c-1.6-2-3.6-3.3-6.1-4c-0.9-0.3-1.7-0.2-2.6,0.2c-1.8,0.8-2.9,2.8-2.3,4.8c0.5,1.9,1.4,3.6,2.5,5.3c1.4,2.2,2.8,4.5,4.3,6.7
				c0.9,1.3,2.1,2.5,3.3,3.4c1.4,1.1,2.5,0.9,3.8-0.2C310.1,252.2,310,250.5,310.5,248.9z"/>
				<path class="st23" d="M269.4,226.9c-0.1,0.5-0.1,1.1-0.4,1.5c-2.8,4.8-4.8,9.9-6.1,15.2c-0.5,1.9-0.9,3.8-0.9,5.7
				c0,1.5-0.6,2.9-0.5,4.5c0,0.4-0.1,0.9,0.1,1.3c0.7,1.9,0.4,3.9,0.5,5.8c-0.5,0.3-1,0.7-1.6,1c-4.4,2.5-8.3,5.7-11.5,9.7
				c-0.3,0.3-0.6,0.7-0.9,1c-0.1,0.1-0.2,0.1-0.4,0.2c-0.3-1.1-0.6-2.2-0.9-3.3c-3.4-17,5.3-34.9,21.8-42.2
				C268.9,227,269.2,227,269.4,226.9z"/>
				<path class="st24" d="M310.5,248.9c-0.5,1.6-0.4,3.3-1.9,4.5c-1.3,1.1-2.4,1.3-3.8,0.2c-1.2-1-2.4-2.2-3.3-3.4
				c-1.5-2.1-2.9-4.4-4.3-6.7c-1.1-1.6-2-3.4-2.5-5.3c-0.5-2,0.5-4,2.3-4.8c0.9-0.4,1.7-0.4,2.6-0.2c2.4,0.7,4.5,2,6.1,4
				c1.3,1.7,2.3,3.5,3.3,5.5C309.9,244.7,310,246.8,310.5,248.9z"/>
		</g>
			<g>
			<path class="st25" d="M160.3,249.3c7-2.8,14-2.6,21,0.2c9.5,3.8,15.3,10.9,17.8,20.7c0.1,0.5,0.1,1,0.1,1.8
				c-0.7-0.5-1.2-0.8-1.7-1.2c-7.7-5.8-16.4-8.2-26-7.4c-5.5,0.5-10.7,2.2-15.5,5c-0.7,0.4-1.4,0.8-2.1,1.2
				c-0.1-3.5,0.7-6.8,1.8-10.1c0.9-2.7,1.8-5.4,3.5-7.7c0.5-0.6,0.9-1.4,0.2-2.2l0.2,0c0,0,0.1,0.1,0.1,0.2
				C160,249.9,160.2,249.7,160.3,249.3z M188.5,259.1c0-0.2-0.1-0.7-0.3-1c-0.6-1.1-1.2-2.2-2.1-3c-0.9-0.9-2.1-1.6-3.3-2.1
				c-1.1-0.6-2,0.1-2.8,1c-0.7,0.8-0.8,1.3-0.2,2.4c1.2,2.4,3,4.1,5.4,5.2C187,262.3,188.6,261.2,188.5,259.1z"/>
				<path class="st23" d="M159.3,249.7c0.7,0.8,0.3,1.5-0.2,2.2c-1.7,2.3-2.6,5-3.5,7.7c-1.1,3.3-1.9,6.6-1.8,10.1
				c-0.3,0.3-0.6,0.6-1,0.9c-4.1,3-7.4,6.8-10,11.2c-0.2,0.4-0.3,1-1,1.1C138.6,270.3,145.7,254.9,159.3,249.7z"/>
				<path class="st23" d="M160.3,249.3c-0.1,0.3-0.3,0.6-0.7,0.5C159.8,249.7,160,249.5,160.3,249.3z"/>
				<path class="st24" d="M188.5,259.1c0,2.1-1.5,3.2-3.2,2.4c-2.4-1.1-4.2-2.8-5.4-5.2c-0.5-1.1-0.5-1.6,0.2-2.4
				c0.7-0.8,1.6-1.5,2.8-1c1.2,0.6,2.4,1.2,3.3,2.1c0.9,0.8,1.4,2,2.1,3C188.5,258.5,188.5,258.9,188.5,259.1z"/>
		</g>
	</g>
</g>
</svg>
