<svg xmlns="http://www.w3.org/2000/svg" xmlns:xlink="http://www.w3.org/1999/xlink" version="1.1" width="453.543pt" height="453.543pt" viewBox="0 0 453.543 453.543">
<defs>
<clipPath id="clip_0">
<path transform="matrix(1,0,0,-1,0,453.543)" d="M0 453.543H453.543V0H0Z"/>
</clipPath>
</defs>
<g id="layer_1" >
<g clip-path="url(#clip_0)">
<path transform="matrix(1,0,0,-1,380.2734,209.6144)" d="M0 0C.346 2.05-.665 3.98-1.876 5.709-3.658 8.254-6.318 9.525-9.391 9.503-11.586 9.488-13.503 8.458-14.866 6.664-16.359 4.699-17.136 2.439-16.892-.023-16.699-1.976-15.874-3.778-14.841-5.441-13.01-8.389-9.376-9.697-6.06-8.666-2.435-7.539-.033-4.198 0 0M-4.064 29.633C-4.237 33.263-4.794 36.308-6.197 39.46-8.85 45.42-12.545 50.699-16.931 55.496-19.923 58.769-23.235 61.7-26.804 64.341-29.517 66.348-32.382 68.147-35.434 69.531-39.859 71.538-44.486 72.921-49.354 73.632-54.117 74.329-58.676 74.032-63.17 72.386-65.035 71.703-66.604 70.575-67.946 69.121-69.162 67.803-69.713 66.069-69.516 64.473-69.248 62.303-68.341 60.305-66.313 58.901-63.952 57.268-61.38 56.082-58.771 55.047-51.988 52.36-46.253 48.161-40.919 43.312-38.009 40.667-35.873 37.396-33.633 34.216-31.596 31.324-29.692 28.336-27.623 25.468-26.021 23.248-24.263 21.148-21.953 19.579-19.481 17.899-16.889 16.757-13.794 16.989-11.495 17.162-9.519 17.858-7.846 19.515-6.226 21.12-4.98 22.884-4.654 25.188-4.445 26.668-4.26 28.151-4.064 29.633M-199.048-119.828C-195.333-119.938-191.62-120.13-187.905-120.145-176.481-120.193-165.058-120.206-153.634-120.169-145.843-120.144-138.053-119.981-130.262-119.94-119.723-119.884-109.185-119.896-98.646-119.86-90.848-119.833-83.067-119.472-75.359-118.212-72.67-117.773-69.938-117.407-67.451-116.146-67.188-116.12-66.907-116.145-66.664-116.061-58.518-113.226-51.921-108.423-47.432-100.927-44.069-95.312-42.024-89.189-40.438-82.891-37.809-72.453-36.524-61.805-35.72-51.098-35.288-45.35-34.965-39.589-34.791-33.829-34.425-21.67-34.629-9.524-36.213 2.56-36.895 7.758-38.016 12.86-39.879 17.78-42.841 25.605-47.714 31.833-55.086 35.951-56.631 36.814-58.229 37.596-59.847 38.313-64.156 40.224-68.67 41.52-73.247 42.598-84.057 45.143-95.034 46.551-106.088 47.431-109.799 47.727-113.508 48.056-117.225 48.26-120.317 48.429-123.419 48.436-126.517 48.514-127.558 48.636-128.597 48.846-129.64 48.868-143.055 49.15-156.471 49.218-169.886 48.889-173.234 48.807-176.578 48.543-179.923 48.364-182.042 48.26-184.162 48.141-186.282 48.055-195.139 47.698-203.965 46.983-212.764 45.891-219.275 45.083-225.733 43.992-232.117 42.488-237.909 41.122-243.545 39.299-248.798 36.419-254.381 33.358-258.769 29.112-261.903 23.553-264.5 18.946-266.069 13.979-267.172 8.845-268.836 1.104-269.488-6.767-269.739-14.651-270.214-29.552-269.878-44.438-268.377-59.289-267.646-66.529-266.622-73.714-265.03-80.812-263.689-86.792-261.904-92.633-259.13-98.132-255.079-106.164-248.833-111.766-240.518-115.136-235.627-117.119-230.521-118.152-225.314-118.738-221.882-119.124-218.437-119.477-214.988-119.598-209.679-119.786-204.361-119.761-199.048-119.828M-189.103 92.204C-188.232 92.319-187.364 92.506-186.491 92.539-166.37 93.28-146.241 93.49-126.115 92.953-115.66 92.674-105.208 92.111-94.77 91.441-83.357 90.708-71.976 89.579-60.672 87.791-51.04 86.266-41.476 84.411-32.147 81.498-27.996 80.201-23.973 78.593-20.05 76.711-8.362 71.105-.375 62.14 4.237 50.082 6.56 44.01 8.05 37.722 9.026 31.31 9.533 27.981 9.93 24.636 10.375 21.299 10.642 17.393 10.91 13.486 11.177 9.579 11.175 7.988 11.168 6.397 11.17 4.807 11.18-1.911 11.191-8.628 11.206-15.346 11.207-15.956 11.122-16.602 11.727-17.03V-17.019C11.302-19.859 10.908-22.7 11.229-25.583 11-30.661 10.774-35.738 10.54-40.816 10.516-41.34 10.431-41.862 10.4-42.386 10.306-44.045 10.224-45.706 10.137-47.366 9.987-48.824 9.838-50.283 9.688-51.741 9.322-54.905 8.948-58.068 8.594-61.233 8.356-63.342 8.147-65.455 7.926-67.566 7.806-67.797 7.608-68.019 7.579-68.261 7.32-70.34 7.093-72.423 6.855-74.506 6.136-76.229 6.309-78.117 5.868-79.891 4.818-84.295 3.769-88.701 2.72-93.106 1.328-97.78-.095-102.445-2.126-106.89-3.083-108.985-4.09-111.062-5.193-113.082-10.785-123.315-19.212-130.313-29.945-134.647-35.233-136.782-40.735-138.117-46.364-138.939-48.285-139.219-50.229-139.338-52.162-139.531-52.766-138.78-53.616-139.003-54.387-139-58.376-138.979-62.366-138.992-66.355-138.978-67.151-138.976-68.002-139.08-68.729-138.837-69.951-138.432-71.173-138.469-72.408-138.462-74.624-138.451-76.841-138.459-79.058-138.446-79.677-138.442-80.348-138.532-80.903-138.328-82.2-137.852-83.521-137.97-84.844-137.92-88.017-137.799-91.219-138.276-94.358-137.426-94.772-137.314-95.24-137.397-95.684-137.396-104.461-137.396-113.238-137.389-122.015-137.411-122.89-137.413-123.768-137.564-124.637-137.692-127.459-138.108-130.307-138.077-133.106-137.745-134.421-137.589-135.725-137.403-137.047-137.401-143.43-137.387-149.813-137.392-156.197-137.381-156.993-137.38-157.848-137.502-158.573-137.259-159.968-136.792-161.372-136.911-162.781-136.859-166.662-136.716-170.57-137.243-174.422-136.352-174.928-136.235-175.483-136.331-176.015-136.329-177.61-136.326-179.207-136.343-180.802-136.312-181.505-136.298-182.207-136.197-182.907-136.119-183.781-136.02-184.649-135.849-185.525-135.807-187.902-135.694-190.308-136.053-192.645-135.301-192.969-135.197-193.351-135.286-193.704-135.261-196.43-135.075-199.167-134.982-201.879-134.667-205.458-134.25-209.021-133.677-212.584-133.132-215.105-132.747-217.653-132.441-220.126-131.837-223.892-130.918-227.686-130.13-231.422-129.042-236.61-127.53-241.731-125.84-246.644-123.635-254.117-120.283-260.964-115.919-266.662-109.934-267.816-108.721-268.821-107.366-269.968-106.145-272.414-103.542-274.256-100.521-275.951-97.422-278.885-92.058-281.265-86.452-283.052-80.586-285.037-74.075-286.515-67.462-287.43-60.719-287.631-59.237-287.876-57.759-288.073-56.275-288.396-53.834-288.614-51.376-289.024-48.951-289.498-46.144-289.576-43.328-289.565-40.498-289.564-40.237-289.66-39.977-289.695-39.714-289.821-38.756-290.042-37.796-290.046-36.837-290.077-30.184-290.063-23.532-290.058-16.879-290.058-16.259-290.155-15.588-289.957-15.03-289.405-13.471-289.58-11.877-289.533-10.291-289.512-9.583-289.546-8.866-289.454-8.167-289.155-5.9-288.786-3.643-288.488-1.376-288.247 .458-288.191 2.324-287.839 4.134-286.764 9.677-285.486 15.176-283.797 20.568-281.653 27.415-279.127 34.083-275.546 40.358-272.013 46.549-267.619 52.043-262.844 57.264-261.541 58.689-259.959 59.86-258.496 61.137-256.898 62.529-255.395 64.061-253.664 65.262-249.598 68.083-245.486 70.845-241.121 73.199-236.206 75.849-231.116 78.154-225.928 80.173-220.666 82.221-215.235 83.841-209.857 85.584-207.845 86.236-205.786 86.758-203.726 87.244-200.726 87.95-197.708 88.585-194.691 89.221-192.538 89.675-190.38 90.119-188.212 90.5-185.637 90.952-183.049 91.332-180.466 91.744-181.228 92.052-181.978 92.092-182.729 92.105-184.854 92.144-186.978 92.172-189.103 92.204" fill="#453a54"/>
<path transform="matrix(1,0,0,-1,191.1709,117.41031)" d="M0 0C2.125-.032 4.249-.06 6.374-.099 7.125-.112 7.875-.152 8.637-.46 6.054-.872 3.466-1.252 .89-1.705-1.278-2.085-3.435-2.529-5.589-2.983-8.605-3.619-11.623-4.254-14.624-4.96-16.684-5.446-18.742-5.968-20.754-6.62-26.132-8.363-31.563-9.983-36.826-12.031-42.014-14.05-47.103-16.355-52.019-19.005-56.384-21.359-60.496-24.121-64.561-26.942-66.292-28.144-67.796-29.675-69.393-31.067-70.857-32.344-72.438-33.515-73.741-34.94-78.516-40.161-82.91-45.655-86.443-51.846-90.024-58.121-92.55-64.789-94.695-71.636-96.384-77.028-97.661-82.527-98.737-88.07-99.088-89.88-99.145-91.746-99.386-93.58-99.684-95.847-100.052-98.104-100.352-100.371-100.444-101.07-100.409-101.787-100.43-102.495-100.477-104.082-100.303-105.675-100.854-107.234-101.052-107.792-100.955-108.463-100.956-109.083-100.961-115.736-100.974-122.388-100.943-129.042-100.939-130-100.718-130.96-100.592-131.918-100.558-132.181-100.462-132.441-100.463-132.702-100.473-135.532-100.396-138.348-99.921-141.155-99.512-143.581-99.293-146.039-98.97-148.479-98.774-149.963-98.528-151.441-98.327-152.923-97.413-159.667-95.935-166.279-93.95-172.791-92.162-178.656-89.783-184.262-86.849-189.626-85.154-192.725-83.311-195.747-80.866-198.349-79.718-199.57-78.714-200.925-77.559-202.138-71.862-208.124-65.015-212.487-57.542-215.839-52.628-218.044-47.508-219.734-42.319-221.246-38.583-222.334-34.79-223.123-31.023-224.042-28.551-224.645-26.003-224.951-23.481-225.336-19.918-225.881-16.356-226.454-12.776-226.871-10.065-227.186-7.328-227.279-4.602-227.465-4.248-227.49-3.866-227.401-3.542-227.505-1.206-228.257 1.201-227.898 3.578-228.011 4.453-228.053 5.322-228.224 6.195-228.323 6.896-228.401 7.598-228.502 8.301-228.516 9.896-228.547 11.492-228.53 13.088-228.533 13.62-228.535 14.174-228.439 14.68-228.556 18.532-229.447 22.441-228.92 26.321-229.063 27.731-229.115 29.135-228.996 30.53-229.463 31.255-229.707 32.109-229.584 32.906-229.585 39.289-229.596 45.673-229.591 52.056-229.605 53.378-229.607 54.682-229.793 55.996-229.949 58.796-230.281 61.644-230.312 64.466-229.896 65.335-229.768 66.213-229.617 67.088-229.615 75.864-229.593 84.642-229.6 93.419-229.6 93.862-229.601 94.33-229.518 94.744-229.63 97.884-230.48 101.086-230.003 104.259-230.125 105.581-230.174 106.902-230.056 108.199-230.532 108.755-230.736 109.426-230.646 110.045-230.65 112.262-230.664 114.479-230.655 116.694-230.667 117.93-230.673 119.151-230.636 120.373-231.042 121.101-231.284 121.951-231.18 122.747-231.182 126.736-231.196 130.727-231.183 134.716-231.204 135.486-231.208 136.337-230.984 136.94-231.735 136.072-231.884 135.21-232.103 134.336-232.173 125.765-232.859 117.179-233.234 108.581-233.25 90.682-233.281 72.781-233.22 54.882-233.284 46.11-233.315 37.339-233.648 28.568-233.65 13.328-233.654-1.912-233.526-17.152-233.416-25.481-233.355-33.812-233.296-42.137-233.086-49.222-232.908-56.302-232.513-63.344-231.654-70.658-230.762-77.843-229.35-84.711-226.54-96.173-221.847-104.833-214.111-110.311-202.971-112.026-199.484-113.356-195.806-114.862-192.217-115.218-191.045-115.594-189.877-115.927-188.698-116.834-185.483-117.723-182.263-118.62-179.044-118.941-177.613-119.262-176.18-119.583-174.749-120.046-171.947-120.508-169.145-120.977-166.344-120.989-166.267-121.069-166.201-121.118-166.129-121.22-165.177-121.305-164.222-121.426-163.272-121.891-159.642-122.367-156.014-122.839-152.385-122.827-152.035-122.722-151.657-122.816-151.337-123.351-149.53-123.297-147.68-123.318-145.828-123.327-144.965-123.178-144.046-123.767-143.274-124.184-135.849-124.6-128.423-125.016-120.999-125.009-117.393-124.987-113.787-125.011-110.181-125.014-109.68-125.243-109.181-125.367-108.681-125.366-105.156-125.365-101.632-125.364-98.107-124.846-96.841-124.626-95.583-125.473-94.355L-125.472-94.367C-124.981-91.891-124.73-89.4-124.984-86.876-124.839-83.924-124.693-80.971-124.547-78.019-124.135-73.96-123.796-69.894-123.295-65.847-122.259-57.468-120.608-49.225-117.467-41.344-114.462-33.808-110.131-27.197-103.872-21.943-99.483-18.259-94.51-15.572-89.254-13.364-83.104-10.78-76.705-9.021-70.212-7.58-59.907-5.292-49.484-3.74-38.986-2.647-29.724-1.682-20.446-.979-11.146-.526-8.401-.393-5.66-.19-2.916-.043-1.946 .008-.972-.013 0 0" fill="#362d41"/>
<path transform="matrix(1,0,0,-1,422.874,208.5729)" d="M0 0C2.698-3.099 4.622-6.681 6.334-10.375 6.995-11.802 7.921-13.157 8.018-14.81 6.915-15.58 7.914-17.101 6.841-17.982 6.577-18.021 6.234-18.113 5.892-18.112 .059-18.092-5.774-18.064-11.606-18.024-12.132-18.021-12.663-17.954-13.181-17.857-15.813-17.363-18.482-17.477-21.099-17.727-22.858-17.896-24.606-18.009-26.367-18.035-27.869-18.056-29.372-18.053-30.874-18.06V-18.071C-30.884-11.613-30.9-5.154-30.893 1.304-30.892 2.069-31.134 2.908-30.446 3.588-30.215 3.639-29.963 3.733-29.706 3.747-25.372 3.97-21.039 3.719-16.772 3.076-11.905 2.342-7.021 1.598-2.275 .189-1.58-.017-.798-.478 0 0" fill="#1ea192"/>
<path transform="matrix(1,0,0,-1,65.8071,215.51779)" d="M0 0C-.001-3.524-.002-7.049-.003-10.573-.419-12.998 .275-15.498-.373-17.888-3.024-18.374-5.559-18.584-8.131-18.602-11.571-18.626-15.004-18.571-18.453-19.01-21.676-19.42-24.971-19.125-28.229-19.593-30.312-19.892-32.465-19.536-34.554-20.104-35.131-20.26-35.787-20.163-36.403-20.128-36.647-20.116-36.882-19.958-37.085-19.88-37.327-19.174-37.55-18.524-37.801-17.792-38.271-18.107-38.623-18.342-38.975-18.578-38.859-17.981-38.806-17.365-38.62-16.792-36.928-11.584-34.558-6.701-31.529-2.141-31.389-1.93-31.175-1.768-30.996-1.583-30.583-1.961-30.164-1.711-29.761-1.578-23.867 .357-17.786 1.492-11.701 2.593-9.967 2.907-8.201 3.106-6.441 3.195-4.321 3.301-2.194 3.264-.108 3.741-.108 3.741-.109 3.752-.108 3.752-.072 2.501-.036 1.25 0 0" fill="#1ea192"/>
<path transform="matrix(1,0,0,-1,387.1289,284.1198)" d="M0 0C.237 2.082 .465 4.165 .724 6.244 .753 6.486 .95 6.708 1.07 6.938 1.176 6.438 1.282 5.938 1.451 5.139 12.489 8.744 21.633 14.762 29.175 23.776 28.146 23.847 27.391 23.899 26.635 23.951 27.274 24.626 28.111 24.405 28.889 24.446 30.209 24.518 31.537 24.517 32.85 24.655 35.12 24.896 37.388 25.187 39.646 25.522 42.072 25.884 44.571 25.941 46.825 27.098 46.316 22.758 44.948 18.658 43.31 14.643 41.975 11.371 40.512 8.158 38.355 5.319 38.132 5.433 37.866 5.687 37.691 5.635 36.848 5.385 36.034 5.033 35.198 4.752 32.52 3.852 29.864 2.863 27.146 2.1 23.671 1.122 20.154 .321 16.562-.194 13.417-.646 10.305-1.229 7.108-1.129 5.516-1.078 3.919-1.119 2.323-1.112 1.881-1.11 1.437-1.095 .996-1.066 .338-1.023 .146-.53 0 0" fill="#188989"/>
<path transform="matrix(1,0,0,-1,70.0532,283.5397)" d="M0 0C.048-.071 .128-.138 .141-.215 .609-3.016 1.071-5.817 1.534-8.619-.98-9.294-3.553-9.093-6.112-9.16-7.72-9.202-9.28-8.732-10.838-8.703-14.047-8.645-17.156-7.953-20.26-7.392-24.329-6.655-28.352-5.58-32.274-4.202-32.933-3.972-33.617-3.808-34.302-3.678-34.377-3.663-34.534-4.076-34.652-4.291-35.591-2.919-36.601-1.589-37.454-.166-40.556 5.009-42.728 10.571-44.175 16.421-44.258 16.757-44.239 17.117-44.267 17.467-43.772 17.297-43.29 17.043-42.782 16.972-40.021 16.59-37.263 16.09-34.488 15.947-31.868 15.813-29.249 15.79-26.658 15.328-26.397 14.977-26.168 14.595-25.872 14.276-22.434 10.577-18.685 7.26-14.344 4.626-10.405 2.237-6.301 .223-1.957-1.299-1.485-1.465-.974-1.514-.346-1.645-.211-1.007-.106-.503 0 0" fill="#188989"/>
<path transform="matrix(1,0,0,-1,382.9932,302.7204)" d="M0 0C1.049 4.405 2.099 8.811 3.147 13.215 6.857 13.22 10.566 13.222 14.275 13.23 14.893 13.231 15.53 13.169 16.125 13.294 19.044 13.907 22.02 14.141 24.947 14.754 29.6 15.729 34.211 16.78 38.627 18.571 36.694 15.774 34.206 13.504 31.623 11.353 24.798 5.667 17.007 2.016 8.208 .683 5.5 .272 2.737 .218 0 0" fill="#188989"/>
<path transform="matrix(1,0,0,-1,72.5513,296.4548)" d="M0 0C.896-3.219 1.785-6.438 2.692-9.653 3.025-10.833 3.402-12.001 3.758-13.173 .865-12.894-2.05-12.761-4.916-12.312-13.581-10.954-21.159-7.179-27.863-1.593-29.82 .038-31.796 1.666-33.274 3.787-32.009 3.415-30.76 2.978-29.477 2.686-26.31 1.966-23.145 1.215-19.947 .662-17.01 .154-14.039-.32-11.068-.43-7.383-.567-3.662-.809 0 0" fill="#188989"/>
<path transform="matrix(1,0,0,-1,417.5283,152.9523)" d="M0 0C.005 1.774-.709 2.754-2.385 3.329-3.785 3.809-4.938 3.185-6.126 2.581-8.605 1.321-8.8-.993-8.421-2.781-8.195-3.845-7.346-4.631-6.285-4.929-3.176-5.802-.011-3.288 0 0M-13.808-1.295C-11.17 4.508-4.899 7.741 1.238 6.41 3.13 6 5.051 5.585 6.495 4.117 6.34 3.829 6.026 3.519 6.062 3.258 6.146 2.654 6.415 2.079 6.582 1.485 7.095-.339 6.997-2.155 6.632-4.002 6.164-6.362 4.581-7.958 2.83-9.266 .089-11.313-3.016-12.128-6.401-10.815-8.396-10.042-9.798-8.594-10.802-6.782-11.569-5.397-12.12-3.893-12.83-2.473-13.052-2.028-13.477-1.685-13.808-1.295" fill="#f3b730"/>
<path transform="matrix(1,0,0,-1,43.541,166.34049)" d="M0 0C.327 .145 .675 .247 .967 .437 3.304 1.966 3.669 4.426 1.914 6.54 .97 7.675-.324 8.226-1.628 8.771-1.782 8.834-1.985 8.853-2.147 8.815-3.632 8.468-5.004 8.015-5.679 6.4-6.301 4.912-5.979 3.636-5.076 2.441-4.314 1.432-3.332 .697-2.065 .418-1.382 .269-.694 .14 0 0M-12.338 8.889C-8.239 12.596 .013 12.89 4.98 8.381 6.147 7.32 7.382 6.281 7.881 4.681 7.348 4.37 7.387 3.813 7.237 3.309 6.559 1.02 5.807-1.256 4.118-3.037 .838-6.497 .772-5.944-2.782-6.022-7.24-6.121-10.011-3.721-11.913-.01-12.221 .591-12.368 1.333-12.386 2.016-12.439 4.037-12.611 6.084-11.772 8.02-11.528 8.583-11.809 8.821-12.338 8.889" fill="#f3b730"/>
<path transform="matrix(1,0,0,-1,433.0635,230.2233)" d="M0 0C.412-1.79 .914-3.564 1.219-5.373 2.323-11.946 2.263-18.538 1.346-25.129 1.312-25.377 1.141-25.606 1.033-25.845 .94-24.997 .848-24.148 .767-23.398 .419-23.255 .249-23.114 .103-23.135-1.878-23.411-3.847-23.827-5.836-23.974-8.189-24.146-10.483-24.885-12.87-24.674-10.477-20.77-8.518-16.658-6.932-12.36-5.594-8.733-4.578-5.022-3.838-1.232-3.042-1.226-2.244-1.189-1.449-1.22-.57-1.254-.157-.793 0 0" fill="#18898a"/>
<path transform="matrix(1,0,0,-1,25.165,263.0016)" d="M0 0C-.298 1.897-.735 3.784-.87 5.692-1.298 11.768-1.027 17.816 .163 23.804 .229 24.136 .421 24.443 .555 24.762 .661 24.091 .767 23.42 .863 22.805 2.149 22.875 3.275 22.936 4.401 22.996 4.423 22.644 4.387 22.275 4.477 21.94 5.34 18.699 6.119 15.441 7.48 12.345 9.442 7.883 11.535 3.508 14.471-.413 12.976-.354 11.474-.363 9.987-.22 7.46 .022 4.944 .376 2.42 .649 1.901 .706 1.352 .686 .843 .575 .535 .509 .279 .2 0 0" fill="#188989"/>
<path transform="matrix(1,0,0,-1,66.6235,195.4289)" d="M0 0C-.146-2.952-.292-5.905-.437-8.857-.687-9.848-.936-10.839-1.187-11.839-2.723-12.367-4.261-12.604-5.855-12.583-9.558-12.533-13.176-13.273-16.788-13.93-20.401-14.586-23.972-15.478-27.562-16.267-24.992-12.972-21.809-10.351-18.437-7.935-17.655-7.375-16.903-6.771-16.138-6.186-15.248-6.017-14.45-5.708-14.049-4.8-13.628-4.704-13.165-4.688-12.791-4.498-8.728-2.423-4.42-1.052 0 0" fill="#1ea192"/>
<path transform="matrix(1,0,0,-1,391.4502,200.0358)" d="M0 0C-.267 3.907-.535 7.814-.802 11.72 3.554 10.873 7.806 9.692 11.817 7.758 12.27 7.54 12.654 7.582 13.05 7.841 13.667 6.564 13.887 6.439 15.178 6.626 15.42 5.756 16.209 5.477 16.869 5.062 20.084 3.042 23.089 .753 25.773-1.941 26.142-2.311 26.447-2.742 26.781-3.144 24.364-2.757 21.937-2.429 19.535-1.972 14.966-1.103 10.372-.512 5.713-.515 4.57-.516 3.424-.561 2.287-.475 1.518-.416 .762-.165 0 0" fill="#1ea192"/>
<path transform="matrix(1,0,0,-1,31.2026,157.45182)" d="M0 0C.529-.068 .81-.305 .566-.869-.273-2.805-.101-4.852-.048-6.873-.03-7.555 .117-8.297 .426-8.899 2.328-12.609 5.098-15.009 9.556-14.911 13.111-14.833 13.176-15.386 16.457-11.926 18.145-10.145 18.897-7.869 19.576-5.58 19.725-5.076 19.687-4.519 20.219-4.208 22.128-7.207 22.867-10.396 21.781-13.879 21.769-13.259 21.769-12.638 21.74-12.019 21.711-11.395 21.861-10.738 21.527-9.979 20.725-11.785 20.034-13.396 19.297-14.985 18.247-17.247 16.612-18.873 14.219-19.736 11.053-20.878 7.868-21.272 4.637-20.116 1.432-18.969-1.156-16.993-2.612-13.87-3.5-11.966-4.22-9.953-4.374-7.799-4.396-7.491-4.687-7.201-4.853-6.903-4.12-3.979-2.538-1.653 0 0" fill="#f3a728"/>
<path transform="matrix(1,0,0,-1,403.7207,154.24732)" d="M0 0C.331-.39 .756-.733 .978-1.178 1.687-2.598 2.238-4.102 3.006-5.487 4.01-7.299 5.412-8.747 7.406-9.52 10.792-10.833 13.896-10.018 16.638-7.971 18.389-6.664 19.972-5.067 20.439-2.708 20.805-.86 20.902 .956 20.39 2.78 20.223 3.374 19.953 3.949 19.87 4.553 19.834 4.814 20.147 5.124 20.303 5.412 23.039 3.826 24.659 1.408 25.517-1.581 24.807-2.718 24.619-4 24.418-5.297 23.835-9.037 21.59-11.711 18.608-13.78 17.241-14.729 15.639-15.366 13.915-15.422 12.414-15.472 10.891-15.589 9.413-15.401 6.119-14.982 3.322-13.651 1.743-10.49 .887-8.774 .04-7.053-.975-5.003-1.058-6.271-1.117-7.191-1.177-8.112-2.046-5.225-1.356-2.564 0 0" fill="#f5a726"/>
<path transform="matrix(1,0,0,-1,420.1934,254.8972)" d="M0 0C2.387-.211 4.681 .527 7.034 .7 9.023 .847 10.992 1.263 12.973 1.539 13.119 1.56 13.289 1.419 13.637 1.275 13.718 .525 13.811-.323 13.903-1.171 13.855-1.489 13.808-1.808 13.761-2.125 11.507-3.281 9.008-3.339 6.582-3.7 4.323-4.036 2.056-4.326-.215-4.567-1.527-4.706-2.855-4.705-4.176-4.776-4.953-4.817-5.79-4.597-6.429-5.271-9.688-5.47-12.945-5.678-16.204-5.858-17.264-5.918-18.369-5.73-19.38-5.969-21.312-6.424-23.249-6.304-25.188-6.353-26.869-6.396-28.55-6.424-30.231-6.458-30.082-5-29.933-3.541-29.783-2.083-27.127-2.071-24.437-2.315-21.824-1.975-19.349-1.652-16.889-1.71-14.424-1.564-11.693-1.404-8.946-1.322-6.247-.931-4.754-.714-3.271-.591-1.776-.473-1.176-.425-.592-.164 0 0" fill="#057380"/>
<path transform="matrix(1,0,0,-1,433.0635,230.2233)" d="M0 0C-.157-.793-.57-1.254-1.449-1.22-2.244-1.189-3.042-1.226-3.838-1.232-3.838-1.231-3.837-1.231-3.837-1.231-4.212-1.054-4.577-.754-4.965-.722-5.829-.65-6.704-.714-7.575-.722-17.76-.7-27.943-.67-38.128-.673-39.063-.673-40.082-.377-41.024-1.182-41.058-1.906-41.052-2.702-41.146-3.485-41.207-3.99-41.418-4.479-41.562-4.974-41.882-2.091-41.488 .75-41.063 3.59-39.562 3.598-38.059 3.594-36.557 3.616-34.796 3.641-33.048 3.755-31.288 3.923-28.672 4.174-26.002 4.287-23.37 3.793-22.853 3.696-22.321 3.63-21.796 3.626-15.964 3.586-10.131 3.559-4.298 3.538-3.955 3.537-3.612 3.63-3.349 3.668-2.275 4.549-3.274 6.07-2.172 6.841-2.172 6.841-2.185 6.821-2.185 6.821-2.292 6.334-2.195 5.93-1.726 5.676L-1.727 5.682C-1.779 4.685-1.862 3.677-.791 3.085Z" fill="#057380"/>
<path transform="matrix(1,0,0,-1,25.165,263.0016)" d="M0 0C.279 .2 .535 .509 .843 .575 1.352 .686 1.901 .706 2.42 .649 4.944 .376 7.46 .022 9.987-.22 11.474-.363 12.976-.354 14.471-.413 15.604-.571 16.733-.824 17.871-.87 21.749-1.027 25.626-1.02 29.507-1.356 32.931-1.653 36.401-1.429 39.851-1.408 40.534-1.404 41.216-1.283 42.026-1.204 42.103 .06 42.17 1.188 42.239 2.317 42.828 1.545 42.679 .626 42.688-.236 42.708-2.089 42.655-3.938 43.19-5.746 43.284-6.065 43.179-6.443 43.167-6.795 42.635-6.027 41.973-5.646 40.969-5.659 36.907-5.714 32.844-5.685 28.782-5.683 28.075-5.682 27.34-5.79 26.667-5.635 23.874-4.99 21.046-5.268 18.23-5.21 15.64-4.748 13.02-4.726 10.4-4.591 7.625-4.448 4.867-3.948 2.106-3.566 1.598-3.495 1.116-3.241 .622-3.071 .415-2.048 .208-1.023 0 0" fill="#057380"/>
<path transform="matrix(1,0,0,-1,29.5664,240.0056)" d="M0 0C-1.126-.061-2.252-.121-3.538-.191-3.635 .424-3.74 1.095-3.846 1.766-3.635 2.616-3.425 3.467-3.214 4.317-2.565 4.707-2.627 5.313-2.721 5.931L-2.734 5.91C-2.382 6.146-2.031 6.381-1.561 6.695-1.31 5.964-1.086 5.313-.845 4.607-.641 4.53-.406 4.372-.163 4.359 .454 4.325 1.109 4.228 1.687 4.384 3.775 4.952 5.929 4.596 8.012 4.895 11.27 5.362 14.564 5.067 17.788 5.478 21.237 5.917 24.67 5.861 28.109 5.886 30.682 5.903 33.216 6.114 35.868 6.6 36.516 8.99 35.821 11.49 36.237 13.915 36.361 13.415 36.59 12.916 36.594 12.415 36.618 8.809 36.596 5.202 36.588 1.597 35.895 2.094 35.139 2.186 34.315 1.995 33.717 1.856 33.106 1.706 32.498 1.69 27.644 1.57 22.789 1.749 17.941 1.174 15.149 .842 12.316 .975 9.493 .718 6.341 .432 3.165 .244 0 0" fill="#057380"/>
<path transform="matrix(1,0,0,-1,421.6201,284.1491)" d="M0 0C-4.416-1.791-9.027-2.842-13.68-3.817-16.607-4.431-19.583-4.664-22.502-5.277-23.097-5.402-23.734-5.34-24.352-5.341-28.061-5.35-31.77-5.352-35.479-5.356-35.038-3.582-35.211-1.694-34.491 .028-34.345-.501-34.153-.994-33.495-1.037-33.054-1.065-32.61-1.081-32.168-1.083-30.572-1.09-28.976-1.049-27.383-1.1-24.187-1.199-21.074-.617-17.93-.165-14.337 .351-10.82 1.151-7.345 2.129-4.627 2.893-1.972 3.881 .707 4.781 1.543 5.062 2.356 5.414 3.2 5.664 3.375 5.716 3.641 5.462 3.864 5.349 2.859 3.36 1.534 1.604 0 0" fill="#097180"/>
<path transform="matrix(1,0,0,-1,72.5513,296.4548)" d="M0 0C-3.662-.809-7.383-.567-11.068-.43-14.039-.32-17.01 .154-19.947 .662-23.145 1.215-26.31 1.966-29.477 2.686-30.76 2.978-32.009 3.415-33.274 3.787-34.783 5.226-36.114 6.806-37.15 8.624-37.032 8.839-36.875 9.252-36.8 9.237-36.115 9.107-35.431 8.943-34.772 8.713-30.85 7.335-26.827 6.26-22.758 5.523-19.654 4.962-16.545 4.271-13.336 4.212-11.778 4.183-10.218 3.713-8.61 3.755-6.051 3.822-3.479 3.621-.964 4.296-.643 2.864-.321 1.432 0 0" fill="#097180"/>
<path transform="matrix(1,0,0,-1,391.4502,200.0358)" d="M0 0C.762-.165 1.518-.416 2.287-.475 3.424-.561 4.57-.516 5.713-.515 10.372-.512 14.966-1.103 19.535-1.972 21.937-2.429 24.364-2.757 26.781-3.144 28.609-4.7 30.167-6.488 31.423-8.537 30.626-9.015 29.844-8.554 29.148-8.348 24.402-6.939 19.519-6.195 14.651-5.461 10.385-4.818 6.052-4.567 1.718-4.791 1.461-4.804 1.209-4.898 .978-4.949 .29-5.629 .532-6.468 .531-7.233 .523-13.691 .54-20.15 .55-26.608-.055-26.181 .03-25.535 .029-24.924 .015-18.207 .003-11.489-.007-4.772-.009-3.181-.002-1.591 0 0" fill="#057380"/>
<path transform="matrix(1,0,0,-1,402.5439,162.35959)" d="M0 0C.06 .921 .119 1.842 .202 3.109 1.217 1.06 2.063-.662 2.92-2.378 4.499-5.539 7.296-6.87 10.59-7.289 12.067-7.477 13.591-7.359 15.092-7.31 16.815-7.254 18.418-6.617 19.785-5.668 22.767-3.599 25.012-.924 25.595 2.815 25.796 4.113 25.983 5.394 26.693 6.532 29.231 .819 26.332-8.12 18.247-11.003 16.729-11.544 15.167-11.752 13.568-11.738 12.687-11.729 11.806-11.69 10.925-11.666 10.149-11.454 9.374-11.244 8.599-11.032 7.845-10.599 7.063-10.207 6.341-9.726 2.839-7.396 .43-4.341 0 0" fill="#f2901d"/>
<path transform="matrix(1,0,0,-1,39.0615,211.6955)" d="M0 0C3.59 .789 7.161 1.681 10.774 2.337 14.386 2.993 18.004 3.734 21.707 3.684 23.301 3.662 24.839 3.899 26.375 4.428 26.626 5.428 26.875 6.418 27.125 7.409 27.379 4.885 27.128 2.394 26.638-.082 24.551-.558 22.425-.521 20.305-.627 18.545-.716 16.778-.916 15.045-1.229 8.96-2.331 2.879-3.465-3.015-5.4-3.418-5.533-3.838-5.784-4.25-5.405-3.096-3.397-1.726-1.559 0 0" fill="#057380"/>
<path transform="matrix(1,0,0,-1,26.3501,164.3547)" d="M0 0C.166-.298 .456-.588 .479-.896 .633-3.05 1.353-5.063 2.241-6.967 3.696-10.09 6.284-12.066 9.489-13.213 12.721-14.369 15.905-13.976 19.071-12.833 21.465-11.97 23.1-10.344 24.149-8.083 24.887-6.493 25.577-4.882 26.38-3.076 26.713-3.835 26.564-4.492 26.593-5.116 26.621-5.735 26.621-6.356 26.633-6.977 26.148-10.707 24.05-13.412 21.128-15.571 20.356-16.141 19.5-16.599 18.682-17.108 17.917-17.375 17.151-17.641 16.386-17.907 14.004-18.136 11.646-18.252 9.287-17.579 1.989-15.496-2.665-7.498 0 0" fill="#f2901d"/>
<path transform="matrix(1,0,0,-1,411.1426,173.39179)" d="M0 0C.775-.211 1.551-.422 2.326-.633 2.057-1.662 1.838-2.708 1.507-3.716 .517-6.736-.915-7.488-3.947-6.614-5.035-6.301-6.108-5.941-7.576-5.481-7.258-6.104-7.177-6.42-6.979-6.625-5.993-7.644-5.053-8.726-3.956-9.612-2.088-11.122-1.718-12.88-2.617-15.046-3.296-16.682-3.884-18.356-4.514-20.016-5.806-20.205-6.025-20.08-6.643-18.803-6.084-17.319-5.531-15.832-4.963-14.351-4.503-13.153-4.68-12.229-5.727-11.315-7.113-10.103-8.338-8.699-9.574-7.324-10.036-6.81-10.411-6.181-10.692-5.544-11.441-3.844-10.472-2.527-8.59-2.708-7.811-2.782-7.041-3.028-6.285-3.256-5.358-3.537-4.461-3.92-3.531-4.187-1.686-4.717-1.302-4.487-.7-2.55-.438-1.709-.232-.851 0 0" fill="#483f57"/>
<path transform="matrix(1,0,0,-1,42.7358,182.2619)" d="M0 0C.766 .267 1.531 .533 2.296 .799 2.941-.619 2.956-2.318 4.089-3.464 5.117-3.693 5.916-3.299 6.735-2.984 7.804-2.574 8.875-2.163 9.962-1.804 10.459-1.64 10.997-1.526 11.518-1.517 12.805-1.496 13.709-2.565 13.376-3.808 13.177-4.555 12.825-5.323 12.343-5.919 11.069-7.492 9.742-9.032 8.325-10.476 7.521-11.296 7.344-12.077 7.779-13.088 8.477-14.708 9.152-16.338 9.837-17.966 9.438-18.875 8.64-19.184 7.75-19.353 6.911-17.305 6.069-15.258 5.234-13.208 4.629-11.722 4.976-10.431 6.071-9.311 6.628-8.741 7.232-8.213 7.764-7.621 8.586-6.705 9.365-5.749 10.508-4.403 9.512-4.68 9.026-4.792 8.558-4.952 7.636-5.266 6.742-5.678 5.804-5.925 3.603-6.505 2.205-5.858 1.292-3.767 .763-2.554 .425-1.258 0 0" fill="#483e57"/>
<path transform="matrix(1,0,0,-1,432.2725,227.1384)" d="M0 0C-1.071 .592-.988 1.6-.936 2.597-.319 1.841-.101 .942 0 0" fill="#1ea192"/>
<path transform="matrix(1,0,0,-1,26.8457,234.0749)" d="M0 0C.094-.617 .155-1.224-.494-1.613-.545-1.009-.522-.428 0 0" fill="#1ea192"/>
<path transform="matrix(1,0,0,-1,431.3379,224.5471)" d="M0 0C-.47 .254-.566 .658-.459 1.145-.003 .885 .057 .466 0 0" fill="#1ea192"/>
<path transform="matrix(1,0,0,-1,329.165,214.4172)" d="M0 0C-1.338 .141-2.524-.29-3.597-1.195-5.405-2.722-5.78-5.11-4.981-7.486-4.653-8.459-4.283-9.521-3.254-10.061-2.318-10.553-1.399-11.121-.405-11.449 1.785-12.171 4.472-11.702 5.716-8.833 6.622-6.743 6.343-4.835 5.218-3.066 4.053-1.233 2.506 .217 0 0M-27.362 39.988C-28.986 40.204-31.015 39.465-33.104 38.614-36.447 37.251-36.457 31.393-33.724 29.934-32.013 29.02-30.31 28.09-28.585 27.2-27.568 26.675-26.34 26.413-25.521 25.681-23.813 24.155-22.121 22.539-20.778 20.7-18.855 18.068-17.262 15.196-15.506 12.44-14.369 10.657-13.304 8.813-12.013 7.146-10.04 4.599-7.599 2.794-4.108 3.185-3.933 3.204-3.754 3.195-3.577 3.188-1.61 3.107-.146 4.135 .877 5.61 2.382 7.781 3.017 10.296 2.597 12.933 2.349 14.49 1.909 16.049 1.324 17.515-.194 21.326-2.474 24.704-5.171 27.76-8.105 31.085-11.47 33.965-15.27 36.272-18.774 38.399-22.478 40.021-27.362 39.988M-75.408 53.317C-72.311 53.238-69.209 53.231-66.116 53.063-62.399 52.859-58.69 52.529-54.979 52.234-43.926 51.354-32.948 49.946-22.139 47.4-17.562 46.322-13.048 45.027-8.738 43.116-7.12 42.399-5.522 41.617-3.978 40.754 3.395 36.636 8.268 30.408 11.229 22.583 13.093 17.663 14.214 12.561 14.896 7.363 16.479-4.721 16.684-16.868 16.317-29.026 16.144-34.787 15.82-40.547 15.389-46.295 14.584-57.002 13.3-67.65 10.671-78.088 9.084-84.386 7.039-90.509 3.677-96.125-.812-103.621-7.409-108.423-15.556-111.258-15.799-111.342-16.08-111.317-16.343-111.343-18.203-111.364-20.093-111.189-21.91-111.474-23.142-111.667-24.353-111.807-25.588-111.816-27.45-111.83-29.312-111.805-31.175-111.831-31.879-111.84-32.582-111.935-33.284-112.006-34.333-112.114-35.381-112.332-36.431-112.334-44.944-112.362-53.459-112.37-61.973-112.338-64.352-112.331-66.755-112.625-69.098-111.87-69.582-111.713-70.155-111.825-70.687-111.824-72.549-111.82-74.412-111.826-76.274-111.815-76.894-111.811-77.565-111.912-78.122-111.711-79.593-111.185-81.097-111.364-82.593-111.277-85.321-111.118-88.085-111.11-90.756-110.617-92.338-110.324-93.922-110.375-95.481-110.077-97.295-109.729-99.121-109.451-100.945-109.166-103.813-108.717-106.692-108.334-109.552-107.838-111.632-107.477-113.67-106.838-115.759-106.569-120.229-105.993-124.578-104.869-128.957-103.876-132.051-103.175-135.151-102.479-138.206-101.629-143.048-100.283-147.905-98.959-152.658-97.338-155.911-96.23-159.097-94.877-162.167-93.274-167.49-90.493-172.154-86.98-175.808-82.134-178.284-78.85-180.215-75.28-181.85-71.549-184.095-66.426-185.174-60.958-186.316-55.509-186.665-53.846-186.591-52.151-186.959-50.533-187.24-49.297-187.363-48.089-187.324-46.855-187.122-40.4-187.835-33.923-186.815-27.487-186.513-25.574-186.481-23.615-186.122-21.716-185.547-18.686-184.849-15.678-184.12-12.682-182.652-6.651-180.768-.768-177.794 4.719-177.415 5.42-177.072 6.142-176.722 6.859-174.449 11.518-171.226 15.498-167.763 19.289-166.334 20.854-164.71 22.217-163.065 23.575-159.297 26.687-155.257 29.375-151 31.719-147.986 33.378-145.05 35.192-141.785 36.408-138.061 37.793-134.495 39.617-130.75 40.94-124.087 43.294-117.39 45.572-110.499 47.204-106.467 48.159-102.45 49.193-98.392 50.021-94.167 50.883-89.944 51.764-85.656 52.317-82.688 52.701-79.749 53.302-76.736 53.259-76.294 53.252-75.851 53.296-75.408 53.317" fill="#f3b730"/>
<path transform="matrix(1,0,0,-1,253.7568,161.10031)" d="M0 0C-.442-.021-.886-.064-1.328-.058-4.341-.015-7.279-.616-10.248-1-14.536-1.553-18.759-2.434-22.983-3.296-27.042-4.124-31.059-5.158-35.09-6.113-41.981-7.745-48.679-10.022-55.342-12.377-59.087-13.7-62.652-15.523-66.377-16.909-69.642-18.125-72.578-19.939-75.591-21.598-79.849-23.941-83.889-26.63-87.657-29.742-89.302-31.1-90.926-32.463-92.354-34.028-95.818-37.819-99.041-41.799-101.313-46.458-101.664-47.175-102.006-47.897-102.386-48.598-105.359-54.084-107.244-59.968-108.711-65.999-109.441-68.995-110.139-72.003-110.714-75.033-111.073-76.932-111.104-78.891-111.407-80.804-112.427-87.24-111.714-93.717-111.916-100.172-111.955-101.406-111.832-102.614-111.551-103.85-111.183-105.468-111.256-107.163-110.908-108.826-109.766-114.275-108.687-119.743-106.441-124.866-104.807-128.597-102.876-132.167-100.399-135.451-96.746-140.297-92.082-143.81-86.759-146.591-83.688-148.194-80.502-149.547-77.25-150.655-72.497-152.276-67.64-153.6-62.798-154.946-59.743-155.796-56.643-156.492-53.548-157.193-49.169-158.186-44.82-159.31-40.351-159.886-38.262-160.155-36.224-160.794-34.144-161.155-31.284-161.651-28.405-162.034-25.537-162.482-23.713-162.768-21.887-163.046-20.073-163.394-18.514-163.692-16.93-163.641-15.348-163.934-12.677-164.427-9.913-164.435-7.185-164.594-5.688-164.681-4.185-164.502-2.714-165.028-2.157-165.229-1.485-165.128-.866-165.132 .996-165.143 2.859-165.137 4.722-165.141 5.253-165.142 5.826-165.03 6.311-165.187 8.653-165.941 11.057-165.647 13.436-165.655 21.949-165.687 30.464-165.679 38.978-165.651 40.027-165.648 41.075-165.431 42.124-165.323 42.826-165.252 43.529-165.157 44.233-165.147 46.096-165.122 47.958-165.146 49.82-165.133 51.056-165.124 52.267-164.984 53.498-164.791 55.315-164.506 57.205-164.681 59.065-164.66 56.579-165.921 53.847-166.287 51.157-166.727 43.449-167.986 35.669-168.347 27.87-168.374 17.332-168.41 6.794-168.398-3.745-168.454-11.536-168.495-19.326-168.658-27.117-168.684-38.541-168.72-49.965-168.707-61.388-168.659-65.103-168.645-68.817-168.452-72.531-168.342-73.204-167.493-74.185-167.928-75.017-167.745-80.103-166.629-85.174-165.437-90.112-163.775-94.392-162.334-98.564-160.589-102.508-158.371-105.75-156.548-108.755-154.354-111.534-151.889-112.712-150.844-113.619-149.497-114.667-148.303-117.674-144.875-119.982-140.994-121.766-136.831-124.384-130.718-126.055-124.303-127.331-117.786-127.889-114.936-128.405-112.075-128.849-109.204-129.145-107.29-129.331-105.354-129.469-103.421-129.575-101.926-129.386-100.415-129.922-98.949-130.096-98.474-130.012-97.896-130.013-97.364-130.021-92.572-130.085-87.779-130.004-82.988-129.924-78.216-130.176-73.452-129.583-68.666-129.152-65.181-128.965-61.655-128.476-58.158-127.914-54.138-127.215-50.144-126.248-46.21-124.873-40.619-123.099-35.157-120.059-30.198-118.67-27.932-117.27-25.682-115.261-23.878-114.206-22.932-113.216-21.907-112.247-20.871-110.29-18.778-107.846-17.33-105.495-15.773-102.759-13.961-99.737-12.693-96.763-11.315-90.795-8.55-84.557-6.606-78.236-4.944-70.308-2.86-62.267-1.291-54.087-.53-53.85-.508-53.633-.282-53.407-.15-50.061 .029-46.717 .292-43.369 .375-29.955 .704-16.538 .636-3.123 .354-2.08 .332-1.041 .122 0 0" fill="#f3a728"/>
<path transform="matrix(1,0,0,-1,200.3501,161.2507)" d="M0 0C-.226-.131-.443-.358-.68-.38-8.86-1.141-16.901-2.71-24.83-4.794-31.15-6.456-37.389-8.399-43.356-11.165-46.331-12.543-49.352-13.811-52.088-15.623-54.439-17.179-56.883-18.627-58.84-20.721-59.809-21.757-60.799-22.781-61.854-23.728-63.863-25.531-65.264-27.781-66.652-30.047-69.692-35.006-71.466-40.469-72.841-46.06-73.808-49.994-74.507-53.987-75.069-58.008-75.558-61.504-75.746-65.03-76.177-68.516-76.769-73.302-76.517-78.065-76.598-82.838-76.679-87.629-76.614-92.422-76.606-97.214-76.605-97.745-76.689-98.323-76.516-98.799-75.979-100.265-76.168-101.775-76.062-103.271-75.924-105.204-75.738-107.14-75.442-109.054-74.998-111.925-74.482-114.785-73.924-117.636-72.648-124.152-70.978-130.567-68.359-136.681-66.575-140.844-64.267-144.725-61.26-148.152-60.212-149.347-59.305-150.693-58.127-151.738-55.348-154.203-52.343-156.397-49.102-158.221-45.158-160.438-40.985-162.184-36.705-163.625-31.768-165.287-26.696-166.479-21.61-167.595-20.778-167.777-19.797-167.343-19.125-168.191-24.438-168.125-29.755-168.149-35.065-167.962-38.513-167.841-41.959-167.487-45.391-167.102-50.597-166.516-55.704-165.482-60.595-163.5-68.91-160.13-75.156-154.527-79.207-146.496-81.981-140.997-83.766-135.156-85.107-129.176-86.698-122.078-87.723-114.893-88.454-107.652-89.955-92.802-90.291-77.916-89.815-63.015-89.564-55.13-88.913-47.26-87.249-39.519-86.146-34.385-84.577-29.418-81.979-24.811-78.846-19.252-74.458-15.005-68.875-11.944-63.622-9.064-57.985-7.242-52.193-5.876-45.81-4.372-39.352-3.281-32.84-2.473-24.042-1.38-15.216-.666-6.358-.309-4.238-.223-2.119-.104 0 0" fill="#f28f1b"/>
<path transform="matrix(1,0,0,-1,376.209,179.98111)" d="M0 0C-.195-1.482-.381-2.965-.59-4.445-.916-6.75-2.161-8.513-3.781-10.119-5.454-11.775-7.431-12.471-9.729-12.644-12.824-12.876-15.417-11.734-17.889-10.054-20.198-8.485-21.957-6.386-23.559-4.165-25.628-1.297-27.531 1.691-29.568 4.583-31.809 7.762-33.944 11.033-36.854 13.678-42.188 18.528-47.924 22.727-54.706 25.414-57.315 26.448-59.888 27.635-62.248 29.268-64.276 30.671-65.184 32.669-65.451 34.839-65.648 36.436-65.098 38.17-63.882 39.487-62.539 40.941-60.971 42.069-59.105 42.752-54.611 44.398-50.053 44.695-45.289 43.999-40.422 43.288-35.795 41.904-31.369 39.897-28.317 38.514-25.452 36.714-22.739 34.708-19.171 32.067-15.858 29.136-12.866 25.863-8.48 21.066-4.785 15.787-2.133 9.827-.729 6.674-.173 3.63 0 0" fill="#706779"/>
<path transform="matrix(1,0,0,-1,391.502,235.197)" d="M0 0C.144 .495 .354 .983 .415 1.488 .51 2.271 .504 3.067 .537 3.792 1.479 4.597 2.498 4.301 3.434 4.301 13.618 4.304 23.802 4.273 33.986 4.252 34.456 4.088 34.915 3.833 35.396 3.78 36.165 3.696 36.948 3.748 37.725 3.742 37.725 3.742 37.724 3.742 37.724 3.741 36.983-.049 35.968-3.76 34.63-7.387 33.044-11.685 31.085-15.796 28.691-19.7 28.1-19.864 27.516-20.125 26.915-20.173 25.42-20.291 23.937-20.414 22.444-20.631 19.745-21.022 16.998-21.104 14.268-21.265 11.803-21.41 9.343-21.353 6.867-21.675 4.254-22.016 1.564-21.771-1.092-21.783-1.005-20.123-.923-18.463-.828-16.804-.798-16.279-.713-15.758-.688-15.233-.454-10.155-.229-5.078 0 0" fill="#1ea192"/>
<path transform="matrix(1,0,0,-1,389.9619,261.3552)" d="M0 0C1.682 .034 3.362 .062 5.043 .105 6.982 .154 8.92 .034 10.852 .489 11.862 .728 12.968 .54 14.027 .6 17.286 .78 20.544 .988 23.803 1.187 24.558 1.135 25.312 1.082 26.342 1.012 18.8-8.003 9.656-14.021-1.382-17.626-1.551-16.826-1.657-16.326-1.763-15.826-1.541-13.714-1.332-11.602-1.095-9.492-.74-6.327-.366-3.164 0 0" fill="#1ea192"/>
<path transform="matrix(1,0,0,-1,380.2734,209.6144)" d="M0 0C-.033-4.198-2.435-7.539-6.06-8.666-9.376-9.697-13.01-8.389-14.841-5.441-15.874-3.778-16.699-1.976-16.892-.023-17.136 2.439-16.359 4.699-14.866 6.664-13.503 8.458-11.586 9.488-9.391 9.503-6.318 9.525-3.658 8.254-1.876 5.709-.665 3.98 .346 2.05 0 0" fill="#706779"/>
<path transform="matrix(1,0,0,-1,29.5664,240.0056)" d="M0 0C3.165 .244 6.341 .432 9.493 .718 12.316 .975 15.149 .842 17.941 1.174 22.789 1.749 27.644 1.57 32.498 1.69 33.106 1.706 33.717 1.856 34.315 1.995 35.139 2.186 35.895 2.094 36.588 1.597 37.004-5.828 37.421-13.254 37.837-20.679 37.769-21.808 37.701-22.937 37.625-24.2 36.815-24.279 36.132-24.4 35.449-24.404 32-24.425 28.529-24.649 25.105-24.353 21.225-24.016 17.348-24.023 13.47-23.866 12.332-23.82 11.203-23.567 10.07-23.409 7.134-19.488 5.041-15.113 3.079-10.651 1.718-7.555 .938-4.297 .075-1.056-.014-.721 .022-.353 0 0" fill="#1ea192"/>
<path transform="matrix(1,0,0,-1,43.3955,268.2116)" d="M0 0C2.815-.058 5.644 .22 8.437-.425 9.11-.58 9.845-.472 10.551-.473 14.614-.475 18.677-.504 22.738-.449 23.743-.436 24.404-.817 24.937-1.585 25.408-5.213 25.885-8.841 26.35-12.471 26.471-13.421 26.556-14.376 26.658-15.328 26.552-15.831 26.446-16.335 26.312-16.973 25.684-16.842 25.172-16.793 24.701-16.627 20.357-15.105 16.252-13.091 12.314-10.702 7.973-8.068 4.224-4.751 .786-1.052 .49-.733 .261-.352 0 0" fill="#1ea192"/>
<path transform="matrix(1,0,0,-1,65.8071,215.51779)" d="M0 0C-.036 1.25-.072 2.501-.108 3.752 .737 2.525 .518 1.267 0 0" fill="#057380"/>
<path transform="matrix(1,0,0,-1,417.5283,152.9523)" d="M0 0C-.011-3.288-3.176-5.802-6.285-4.929-7.346-4.631-8.195-3.845-8.421-2.781-8.8-.993-8.605 1.321-6.126 2.581-4.938 3.185-3.785 3.809-2.385 3.329-.709 2.754 .005 1.774 0 0" fill="#f2d24a"/>
<path transform="matrix(1,0,0,-1,43.541,166.34049)" d="M0 0C-.694 .14-1.382 .269-2.065 .418-3.332 .697-4.314 1.432-5.076 2.441-5.979 3.636-6.301 4.912-5.679 6.4-5.004 8.015-3.632 8.468-2.147 8.815-1.985 8.853-1.782 8.834-1.628 8.771-.324 8.226 .97 7.675 1.914 6.54 3.669 4.426 3.304 1.966 .967 .437 .675 .247 .327 .145 0 0" fill="#f2d248"/>
<path transform="matrix(1,0,0,-1,429.2266,231.4548)" d="M0 0C-.776 .006-1.56-.046-2.328 .038-2.81 .091-3.269 .346-3.738 .51-2.867 .518-1.992 .581-1.128 .51-.74 .478-.375 .178 0 0" fill="#18898a"/>
<path transform="matrix(1,0,0,-1,301.8027,174.42942)" d="M0 0C4.885 .033 8.588-1.589 12.093-3.716 15.893-6.022 19.257-8.902 22.191-12.228 24.889-15.284 27.168-18.662 28.687-22.473 29.271-23.939 29.711-25.498 29.959-27.055 30.379-29.691 29.744-32.207 28.239-34.378 27.217-35.853 25.752-36.881 23.785-36.8 23.608-36.793 23.43-36.784 23.254-36.803 19.764-37.193 17.322-35.389 15.35-32.842 14.059-31.175 12.993-29.331 11.856-27.547 10.101-24.792 8.507-21.92 6.584-19.288 5.241-17.449 3.549-15.833 1.842-14.307 1.022-13.575-.206-13.313-1.223-12.788-2.947-11.897-4.65-10.968-6.361-10.054-9.095-8.595-9.085-2.736-5.741-1.374-3.652-.522-1.624 .216 0 0" fill="#f1d14a"/>
<path transform="matrix(1,0,0,-1,329.165,214.4172)" d="M0 0C2.506 .217 4.053-1.233 5.218-3.066 6.343-4.835 6.622-6.743 5.716-8.833 4.472-11.702 1.785-12.171-.405-11.449-1.399-11.121-2.318-10.553-3.254-10.061-4.283-9.521-4.653-8.459-4.981-7.486-5.78-5.11-5.405-2.722-3.597-1.195-2.524-.29-1.338 .141 0 0" fill="#f2d24a"/>
<path transform="matrix(1,0,0,-1,266.2969,183.07831)" d="M0 0C1.444 1.092 3.062 1.342 4.752 .808 6.095 .383 7.454-.076 8.69-.735 15.875-4.57 23.354-7.78 30.712-11.248 32.629-12.15 34.531-13.116 36.327-14.236 40.774-17.008 42.316-20.761 41.327-26.013 40.418-25.934 39.615-26.261 38.77-26.554 36.941-27.187 35.027-27.852 33.098-27.53 30.764-27.14 28.411-26.822 26.117-26.12 21.439-24.689 17.056-22.618 12.719-20.41 10.666-19.365 8.743-18.158 6.878-16.784 2.165-13.313-.081-8.72-.014-2.923-.002-1.949-.004-.974 0 0" fill="#20a292"/>
<path transform="matrix(1,0,0,-1,266.2969,183.07831)" d="M0 0C-.004-.974-.002-1.949-.014-2.923-.081-8.72 2.165-13.313 6.878-16.784 8.743-18.158 10.666-19.365 12.719-20.41 17.056-22.618 21.439-24.689 26.117-26.12 28.411-26.822 30.764-27.14 33.098-27.53 35.027-27.852 36.941-27.187 38.77-26.554 39.615-26.261 40.418-25.934 41.328-26.013 41.162-26.695 41.067-27.404 40.819-28.056 39.079-32.636 35.399-34.995 30.483-34.722 27.453-34.554 24.542-33.794 21.701-32.801 14.997-30.458 8.649-27.353 2.614-23.617 .653-22.403-1.179-21.012-2.716-19.27-5.352-16.282-6.286-12.832-5.534-8.922-5.059-6.453-4.132-4.175-2.587-2.178-1.887-1.273-1.174-.355 0 0" fill="#218b8b"/>
<path transform="matrix(1,0,0,-1,148.0669,205.3351)" d="M0 0C.418 2.13 1.8 3.633 3.395 4.917 4.839 6.081 6.381 7.14 7.962 8.114 12.864 11.134 17.818 14.072 22.727 17.082 24.841 18.378 26.887 19.786 28.979 21.118 30.099 21.832 31.208 22.583 32.399 23.16 35.344 24.587 38.101 24.199 40.494 21.95 42.25 20.3 43.734 18.436 44.247 15.983 43.512 15.702 43.28 15.007 42.899 14.412 41.851 12.776 40.929 11.009 39.628 9.596 37.174 6.932 34.675 4.287 31.72 2.13 29.146 .252 26.554-1.595 23.723-3.065 20.021-4.988 16.171-6.441 12.013-7.161 8.871-7.704 6.221-7.169 4.041-4.845 3.018-3.754 2.157-2.513 1.208-1.352 .826-.884 .404-.45 0 0" fill="#1ea192"/>
<path transform="matrix(1,0,0,-1,148.0669,205.3351)" d="M0 0C.404-.45 .826-.884 1.208-1.352 2.157-2.513 3.018-3.754 4.041-4.845 6.221-7.169 8.871-7.704 12.013-7.161 16.171-6.441 20.021-4.988 23.723-3.065 26.554-1.595 29.146 .252 31.72 2.13 34.675 4.287 37.174 6.932 39.628 9.596 40.929 11.009 41.851 12.776 42.899 14.412 43.28 15.007 43.512 15.702 44.247 15.983 45.999 12.224 45.656 8.583 43.548 5.086 42.391 3.167 40.806 1.596 39.073 .2 32.687-4.942 25.795-9.271 18.27-12.559 15.987-13.557 13.627-14.316 11.142-14.633 7.172-15.14 3.986-13.803 1.67-10.533-.375-7.646-1.144-4.448-.44-.948-.374-.616-.15-.315 0 0" fill="#238c8c"/>
<path transform="matrix(1,0,0,-1,209.8945,281.4909)" d="M0 0C-2.005 2.903-2.913 6.236-3.635 9.612-4.287 12.656-4.328 15.759-4.318 18.872-4.312 20.796-3.511 21.852-1.751 22.362 .286 22.954 2.287 23.699 4.352 24.159 11.246 25.695 18.205 26.093 25.207 24.985 26.423 24.792 27.612 24.416 28.799 24.072 29.732 23.802 30.205 23.161 30.39 22.166 30.962 19.085 30.984 15.981 30.714 12.891 30.372 8.989 29.47 5.203 27.751 1.65 27.562 1.261 27.286 .912 27.05 .544 25.998 1.038 25.744 2.18 25.1 3 22.18 6.713 18.719 9.325 13.697 9.044 13.167 9.015 12.631 9.076 12.105 9.023 11.585 8.972 11.035 8.919 10.567 8.711 7.55 7.368 4.739 5.754 2.924 2.826 2.416 2.006 1.81 1.234 1.159 .521 .896 .235 .394 .168 0 0" fill="#392f42"/>
<path transform="matrix(1,0,0,-1,209.8945,281.4909)" d="M0 0C.394 .168 .896 .235 1.159 .521 1.81 1.234 2.416 2.006 2.924 2.826 4.739 5.754 7.55 7.368 10.567 8.711 11.035 8.919 11.585 8.972 12.105 9.023 12.631 9.076 13.167 9.015 13.697 9.044 18.719 9.325 22.18 6.713 25.1 3 25.744 2.18 25.998 1.038 27.05 .544 25.653-2.715 23.383-5.261 20.428-7.139 15.914-10.007 11.258-10.03 6.683-7.292 3.758-5.542 1.494-3.104 0 0" fill="#453c54"/>
<path transform="matrix(1,0,0,-1,310.5205,248.90399)" d="M0 0C-.476 2.1-.627 4.227-1.56 6.178-2.479 8.098-3.496 9.938-4.812 11.633-6.401 13.678-8.442 14.954-10.882 15.677-11.76 15.937-12.613 15.908-13.469 15.522-15.314 14.689-16.328 12.681-15.801 10.701-15.295 8.803-14.402 7.074-13.343 5.428-11.906 3.197-10.56 .903-9.012-1.246-8.091-2.523-6.957-3.698-5.736-4.695-4.355-5.823-3.246-5.569-1.931-4.504-.443-3.301-.498-1.556 0 0M-41.111 22.014C-36.281 24.273-31.156 25.149-25.872 25.106-7.928 24.96 6.79 12.517 10.807-3.788 12.411-10.303 12.305-16.785 10.563-23.249 10.455-23.652 10.212-24.02 9.977-24.521 9.622-24.146 9.362-23.912 9.147-23.642 3.011-15.914-5.021-11.124-14.472-8.696-25.682-5.815-36.622-6.735-47.205-11.505-47.605-11.686-48.028-11.813-48.441-11.967-48.578-10.034-48.285-8.068-48.96-6.176-49.103-5.778-48.975-5.293-49.023-4.854-49.194-3.327-48.583-1.88-48.545-.399-48.495 1.569-48.095 3.456-47.622 5.328-46.273 10.666-44.287 15.755-41.498 20.52-41.247 20.946-41.234 21.512-41.111 22.014" fill="#453c54"/>
<path transform="matrix(1,0,0,-1,269.4092,226.8898)" d="M0 0C-.123-.502-.136-1.068-.387-1.495-3.176-6.259-5.162-11.348-6.511-16.686-6.983-18.558-7.384-20.445-7.434-22.414-7.472-23.894-8.083-25.341-7.912-26.869-7.863-27.307-7.991-27.792-7.849-28.19-7.174-30.083-7.467-32.048-7.33-33.981-7.846-34.309-8.348-34.663-8.88-34.963-13.328-37.475-17.213-40.654-20.418-44.647-20.691-44.989-21.003-45.302-21.306-45.619-21.362-45.677-21.467-45.688-21.705-45.784-21.995-44.662-22.331-43.57-22.556-42.456-25.984-25.467-17.257-7.59-.754-.252-.513-.145-.252-.083 0 0" fill="#3b3245"/>
<path transform="matrix(1,0,0,-1,310.5205,248.90399)" d="M0 0C-.498-1.556-.443-3.301-1.931-4.504-3.246-5.569-4.355-5.823-5.736-4.695-6.957-3.698-8.091-2.523-9.012-1.246-10.56 .903-11.906 3.197-13.343 5.428-14.402 7.074-15.295 8.803-15.801 10.701-16.328 12.681-15.314 14.689-13.469 15.522-12.613 15.908-11.76 15.937-10.882 15.677-8.442 14.954-6.401 13.678-4.812 11.633-3.496 9.938-2.479 8.098-1.56 6.178-.627 4.227-.476 2.1 0 0" fill="#6f667a"/>
<path transform="matrix(1,0,0,-1,188.5498,259.13929)" d="M0 0C-.047 .19-.061 .667-.274 1.024-.903 2.074-1.466 3.229-2.329 4.057-3.258 4.947-4.448 5.614-5.617 6.191-6.742 6.747-7.63 6.079-8.371 5.23-9.104 4.391-9.16 3.934-8.617 2.839-7.44 .467-5.61-1.257-3.239-2.375-1.548-3.171 .037-2.087 0 0M-28.283 9.79C-21.276 12.592-14.241 12.416-7.327 9.633 2.133 5.825 7.967-1.235 10.506-11.063 10.631-11.548 10.585-12.075 10.638-12.867 9.919-12.379 9.409-12.063 8.931-11.702 1.226-5.883-7.486-3.533-17.041-4.353-22.581-4.827-27.779-6.535-32.579-9.388-33.26-9.792-33.958-10.166-34.647-10.555-34.787-7.061-33.98-3.708-32.889-.447-31.998 2.22-31.136 4.931-29.425 7.256-28.965 7.882-28.571 8.653-29.273 9.428L-29.091 9.462C-29.091 9.462-28.98 9.313-28.979 9.311-28.559 9.197-28.388 9.447-28.283 9.79" fill="#4b4159"/>
<path transform="matrix(1,0,0,-1,159.2764,249.7116)" d="M0 0C.703-.774 .309-1.546-.152-2.172-1.862-4.497-2.724-7.208-3.616-9.875-4.707-13.136-5.513-16.488-5.374-19.982-5.707-20.271-6.023-20.581-6.376-20.842-10.494-23.886-13.822-27.628-16.366-32.071-16.614-32.506-16.701-33.119-17.386-33.153-20.714-20.557-13.539-5.167 0 0" fill="#3b3245"/>
<path transform="matrix(1,0,0,-1,160.2671,249.3493)" d="M0 0C-.105-.343-.276-.593-.697-.479-.465-.317-.232-.159 0 0" fill="#3b3245"/>
<path transform="matrix(1,0,0,-1,188.5498,259.13929)" d="M0 0C.037-2.087-1.548-3.171-3.239-2.375-5.61-1.257-7.44 .467-8.617 2.839-9.16 3.934-9.104 4.391-8.371 5.23-7.63 6.079-6.742 6.747-5.617 6.191-4.448 5.614-3.258 4.947-2.329 4.057-1.466 3.229-.903 2.074-.274 1.024-.061 .667-.047 .19 0 0" fill="#6f667a"/>
</g>
</g>
</svg>
